%TF.GenerationSoftware,KiCad,Pcbnew,7.0.8*%
%TF.CreationDate,2024-03-19T09:57:53+01:00*%
%TF.ProjectId,CO2Y-brkout,434f3259-2d62-4726-9b6f-75742e6b6963,rev?*%
%TF.SameCoordinates,Original*%
%TF.FileFunction,Legend,Top*%
%TF.FilePolarity,Positive*%
%FSLAX46Y46*%
G04 Gerber Fmt 4.6, Leading zero omitted, Abs format (unit mm)*
G04 Created by KiCad (PCBNEW 7.0.8) date 2024-03-19 09:57:53*
%MOMM*%
%LPD*%
G01*
G04 APERTURE LIST*
%ADD10C,0.150000*%
%ADD11C,0.152400*%
%ADD12C,0.120000*%
G04 APERTURE END LIST*
D10*
G36*
X136880528Y-79259216D02*
G01*
X136881820Y-79248861D01*
X136883537Y-79239053D01*
X136884192Y-79235524D01*
X136886060Y-79225190D01*
X136887682Y-79215249D01*
X136888998Y-79205460D01*
X136889077Y-79204750D01*
X136895959Y-79197401D01*
X136902835Y-79189198D01*
X136908957Y-79181456D01*
X136913745Y-79175196D01*
X136923553Y-79173574D01*
X136931819Y-79171044D01*
X136941551Y-79168064D01*
X136948428Y-79166892D01*
X136956901Y-79172709D01*
X136958442Y-79173975D01*
X136968900Y-79174408D01*
X136979775Y-79175406D01*
X136989676Y-79176583D01*
X136997521Y-79177639D01*
X137007819Y-79178971D01*
X137018037Y-79180203D01*
X137027807Y-79181058D01*
X137038245Y-79180789D01*
X137048000Y-79179824D01*
X137057624Y-79177350D01*
X137061024Y-79175441D01*
X137060291Y-79175441D01*
X137061024Y-79173975D01*
X137066642Y-79173975D01*
X137076546Y-79175192D01*
X137086064Y-79178318D01*
X137094943Y-79182630D01*
X137104336Y-79188416D01*
X137105720Y-79189362D01*
X137113078Y-79196354D01*
X137118965Y-79205927D01*
X137123602Y-79216701D01*
X137127177Y-79227489D01*
X137129849Y-79237305D01*
X137131122Y-79242607D01*
X137130611Y-79253465D01*
X137130787Y-79263937D01*
X137131366Y-79274402D01*
X137132179Y-79284339D01*
X137132343Y-79286083D01*
X137138396Y-79294704D01*
X137145403Y-79302174D01*
X137153363Y-79309805D01*
X137161374Y-79317029D01*
X137166781Y-79321742D01*
X137175710Y-79329200D01*
X137183721Y-79335395D01*
X137192121Y-79341159D01*
X137201265Y-79346014D01*
X137208058Y-79347632D01*
X137217776Y-79344659D01*
X137227086Y-79339672D01*
X137237001Y-79333481D01*
X137246627Y-79326971D01*
X137252999Y-79322475D01*
X137261292Y-79316403D01*
X137270423Y-79309425D01*
X137278183Y-79303127D01*
X137285685Y-79296467D01*
X137292616Y-79289109D01*
X137294764Y-79286083D01*
X137297122Y-79276071D01*
X137299435Y-79265775D01*
X137301630Y-79255869D01*
X137303313Y-79248225D01*
X137308392Y-79239861D01*
X137311617Y-79234303D01*
X137311131Y-79223446D01*
X137311359Y-79212974D01*
X137312011Y-79202509D01*
X137312904Y-79192571D01*
X137313083Y-79190828D01*
X137316695Y-79181371D01*
X137320510Y-79170554D01*
X137323708Y-79160921D01*
X137327036Y-79150419D01*
X137330493Y-79139046D01*
X137334081Y-79126804D01*
X137336856Y-79117051D01*
X137339705Y-79106808D01*
X137340855Y-79094738D01*
X137342198Y-79081606D01*
X137343734Y-79067415D01*
X137344866Y-79057365D01*
X137346083Y-79046843D01*
X137347386Y-79035850D01*
X137348776Y-79024386D01*
X137350251Y-79012451D01*
X137351811Y-79000044D01*
X137353458Y-78987166D01*
X137355191Y-78973816D01*
X137357009Y-78959996D01*
X137358914Y-78945704D01*
X137360904Y-78930940D01*
X137361931Y-78923382D01*
X137366836Y-78914430D01*
X137371359Y-78904592D01*
X137375441Y-78894531D01*
X137379033Y-78884828D01*
X137380249Y-78881372D01*
X137380600Y-78871267D01*
X137381484Y-78860871D01*
X137382669Y-78850808D01*
X137384249Y-78839680D01*
X137385867Y-78829593D01*
X137391981Y-78820977D01*
X137397600Y-78812670D01*
X137403697Y-78803337D01*
X137410270Y-78792978D01*
X137415873Y-78783952D01*
X137421780Y-78774270D01*
X137426411Y-78766578D01*
X137426778Y-78756320D01*
X137427533Y-78746382D01*
X137427877Y-78742642D01*
X137435936Y-78733679D01*
X137443328Y-78725581D01*
X137451560Y-78716658D01*
X137458285Y-78709425D01*
X137465482Y-78701729D01*
X137473151Y-78693568D01*
X137481293Y-78684945D01*
X137489907Y-78675857D01*
X137498993Y-78666306D01*
X137502127Y-78663019D01*
X137512362Y-78661345D01*
X137521723Y-78657485D01*
X137530791Y-78652173D01*
X137535588Y-78648853D01*
X137543971Y-78643031D01*
X137552254Y-78637498D01*
X137561289Y-78631945D01*
X137566607Y-78629314D01*
X137575583Y-78625440D01*
X137585658Y-78621070D01*
X137595916Y-78616613D01*
X137606281Y-78615285D01*
X137617529Y-78612946D01*
X137628789Y-78610066D01*
X137639314Y-78607050D01*
X137650876Y-78603474D01*
X137653313Y-78602691D01*
X137730249Y-78602691D01*
X137734401Y-78608309D01*
X137745528Y-78609207D01*
X137756107Y-78610386D01*
X137767647Y-78611943D01*
X137777999Y-78613529D01*
X137789018Y-78615378D01*
X137795951Y-78616613D01*
X137805381Y-78621582D01*
X137814834Y-78627654D01*
X137823932Y-78634244D01*
X137832344Y-78640842D01*
X137835274Y-78643235D01*
X137845349Y-78646105D01*
X137855229Y-78650101D01*
X137858965Y-78651784D01*
X137868225Y-78657945D01*
X137877625Y-78664246D01*
X137885794Y-78669759D01*
X137894066Y-78675374D01*
X137902441Y-78681093D01*
X137910420Y-78686915D01*
X137918602Y-78693837D01*
X137925567Y-78700900D01*
X137932040Y-78709143D01*
X137934681Y-78713333D01*
X137941450Y-78720424D01*
X137948324Y-78727944D01*
X137952755Y-78732872D01*
X137956601Y-78742192D01*
X137960208Y-78751796D01*
X137963932Y-78762215D01*
X137965455Y-78766578D01*
X137972313Y-78773853D01*
X137976690Y-78777813D01*
X137980526Y-78787215D01*
X137984529Y-78797809D01*
X137988353Y-78808158D01*
X137992078Y-78818357D01*
X137992078Y-78926069D01*
X137988899Y-78935579D01*
X137987926Y-78937304D01*
X137983838Y-78946333D01*
X137983773Y-78947073D01*
X137974554Y-78953376D01*
X137965730Y-78959297D01*
X137957442Y-78964642D01*
X137952266Y-78967590D01*
X137942526Y-78969114D01*
X137932547Y-78969496D01*
X137926376Y-78969544D01*
X137916272Y-78969428D01*
X137905985Y-78968913D01*
X137899754Y-78968078D01*
X137896823Y-78962705D01*
X137805965Y-78962705D01*
X137799568Y-78954284D01*
X137793504Y-78945660D01*
X137787775Y-78936834D01*
X137782380Y-78927805D01*
X137777319Y-78918573D01*
X137772591Y-78909139D01*
X137770794Y-78905308D01*
X137771648Y-78895238D01*
X137770922Y-78885430D01*
X137769261Y-78875571D01*
X137766642Y-78864519D01*
X137758540Y-78855017D01*
X137750354Y-78846781D01*
X137742084Y-78839813D01*
X137733730Y-78834111D01*
X137723169Y-78828766D01*
X137712478Y-78825400D01*
X137701655Y-78824015D01*
X137699475Y-78823975D01*
X137689125Y-78824235D01*
X137678678Y-78825289D01*
X137669233Y-78827872D01*
X137668700Y-78828127D01*
X137659641Y-78834106D01*
X137651424Y-78839951D01*
X137641776Y-78847538D01*
X137633625Y-78854888D01*
X137625539Y-78863743D01*
X137619790Y-78872228D01*
X137615978Y-78881923D01*
X137615455Y-78885036D01*
X137613918Y-78894787D01*
X137611505Y-78905724D01*
X137608826Y-78915743D01*
X137605538Y-78926585D01*
X137601641Y-78938249D01*
X137598087Y-78948174D01*
X137597137Y-78950737D01*
X137593511Y-78960694D01*
X137589602Y-78972120D01*
X137586385Y-78982413D01*
X137583436Y-78993270D01*
X137581256Y-79003874D01*
X137580528Y-79010088D01*
X137579179Y-79020724D01*
X137577237Y-79032665D01*
X137574702Y-79045912D01*
X137571575Y-79060463D01*
X137569162Y-79070889D01*
X137566484Y-79081896D01*
X137563544Y-79093482D01*
X137560340Y-79105648D01*
X137556873Y-79118395D01*
X137553143Y-79131721D01*
X137549149Y-79145628D01*
X137544892Y-79160114D01*
X137540372Y-79175181D01*
X137535588Y-79190828D01*
X137532699Y-79201151D01*
X137530558Y-79211804D01*
X137529010Y-79221954D01*
X137527677Y-79233261D01*
X137526765Y-79243140D01*
X137525990Y-79253759D01*
X137525818Y-79256529D01*
X137525120Y-79268608D01*
X137524368Y-79279686D01*
X137523563Y-79289765D01*
X137522481Y-79300958D01*
X137521073Y-79312326D01*
X137519278Y-79322747D01*
X137518735Y-79325161D01*
X137516548Y-79335851D01*
X137514140Y-79346182D01*
X137511511Y-79356154D01*
X137508660Y-79365767D01*
X137504785Y-79377279D01*
X137500565Y-79388230D01*
X137495998Y-79398621D01*
X137495043Y-79400632D01*
X137489575Y-79411192D01*
X137483671Y-79421134D01*
X137477332Y-79430457D01*
X137470558Y-79439162D01*
X137463349Y-79447248D01*
X137455705Y-79454717D01*
X137447626Y-79461567D01*
X137439112Y-79467799D01*
X137430643Y-79475656D01*
X137422680Y-79482872D01*
X137413894Y-79490697D01*
X137406273Y-79497395D01*
X137398125Y-79504481D01*
X137389450Y-79511958D01*
X137380249Y-79519823D01*
X137370918Y-79526703D01*
X137361397Y-79533452D01*
X137351684Y-79540070D01*
X137341781Y-79546556D01*
X137331687Y-79552911D01*
X137321402Y-79559136D01*
X137317235Y-79561588D01*
X137307358Y-79563104D01*
X137295742Y-79565309D01*
X137284937Y-79567860D01*
X137274943Y-79570756D01*
X137264021Y-79574689D01*
X137254267Y-79579120D01*
X137252755Y-79579907D01*
X137188274Y-79579907D01*
X137185588Y-79577220D01*
X137185588Y-79574289D01*
X137175788Y-79573593D01*
X137165166Y-79572419D01*
X137153721Y-79570769D01*
X137143972Y-79569105D01*
X137133696Y-79567135D01*
X137122894Y-79564861D01*
X137111566Y-79562281D01*
X137108651Y-79561588D01*
X137099398Y-79558079D01*
X137088856Y-79553780D01*
X137079088Y-79549594D01*
X137068425Y-79544860D01*
X137059250Y-79540677D01*
X137049503Y-79536143D01*
X137044415Y-79533745D01*
X137036656Y-79526343D01*
X137028970Y-79519362D01*
X137020174Y-79511641D01*
X137012339Y-79504932D01*
X137003795Y-79497750D01*
X136994540Y-79490094D01*
X136984576Y-79481965D01*
X136977237Y-79475004D01*
X136969073Y-79469062D01*
X136959903Y-79463262D01*
X136956000Y-79460960D01*
X136952471Y-79451757D01*
X136947289Y-79442741D01*
X136941709Y-79434233D01*
X136938903Y-79430186D01*
X136931570Y-79423627D01*
X136924441Y-79415643D01*
X136917683Y-79406892D01*
X136913257Y-79400632D01*
X136911230Y-79390379D01*
X136909158Y-79379898D01*
X136907195Y-79369969D01*
X136905017Y-79358956D01*
X136903120Y-79349364D01*
X136901086Y-79339077D01*
X136900556Y-79336397D01*
X136893682Y-79328851D01*
X136889077Y-79321009D01*
X136886172Y-79309832D01*
X136883868Y-79298466D01*
X136882165Y-79286912D01*
X136881205Y-79277138D01*
X136880662Y-79267234D01*
X136880528Y-79259216D01*
G37*
G36*
X136880528Y-78989327D02*
G01*
X136880528Y-78916299D01*
X136883697Y-78906759D01*
X136888195Y-78897252D01*
X136890542Y-78892607D01*
X136895460Y-78883809D01*
X136900198Y-78875150D01*
X136905102Y-78865781D01*
X136907639Y-78860367D01*
X136909730Y-78849786D01*
X136912158Y-78840034D01*
X136914797Y-78830614D01*
X136917951Y-78820216D01*
X136920340Y-78812740D01*
X136927946Y-78805649D01*
X136934752Y-78798129D01*
X136938903Y-78793200D01*
X136942986Y-78784189D01*
X136947640Y-78774244D01*
X136951901Y-78765306D01*
X136956000Y-78756808D01*
X136963388Y-78750397D01*
X136971461Y-78744805D01*
X136979691Y-78739467D01*
X136987744Y-78733567D01*
X136995384Y-78725912D01*
X137000292Y-78717315D01*
X137001429Y-78712112D01*
X137009801Y-78706037D01*
X137017052Y-78698290D01*
X137022922Y-78691107D01*
X137029444Y-78683207D01*
X137037908Y-78674814D01*
X137046718Y-78668066D01*
X137055873Y-78662964D01*
X137065375Y-78659508D01*
X137075222Y-78657698D01*
X137081296Y-78657401D01*
X137091240Y-78658617D01*
X137100173Y-78663361D01*
X137100591Y-78663752D01*
X137107874Y-78670518D01*
X137112559Y-78674254D01*
X137120284Y-78681653D01*
X137129260Y-78689958D01*
X137137343Y-78697255D01*
X137146227Y-78705132D01*
X137155913Y-78713589D01*
X137163703Y-78720312D01*
X137171945Y-78727362D01*
X137180636Y-78734738D01*
X137183634Y-78737269D01*
X137192304Y-78742459D01*
X137200571Y-78747714D01*
X137203662Y-78749725D01*
X137204903Y-78759595D01*
X137207272Y-78769383D01*
X137208058Y-78772196D01*
X137210588Y-78782362D01*
X137212174Y-78792061D01*
X137212210Y-78793200D01*
X137212004Y-78803573D01*
X137211088Y-78813770D01*
X137210745Y-78815671D01*
X137202897Y-78824271D01*
X137194808Y-78833867D01*
X137186301Y-78844102D01*
X137178734Y-78853271D01*
X137170150Y-78863720D01*
X137163862Y-78871396D01*
X137157121Y-78879641D01*
X137149928Y-78888455D01*
X137141742Y-78898221D01*
X137134648Y-78907247D01*
X137128645Y-78915532D01*
X137122676Y-78924847D01*
X137117764Y-78934499D01*
X137115036Y-78944776D01*
X137115002Y-78945852D01*
X137119772Y-78954576D01*
X137122817Y-78957820D01*
X137129343Y-78965606D01*
X137130633Y-78969544D01*
X137125870Y-78979069D01*
X137121629Y-78988938D01*
X137117071Y-78999786D01*
X137112754Y-79010182D01*
X137111582Y-79013019D01*
X137101965Y-79017129D01*
X137092692Y-79022076D01*
X137083366Y-79027711D01*
X137082273Y-79028406D01*
X136921561Y-79028406D01*
X136914088Y-79021277D01*
X136907013Y-79014534D01*
X136899319Y-79007206D01*
X136891007Y-78999295D01*
X136883608Y-78992256D01*
X136880528Y-78989327D01*
G37*
G36*
X137677737Y-79390863D02*
G01*
X137677881Y-79380399D01*
X137678958Y-79371323D01*
X137682516Y-79361610D01*
X137686973Y-79352204D01*
X137692102Y-79342739D01*
X137695078Y-79337618D01*
X137703848Y-79331390D01*
X137710876Y-79323833D01*
X137717448Y-79315041D01*
X137719991Y-79311240D01*
X137727872Y-79303157D01*
X137734783Y-79295028D01*
X137740725Y-79286853D01*
X137746789Y-79276571D01*
X137751339Y-79266217D01*
X137754374Y-79255791D01*
X137755895Y-79245294D01*
X137755528Y-79234379D01*
X137755809Y-79222951D01*
X137756496Y-79211759D01*
X137757383Y-79201450D01*
X137758557Y-79190245D01*
X137758826Y-79187897D01*
X137763926Y-79179191D01*
X137770246Y-79171628D01*
X137777579Y-79164158D01*
X137785204Y-79157122D01*
X137960326Y-79157122D01*
X137970030Y-79160629D01*
X137978391Y-79166586D01*
X137986043Y-79173222D01*
X137988414Y-79175441D01*
X137995009Y-79183512D01*
X138001603Y-79191240D01*
X138006000Y-79196201D01*
X138006000Y-79271916D01*
X138000138Y-79277534D01*
X137994803Y-79288563D01*
X137990218Y-79298760D01*
X137985350Y-79310179D01*
X137981514Y-79319544D01*
X137977519Y-79329596D01*
X137973365Y-79340335D01*
X137969053Y-79351761D01*
X137964581Y-79363874D01*
X137959951Y-79376674D01*
X137958372Y-79381093D01*
X137948726Y-79384119D01*
X137943473Y-79390863D01*
X137952919Y-79393610D01*
X137954220Y-79393794D01*
X137947823Y-79402216D01*
X137941427Y-79411535D01*
X137935267Y-79420729D01*
X137931750Y-79426034D01*
X137923884Y-79433070D01*
X137915988Y-79440803D01*
X137908939Y-79448046D01*
X137903418Y-79453877D01*
X137893648Y-79455343D01*
X137888274Y-79464013D01*
X137882962Y-79472600D01*
X137880947Y-79475859D01*
X137874593Y-79484109D01*
X137867514Y-79491674D01*
X137859958Y-79498958D01*
X137852611Y-79505593D01*
X137844311Y-79512740D01*
X137834358Y-79515854D01*
X137824203Y-79516856D01*
X137821596Y-79516892D01*
X137812922Y-79521560D01*
X137810361Y-79528127D01*
X137801112Y-79524964D01*
X137791936Y-79521507D01*
X137787646Y-79519823D01*
X137779785Y-79513686D01*
X137771428Y-79507465D01*
X137763168Y-79501500D01*
X137753894Y-79494952D01*
X137745392Y-79489048D01*
X137740212Y-79480340D01*
X137731846Y-79475074D01*
X137731226Y-79474882D01*
X137726099Y-79466228D01*
X137717304Y-79460960D01*
X137715060Y-79451130D01*
X137714374Y-79449725D01*
X137704761Y-79447406D01*
X137695030Y-79443261D01*
X137688972Y-79439956D01*
X137685154Y-79429672D01*
X137682126Y-79419886D01*
X137679591Y-79409098D01*
X137678132Y-79398989D01*
X137677737Y-79390863D01*
G37*
G36*
X136880528Y-78103703D02*
G01*
X136880709Y-78093840D01*
X136881375Y-78084026D01*
X136882953Y-78074087D01*
X136885658Y-78066578D01*
X136892618Y-78058701D01*
X136900923Y-78052229D01*
X136909074Y-78046733D01*
X136918875Y-78040688D01*
X136986774Y-78040688D01*
X136994590Y-78044352D01*
X137004193Y-78047437D01*
X137008023Y-78047771D01*
X137017674Y-78045841D01*
X137028245Y-78042903D01*
X137034890Y-78040933D01*
X137045087Y-78037834D01*
X137054571Y-78035205D01*
X137061757Y-78033849D01*
X137070305Y-78039467D01*
X137081872Y-78038315D01*
X137092759Y-78039286D01*
X137102967Y-78042379D01*
X137112494Y-78047596D01*
X137121342Y-78054935D01*
X137127931Y-78062335D01*
X137132587Y-78068776D01*
X137137129Y-78082636D01*
X137140778Y-78091806D01*
X137144922Y-78100922D01*
X137149563Y-78109981D01*
X137154700Y-78118986D01*
X137160332Y-78127935D01*
X137166461Y-78136829D01*
X137173087Y-78145668D01*
X137180208Y-78154451D01*
X137187825Y-78163179D01*
X137195939Y-78171851D01*
X137204548Y-78180468D01*
X137213654Y-78189030D01*
X137223256Y-78197537D01*
X137233353Y-78205988D01*
X137238588Y-78210193D01*
X137248633Y-78214864D01*
X137258433Y-78219501D01*
X137267440Y-78223811D01*
X137277209Y-78228527D01*
X137287742Y-78233648D01*
X137296718Y-78238036D01*
X137303510Y-78245490D01*
X137309419Y-78250737D01*
X137319719Y-78251327D01*
X137330122Y-78252794D01*
X137333599Y-78253424D01*
X137343326Y-78256007D01*
X137353319Y-78258031D01*
X137364439Y-78259993D01*
X137367549Y-78260507D01*
X137373166Y-78266124D01*
X137487960Y-78266124D01*
X137492113Y-78260507D01*
X137502382Y-78259766D01*
X137514221Y-78258648D01*
X137524951Y-78257314D01*
X137536362Y-78255431D01*
X137546177Y-78253239D01*
X137554394Y-78250737D01*
X137560964Y-78242950D01*
X137565630Y-78238036D01*
X137574988Y-78235111D01*
X137585538Y-78231251D01*
X137595530Y-78227198D01*
X137604526Y-78223296D01*
X137614130Y-78218917D01*
X137618142Y-78217032D01*
X137627055Y-78209902D01*
X137635925Y-78203422D01*
X137646108Y-78196454D01*
X137655198Y-78190527D01*
X137665128Y-78184288D01*
X137675898Y-78177735D01*
X137684526Y-78172615D01*
X137687507Y-78170870D01*
X137693515Y-78161539D01*
X137698744Y-78152241D01*
X137704176Y-78141561D01*
X137708668Y-78132020D01*
X137713290Y-78121594D01*
X137718041Y-78110282D01*
X137721690Y-78101218D01*
X137722922Y-78098085D01*
X137730005Y-78090300D01*
X137737088Y-78082332D01*
X137744171Y-78074180D01*
X137751254Y-78065845D01*
X137759409Y-78058803D01*
X137767844Y-78053490D01*
X137777827Y-78049536D01*
X137788177Y-78047842D01*
X137790822Y-78047771D01*
X137805480Y-78047771D01*
X137815307Y-78047771D01*
X137825178Y-78047771D01*
X137835092Y-78047771D01*
X137845051Y-78047771D01*
X137855053Y-78047771D01*
X137865100Y-78047771D01*
X137875190Y-78047771D01*
X137885324Y-78047771D01*
X137895502Y-78047771D01*
X137905724Y-78047771D01*
X137915990Y-78047771D01*
X137926300Y-78047771D01*
X137936653Y-78047771D01*
X137947051Y-78047771D01*
X137952266Y-78047771D01*
X137962553Y-78050270D01*
X137973145Y-78052157D01*
X137980598Y-78053389D01*
X137987507Y-78060906D01*
X137994952Y-78067886D01*
X137995986Y-78068776D01*
X138000794Y-78077405D01*
X138001847Y-78079279D01*
X138005509Y-78088375D01*
X138006000Y-78092468D01*
X137998916Y-78099551D01*
X137998184Y-78109992D01*
X137996672Y-78120628D01*
X137995986Y-78124708D01*
X137987803Y-78132005D01*
X137981045Y-78139942D01*
X137974660Y-78149329D01*
X137969485Y-78158528D01*
X137966188Y-78165252D01*
X137961142Y-78175945D01*
X137956537Y-78185278D01*
X137951594Y-78194683D01*
X137946631Y-78203182D01*
X137941519Y-78210193D01*
X137934352Y-78218207D01*
X137927264Y-78226562D01*
X137920736Y-78234449D01*
X137916607Y-78239502D01*
X137912184Y-78249769D01*
X137907994Y-78258919D01*
X137903224Y-78268900D01*
X137897873Y-78279714D01*
X137891943Y-78291359D01*
X137887114Y-78300639D01*
X137881959Y-78310387D01*
X137876478Y-78320603D01*
X137872643Y-78327674D01*
X137863955Y-78334408D01*
X137854887Y-78340453D01*
X137844891Y-78346908D01*
X137835297Y-78352999D01*
X137824283Y-78359914D01*
X137818177Y-78367546D01*
X137811445Y-78375961D01*
X137808651Y-78379453D01*
X137799091Y-78382204D01*
X137798637Y-78382384D01*
X137789407Y-78389176D01*
X137780820Y-78395597D01*
X137771165Y-78402895D01*
X137763222Y-78408945D01*
X137754678Y-78415489D01*
X137745534Y-78422527D01*
X137735788Y-78430058D01*
X137725441Y-78438083D01*
X137714493Y-78446602D01*
X137710710Y-78449551D01*
X137702833Y-78455718D01*
X137693369Y-78461519D01*
X137683785Y-78466294D01*
X137674603Y-78470164D01*
X137669677Y-78472021D01*
X137659669Y-78473178D01*
X137652580Y-78474708D01*
X137643902Y-78480776D01*
X137634886Y-78486987D01*
X137626505Y-78492711D01*
X137624248Y-78494247D01*
X137614356Y-78495591D01*
X137604699Y-78497768D01*
X137594107Y-78500880D01*
X137584284Y-78504292D01*
X137577353Y-78506948D01*
X137504813Y-78506948D01*
X137500661Y-78508413D01*
X137503348Y-78514031D01*
X137356314Y-78514031D01*
X137352161Y-78511100D01*
X137352161Y-78506948D01*
X137279377Y-78506948D01*
X137275225Y-78504261D01*
X137275225Y-78499865D01*
X137264218Y-78499239D01*
X137254250Y-78498124D01*
X137243657Y-78496140D01*
X137233186Y-78492936D01*
X137223710Y-78488101D01*
X137222713Y-78487408D01*
X137213657Y-78482459D01*
X137203585Y-78476769D01*
X137192499Y-78470338D01*
X137183518Y-78465029D01*
X137173966Y-78459304D01*
X137163843Y-78453163D01*
X137153149Y-78446605D01*
X137141884Y-78439630D01*
X137130048Y-78432239D01*
X137121840Y-78427080D01*
X137114696Y-78419381D01*
X137107068Y-78412098D01*
X137102057Y-78407541D01*
X137092159Y-78405122D01*
X137084960Y-78401923D01*
X137078438Y-78394026D01*
X137071149Y-78385741D01*
X137063619Y-78377514D01*
X137056309Y-78369738D01*
X137053697Y-78366997D01*
X137043683Y-78365531D01*
X137038444Y-78356834D01*
X137032887Y-78347911D01*
X137032448Y-78347213D01*
X137023730Y-78339745D01*
X137015310Y-78332171D01*
X137007623Y-78325034D01*
X136999329Y-78317145D01*
X136992255Y-78310293D01*
X136984793Y-78302960D01*
X136982866Y-78301051D01*
X136980342Y-78291259D01*
X136977004Y-78284198D01*
X136969803Y-78276298D01*
X136963054Y-78267665D01*
X136957023Y-78259160D01*
X136950623Y-78249462D01*
X136945236Y-78240844D01*
X136939613Y-78231464D01*
X136938170Y-78229000D01*
X136932384Y-78219405D01*
X136926751Y-78210529D01*
X136921271Y-78202369D01*
X136914636Y-78193179D01*
X136908239Y-78185110D01*
X136900877Y-78176907D01*
X136896160Y-78172335D01*
X136894891Y-78162166D01*
X136892734Y-78152268D01*
X136889688Y-78142640D01*
X136887612Y-78137408D01*
X136884188Y-78127929D01*
X136881697Y-78117396D01*
X136880591Y-78106863D01*
X136880528Y-78103703D01*
G37*
G36*
X136880528Y-77763473D02*
G01*
X136881363Y-77752820D01*
X136883542Y-77743029D01*
X136887073Y-77733045D01*
X136889077Y-77728546D01*
X136895574Y-77720422D01*
X136902548Y-77711010D01*
X136908471Y-77702553D01*
X136914700Y-77693272D01*
X136921233Y-77683166D01*
X136928072Y-77672236D01*
X136933401Y-77663498D01*
X136938903Y-77654296D01*
X136941298Y-77644756D01*
X136944427Y-77634681D01*
X136948019Y-77624472D01*
X136948916Y-77622056D01*
X136956244Y-77615416D01*
X136960152Y-77613019D01*
X136968321Y-77607449D01*
X136970166Y-77605203D01*
X136973325Y-77595403D01*
X136976958Y-77586250D01*
X136981094Y-77576816D01*
X136982866Y-77572963D01*
X136990761Y-77566100D01*
X136998723Y-77558767D01*
X137005851Y-77551995D01*
X137011443Y-77546585D01*
X137017167Y-77538250D01*
X137022861Y-77530099D01*
X137028524Y-77522130D01*
X137034157Y-77514345D01*
X137041505Y-77506253D01*
X137049771Y-77498353D01*
X137058655Y-77491633D01*
X137067806Y-77487244D01*
X137073969Y-77486257D01*
X137084590Y-77488131D01*
X137094241Y-77492180D01*
X137103480Y-77497455D01*
X137111862Y-77503123D01*
X137120863Y-77509949D01*
X137129577Y-77516983D01*
X137137847Y-77524192D01*
X137144998Y-77531243D01*
X137149440Y-77536571D01*
X137156481Y-77545868D01*
X137164049Y-77555561D01*
X137172143Y-77565651D01*
X137178559Y-77573479D01*
X137185272Y-77581531D01*
X137192281Y-77589805D01*
X137199586Y-77598303D01*
X137207187Y-77607025D01*
X137215085Y-77615969D01*
X137220515Y-77622056D01*
X137221658Y-77632339D01*
X137221967Y-77642918D01*
X137221980Y-77645992D01*
X137220658Y-77656768D01*
X137216691Y-77667115D01*
X137211364Y-77675409D01*
X137204202Y-77683406D01*
X137195202Y-77691104D01*
X137186681Y-77697048D01*
X137184367Y-77698504D01*
X137175429Y-77704389D01*
X137167544Y-77710564D01*
X137159170Y-77718690D01*
X137152441Y-77727269D01*
X137147359Y-77736302D01*
X137143921Y-77745788D01*
X137142357Y-77753703D01*
X137136598Y-77762230D01*
X137130490Y-77770524D01*
X137123300Y-77779729D01*
X137116482Y-77788095D01*
X137108913Y-77797093D01*
X137104011Y-77802796D01*
X137093936Y-77804628D01*
X137083821Y-77806595D01*
X137078365Y-77807681D01*
X137068147Y-77809484D01*
X137058008Y-77810936D01*
X137055406Y-77811100D01*
X137045283Y-77811100D01*
X137034910Y-77811100D01*
X137028540Y-77811100D01*
X137025609Y-77804261D01*
X136941589Y-77804261D01*
X136935972Y-77807681D01*
X136928889Y-77811100D01*
X136918811Y-77808155D01*
X136909838Y-77804261D01*
X136900552Y-77800055D01*
X136891065Y-77796308D01*
X136889077Y-77795713D01*
X136885337Y-77786370D01*
X136882407Y-77776882D01*
X136880662Y-77766755D01*
X136880528Y-77763473D01*
G37*
G36*
X137661617Y-77645992D02*
G01*
X137662502Y-77634986D01*
X137665159Y-77624437D01*
X137669586Y-77614347D01*
X137674912Y-77605894D01*
X137675783Y-77604715D01*
X137681874Y-77596357D01*
X137687965Y-77587952D01*
X137694056Y-77579500D01*
X137700146Y-77571002D01*
X137703627Y-77566124D01*
X137710632Y-77558102D01*
X137718520Y-77548994D01*
X137725466Y-77540926D01*
X137732976Y-77532164D01*
X137741051Y-77522707D01*
X137747478Y-77515159D01*
X137754223Y-77507220D01*
X137761286Y-77498890D01*
X137763711Y-77496027D01*
X137772339Y-77489823D01*
X137781372Y-77485087D01*
X137789112Y-77481372D01*
X137799095Y-77476777D01*
X137808397Y-77472880D01*
X137815490Y-77470870D01*
X137825336Y-77474018D01*
X137834499Y-77479969D01*
X137842189Y-77486108D01*
X137850833Y-77493822D01*
X137858435Y-77501126D01*
X137860431Y-77503110D01*
X137861896Y-77512879D01*
X137870559Y-77518093D01*
X137878436Y-77524413D01*
X137882901Y-77529732D01*
X137885585Y-77539970D01*
X137888589Y-77549518D01*
X137891943Y-77559326D01*
X137895357Y-77568811D01*
X137903128Y-77576618D01*
X137910421Y-77585022D01*
X137916944Y-77593232D01*
X137923873Y-77602539D01*
X137929708Y-77610774D01*
X137935803Y-77619712D01*
X137937367Y-77622056D01*
X137940983Y-77631383D01*
X137943769Y-77640863D01*
X137946441Y-77651365D01*
X137947137Y-77654296D01*
X137955141Y-77660347D01*
X137959838Y-77665531D01*
X137965556Y-77674424D01*
X137971172Y-77683334D01*
X137976685Y-77692262D01*
X137982094Y-77701206D01*
X137987401Y-77710168D01*
X137989147Y-77713159D01*
X137994002Y-77721764D01*
X137998742Y-77731839D01*
X138002297Y-77741640D01*
X138004666Y-77751165D01*
X138005934Y-77761931D01*
X138006000Y-77764938D01*
X138005193Y-77776153D01*
X138002774Y-77786503D01*
X137998742Y-77795988D01*
X137993097Y-77804608D01*
X137989147Y-77809146D01*
X137981517Y-77815903D01*
X137972167Y-77821593D01*
X137962145Y-77825116D01*
X137951452Y-77826470D01*
X137950068Y-77826487D01*
X137940322Y-77824323D01*
X137931073Y-77820069D01*
X137930284Y-77819648D01*
X137856034Y-77819648D01*
X137851882Y-77816718D01*
X137851882Y-77812565D01*
X137841750Y-77811380D01*
X137831741Y-77811101D01*
X137830877Y-77811100D01*
X137821021Y-77812650D01*
X137811512Y-77815226D01*
X137810605Y-77815496D01*
X137801091Y-77818027D01*
X137791799Y-77819648D01*
X137781152Y-77818587D01*
X137771043Y-77815403D01*
X137761470Y-77810096D01*
X137752433Y-77802666D01*
X137745591Y-77795194D01*
X137739092Y-77786363D01*
X137732936Y-77776173D01*
X137728769Y-77767121D01*
X137724571Y-77758038D01*
X137720342Y-77748925D01*
X137716083Y-77739781D01*
X137711064Y-77729942D01*
X137705625Y-77721155D01*
X137698893Y-77712400D01*
X137691611Y-77705019D01*
X137689705Y-77703389D01*
X137683805Y-77694691D01*
X137675360Y-77687815D01*
X137671387Y-77685071D01*
X137668067Y-77675585D01*
X137665061Y-77665778D01*
X137662772Y-77656230D01*
X137661617Y-77645992D01*
G37*
G36*
X136880528Y-77348016D02*
G01*
X136880528Y-77192433D01*
X136882692Y-77182163D01*
X136888478Y-77173051D01*
X136895916Y-77165810D01*
X136903765Y-77159115D01*
X136911486Y-77152499D01*
X136918630Y-77146271D01*
X136998742Y-77146271D01*
X137001673Y-77149935D01*
X137004360Y-77153354D01*
X137083250Y-77153354D01*
X137091554Y-77149935D01*
X137100103Y-77146271D01*
X137108651Y-77149935D01*
X137116956Y-77153354D01*
X137904883Y-77153354D01*
X137909035Y-77147736D01*
X137919245Y-77146551D01*
X137929406Y-77146272D01*
X137930284Y-77146271D01*
X137940362Y-77147849D01*
X137949335Y-77149935D01*
X137959261Y-77152190D01*
X137969184Y-77154236D01*
X137971073Y-77154575D01*
X137979675Y-77159312D01*
X137986033Y-77168607D01*
X137989200Y-77178037D01*
X137991223Y-77189792D01*
X137992017Y-77200871D01*
X137992078Y-77213438D01*
X137987926Y-77363159D01*
X137979786Y-77369228D01*
X137971703Y-77375204D01*
X137963784Y-77380955D01*
X137957884Y-77384896D01*
X137948127Y-77385508D01*
X137937250Y-77385623D01*
X137933215Y-77385629D01*
X137922881Y-77385513D01*
X137912940Y-77385112D01*
X137903151Y-77384254D01*
X137902441Y-77384163D01*
X137899754Y-77378790D01*
X137044171Y-77378790D01*
X137040019Y-77375859D01*
X137040019Y-77373173D01*
X137030188Y-77372073D01*
X137019529Y-77371730D01*
X137015351Y-77371707D01*
X137004958Y-77372741D01*
X136994824Y-77374126D01*
X136986286Y-77375371D01*
X136976475Y-77376703D01*
X136966746Y-77377935D01*
X136957465Y-77378790D01*
X136945470Y-77378309D01*
X136934155Y-77376867D01*
X136923519Y-77374462D01*
X136913562Y-77371096D01*
X136904285Y-77366769D01*
X136895687Y-77361479D01*
X136887768Y-77355228D01*
X136880528Y-77348016D01*
G37*
G36*
X136892985Y-76960158D02*
G01*
X136892985Y-76897143D01*
X136895465Y-76886992D01*
X136898944Y-76877179D01*
X136899335Y-76876138D01*
X136902803Y-76866559D01*
X136905814Y-76856960D01*
X136906907Y-76852203D01*
X136907991Y-76842112D01*
X136909515Y-76831555D01*
X136911249Y-76821223D01*
X136913379Y-76809705D01*
X136915455Y-76799202D01*
X136922096Y-76791039D01*
X136927617Y-76782617D01*
X136932914Y-76773477D01*
X136934995Y-76769648D01*
X136936578Y-76759220D01*
X136939146Y-76748448D01*
X136942336Y-76737771D01*
X136944764Y-76730570D01*
X136950371Y-76720018D01*
X136955345Y-76710889D01*
X136960755Y-76701150D01*
X136966599Y-76690800D01*
X136972879Y-76679840D01*
X136977875Y-76671219D01*
X136983115Y-76662254D01*
X136988599Y-76652946D01*
X136992392Y-76646550D01*
X136999192Y-76636245D01*
X137005944Y-76626306D01*
X137012650Y-76616731D01*
X137019308Y-76607521D01*
X137025919Y-76598676D01*
X137032483Y-76590196D01*
X137038999Y-76582081D01*
X137045469Y-76574331D01*
X137051891Y-76566945D01*
X137060380Y-76557666D01*
X137062489Y-76555448D01*
X137069596Y-76547937D01*
X137077788Y-76540211D01*
X137087065Y-76532271D01*
X137095268Y-76525764D01*
X137104166Y-76519120D01*
X137113758Y-76512338D01*
X137124045Y-76505419D01*
X137126725Y-76503668D01*
X137138049Y-76496111D01*
X137148389Y-76489194D01*
X137157747Y-76482916D01*
X137166121Y-76477278D01*
X137175757Y-76470756D01*
X137185344Y-76464203D01*
X137194178Y-76458014D01*
X137196823Y-76456041D01*
X137205493Y-76449888D01*
X137213949Y-76444558D01*
X137223812Y-76439249D01*
X137233366Y-76435125D01*
X137244122Y-76431810D01*
X137248602Y-76430884D01*
X137267167Y-76427157D01*
X137285063Y-76423671D01*
X137302292Y-76420425D01*
X137318853Y-76417420D01*
X137334746Y-76414655D01*
X137349971Y-76412130D01*
X137364528Y-76409846D01*
X137378418Y-76407803D01*
X137391639Y-76406000D01*
X137404193Y-76404437D01*
X137416079Y-76403114D01*
X137427297Y-76402032D01*
X137437847Y-76401191D01*
X137447729Y-76400590D01*
X137461300Y-76400139D01*
X137465490Y-76400109D01*
X137475607Y-76400590D01*
X137485895Y-76401582D01*
X137498496Y-76403114D01*
X137508183Y-76404437D01*
X137518898Y-76406000D01*
X137530642Y-76407803D01*
X137543414Y-76409846D01*
X137557215Y-76412130D01*
X137572044Y-76414655D01*
X137587902Y-76417420D01*
X137604788Y-76420425D01*
X137622702Y-76423671D01*
X137641645Y-76427157D01*
X137651503Y-76428990D01*
X137661617Y-76430884D01*
X137671477Y-76434517D01*
X137679975Y-76439565D01*
X137688636Y-76445584D01*
X137696825Y-76451794D01*
X137702161Y-76456041D01*
X137709253Y-76463862D01*
X137716772Y-76471098D01*
X137721701Y-76475580D01*
X137731493Y-76477504D01*
X137738554Y-76478511D01*
X137746711Y-76485721D01*
X137755507Y-76492850D01*
X137763687Y-76499238D01*
X137771541Y-76505244D01*
X137774946Y-76507820D01*
X137782685Y-76514048D01*
X137791736Y-76520500D01*
X137801187Y-76526774D01*
X137810257Y-76532527D01*
X137820412Y-76538757D01*
X137822573Y-76540060D01*
X137829599Y-76547895D01*
X137837365Y-76556745D01*
X137845872Y-76566610D01*
X137852737Y-76574675D01*
X137860020Y-76583311D01*
X137867718Y-76592518D01*
X137875833Y-76602296D01*
X137884365Y-76612645D01*
X137893313Y-76623566D01*
X137899510Y-76631163D01*
X137904845Y-76640784D01*
X137910959Y-76651450D01*
X137916055Y-76660136D01*
X137921589Y-76669411D01*
X137927561Y-76679273D01*
X137933971Y-76689724D01*
X137940819Y-76700763D01*
X137948104Y-76712390D01*
X137955828Y-76724605D01*
X137961221Y-76733075D01*
X137963990Y-76737408D01*
X137967903Y-76747533D01*
X137971704Y-76757700D01*
X137975187Y-76767221D01*
X137978955Y-76777697D01*
X137983010Y-76789127D01*
X137986460Y-76798958D01*
X137987646Y-76810033D01*
X137989523Y-76822194D01*
X137991522Y-76832704D01*
X137993965Y-76843909D01*
X137996850Y-76855808D01*
X138000178Y-76868402D01*
X138002964Y-76878303D01*
X138006000Y-76888595D01*
X138006000Y-76966997D01*
X137998493Y-76973709D01*
X137990758Y-76979704D01*
X137984995Y-76983849D01*
X137975830Y-76988572D01*
X137965446Y-76991473D01*
X137954632Y-76993009D01*
X137944079Y-76993581D01*
X137940298Y-76993619D01*
X137929997Y-76992155D01*
X137919390Y-76989970D01*
X137917095Y-76989467D01*
X137906748Y-76987277D01*
X137896991Y-76985574D01*
X137893892Y-76985315D01*
X137883836Y-76986937D01*
X137874597Y-76989467D01*
X137864498Y-76992155D01*
X137854813Y-76993619D01*
X137843807Y-76991864D01*
X137833929Y-76988243D01*
X137824636Y-76983717D01*
X137814376Y-76977820D01*
X137805472Y-76972114D01*
X137795951Y-76965531D01*
X137794737Y-76953025D01*
X137793596Y-76942779D01*
X137792258Y-76931790D01*
X137790723Y-76920059D01*
X137788990Y-76907585D01*
X137787059Y-76894368D01*
X137784931Y-76880408D01*
X137783403Y-76870689D01*
X137781786Y-76860639D01*
X137780082Y-76850260D01*
X137778291Y-76839551D01*
X137776411Y-76828511D01*
X137772084Y-76818711D01*
X137766043Y-76809557D01*
X137759688Y-76801370D01*
X137755406Y-76796271D01*
X137748498Y-76788048D01*
X137741514Y-76779645D01*
X137735168Y-76771859D01*
X137729115Y-76764017D01*
X137728295Y-76762810D01*
X137721712Y-76755053D01*
X137713641Y-76746323D01*
X137706543Y-76738805D01*
X137698070Y-76729928D01*
X137690815Y-76722379D01*
X137682786Y-76714066D01*
X137677004Y-76708099D01*
X137671213Y-76698671D01*
X137665159Y-76690270D01*
X137658890Y-76682324D01*
X137651626Y-76673692D01*
X137646230Y-76667555D01*
X137636704Y-76663647D01*
X137627322Y-76659827D01*
X137622294Y-76657785D01*
X137616070Y-76649838D01*
X137608651Y-76642282D01*
X137604220Y-76638246D01*
X137592613Y-76634637D01*
X137581422Y-76631231D01*
X137570648Y-76628026D01*
X137560291Y-76625022D01*
X137550349Y-76622221D01*
X137540825Y-76619621D01*
X137528773Y-76616469D01*
X137517461Y-76613676D01*
X137506890Y-76611241D01*
X137501882Y-76610158D01*
X137499196Y-76604540D01*
X137418107Y-76604540D01*
X137415176Y-76610158D01*
X137404874Y-76611311D01*
X137394302Y-76613120D01*
X137384677Y-76615280D01*
X137377318Y-76617241D01*
X137367234Y-76617909D01*
X137357174Y-76619405D01*
X137346919Y-76621415D01*
X137337050Y-76623659D01*
X137335309Y-76624080D01*
X137326508Y-76628673D01*
X137313737Y-76635727D01*
X137301481Y-76642978D01*
X137289740Y-76650427D01*
X137278515Y-76658073D01*
X137267804Y-76665917D01*
X137257609Y-76673959D01*
X137247929Y-76682198D01*
X137238764Y-76690634D01*
X137230114Y-76699268D01*
X137221980Y-76708099D01*
X137214225Y-76715228D01*
X137206138Y-76722743D01*
X137198238Y-76730133D01*
X137190973Y-76736961D01*
X137183087Y-76744397D01*
X137181436Y-76745957D01*
X137178355Y-76755749D01*
X137175818Y-76762810D01*
X137169468Y-76770447D01*
X137162628Y-76779468D01*
X137156804Y-76787680D01*
X137150668Y-76796779D01*
X137144218Y-76806762D01*
X137137456Y-76817631D01*
X137132178Y-76826363D01*
X137126725Y-76835594D01*
X137126347Y-76845394D01*
X137125455Y-76855660D01*
X137124204Y-76866531D01*
X137124039Y-76867834D01*
X137109872Y-76936222D01*
X137106842Y-76946106D01*
X137102034Y-76955341D01*
X137096034Y-76963857D01*
X137094485Y-76965775D01*
X137087645Y-76973006D01*
X137078848Y-76978579D01*
X137069708Y-76983234D01*
X137065176Y-76985315D01*
X137054967Y-76985315D01*
X137044471Y-76985315D01*
X137037088Y-76985315D01*
X137027115Y-76983842D01*
X137018281Y-76981896D01*
X137008561Y-76979663D01*
X136998747Y-76978246D01*
X136998009Y-76978232D01*
X136988375Y-76979964D01*
X136981401Y-76981896D01*
X136971877Y-76984233D01*
X136964304Y-76985315D01*
X136953294Y-76984111D01*
X136941811Y-76981163D01*
X136930799Y-76977355D01*
X136921044Y-76973424D01*
X136910450Y-76968707D01*
X136899016Y-76963204D01*
X136892985Y-76960158D01*
G37*
G36*
X136880528Y-75637094D02*
G01*
X136880528Y-75558692D01*
X136886879Y-75552342D01*
X136892985Y-75545992D01*
X136892985Y-75460751D01*
X136883587Y-75457912D01*
X136882971Y-75457820D01*
X136881218Y-75447835D01*
X136880614Y-75437715D01*
X136880528Y-75431198D01*
X136880620Y-75421382D01*
X136881101Y-75411525D01*
X136881994Y-75407506D01*
X136887306Y-75398805D01*
X136891733Y-75389455D01*
X136895717Y-75379409D01*
X136896160Y-75378197D01*
X136906251Y-75374538D01*
X136916990Y-75370966D01*
X136927630Y-75367927D01*
X136937301Y-75365943D01*
X136942810Y-75365496D01*
X136952560Y-75367228D01*
X136959663Y-75369160D01*
X136969692Y-75371614D01*
X136976516Y-75372579D01*
X136987020Y-75372019D01*
X136996516Y-75369529D01*
X137000696Y-75365496D01*
X137438868Y-75365496D01*
X137448751Y-75362524D01*
X137457052Y-75355669D01*
X137463642Y-75347587D01*
X137468421Y-75340339D01*
X137469680Y-75329825D01*
X137469874Y-75319429D01*
X137469886Y-75315182D01*
X137468681Y-75305140D01*
X137466881Y-75294918D01*
X137466467Y-75292712D01*
X137464535Y-75282647D01*
X137462979Y-75272736D01*
X137462803Y-75270242D01*
X137464477Y-75260151D01*
X137468337Y-75251122D01*
X137473649Y-75242512D01*
X137476969Y-75238002D01*
X137484274Y-75230468D01*
X137491166Y-75222523D01*
X137495532Y-75216997D01*
X137583459Y-75216997D01*
X137586146Y-75213577D01*
X137590542Y-75210158D01*
X137661373Y-75210158D01*
X137669648Y-75215427D01*
X137677264Y-75221863D01*
X137682622Y-75227011D01*
X137683030Y-75239925D01*
X137683392Y-75250532D01*
X137683800Y-75261930D01*
X137684256Y-75274117D01*
X137684759Y-75287094D01*
X137685309Y-75300862D01*
X137685907Y-75315419D01*
X137686331Y-75325563D01*
X137686777Y-75336057D01*
X137687244Y-75346903D01*
X137687731Y-75358100D01*
X137688240Y-75369648D01*
X137697797Y-75374380D01*
X137707405Y-75378662D01*
X137717321Y-75382211D01*
X137725120Y-75383570D01*
X137734978Y-75379456D01*
X137740019Y-75378197D01*
X137751233Y-75376288D01*
X137762010Y-75375235D01*
X137771826Y-75374560D01*
X137783128Y-75373984D01*
X137795915Y-75373507D01*
X137810187Y-75373128D01*
X137820528Y-75372931D01*
X137831528Y-75372777D01*
X137843189Y-75372667D01*
X137855510Y-75372601D01*
X137868491Y-75372579D01*
X137882726Y-75372629D01*
X137896214Y-75372777D01*
X137908955Y-75373024D01*
X137920950Y-75373369D01*
X137932197Y-75373814D01*
X137942697Y-75374357D01*
X137952450Y-75374999D01*
X137964292Y-75376008D01*
X137974806Y-75377193D01*
X137981819Y-75378197D01*
X137988903Y-75385280D01*
X137994713Y-75394516D01*
X137999321Y-75403358D01*
X138003178Y-75413174D01*
X138005582Y-75423733D01*
X138006000Y-75429976D01*
X137996088Y-75433203D01*
X137992078Y-75435594D01*
X137992078Y-75445440D01*
X137992078Y-75455820D01*
X137992078Y-75464903D01*
X137992948Y-75475253D01*
X137996007Y-75484780D01*
X138001989Y-75492737D01*
X138006000Y-75495678D01*
X138006000Y-75611937D01*
X138006000Y-75616822D01*
X138006000Y-75623173D01*
X138003465Y-75633089D01*
X138001847Y-75637094D01*
X137998490Y-75646308D01*
X137997695Y-75651016D01*
X137989552Y-75656787D01*
X137981671Y-75663407D01*
X137976690Y-75667869D01*
X137700696Y-75667869D01*
X137696544Y-75664938D01*
X137698009Y-75662251D01*
X137688178Y-75661152D01*
X137678232Y-75660822D01*
X137672852Y-75660786D01*
X137662121Y-75661229D01*
X137652184Y-75663027D01*
X137644764Y-75667869D01*
X137114269Y-75667869D01*
X137110117Y-75664938D01*
X137110117Y-75660786D01*
X136973829Y-75660786D01*
X136968944Y-75664450D01*
X136958846Y-75667215D01*
X136948415Y-75667839D01*
X136945009Y-75667869D01*
X136934762Y-75666247D01*
X136924815Y-75663972D01*
X136923759Y-75663717D01*
X136913756Y-75661527D01*
X136903956Y-75659970D01*
X136897625Y-75659565D01*
X136891801Y-75651100D01*
X136885074Y-75642573D01*
X136880528Y-75637094D01*
G37*
G36*
X137083494Y-75945085D02*
G01*
X137086545Y-75935793D01*
X137090577Y-75930674D01*
X137096327Y-75922577D01*
X137098882Y-75915775D01*
X137178749Y-75915775D01*
X137181436Y-75919928D01*
X137185588Y-75924080D01*
X137683843Y-75924080D01*
X137690865Y-75931102D01*
X137697887Y-75938124D01*
X137704909Y-75945146D01*
X137706314Y-75946550D01*
X137706314Y-76198609D01*
X137711931Y-76202761D01*
X137713728Y-76212946D01*
X137715861Y-76223244D01*
X137717549Y-76230849D01*
X137719738Y-76240785D01*
X137721502Y-76250592D01*
X137721701Y-76253075D01*
X137721123Y-76265810D01*
X137719391Y-76277269D01*
X137716504Y-76287454D01*
X137712462Y-76296363D01*
X137705275Y-76306259D01*
X137696036Y-76313888D01*
X137684744Y-76319249D01*
X137674927Y-76321783D01*
X137663956Y-76323042D01*
X137656000Y-76323173D01*
X137366327Y-76319020D01*
X137356134Y-76314151D01*
X137345948Y-76307968D01*
X137335770Y-76300473D01*
X137328142Y-76293990D01*
X137320518Y-76286769D01*
X137312898Y-76278809D01*
X137305282Y-76270111D01*
X137297671Y-76260674D01*
X137290064Y-76250499D01*
X137284995Y-76243305D01*
X137277703Y-76232773D01*
X137270848Y-76222854D01*
X137264430Y-76213547D01*
X137258448Y-76204852D01*
X137252904Y-76196770D01*
X137245407Y-76185796D01*
X137238894Y-76176199D01*
X137233363Y-76167981D01*
X137227519Y-76159168D01*
X137222029Y-76150541D01*
X137220759Y-76148295D01*
X137216444Y-76138711D01*
X137212790Y-76129290D01*
X137209524Y-76120207D01*
X137202109Y-76112009D01*
X137193907Y-76102804D01*
X137187240Y-76095240D01*
X137180131Y-76087108D01*
X137172580Y-76078410D01*
X137164587Y-76069145D01*
X137156151Y-76059313D01*
X137147273Y-76048915D01*
X137137953Y-76037949D01*
X137131494Y-76030324D01*
X137128191Y-76026418D01*
X137123552Y-76016545D01*
X137118848Y-76007183D01*
X137114054Y-75997987D01*
X137108556Y-75987709D01*
X137104499Y-75980256D01*
X137097141Y-75973535D01*
X137093264Y-75971707D01*
X137089334Y-75962238D01*
X137087646Y-75958518D01*
X137084078Y-75949035D01*
X137083494Y-75945085D01*
G37*
G36*
X136880528Y-75074603D02*
G01*
X136880528Y-74581721D01*
X136888955Y-74576443D01*
X136897381Y-74571234D01*
X136902999Y-74567799D01*
X136912127Y-74563213D01*
X136921958Y-74560889D01*
X136925469Y-74560716D01*
X136934750Y-74564380D01*
X136943787Y-74567799D01*
X137053452Y-74567799D01*
X137058581Y-74571463D01*
X137068259Y-74574228D01*
X137077388Y-74574882D01*
X137087269Y-74574045D01*
X137096714Y-74570898D01*
X137101324Y-74567799D01*
X137305511Y-74567799D01*
X137310396Y-74571463D01*
X137320302Y-74574131D01*
X137330388Y-74574869D01*
X137332133Y-74574882D01*
X137342519Y-74574322D01*
X137352472Y-74571534D01*
X137356069Y-74567799D01*
X137524841Y-74567799D01*
X137531924Y-74571463D01*
X137539007Y-74574882D01*
X137548515Y-74571534D01*
X137550242Y-74567799D01*
X137924422Y-74567799D01*
X137932971Y-74564380D01*
X137941275Y-74560716D01*
X137951353Y-74562294D01*
X137960326Y-74564380D01*
X137970252Y-74566635D01*
X137980175Y-74568681D01*
X137982064Y-74569020D01*
X137990198Y-74574565D01*
X137997561Y-74583008D01*
X138002049Y-74591938D01*
X138004854Y-74602431D01*
X138005906Y-74612369D01*
X138006000Y-74616648D01*
X138006000Y-74625929D01*
X138006000Y-74633501D01*
X138006000Y-74826697D01*
X138006000Y-74834512D01*
X138006000Y-74842328D01*
X138003200Y-74852251D01*
X137998503Y-74861030D01*
X137992673Y-74870080D01*
X137986542Y-74878698D01*
X137982308Y-74884338D01*
X137972645Y-74886325D01*
X137962373Y-74888774D01*
X137960570Y-74889223D01*
X137951022Y-74891307D01*
X137941519Y-74892642D01*
X137931261Y-74890876D01*
X137924911Y-74889223D01*
X137915434Y-74886718D01*
X137908058Y-74885559D01*
X137898114Y-74886634D01*
X137888408Y-74887978D01*
X137877578Y-74889558D01*
X137866781Y-74891177D01*
X137855985Y-74892795D01*
X137845154Y-74894375D01*
X137835448Y-74895719D01*
X137825504Y-74896794D01*
X137352161Y-74896794D01*
X137348009Y-74898260D01*
X137350696Y-74903877D01*
X137140891Y-74903877D01*
X137131809Y-74907808D01*
X137121829Y-74911348D01*
X137119398Y-74912182D01*
X137111494Y-74919094D01*
X137104796Y-74926230D01*
X137099370Y-74934652D01*
X137099851Y-74944452D01*
X137099307Y-74954718D01*
X137098083Y-74965589D01*
X137097905Y-74966892D01*
X137093824Y-74976079D01*
X137089272Y-74985954D01*
X137084624Y-74994782D01*
X137083739Y-74994980D01*
X137083739Y-75067764D01*
X137076217Y-75075054D01*
X137068584Y-75081886D01*
X137060432Y-75088320D01*
X137059803Y-75088769D01*
X137050100Y-75090916D01*
X137040593Y-75093427D01*
X137039775Y-75093654D01*
X137029797Y-75095992D01*
X137022189Y-75097073D01*
X137015106Y-75093654D01*
X137008023Y-75089990D01*
X136942078Y-75089990D01*
X136933173Y-75094023D01*
X136925469Y-75097073D01*
X136915638Y-75095624D01*
X136906510Y-75091683D01*
X136902999Y-75089502D01*
X136894572Y-75083743D01*
X136886146Y-75078190D01*
X136880528Y-75074603D01*
G37*
D11*
%TO.C,U1*%
X138600000Y-72000000D02*
X148600000Y-72000000D01*
X148600000Y-72000000D02*
X148600000Y-82000000D01*
X148600000Y-82000000D02*
X138600000Y-82000000D01*
X138600000Y-82000000D02*
X138600000Y-72000000D01*
X140000000Y-72900000D02*
G75*
G03*
X140000000Y-72900000I-500000J0D01*
G01*
D12*
%TO.C,J3*%
X155896000Y-71822000D02*
X157226000Y-71822000D01*
X155896000Y-73152000D02*
X155896000Y-71822000D01*
X155896000Y-74422000D02*
X155896000Y-82102000D01*
X155896000Y-74422000D02*
X158556000Y-74422000D01*
X155896000Y-82102000D02*
X158556000Y-82102000D01*
X158556000Y-74422000D02*
X158556000Y-82102000D01*
%TO.C,D2*%
X135740000Y-76600000D02*
X135740000Y-75330000D01*
X134350000Y-74060000D02*
X133200000Y-74060000D01*
%TO.C,R2*%
X151347936Y-71790000D02*
X152802064Y-71790000D01*
X151347936Y-73610000D02*
X152802064Y-73610000D01*
%TO.C,J1*%
X132020000Y-80966000D02*
X133350000Y-80966000D01*
X132020000Y-82296000D02*
X132020000Y-80966000D01*
X132020000Y-83566000D02*
X132020000Y-83626000D01*
X132020000Y-83566000D02*
X134680000Y-83566000D01*
X132020000Y-83626000D02*
X134680000Y-83626000D01*
X134680000Y-83566000D02*
X134680000Y-83626000D01*
%TO.C,J2*%
X141050000Y-85070000D02*
X148730000Y-85070000D01*
X148730000Y-87730000D02*
X148730000Y-85070000D01*
X141050000Y-87730000D02*
X141050000Y-85070000D01*
X141050000Y-87730000D02*
X148730000Y-87730000D01*
X139780000Y-87730000D02*
X138450000Y-87730000D01*
X138450000Y-87730000D02*
X138450000Y-86400000D01*
%TO.C,R1*%
X151347936Y-79690000D02*
X152802064Y-79690000D01*
X151347936Y-81510000D02*
X152802064Y-81510000D01*
%TO.C,R3*%
X151347936Y-75888400D02*
X152802064Y-75888400D01*
X151347936Y-77708400D02*
X152802064Y-77708400D01*
%TD*%
M02*
