%TF.GenerationSoftware,KiCad,Pcbnew,7.0.8*%
%TF.CreationDate,2024-03-19T09:57:53+01:00*%
%TF.ProjectId,CO2Y-brkout,434f3259-2d62-4726-9b6f-75742e6b6963,rev?*%
%TF.SameCoordinates,Original*%
%TF.FileFunction,Profile,NP*%
%FSLAX46Y46*%
G04 Gerber Fmt 4.6, Leading zero omitted, Abs format (unit mm)*
G04 Created by KiCad (PCBNEW 7.0.8) date 2024-03-19 09:57:53*
%MOMM*%
%LPD*%
G01*
G04 APERTURE LIST*
%TA.AperFunction,Profile*%
%ADD10C,0.009068*%
%TD*%
%TA.AperFunction,Profile*%
%ADD11C,0.013602*%
%TD*%
%TA.AperFunction,Profile*%
%ADD12C,0.022670*%
%TD*%
%TA.AperFunction,Profile*%
%ADD13C,0.200000*%
%TD*%
%TA.AperFunction,Profile*%
%ADD14C,0.096929*%
%TD*%
%TA.AperFunction,Profile*%
%ADD15C,0.010881*%
%TD*%
%TA.AperFunction,Profile*%
%ADD16C,0.066652*%
%TD*%
%TA.AperFunction,Profile*%
%ADD17C,0.018136*%
%TD*%
%TA.AperFunction,Profile*%
%ADD18C,0.007254*%
%TD*%
G04 APERTURE END LIST*
D10*
X134689486Y-70099348D02*
X134712110Y-70101069D01*
X134734406Y-70103902D01*
X134756344Y-70107820D01*
X134777898Y-70112794D01*
X134799039Y-70118798D01*
X134819739Y-70125802D01*
X134839970Y-70133779D01*
X134859704Y-70142701D01*
X134878913Y-70152539D01*
X134897569Y-70163266D01*
X134915645Y-70174854D01*
X134933112Y-70187275D01*
X134949941Y-70200501D01*
X134966106Y-70214503D01*
X134981578Y-70229255D01*
X134996330Y-70244727D01*
X135010332Y-70260892D01*
X135023558Y-70277721D01*
X135035979Y-70295188D01*
X135047567Y-70313264D01*
X135058294Y-70331920D01*
X135068132Y-70351129D01*
X135077054Y-70370863D01*
X135085031Y-70391094D01*
X135092035Y-70411794D01*
X135098039Y-70432935D01*
X135103013Y-70454489D01*
X135106931Y-70476427D01*
X135109764Y-70498723D01*
X135111485Y-70521347D01*
X135112064Y-70544273D01*
X135111485Y-70567198D01*
X135109764Y-70589823D01*
X135106931Y-70612118D01*
X135103013Y-70634057D01*
X135098039Y-70655611D01*
X135092035Y-70676751D01*
X135085031Y-70697451D01*
X135077054Y-70717682D01*
X135068132Y-70737416D01*
X135058294Y-70756626D01*
X135047567Y-70775282D01*
X135035979Y-70793358D01*
X135023558Y-70810824D01*
X135010332Y-70827654D01*
X134996330Y-70843819D01*
X134981578Y-70859291D01*
X134966106Y-70874042D01*
X134949941Y-70888045D01*
X134933112Y-70901271D01*
X134915645Y-70913691D01*
X134897569Y-70925279D01*
X134878913Y-70936007D01*
X134859704Y-70945845D01*
X134839970Y-70954767D01*
X134819739Y-70962744D01*
X134799039Y-70969748D01*
X134777898Y-70975751D01*
X134756344Y-70980726D01*
X134734406Y-70984644D01*
X134712110Y-70987477D01*
X134689486Y-70989197D01*
X134666560Y-70989777D01*
X134643635Y-70989197D01*
X134621010Y-70987477D01*
X134598715Y-70984644D01*
X134576776Y-70980726D01*
X134555222Y-70975751D01*
X134534082Y-70969748D01*
X134513382Y-70962744D01*
X134493151Y-70954767D01*
X134473416Y-70945845D01*
X134454207Y-70936007D01*
X134435551Y-70925279D01*
X134417475Y-70913691D01*
X134400009Y-70901271D01*
X134383179Y-70888045D01*
X134367014Y-70874042D01*
X134351542Y-70859291D01*
X134336791Y-70843819D01*
X134322788Y-70827654D01*
X134309562Y-70810824D01*
X134297142Y-70793358D01*
X134285553Y-70775282D01*
X134274826Y-70756626D01*
X134264988Y-70737416D01*
X134256066Y-70717682D01*
X134248089Y-70697451D01*
X134241085Y-70676751D01*
X134235082Y-70655611D01*
X134230107Y-70634057D01*
X134226189Y-70612118D01*
X134223356Y-70589823D01*
X134221636Y-70567198D01*
X134221056Y-70544273D01*
X134221636Y-70521347D01*
X134223356Y-70498723D01*
X134226189Y-70476427D01*
X134230107Y-70454489D01*
X134235082Y-70432935D01*
X134241085Y-70411794D01*
X134248089Y-70391094D01*
X134256066Y-70370863D01*
X134264988Y-70351129D01*
X134274826Y-70331920D01*
X134285553Y-70313264D01*
X134297142Y-70295188D01*
X134309562Y-70277721D01*
X134322788Y-70260892D01*
X134336791Y-70244727D01*
X134351542Y-70229255D01*
X134367014Y-70214503D01*
X134383179Y-70200501D01*
X134400009Y-70187275D01*
X134417475Y-70174854D01*
X134435551Y-70163266D01*
X134454207Y-70152539D01*
X134473416Y-70142701D01*
X134493151Y-70133779D01*
X134513382Y-70125802D01*
X134534082Y-70118798D01*
X134555222Y-70112794D01*
X134576776Y-70107820D01*
X134598715Y-70103902D01*
X134621010Y-70101069D01*
X134643635Y-70099348D01*
X134666560Y-70098769D01*
X134689486Y-70099348D01*
D11*
X134450981Y-67251981D02*
X134484918Y-67254562D01*
X134518361Y-67258811D01*
X134551269Y-67264688D01*
X134583600Y-67272150D01*
X134615311Y-67281155D01*
X134646361Y-67291661D01*
X134676707Y-67303626D01*
X134706309Y-67317008D01*
X134735122Y-67331766D01*
X134763107Y-67347857D01*
X134790220Y-67365239D01*
X134816420Y-67383870D01*
X134841664Y-67403708D01*
X134865912Y-67424711D01*
X134889120Y-67446838D01*
X134911246Y-67470046D01*
X134932250Y-67494294D01*
X134952088Y-67519538D01*
X134970719Y-67545738D01*
X134988101Y-67572851D01*
X135004192Y-67600836D01*
X135018949Y-67629649D01*
X135032332Y-67659250D01*
X135044297Y-67689597D01*
X135054803Y-67720647D01*
X135063808Y-67752358D01*
X135071270Y-67784689D01*
X135077147Y-67817597D01*
X135081396Y-67851040D01*
X135083977Y-67884977D01*
X135084846Y-67919365D01*
X135083977Y-67953754D01*
X135081396Y-67987691D01*
X135077147Y-68021134D01*
X135071270Y-68054042D01*
X135063808Y-68086373D01*
X135054803Y-68118084D01*
X135044297Y-68149134D01*
X135032332Y-68179480D01*
X135018949Y-68209081D01*
X135004192Y-68237895D01*
X134988101Y-68265880D01*
X134970719Y-68292993D01*
X134952088Y-68319193D01*
X134932250Y-68344437D01*
X134911246Y-68368684D01*
X134889120Y-68391893D01*
X134865912Y-68414019D01*
X134841664Y-68435023D01*
X134816420Y-68454861D01*
X134790220Y-68473492D01*
X134763107Y-68490874D01*
X134735122Y-68506965D01*
X134706309Y-68521722D01*
X134676707Y-68535105D01*
X134646361Y-68547070D01*
X134615311Y-68557576D01*
X134583600Y-68566581D01*
X134551269Y-68574043D01*
X134518361Y-68579919D01*
X134484918Y-68584169D01*
X134450981Y-68586750D01*
X134416593Y-68587619D01*
X134382204Y-68586750D01*
X134348267Y-68584169D01*
X134314824Y-68579919D01*
X134281916Y-68574043D01*
X134249585Y-68566581D01*
X134217874Y-68557576D01*
X134186824Y-68547070D01*
X134156478Y-68535105D01*
X134126876Y-68521722D01*
X134098063Y-68506965D01*
X134070078Y-68490874D01*
X134042965Y-68473492D01*
X134016765Y-68454861D01*
X133991521Y-68435023D01*
X133967273Y-68414019D01*
X133944065Y-68391893D01*
X133921939Y-68368684D01*
X133900935Y-68344437D01*
X133881097Y-68319193D01*
X133862466Y-68292993D01*
X133845084Y-68265880D01*
X133828993Y-68237895D01*
X133814236Y-68209081D01*
X133800853Y-68179480D01*
X133788888Y-68149134D01*
X133778382Y-68118084D01*
X133769377Y-68086373D01*
X133761915Y-68054042D01*
X133756038Y-68021134D01*
X133751789Y-67987691D01*
X133749208Y-67953754D01*
X133748339Y-67919365D01*
X133749208Y-67884977D01*
X133751789Y-67851040D01*
X133756038Y-67817597D01*
X133761915Y-67784689D01*
X133769377Y-67752358D01*
X133778382Y-67720647D01*
X133788888Y-67689597D01*
X133800853Y-67659250D01*
X133814236Y-67629649D01*
X133828993Y-67600836D01*
X133845084Y-67572851D01*
X133862466Y-67545738D01*
X133881097Y-67519538D01*
X133900935Y-67494294D01*
X133921939Y-67470046D01*
X133944065Y-67446838D01*
X133967273Y-67424711D01*
X133991521Y-67403708D01*
X134016765Y-67383870D01*
X134042965Y-67365239D01*
X134070078Y-67347857D01*
X134098063Y-67331766D01*
X134126876Y-67317008D01*
X134156478Y-67303626D01*
X134186824Y-67291661D01*
X134217874Y-67281155D01*
X134249585Y-67272150D01*
X134281916Y-67264688D01*
X134314824Y-67258811D01*
X134348267Y-67254562D01*
X134382204Y-67251981D01*
X134416593Y-67251111D01*
X134450981Y-67251981D01*
D12*
X132549005Y-69315377D02*
X132605567Y-69319678D01*
X132661306Y-69326761D01*
X132716152Y-69336556D01*
X132770037Y-69348992D01*
X132822889Y-69364001D01*
X132874638Y-69381511D01*
X132925216Y-69401453D01*
X132974551Y-69423757D01*
X133022574Y-69448353D01*
X133069215Y-69475171D01*
X133114404Y-69504141D01*
X133158070Y-69535193D01*
X133200145Y-69568257D01*
X133240557Y-69603263D01*
X133279237Y-69640141D01*
X133316115Y-69678821D01*
X133351121Y-69719233D01*
X133384185Y-69761307D01*
X133415237Y-69804974D01*
X133444207Y-69850163D01*
X133471025Y-69896803D01*
X133495621Y-69944827D01*
X133517925Y-69994162D01*
X133537867Y-70044739D01*
X133555377Y-70096489D01*
X133570385Y-70149341D01*
X133582822Y-70203225D01*
X133592617Y-70258072D01*
X133599699Y-70313811D01*
X133604000Y-70370372D01*
X133605450Y-70427686D01*
X133604000Y-70485000D01*
X133599699Y-70541561D01*
X133592617Y-70597300D01*
X133582822Y-70652147D01*
X133570385Y-70706031D01*
X133555377Y-70758883D01*
X133537867Y-70810633D01*
X133517925Y-70861211D01*
X133495621Y-70910546D01*
X133471025Y-70958569D01*
X133444207Y-71005210D01*
X133415237Y-71050398D01*
X133384185Y-71094065D01*
X133351121Y-71136139D01*
X133316115Y-71176551D01*
X133279237Y-71215232D01*
X133240557Y-71252110D01*
X133200145Y-71287116D01*
X133158070Y-71320180D01*
X133114404Y-71351232D01*
X133069215Y-71380201D01*
X133022574Y-71407019D01*
X132974551Y-71431615D01*
X132925216Y-71453919D01*
X132874638Y-71473862D01*
X132822889Y-71491372D01*
X132770037Y-71506380D01*
X132716152Y-71518817D01*
X132661306Y-71528611D01*
X132605567Y-71535694D01*
X132549005Y-71539995D01*
X132491692Y-71541444D01*
X132434378Y-71539995D01*
X132377816Y-71535694D01*
X132322077Y-71528611D01*
X132267231Y-71518817D01*
X132213346Y-71506380D01*
X132160494Y-71491372D01*
X132108745Y-71473862D01*
X132058167Y-71453919D01*
X132008832Y-71431615D01*
X131960809Y-71407019D01*
X131914168Y-71380201D01*
X131868979Y-71351232D01*
X131825313Y-71320180D01*
X131783238Y-71287116D01*
X131742826Y-71252110D01*
X131704146Y-71215232D01*
X131667268Y-71176551D01*
X131632262Y-71136139D01*
X131599198Y-71094065D01*
X131568146Y-71050398D01*
X131539176Y-71005210D01*
X131512358Y-70958569D01*
X131487762Y-70910546D01*
X131465458Y-70861211D01*
X131445516Y-70810633D01*
X131428006Y-70758883D01*
X131412998Y-70706031D01*
X131400561Y-70652147D01*
X131390766Y-70597300D01*
X131383684Y-70541561D01*
X131379383Y-70485000D01*
X131377933Y-70427686D01*
X131379383Y-70370372D01*
X131383684Y-70313811D01*
X131390766Y-70258072D01*
X131400561Y-70203225D01*
X131412998Y-70149341D01*
X131428006Y-70096489D01*
X131445516Y-70044739D01*
X131465458Y-69994162D01*
X131487762Y-69944827D01*
X131512358Y-69896803D01*
X131539176Y-69850163D01*
X131568146Y-69804974D01*
X131599198Y-69761307D01*
X131632262Y-69719233D01*
X131667268Y-69678821D01*
X131704146Y-69640141D01*
X131742826Y-69603263D01*
X131783238Y-69568257D01*
X131825313Y-69535193D01*
X131868979Y-69504141D01*
X131914168Y-69475171D01*
X131960809Y-69448353D01*
X132008832Y-69423757D01*
X132058167Y-69401453D01*
X132108745Y-69381511D01*
X132160494Y-69364001D01*
X132213346Y-69348992D01*
X132267231Y-69336556D01*
X132322077Y-69326761D01*
X132377816Y-69319678D01*
X132434378Y-69315377D01*
X132491692Y-69313928D01*
X132549005Y-69315377D01*
D13*
X131107676Y-58971992D02*
X130208526Y-58226890D01*
X140328696Y-55492442D02*
X140509826Y-56630042D01*
D14*
X142847389Y-92111676D02*
X142794720Y-92066053D01*
D13*
X118277880Y-80932118D02*
X117682852Y-80726578D01*
X131421220Y-93580468D02*
X133536748Y-94912796D01*
D14*
X144202342Y-92377879D02*
X144133461Y-92397440D01*
D13*
X126645908Y-75918352D02*
X125254252Y-76250076D01*
X128920538Y-71786384D02*
X129032108Y-72405874D01*
D14*
X145156979Y-90559958D02*
X145176540Y-90628839D01*
D13*
X130597734Y-61782066D02*
X131880668Y-62117546D01*
D14*
X145134159Y-91490686D02*
X145108169Y-91556603D01*
D13*
X128807626Y-81438680D02*
X129816858Y-84022638D01*
D14*
X142959133Y-92195237D02*
X142902223Y-92154768D01*
D13*
X151922300Y-62399258D02*
X151380370Y-63069006D01*
X156137374Y-92618768D02*
X155922770Y-92112232D01*
X155282552Y-55863172D02*
X153604748Y-56467848D01*
D14*
X143478166Y-92413648D02*
X143407939Y-92397440D01*
D13*
X161301538Y-78831752D02*
X161707316Y-78685862D01*
X135827414Y-95936816D02*
X136203044Y-95954286D01*
X128182408Y-89616388D02*
X128882918Y-89087800D01*
X137958944Y-94373274D02*
X141031986Y-95011886D01*
D14*
X144933868Y-91860077D02*
X144890776Y-91914911D01*
D13*
X136460088Y-95679950D02*
X136716210Y-95063302D01*
X136203044Y-95954286D02*
X136460088Y-95679950D01*
D14*
X143991754Y-92426413D02*
X143919111Y-92435644D01*
X145047045Y-91683488D02*
X145012093Y-91744274D01*
X143339058Y-89605321D02*
X143407939Y-89585760D01*
X144335703Y-89654131D02*
X144400000Y-89683200D01*
X145214744Y-91140011D02*
X145205513Y-91212654D01*
X142321051Y-90916904D02*
X142326656Y-90843189D01*
D13*
X141099790Y-57683694D02*
X142003638Y-58645338D01*
D14*
X143339058Y-92377879D02*
X143271614Y-92355059D01*
X142433231Y-90426597D02*
X142462300Y-90362300D01*
D13*
X120966810Y-66837734D02*
X120522378Y-66155052D01*
D14*
X143078812Y-92267945D02*
X143018026Y-92232993D01*
D13*
X141031986Y-95011886D02*
X141370962Y-95452310D01*
X126284360Y-86995682D02*
X125880472Y-87403120D01*
X132818350Y-62396506D02*
X133484926Y-63115904D01*
X120288912Y-65824654D02*
X120073300Y-66624830D01*
X142626906Y-59679472D02*
X142673982Y-60884302D01*
X158137158Y-87480190D02*
X159425102Y-88317074D01*
D14*
X144746680Y-92066053D02*
X144694011Y-92111676D01*
X143407939Y-89585760D02*
X143478166Y-89569552D01*
D13*
X159425102Y-88317074D02*
X159897736Y-88442754D01*
D14*
X145192748Y-91284134D02*
X145176540Y-91354361D01*
D15*
X150216193Y-88846892D02*
X150243343Y-88848957D01*
X150270098Y-88852356D01*
X150296424Y-88857058D01*
X150322289Y-88863027D01*
X150347658Y-88870231D01*
X150372498Y-88878636D01*
X150396775Y-88888208D01*
X150420456Y-88898914D01*
X150443507Y-88910720D01*
X150465894Y-88923593D01*
X150487585Y-88937498D01*
X150508545Y-88952403D01*
X150528740Y-88968274D01*
X150548138Y-88985077D01*
X150566705Y-89002778D01*
X150584406Y-89021344D01*
X150601209Y-89040742D01*
X150617079Y-89060938D01*
X150631984Y-89081898D01*
X150645890Y-89103588D01*
X150658762Y-89125976D01*
X150670568Y-89149027D01*
X150681274Y-89172708D01*
X150690846Y-89196985D01*
X150699251Y-89221825D01*
X150706455Y-89247194D01*
X150712425Y-89273058D01*
X150717126Y-89299385D01*
X150720526Y-89326140D01*
X150722590Y-89353289D01*
X150723286Y-89380800D01*
X150722590Y-89408310D01*
X150720526Y-89435460D01*
X150717126Y-89462215D01*
X150712425Y-89488541D01*
X150706455Y-89514406D01*
X150699251Y-89539775D01*
X150690846Y-89564614D01*
X150681274Y-89588892D01*
X150670568Y-89612573D01*
X150658762Y-89635624D01*
X150645890Y-89658011D01*
X150631984Y-89679702D01*
X150617079Y-89700662D01*
X150601209Y-89720857D01*
X150584406Y-89740255D01*
X150566705Y-89758821D01*
X150548138Y-89776523D01*
X150528740Y-89793326D01*
X150508545Y-89809196D01*
X150487585Y-89824101D01*
X150465894Y-89838007D01*
X150443507Y-89850879D01*
X150420456Y-89862685D01*
X150396775Y-89873391D01*
X150372498Y-89882963D01*
X150347658Y-89891368D01*
X150322289Y-89898572D01*
X150296424Y-89904542D01*
X150270098Y-89909243D01*
X150243343Y-89912643D01*
X150216193Y-89914707D01*
X150188683Y-89915403D01*
X150161172Y-89914707D01*
X150134023Y-89912643D01*
X150107268Y-89909243D01*
X150080941Y-89904542D01*
X150055077Y-89898572D01*
X150029708Y-89891368D01*
X150004868Y-89882963D01*
X149980591Y-89873391D01*
X149956910Y-89862685D01*
X149933859Y-89850879D01*
X149911471Y-89838007D01*
X149889781Y-89824101D01*
X149868821Y-89809196D01*
X149848625Y-89793326D01*
X149829228Y-89776523D01*
X149810661Y-89758821D01*
X149792960Y-89740255D01*
X149776157Y-89720857D01*
X149760286Y-89700662D01*
X149745381Y-89679702D01*
X149731476Y-89658011D01*
X149718603Y-89635624D01*
X149706797Y-89612573D01*
X149696091Y-89588892D01*
X149686519Y-89564614D01*
X149678114Y-89539775D01*
X149670910Y-89514406D01*
X149664941Y-89488541D01*
X149660240Y-89462215D01*
X149656840Y-89435460D01*
X149654775Y-89408310D01*
X149654080Y-89380800D01*
X149654775Y-89353289D01*
X149656840Y-89326140D01*
X149660240Y-89299385D01*
X149664941Y-89273058D01*
X149670910Y-89247194D01*
X149678114Y-89221825D01*
X149686519Y-89196985D01*
X149696091Y-89172708D01*
X149706797Y-89149027D01*
X149718603Y-89125976D01*
X149731476Y-89103588D01*
X149745381Y-89081898D01*
X149760286Y-89060938D01*
X149776157Y-89040742D01*
X149792960Y-89021344D01*
X149810661Y-89002778D01*
X149829228Y-88985077D01*
X149848625Y-88968274D01*
X149868821Y-88952403D01*
X149889781Y-88937498D01*
X149911471Y-88923593D01*
X149933859Y-88910720D01*
X149956910Y-88898914D01*
X149980591Y-88888208D01*
X150004868Y-88878636D01*
X150029708Y-88870231D01*
X150055077Y-88863027D01*
X150080941Y-88857058D01*
X150107268Y-88852356D01*
X150134023Y-88848957D01*
X150161172Y-88846892D01*
X150188683Y-88846197D01*
X150216193Y-88846892D01*
D13*
X151177578Y-93874046D02*
X151659614Y-94865048D01*
D14*
X145079100Y-91620900D02*
X145047045Y-91683488D01*
X143205697Y-89654131D02*
X143271614Y-89628141D01*
X144462588Y-92267945D02*
X144400000Y-92300000D01*
X142326656Y-90843189D02*
X142335887Y-90770546D01*
D13*
X123100826Y-77747610D02*
X122382838Y-78979480D01*
X130208526Y-58226890D02*
X129815928Y-57388198D01*
D14*
X142744309Y-92017991D02*
X142696247Y-91967580D01*
D13*
X137108758Y-94277828D02*
X137958944Y-94373274D01*
D14*
X142794720Y-92066053D02*
X142744309Y-92017991D01*
X144974337Y-91803167D02*
X144933868Y-91860077D01*
D13*
X142003638Y-58645338D02*
X142626906Y-59679472D01*
D14*
X143478166Y-89569552D02*
X143549646Y-89556787D01*
D13*
X133484926Y-63115904D02*
X133899202Y-64187686D01*
X123738528Y-70390720D02*
X125244978Y-70133752D01*
X127320018Y-70109002D02*
X128129714Y-70728390D01*
X160159480Y-66700074D02*
X159703808Y-66859714D01*
X160615188Y-83303216D02*
X160296956Y-83102278D01*
D14*
X142335887Y-91212654D02*
X142326656Y-91140011D01*
X143549646Y-92426413D02*
X143478166Y-92413648D01*
D13*
X129267980Y-88959352D02*
X129613522Y-89161224D01*
D14*
X143696004Y-89541951D02*
X143770700Y-89540062D01*
D13*
X129440300Y-66455996D02*
X127541264Y-66195420D01*
D14*
X142902223Y-89828432D02*
X142959133Y-89787963D01*
D13*
X152053170Y-59193128D02*
X152156706Y-60642054D01*
X161459694Y-69170262D02*
X161360858Y-68672948D01*
X160479608Y-67035906D02*
X160159480Y-66700074D01*
X153604748Y-56467848D02*
X152435414Y-57793828D01*
X122491550Y-70167512D02*
X123738528Y-70390720D01*
X162317400Y-74442854D02*
X161202650Y-74582338D01*
X149746528Y-63850028D02*
X149324726Y-63850028D01*
X130607770Y-90122868D02*
X132212020Y-91657146D01*
X160946542Y-74428122D02*
X159764076Y-70559564D01*
D16*
X146046788Y-63029301D02*
X146052620Y-63033550D01*
X146058452Y-63037877D01*
X146064284Y-63042308D01*
X146070116Y-63046869D01*
X146075948Y-63051585D01*
X146081779Y-63056484D01*
X146081779Y-63056499D01*
X143980003Y-66504661D01*
X144002338Y-66505521D01*
X144022876Y-66506544D01*
X144059708Y-66508735D01*
X144092791Y-66510553D01*
X144108642Y-66511107D01*
X144124416Y-66511310D01*
X146301735Y-66511310D01*
X146310482Y-66511436D01*
X146319230Y-66511796D01*
X146336726Y-66513114D01*
X146354222Y-66515057D01*
X146371719Y-66517417D01*
X146406712Y-66522553D01*
X146424208Y-66524914D01*
X146441703Y-66526859D01*
X146455032Y-66566860D01*
X141904884Y-71030361D01*
X141864895Y-70999260D01*
X144000000Y-67500000D01*
X141556072Y-67500000D01*
X141533855Y-67459999D01*
X146035125Y-63020935D01*
X146046788Y-63029301D01*
D14*
X144133461Y-89585760D02*
X144202342Y-89605321D01*
X144694011Y-89871524D02*
X144746680Y-89917147D01*
D13*
X154845640Y-58182856D02*
X155415264Y-57133116D01*
D14*
X142407241Y-90492514D02*
X142433231Y-90426597D01*
D13*
X126306970Y-69891498D02*
X127320018Y-70109002D01*
X159703808Y-66859714D02*
X156020676Y-69084044D01*
X128882918Y-89087800D02*
X129267980Y-88959352D01*
D14*
X143271614Y-89628141D02*
X143339058Y-89605321D01*
X145205513Y-91212654D02*
X145192748Y-91284134D01*
D13*
X128129714Y-70728390D02*
X128920538Y-71786384D01*
D14*
X142319162Y-90991600D02*
X142321051Y-90916904D01*
D13*
X163145890Y-78533540D02*
X163258904Y-77929748D01*
X141167596Y-53279180D02*
X140550066Y-54349338D01*
D14*
X142650624Y-90068289D02*
X142696247Y-90015620D01*
D13*
X160524740Y-81835068D02*
X161104768Y-79214370D01*
D14*
X144746680Y-89917147D02*
X144797091Y-89965209D01*
X142529307Y-90238926D02*
X142567063Y-90180033D01*
D13*
X141634530Y-62646132D02*
X141468842Y-62690134D01*
D14*
X143770700Y-89540062D02*
X143845396Y-89541951D01*
X143549646Y-89556787D02*
X143622289Y-89547556D01*
X145108169Y-90426597D02*
X145134159Y-90492514D01*
X144845153Y-90015620D02*
X144890776Y-90068289D01*
D13*
X121248068Y-83131658D02*
X122586168Y-82870138D01*
D14*
X145047045Y-90299712D02*
X145079100Y-90362300D01*
D13*
X155546100Y-61464212D02*
X154905910Y-59606980D01*
X128692704Y-57418500D02*
X128611732Y-59210600D01*
X129711410Y-56472428D02*
X129711410Y-55907220D01*
D14*
X142744309Y-89965209D02*
X142794720Y-89917147D01*
X145012093Y-90238926D02*
X145047045Y-90299712D01*
D13*
X142673982Y-60884302D02*
X142250292Y-61823020D01*
X142407520Y-54348198D02*
X142501306Y-53518110D01*
D14*
X142959133Y-89787963D02*
X143018026Y-89750207D01*
D13*
X162919948Y-74526348D02*
X162317400Y-74442854D01*
X127541264Y-66195420D02*
X125704426Y-66771678D01*
X126058424Y-87942666D02*
X127120416Y-89476906D01*
D14*
X145205513Y-90770546D02*
X145214744Y-90843189D01*
D13*
X155583762Y-69017962D02*
X154265720Y-67410278D01*
D14*
X144269786Y-89628141D02*
X144335703Y-89654131D01*
D13*
X117600000Y-80800000D02*
X117750640Y-81306512D01*
X121703046Y-80024634D02*
X120808586Y-80910138D01*
D14*
X143696004Y-92441249D02*
X143622289Y-92435644D01*
D13*
X135983708Y-59958418D02*
X134057376Y-59489532D01*
X125244978Y-70133752D02*
X126306970Y-69891498D01*
X120073300Y-66624830D02*
X120123242Y-67402962D01*
X160296956Y-83102278D02*
X160306352Y-82730656D01*
X145287588Y-57419440D02*
X143284096Y-55885152D01*
D14*
X142407241Y-91490686D02*
X142384421Y-91423242D01*
D13*
X159897736Y-88442754D02*
X160223520Y-88155512D01*
X151380370Y-63069006D02*
X150552470Y-63578412D01*
D14*
X144797091Y-92017991D02*
X144746680Y-92066053D01*
X144523374Y-92232993D02*
X144462588Y-92267945D01*
X145176540Y-90628839D02*
X145192748Y-90699066D01*
X142348652Y-90699066D02*
X142364860Y-90628839D01*
X142384421Y-91423242D02*
X142364860Y-91354361D01*
D13*
X128476166Y-81078962D02*
X128807626Y-81438680D01*
X143284096Y-55885152D02*
X142665392Y-55135610D01*
D14*
X144890776Y-91914911D02*
X144845153Y-91967580D01*
D13*
X118648130Y-82292032D02*
X119874664Y-82919686D01*
X162126268Y-84027224D02*
X161752502Y-83714314D01*
X151659614Y-94865048D02*
X152016462Y-95219294D01*
X131186754Y-93273050D02*
X131421220Y-93580468D01*
X129815928Y-57388198D02*
X129711410Y-56472428D01*
X128830172Y-73114142D02*
X128626840Y-73862948D01*
X142250292Y-61823020D02*
X141634530Y-62646132D01*
D14*
X144269786Y-92355059D02*
X144202342Y-92377879D01*
X144523374Y-89750207D02*
X144582267Y-89787963D01*
X144133461Y-92397440D02*
X144063234Y-92413648D01*
D13*
X155922770Y-92112232D02*
X154958652Y-90945032D01*
D14*
X142494355Y-91683488D02*
X142462300Y-91620900D01*
D13*
X120565268Y-68567656D02*
X121394250Y-69524498D01*
X129032108Y-72405874D02*
X128830172Y-73114142D01*
X139028462Y-63123270D02*
X138621806Y-62961768D01*
X152016462Y-95219294D02*
X152503218Y-95099992D01*
X117750640Y-81306512D02*
X118648130Y-82292032D01*
X146598172Y-94879772D02*
X150469562Y-93617160D01*
X125704426Y-66771678D02*
X123670754Y-67637904D01*
D14*
X145079100Y-90362300D02*
X145108169Y-90426597D01*
X143018026Y-92232993D02*
X142959133Y-92195237D01*
X143845396Y-92441249D02*
X143770700Y-92443138D01*
X143622289Y-89547556D02*
X143696004Y-89541951D01*
D13*
X124065262Y-76848818D02*
X123100826Y-77747610D01*
D14*
X142433231Y-91556603D02*
X142407241Y-91490686D01*
D13*
X129996696Y-84653950D02*
X129492968Y-85065026D01*
D14*
X142847389Y-89871524D02*
X142902223Y-89828432D01*
X143845396Y-89541951D02*
X143919111Y-89547556D01*
D13*
X129711410Y-55907220D02*
X129082018Y-56562732D01*
D14*
X142696247Y-90015620D02*
X142744309Y-89965209D01*
X143271614Y-92355059D02*
X143205697Y-92329069D01*
D13*
X143253936Y-51811018D02*
X143035548Y-51833038D01*
D14*
X144400000Y-89683200D02*
X144462588Y-89715255D01*
D13*
X152156706Y-60642054D02*
X151922300Y-62399258D01*
D14*
X145220349Y-91066296D02*
X145214744Y-91140011D01*
X144335703Y-92329069D02*
X144269786Y-92355059D01*
D13*
X129638918Y-61101782D02*
X130597734Y-61782066D01*
X129492968Y-85065026D02*
X126284360Y-86995682D01*
X141468842Y-62690134D02*
X139028462Y-63123270D01*
X122382838Y-78979480D02*
X121703046Y-80024634D01*
D14*
X142567063Y-90180033D02*
X142607532Y-90123123D01*
X145176540Y-91354361D02*
X145156979Y-91423242D01*
D13*
X120808586Y-80910138D02*
X120394356Y-81123048D01*
X133304148Y-66235752D02*
X132099054Y-67432354D01*
D14*
X142607532Y-91860077D02*
X142567063Y-91803167D01*
D13*
X147193178Y-62961768D02*
X147012390Y-60304394D01*
X124408874Y-81269820D02*
X124895662Y-80733928D01*
D14*
X144582267Y-89787963D02*
X144639177Y-89828432D01*
X145134159Y-90492514D02*
X145156979Y-90559958D01*
D13*
X143253936Y-52023902D02*
X143253936Y-51811018D01*
X155893542Y-62874564D02*
X155546100Y-61464212D01*
D14*
X144462588Y-89715255D02*
X144523374Y-89750207D01*
D13*
X125880472Y-87403120D02*
X126058424Y-87942666D01*
D14*
X142607532Y-90123123D02*
X142650624Y-90068289D01*
X144639177Y-92154768D02*
X144582267Y-92195237D01*
D13*
X133899202Y-64187686D02*
X133943456Y-65288822D01*
D14*
X144974337Y-90180033D02*
X145012093Y-90238926D01*
X144694011Y-92111676D02*
X144639177Y-92154768D01*
X142902223Y-92154768D02*
X142847389Y-92111676D01*
D17*
X148694613Y-90497609D02*
X148739862Y-90501050D01*
X148784453Y-90506716D01*
X148828331Y-90514552D01*
X148871438Y-90524501D01*
X148913720Y-90536508D01*
X148955120Y-90550516D01*
X148995582Y-90566470D01*
X149035050Y-90584313D01*
X149073468Y-90603990D01*
X149110781Y-90625444D01*
X149146932Y-90648620D01*
X149181865Y-90673462D01*
X149215524Y-90699913D01*
X149247854Y-90727918D01*
X149278798Y-90757420D01*
X149308301Y-90788364D01*
X149336306Y-90820694D01*
X149362757Y-90854353D01*
X149387598Y-90889287D01*
X149410774Y-90925438D01*
X149432229Y-90962750D01*
X149451905Y-91001169D01*
X149469749Y-91040637D01*
X149485702Y-91081099D01*
X149499711Y-91122499D01*
X149511717Y-91164780D01*
X149521666Y-91207888D01*
X149529502Y-91251765D01*
X149535168Y-91296356D01*
X149538609Y-91341605D01*
X149539768Y-91387456D01*
X149538609Y-91433307D01*
X149535168Y-91478556D01*
X149529502Y-91523148D01*
X149521666Y-91567025D01*
X149511717Y-91610132D01*
X149499711Y-91652414D01*
X149485702Y-91693814D01*
X149469749Y-91734276D01*
X149451905Y-91773744D01*
X149432229Y-91812163D01*
X149410774Y-91849475D01*
X149387598Y-91885626D01*
X149362757Y-91920559D01*
X149336306Y-91954219D01*
X149308301Y-91986549D01*
X149278798Y-92017493D01*
X149247854Y-92046995D01*
X149215524Y-92075000D01*
X149181865Y-92101451D01*
X149146932Y-92126293D01*
X149110781Y-92149469D01*
X149073468Y-92170923D01*
X149035050Y-92190600D01*
X148995582Y-92208443D01*
X148955120Y-92224397D01*
X148913720Y-92238405D01*
X148871438Y-92250412D01*
X148828331Y-92260361D01*
X148784453Y-92268196D01*
X148739862Y-92273863D01*
X148694613Y-92277303D01*
X148648762Y-92278463D01*
X148602911Y-92277303D01*
X148557662Y-92273863D01*
X148513071Y-92268196D01*
X148469193Y-92260361D01*
X148426086Y-92250412D01*
X148383804Y-92238405D01*
X148342404Y-92224397D01*
X148301942Y-92208443D01*
X148262474Y-92190600D01*
X148224056Y-92170923D01*
X148186743Y-92149469D01*
X148150592Y-92126293D01*
X148115659Y-92101451D01*
X148082000Y-92075000D01*
X148049670Y-92046995D01*
X148018726Y-92017493D01*
X147989223Y-91986549D01*
X147961218Y-91954219D01*
X147934767Y-91920559D01*
X147909926Y-91885626D01*
X147886750Y-91849475D01*
X147865295Y-91812163D01*
X147845619Y-91773744D01*
X147827775Y-91734276D01*
X147811822Y-91693814D01*
X147797814Y-91652414D01*
X147785807Y-91610132D01*
X147775858Y-91567025D01*
X147768022Y-91523148D01*
X147762356Y-91478556D01*
X147758915Y-91433307D01*
X147757756Y-91387456D01*
X147758915Y-91341605D01*
X147762356Y-91296356D01*
X147768022Y-91251765D01*
X147775858Y-91207888D01*
X147785807Y-91164780D01*
X147797814Y-91122499D01*
X147811822Y-91081099D01*
X147827775Y-91040637D01*
X147845619Y-91001169D01*
X147865295Y-90962750D01*
X147886750Y-90925438D01*
X147909926Y-90889287D01*
X147934767Y-90854353D01*
X147961218Y-90820694D01*
X147989223Y-90788364D01*
X148018726Y-90757420D01*
X148049670Y-90727918D01*
X148082000Y-90699913D01*
X148115659Y-90673462D01*
X148150592Y-90648620D01*
X148186743Y-90625444D01*
X148224056Y-90603990D01*
X148262474Y-90584313D01*
X148301942Y-90566470D01*
X148342404Y-90550516D01*
X148383804Y-90536508D01*
X148426086Y-90524501D01*
X148469193Y-90514552D01*
X148513071Y-90506716D01*
X148557662Y-90501050D01*
X148602911Y-90497609D01*
X148648762Y-90496450D01*
X148694613Y-90497609D01*
D13*
X143035548Y-51833038D02*
X141167596Y-53279180D01*
X144406352Y-97287566D02*
X146590608Y-96935176D01*
X150469562Y-93617160D02*
X150888564Y-93569398D01*
X121394250Y-69524498D02*
X122491550Y-70167512D01*
D14*
X145012093Y-91744274D02*
X144974337Y-91803167D01*
D13*
X161752502Y-83714314D02*
X160615188Y-83303216D01*
X136716210Y-95063302D02*
X137108758Y-94277828D01*
X129613522Y-89161224D02*
X130607770Y-90122868D01*
X132227126Y-59320672D02*
X131107676Y-58971992D01*
D14*
X143919111Y-89547556D02*
X143991754Y-89556787D01*
X144582267Y-92195237D02*
X144523374Y-92232993D01*
X144063234Y-92413648D02*
X143991754Y-92426413D01*
X143141400Y-92300000D02*
X143078812Y-92267945D01*
X142567063Y-91803167D02*
X142529307Y-91744274D01*
D13*
X163138346Y-75066846D02*
X162919948Y-74526348D01*
X161202650Y-74582338D02*
X160946542Y-74428122D01*
X131880668Y-62117546D02*
X132818350Y-62396506D01*
X154220532Y-66859714D02*
X155372870Y-65002482D01*
X142937584Y-52640532D02*
X143253936Y-52023902D01*
D14*
X143141400Y-89683200D02*
X143205697Y-89654131D01*
D13*
X161067100Y-69502440D02*
X161459694Y-69170262D01*
D14*
X143622289Y-92435644D02*
X143549646Y-92426413D01*
X144063234Y-89569552D02*
X144133461Y-89585760D01*
X143770700Y-92443138D02*
X143696004Y-92441249D01*
D13*
X119313528Y-81250546D02*
X118277880Y-80932118D01*
D14*
X144639177Y-89828432D02*
X144694011Y-89871524D01*
D13*
X150552470Y-63578412D02*
X149746528Y-63850028D01*
X146590608Y-96935176D02*
X146357136Y-95217426D01*
X142501306Y-53518110D02*
X142937584Y-52640532D01*
X127120416Y-89476906D02*
X127603394Y-89846716D01*
X123633108Y-82215888D02*
X124408874Y-81269820D01*
X162076340Y-84499822D02*
X162126268Y-84027224D01*
D14*
X145192748Y-90699066D02*
X145205513Y-90770546D01*
X142529307Y-91744274D02*
X142494355Y-91683488D01*
X142326656Y-91140011D02*
X142321051Y-91066296D01*
D13*
X154265720Y-67410278D02*
X154220532Y-66859714D01*
X141257952Y-96487380D02*
X141353980Y-97092104D01*
X124895662Y-80733928D02*
X125568816Y-80440328D01*
X133943456Y-65288822D02*
X133304148Y-66235752D01*
X155704338Y-64246380D02*
X155893542Y-62874564D01*
X163258904Y-77929748D02*
X163138346Y-75066846D01*
X128626840Y-73862948D02*
X128242726Y-75720180D01*
X128242726Y-75720180D02*
X126645908Y-75918352D01*
X162535788Y-78663806D02*
X163145890Y-78533540D01*
D14*
X142384421Y-90559958D02*
X142407241Y-90492514D01*
D13*
X141353980Y-97092104D02*
X141935862Y-97272852D01*
X122166236Y-67722300D02*
X120966810Y-66837734D01*
D14*
X144797091Y-89965209D02*
X144845153Y-90015620D01*
D13*
X133536748Y-94912796D02*
X135827414Y-95936816D01*
D14*
X142494355Y-90299712D02*
X142529307Y-90238926D01*
D13*
X132099054Y-67432354D02*
X129440300Y-66455996D01*
X147351324Y-63152618D02*
X147193178Y-62961768D01*
X129082018Y-56562732D02*
X128692704Y-57418500D01*
X140509826Y-56630042D02*
X141099790Y-57683694D01*
X120394356Y-81123048D02*
X119313528Y-81250546D01*
X141935862Y-97272852D02*
X144406352Y-97287566D01*
D14*
X143407939Y-92397440D02*
X143339058Y-92377879D01*
D13*
X128611732Y-59210600D02*
X128983742Y-60202644D01*
X152503218Y-95099992D02*
X155764548Y-93037202D01*
X141370962Y-95452310D02*
X141257952Y-96487380D01*
D14*
X143205697Y-92329069D02*
X143141400Y-92300000D01*
X144202342Y-89605321D02*
X144269786Y-89628141D01*
D13*
X155415264Y-57133116D02*
X156442460Y-56501772D01*
X140550066Y-54349338D02*
X140328696Y-55492442D01*
D14*
X143991754Y-89556787D02*
X144063234Y-89569552D01*
X142462300Y-90362300D02*
X142494355Y-90299712D01*
D13*
X142665392Y-55135610D02*
X142407520Y-54348198D01*
D14*
X144400000Y-92300000D02*
X144335703Y-92329069D01*
D13*
X161360858Y-68672948D02*
X160479608Y-67035906D01*
X120522378Y-66155052D02*
X120288912Y-65824654D01*
X146522832Y-58663680D02*
X145287588Y-57419440D01*
X125568816Y-80440328D02*
X126803124Y-80387982D01*
X159764076Y-70559564D02*
X160027646Y-69994266D01*
D14*
X142364860Y-91354361D02*
X142348652Y-91284134D01*
X143018026Y-89750207D02*
X143078812Y-89715255D01*
D13*
X138621806Y-62961768D02*
X137446772Y-61258672D01*
X123670754Y-67637904D02*
X122166236Y-67722300D01*
X137446772Y-61258672D02*
X135983708Y-59958418D01*
D14*
X144890776Y-90068289D02*
X144933868Y-90123123D01*
D13*
X154958652Y-90945032D02*
X158137158Y-87480190D01*
D14*
X145222238Y-90991600D02*
X145220349Y-91066296D01*
D13*
X161104768Y-79214370D02*
X161301538Y-78831752D01*
D14*
X142462300Y-91620900D02*
X142433231Y-91556603D01*
D13*
X125254252Y-76250076D02*
X124065262Y-76848818D01*
D14*
X142335887Y-90770546D02*
X142348652Y-90699066D01*
X145220349Y-90916904D02*
X145222238Y-90991600D01*
D13*
X119874664Y-82919686D02*
X121248068Y-83131658D01*
X150888564Y-93569398D02*
X151177578Y-93874046D01*
X156020676Y-69084044D02*
X155583762Y-69017962D01*
X127603394Y-89846716D02*
X128182408Y-89616388D01*
D18*
X150406997Y-91124786D02*
X150425097Y-91126162D01*
X150442933Y-91128429D01*
X150460484Y-91131563D01*
X150477727Y-91135543D01*
X150494640Y-91140346D01*
X150511200Y-91145949D01*
X150527384Y-91152330D01*
X150543172Y-91159468D01*
X150558539Y-91167339D01*
X150573464Y-91175920D01*
X150587925Y-91185191D01*
X150601898Y-91195128D01*
X150615362Y-91205708D01*
X150628294Y-91216910D01*
X150640672Y-91228711D01*
X150652473Y-91241089D01*
X150663675Y-91254021D01*
X150674255Y-91267485D01*
X150684192Y-91281458D01*
X150693462Y-91295918D01*
X150702044Y-91310843D01*
X150709915Y-91326211D01*
X150717052Y-91341998D01*
X150723434Y-91358183D01*
X150729037Y-91374743D01*
X150733840Y-91391655D01*
X150737819Y-91408898D01*
X150740954Y-91426449D01*
X150743220Y-91444286D01*
X150744596Y-91462385D01*
X150745060Y-91480726D01*
X150744596Y-91499066D01*
X150743220Y-91517166D01*
X150740954Y-91535002D01*
X150737819Y-91552553D01*
X150733840Y-91569796D01*
X150729037Y-91586709D01*
X150723434Y-91603268D01*
X150717052Y-91619453D01*
X150709915Y-91635241D01*
X150702044Y-91650608D01*
X150693462Y-91665533D01*
X150684192Y-91679993D01*
X150674255Y-91693967D01*
X150663675Y-91707431D01*
X150652473Y-91720363D01*
X150640672Y-91732740D01*
X150628294Y-91744541D01*
X150615362Y-91755743D01*
X150601898Y-91766324D01*
X150587925Y-91776261D01*
X150573464Y-91785531D01*
X150558539Y-91794113D01*
X150543172Y-91801984D01*
X150527384Y-91809121D01*
X150511200Y-91815502D01*
X150494640Y-91821106D01*
X150477727Y-91825908D01*
X150460484Y-91829888D01*
X150442933Y-91833022D01*
X150425097Y-91835289D01*
X150406997Y-91836665D01*
X150388657Y-91837129D01*
X150370317Y-91836665D01*
X150352217Y-91835289D01*
X150334381Y-91833022D01*
X150316830Y-91829888D01*
X150299587Y-91825908D01*
X150282674Y-91821106D01*
X150266114Y-91815502D01*
X150249929Y-91809121D01*
X150234142Y-91801984D01*
X150218775Y-91794113D01*
X150203849Y-91785531D01*
X150189389Y-91776261D01*
X150175416Y-91766324D01*
X150161952Y-91755743D01*
X150149020Y-91744541D01*
X150136642Y-91732740D01*
X150124841Y-91720363D01*
X150113639Y-91707431D01*
X150103059Y-91693967D01*
X150093122Y-91679993D01*
X150083852Y-91665533D01*
X150075270Y-91650608D01*
X150067399Y-91635241D01*
X150060262Y-91619453D01*
X150053880Y-91603268D01*
X150048277Y-91586709D01*
X150043474Y-91569796D01*
X150039494Y-91552553D01*
X150036360Y-91535002D01*
X150034094Y-91517166D01*
X150032717Y-91499066D01*
X150032254Y-91480726D01*
X150032717Y-91462385D01*
X150034094Y-91444286D01*
X150036360Y-91426449D01*
X150039494Y-91408898D01*
X150043474Y-91391655D01*
X150048277Y-91374743D01*
X150053880Y-91358183D01*
X150060262Y-91341998D01*
X150067399Y-91326211D01*
X150075270Y-91310843D01*
X150083852Y-91295918D01*
X150093122Y-91281458D01*
X150103059Y-91267485D01*
X150113639Y-91254021D01*
X150124841Y-91241089D01*
X150136642Y-91228711D01*
X150149020Y-91216910D01*
X150161952Y-91205708D01*
X150175416Y-91195128D01*
X150189389Y-91185191D01*
X150203849Y-91175920D01*
X150218775Y-91167339D01*
X150234142Y-91159468D01*
X150249929Y-91152330D01*
X150266114Y-91145949D01*
X150282674Y-91140346D01*
X150299587Y-91135543D01*
X150316830Y-91131563D01*
X150334381Y-91128429D01*
X150352217Y-91126162D01*
X150370317Y-91124786D01*
X150388657Y-91124322D01*
X150406997Y-91124786D01*
D13*
X134057376Y-59489532D02*
X132227126Y-59320672D01*
D14*
X145156979Y-91423242D02*
X145134159Y-91490686D01*
D13*
X160027646Y-69994266D02*
X161067100Y-69502440D01*
D14*
X143919111Y-92435644D02*
X143845396Y-92441249D01*
X142348652Y-91284134D02*
X142335887Y-91212654D01*
X142794720Y-89917147D02*
X142847389Y-89871524D01*
D13*
X146357136Y-95217426D02*
X146598172Y-94879772D01*
X152435414Y-57793828D02*
X152053170Y-59193128D01*
D14*
X142696247Y-91967580D02*
X142650624Y-91914911D01*
X144933868Y-90123123D02*
X144974337Y-90180033D01*
D13*
X147012390Y-60304394D02*
X146522832Y-58663680D01*
D14*
X143078812Y-89715255D02*
X143141400Y-89683200D01*
X144845153Y-91967580D02*
X144797091Y-92017991D01*
D13*
X155372870Y-65002482D02*
X155704338Y-64246380D01*
X160223520Y-88155512D02*
X162076340Y-84499822D01*
X161707316Y-78685862D02*
X162535788Y-78663806D01*
X132212020Y-91657146D02*
X131308220Y-92905034D01*
D14*
X145214744Y-90843189D02*
X145220349Y-90916904D01*
D13*
X128983742Y-60202644D02*
X129638918Y-61101782D01*
X160306352Y-82730656D02*
X160524740Y-81835068D01*
X131308220Y-92905034D02*
X131186754Y-93273050D01*
X154905910Y-59606980D02*
X154845640Y-58182856D01*
X155764548Y-93037202D02*
X156137374Y-92618768D01*
X120123242Y-67402962D02*
X120565268Y-68567656D01*
X157188140Y-55958578D02*
X156909456Y-55863172D01*
D14*
X142364860Y-90628839D02*
X142384421Y-90559958D01*
D13*
X156442460Y-56501772D02*
X157188140Y-55958578D01*
X127964022Y-80792638D02*
X128476166Y-81078962D01*
X122586168Y-82870138D02*
X123633108Y-82215888D01*
X149324726Y-63850028D02*
X147351324Y-63152618D01*
D14*
X142321051Y-91066296D02*
X142319162Y-90991600D01*
D13*
X156909456Y-55863172D02*
X155282552Y-55863172D01*
X117682852Y-80726578D02*
X117600000Y-80800000D01*
D14*
X142650624Y-91914911D02*
X142607532Y-91860077D01*
D13*
X126803124Y-80387982D02*
X127964022Y-80792638D01*
X129816858Y-84022638D02*
X129996696Y-84653950D01*
D14*
X145108169Y-91556603D02*
X145079100Y-91620900D01*
M02*
