%TF.GenerationSoftware,KiCad,Pcbnew,7.0.8*%
%TF.CreationDate,2024-02-29T15:37:24+01:00*%
%TF.ProjectId,COXY-V2,434f5859-2d56-4322-9e6b-696361645f70,rev?*%
%TF.SameCoordinates,Original*%
%TF.FileFunction,Copper,L2,Bot*%
%TF.FilePolarity,Positive*%
%FSLAX46Y46*%
G04 Gerber Fmt 4.6, Leading zero omitted, Abs format (unit mm)*
G04 Created by KiCad (PCBNEW 7.0.8) date 2024-02-29 15:37:24*
%MOMM*%
%LPD*%
G01*
G04 APERTURE LIST*
G04 Aperture macros list*
%AMRoundRect*
0 Rectangle with rounded corners*
0 $1 Rounding radius*
0 $2 $3 $4 $5 $6 $7 $8 $9 X,Y pos of 4 corners*
0 Add a 4 corners polygon primitive as box body*
4,1,4,$2,$3,$4,$5,$6,$7,$8,$9,$2,$3,0*
0 Add four circle primitives for the rounded corners*
1,1,$1+$1,$2,$3*
1,1,$1+$1,$4,$5*
1,1,$1+$1,$6,$7*
1,1,$1+$1,$8,$9*
0 Add four rect primitives between the rounded corners*
20,1,$1+$1,$2,$3,$4,$5,0*
20,1,$1+$1,$4,$5,$6,$7,0*
20,1,$1+$1,$6,$7,$8,$9,0*
20,1,$1+$1,$8,$9,$2,$3,0*%
G04 Aperture macros list end*
%TA.AperFunction,ComponentPad*%
%ADD10C,1.930400*%
%TD*%
%TA.AperFunction,ComponentPad*%
%ADD11O,2.000000X1.600000*%
%TD*%
%TA.AperFunction,ComponentPad*%
%ADD12R,2.000000X2.000000*%
%TD*%
%TA.AperFunction,ComponentPad*%
%ADD13O,1.400000X1.400000*%
%TD*%
%TA.AperFunction,ComponentPad*%
%ADD14C,1.400000*%
%TD*%
%TA.AperFunction,ComponentPad*%
%ADD15RoundRect,0.250000X-0.600000X-0.750000X0.600000X-0.750000X0.600000X0.750000X-0.600000X0.750000X0*%
%TD*%
%TA.AperFunction,ComponentPad*%
%ADD16O,1.700000X2.000000*%
%TD*%
%TA.AperFunction,ComponentPad*%
%ADD17O,1.700000X1.950000*%
%TD*%
%TA.AperFunction,ComponentPad*%
%ADD18RoundRect,0.250000X-0.600000X-0.725000X0.600000X-0.725000X0.600000X0.725000X-0.600000X0.725000X0*%
%TD*%
%TA.AperFunction,ComponentPad*%
%ADD19O,1.700000X1.700000*%
%TD*%
%TA.AperFunction,ComponentPad*%
%ADD20R,1.700000X1.700000*%
%TD*%
%TA.AperFunction,ComponentPad*%
%ADD21C,1.600000*%
%TD*%
%TA.AperFunction,ComponentPad*%
%ADD22R,1.600000X1.600000*%
%TD*%
%TA.AperFunction,ComponentPad*%
%ADD23C,7.000000*%
%TD*%
%TA.AperFunction,ComponentPad*%
%ADD24O,2.200000X2.200000*%
%TD*%
%TA.AperFunction,ComponentPad*%
%ADD25R,2.200000X2.200000*%
%TD*%
%TA.AperFunction,ViaPad*%
%ADD26C,0.800000*%
%TD*%
%TA.AperFunction,Conductor*%
%ADD27C,0.300000*%
%TD*%
%TA.AperFunction,Conductor*%
%ADD28C,0.500000*%
%TD*%
G04 APERTURE END LIST*
D10*
%TO.P,U1,18,O1*%
%TO.N,ULNOUT1*%
X163100000Y-53680000D03*
%TO.P,U1,17,O2*%
%TO.N,ULNOUT2*%
X163100000Y-56220000D03*
%TO.P,U1,16,O3*%
%TO.N,ULNOUT3*%
X163100000Y-58760000D03*
%TO.P,U1,15,O4*%
%TO.N,ULNOUT4*%
X163100000Y-61300000D03*
%TO.P,U1,14,O5*%
%TO.N,ULNOUT5*%
X163100000Y-63840000D03*
%TO.P,U1,13,O6*%
%TO.N,ULNOUT6*%
X163100000Y-66380000D03*
%TO.P,U1,12,O7*%
%TO.N,ULNOUT7*%
X163100000Y-68920000D03*
%TO.P,U1,11,O8*%
%TO.N,ULNOUT8*%
X163100000Y-71460000D03*
%TO.P,U1,10,COM*%
%TO.N,VBUS2*%
X163100000Y-74000000D03*
%TO.P,U1,9,GND*%
%TO.N,GND*%
X155480000Y-74000000D03*
%TO.P,U1,8,I8*%
%TO.N,IO8*%
X155480000Y-71460000D03*
%TO.P,U1,7,I7*%
%TO.N,IO7*%
X155480000Y-68920000D03*
%TO.P,U1,6,I6*%
%TO.N,IO6*%
X155480000Y-66380000D03*
%TO.P,U1,5,I5*%
%TO.N,IO5*%
X155480000Y-63840000D03*
%TO.P,U1,4,I4*%
%TO.N,IO4*%
X155480000Y-61300000D03*
%TO.P,U1,3,I3*%
%TO.N,IO3*%
X155480000Y-58760000D03*
%TO.P,U1,2,I2*%
%TO.N,IO2*%
X155480000Y-56220000D03*
%TO.P,U1,1,I1*%
%TO.N,IO1*%
X155480000Y-53680000D03*
%TD*%
D11*
%TO.P,S2-Mini-ESP32,32,GPIO15*%
%TO.N,IO15*%
X119680000Y-50220000D03*
%TO.P,S2-Mini-ESP32,31,GND*%
%TO.N,GND*%
X119680000Y-52760000D03*
%TO.P,S2-Mini-ESP32,30,GPIO17*%
%TO.N,DSPIN*%
X119680000Y-55300000D03*
%TO.P,S2-Mini-ESP32,29,GPIO21*%
%TO.N,SDA*%
X119680000Y-57840000D03*
%TO.P,S2-Mini-ESP32,28,GPIO34*%
%TO.N,SCL*%
X119680000Y-60380000D03*
%TO.P,S2-Mini-ESP32,27,GPIO36*%
%TO.N,ENDSW*%
X119680000Y-62920000D03*
%TO.P,S2-Mini-ESP32,26,GPIO38*%
%TO.N,IO38*%
X119680000Y-65460000D03*
%TO.P,S2-Mini-ESP32,25,GPIO40*%
%TO.N,IO40*%
X119680000Y-68000000D03*
%TO.P,S2-Mini-ESP32,24,VBUS*%
%TO.N,VBUS1*%
X117140000Y-50220000D03*
%TO.P,S2-Mini-ESP32,23,GND*%
%TO.N,GND*%
X117140000Y-52760000D03*
%TO.P,S2-Mini-ESP32,22,GPIO16*%
%TO.N,IO16*%
X117140000Y-55300000D03*
%TO.P,S2-Mini-ESP32,21,GPIO18*%
%TO.N,IO18*%
X117140000Y-57840000D03*
%TO.P,S2-Mini-ESP32,20,GPIO33*%
%TO.N,IO33*%
X117140000Y-60380000D03*
%TO.P,S2-Mini-ESP32,19,GPIO35*%
%TO.N,IO35*%
X117140000Y-62920000D03*
%TO.P,S2-Mini-ESP32,18,GPIO37*%
%TO.N,IO37*%
X117140000Y-65460000D03*
%TO.P,S2-Mini-ESP32,17,GPIO39*%
%TO.N,IO39*%
X117140000Y-68000000D03*
%TO.P,S2-Mini-ESP32,16,GPIO14*%
%TO.N,IO14*%
X137460000Y-50220000D03*
%TO.P,S2-Mini-ESP32,15,GPIO13*%
%TO.N,IO13*%
X137460000Y-52760000D03*
%TO.P,S2-Mini-ESP32,14,GPIO10*%
%TO.N,IO10*%
X137460000Y-55300000D03*
%TO.P,S2-Mini-ESP32,13,GPIO8*%
%TO.N,IO8*%
X137460000Y-57840000D03*
%TO.P,S2-Mini-ESP32,12,GPIO6*%
%TO.N,IO6*%
X137460000Y-60380000D03*
%TO.P,S2-Mini-ESP32,11,GPIO4*%
%TO.N,IO4*%
X137460000Y-62920000D03*
%TO.P,S2-Mini-ESP32,10,GPIO2*%
%TO.N,IO2*%
X137460000Y-65460000D03*
%TO.P,S2-Mini-ESP32,9,GPIO1*%
%TO.N,IO1*%
X137460000Y-68000000D03*
%TO.P,S2-Mini-ESP32,8,3_3V*%
%TO.N,VBUS3_3*%
X140000000Y-50220000D03*
%TO.P,S2-Mini-ESP32,7,GPIO12*%
%TO.N,IO12*%
X140000000Y-52760000D03*
%TO.P,S2-Mini-ESP32,6,GPIO11*%
%TO.N,IO11*%
X140000000Y-55300000D03*
%TO.P,S2-Mini-ESP32,5,GPIO9*%
%TO.N,IO9*%
X140000000Y-57840000D03*
%TO.P,S2-Mini-ESP32,4,GPIO7*%
%TO.N,IO7*%
X140000000Y-60380000D03*
%TO.P,S2-Mini-ESP32,3,GPIO5*%
%TO.N,IO5*%
X140000000Y-62920000D03*
%TO.P,S2-Mini-ESP32,2,GPIO3*%
%TO.N,IO3*%
X140000000Y-65460000D03*
D12*
%TO.P,S2-Mini-ESP32,1,EN*%
%TO.N,unconnected-(S2-Mini-ESP1-EN-Pad1)*%
X140000000Y-68000000D03*
%TD*%
D13*
%TO.P,R1,2*%
%TO.N,VBUS3_3*%
X111900000Y-86320000D03*
D14*
%TO.P,R1,1*%
%TO.N,DSPIN*%
X106820000Y-86320000D03*
%TD*%
D15*
%TO.P,POWER,1,Pin_1*%
%TO.N,+5V*%
X159200000Y-44200000D03*
D16*
%TO.P,POWER,2,Pin_2*%
%TO.N,GND*%
X161700000Y-44200000D03*
%TD*%
D17*
%TO.P,M2,5,Pin_5*%
%TO.N,VBUS2*%
X155700000Y-80900000D03*
%TO.P,M2,4,Pin_4*%
%TO.N,ULNOUT8*%
X153200000Y-80900000D03*
%TO.P,M2,3,Pin_3*%
%TO.N,ULNOUT7*%
X150700000Y-80900000D03*
%TO.P,M2,2,Pin_2*%
%TO.N,ULNOUT6*%
X148200000Y-80900000D03*
D18*
%TO.P,M2,1,Pin_1*%
%TO.N,ULNOUT5*%
X145700000Y-80900000D03*
%TD*%
D17*
%TO.P,M1,5,Pin_5*%
%TO.N,VBUS2*%
X173100000Y-80900000D03*
%TO.P,M1,4,Pin_4*%
%TO.N,ULNOUT4*%
X170600000Y-80900000D03*
%TO.P,M1,3,Pin_3*%
%TO.N,ULNOUT3*%
X168100000Y-80900000D03*
%TO.P,M1,2,Pin_2*%
%TO.N,ULNOUT2*%
X165600000Y-80900000D03*
D18*
%TO.P,M1,1,Pin_1*%
%TO.N,ULNOUT1*%
X163100000Y-80900000D03*
%TD*%
D19*
%TO.P,GND,3,Pin_3*%
%TO.N,GND*%
X184000000Y-63680000D03*
%TO.P,GND,2,Pin_2*%
X184000000Y-61140000D03*
D20*
%TO.P,GND,1,Pin_1*%
X184000000Y-58600000D03*
%TD*%
D16*
%TO.P,END_SW,2,Pin_2*%
%TO.N,ENDSW*%
X185700000Y-81000000D03*
D15*
%TO.P,END_SW,1,Pin_1*%
%TO.N,GND*%
X183200000Y-81000000D03*
%TD*%
D17*
%TO.P,DS18D1,3,Pin_3*%
%TO.N,VBUS3_3*%
X112200000Y-81300000D03*
%TO.P,DS18D1,2,Pin_2*%
%TO.N,GND*%
X109700000Y-81300000D03*
D18*
%TO.P,DS18D1,1,Pin_1*%
%TO.N,DSPIN*%
X107200000Y-81300000D03*
%TD*%
D21*
%TO.P,C3 0.1uF,2*%
%TO.N,GND*%
X185200000Y-73000000D03*
%TO.P,C3 0.1uF,1*%
%TO.N,VBUS2*%
X182700000Y-73000000D03*
%TD*%
%TO.P,C1 10uF,2*%
%TO.N,GND*%
X150600000Y-45000000D03*
D22*
%TO.P,C1 10uF,1*%
%TO.N,+5V*%
X148100000Y-45000000D03*
%TD*%
D21*
%TO.P,C2 0.1uF,2*%
%TO.N,VBUS1*%
X171800000Y-44400000D03*
%TO.P,C2 0.1uF,1*%
%TO.N,GND*%
X169300000Y-44400000D03*
%TD*%
D19*
%TO.P,15 38 40,3,Pin_3*%
%TO.N,IO40*%
X112000000Y-45945000D03*
%TO.P,15 38 40,2,Pin_2*%
%TO.N,IO38*%
X112000000Y-48485000D03*
D20*
%TO.P,15 38 40,1,Pin_1*%
%TO.N,IO15*%
X112000000Y-51025000D03*
%TD*%
D19*
%TO.P,9 10 11 12 13 14,6,Pin_6*%
%TO.N,IO14*%
X135120000Y-81400000D03*
%TO.P,9 10 11 12 13 14,5,Pin_5*%
%TO.N,IO13*%
X132580000Y-81400000D03*
%TO.P,9 10 11 12 13 14,4,Pin_4*%
%TO.N,IO12*%
X130040000Y-81400000D03*
%TO.P,9 10 11 12 13 14,3,Pin_3*%
%TO.N,IO11*%
X127500000Y-81400000D03*
%TO.P,9 10 11 12 13 14,2,Pin_2*%
%TO.N,IO10*%
X124960000Y-81400000D03*
D20*
%TO.P,9 10 11 12 13 14,1,Pin_1*%
%TO.N,IO9*%
X122420000Y-81400000D03*
%TD*%
D19*
%TO.P,39 37 35 33 18 16,6,Pin_6*%
%TO.N,IO16*%
X112000000Y-55300000D03*
%TO.P,39 37 35 33 18 16,5,Pin_5*%
%TO.N,IO18*%
X112000000Y-57840000D03*
%TO.P,39 37 35 33 18 16,4,Pin_4*%
%TO.N,IO33*%
X112000000Y-60380000D03*
%TO.P,39 37 35 33 18 16,3,Pin_3*%
%TO.N,IO35*%
X112000000Y-62920000D03*
%TO.P,39 37 35 33 18 16,2,Pin_2*%
%TO.N,IO37*%
X112000000Y-65460000D03*
D20*
%TO.P,39 37 35 33 18 16,1,Pin_1*%
%TO.N,IO39*%
X112000000Y-68000000D03*
%TD*%
D19*
%TO.P,5V,3,Pin_3*%
%TO.N,VBUS2*%
X179500000Y-63665000D03*
%TO.P,5V,2,Pin_2*%
X179500000Y-61125000D03*
D20*
%TO.P,5V,1,Pin_1*%
X179500000Y-58585000D03*
%TD*%
D19*
%TO.P,3_3V,3,Pin_3*%
%TO.N,VBUS3_3*%
X188500000Y-63680000D03*
%TO.P,3_3V,2,Pin_2*%
X188500000Y-61140000D03*
D20*
%TO.P,3_3V,1,Pin_1*%
X188500000Y-58600000D03*
%TD*%
D17*
%TO.P,I2C_1,4,Pin_4*%
%TO.N,GND*%
X122500000Y-95000000D03*
%TO.P,I2C_1,3,Pin_3*%
%TO.N,VBUS1*%
X120000000Y-95000000D03*
%TO.P,I2C_1,2,Pin_2*%
%TO.N,SCL*%
X117500000Y-95000000D03*
D18*
%TO.P,I2C_1,1,Pin_1*%
%TO.N,SDA*%
X115000000Y-95000000D03*
%TD*%
D23*
%TO.P,H2,1*%
%TO.N,N/C*%
X195000000Y-32000000D03*
%TD*%
D17*
%TO.P,I2C_5,4,Pin_4*%
%TO.N,GND*%
X184250000Y-95000000D03*
%TO.P,I2C_5,3,Pin_3*%
%TO.N,VBUS1*%
X181750000Y-95000000D03*
%TO.P,I2C_5,2,Pin_2*%
%TO.N,SCL*%
X179250000Y-95000000D03*
D18*
%TO.P,I2C_5,1,Pin_1*%
%TO.N,SDA*%
X176750000Y-95000000D03*
%TD*%
D23*
%TO.P,H3,1*%
%TO.N,N/C*%
X104000000Y-96000000D03*
%TD*%
%TO.P,H1,1*%
%TO.N,N/C*%
X104000000Y-32000000D03*
%TD*%
D17*
%TO.P,I2C_2,4,Pin_4*%
%TO.N,GND*%
X138000000Y-95000000D03*
%TO.P,I2C_2,3,Pin_3*%
%TO.N,VBUS1*%
X135500000Y-95000000D03*
%TO.P,I2C_2,2,Pin_2*%
%TO.N,SCL*%
X133000000Y-95000000D03*
D18*
%TO.P,I2C_2,1,Pin_1*%
%TO.N,SDA*%
X130500000Y-95000000D03*
%TD*%
D17*
%TO.P,I2C_4,4,Pin_4*%
%TO.N,GND*%
X169000000Y-95000000D03*
%TO.P,I2C_4,3,Pin_3*%
%TO.N,VBUS1*%
X166500000Y-95000000D03*
%TO.P,I2C_4,2,Pin_2*%
%TO.N,SCL*%
X164000000Y-95000000D03*
D18*
%TO.P,I2C_4,1,Pin_1*%
%TO.N,SDA*%
X161500000Y-95000000D03*
%TD*%
D24*
%TO.P,D2,2,A*%
%TO.N,+5V*%
X188750000Y-48000000D03*
D25*
%TO.P,D2,1,K*%
%TO.N,VBUS2*%
X178590000Y-48000000D03*
%TD*%
D23*
%TO.P,H4,1*%
%TO.N,N/C*%
X195000000Y-96000000D03*
%TD*%
D24*
%TO.P,D1,2,A*%
%TO.N,+5V*%
X188750000Y-42250000D03*
D25*
%TO.P,D1,1,K*%
%TO.N,VBUS1*%
X178590000Y-42250000D03*
%TD*%
D17*
%TO.P,I2C_3,4,Pin_4*%
%TO.N,GND*%
X153600000Y-95000000D03*
%TO.P,I2C_3,3,Pin_3*%
%TO.N,VBUS1*%
X151100000Y-95000000D03*
%TO.P,I2C_3,2,Pin_2*%
%TO.N,SCL*%
X148600000Y-95000000D03*
D18*
%TO.P,I2C_3,1,Pin_1*%
%TO.N,SDA*%
X146100000Y-95000000D03*
%TD*%
D26*
%TO.N,GND*%
X138100000Y-92100000D03*
X125400000Y-92000000D03*
X153600000Y-98700000D03*
X169200000Y-92200000D03*
%TO.N,IO6*%
X142488700Y-64846200D03*
%TO.N,IO1*%
X148722300Y-66578200D03*
%TO.N,IO7*%
X149460500Y-68450900D03*
%TO.N,ULNOUT6*%
X159240200Y-69757700D03*
%TO.N,ULNOUT5*%
X159240200Y-67699800D03*
%TO.N,IO11*%
X128177900Y-58661600D03*
%TD*%
D27*
%TO.N,IO8*%
X156797100Y-53078000D02*
X156043100Y-52324000D01*
%TO.N,IO3*%
X140000000Y-66611900D02*
X141151900Y-66611900D01*
%TO.N,IO40*%
X112373600Y-47146900D02*
X112000000Y-47146900D01*
%TO.N,IO38*%
X120414700Y-69158400D02*
X121033600Y-68539500D01*
X112901500Y-49686900D02*
X113201900Y-49987300D01*
%TO.N,IO14*%
X128770000Y-59132800D02*
X128929800Y-58973000D01*
X129522600Y-82656500D02*
X128770000Y-81903900D01*
X133918100Y-81400000D02*
X133918100Y-81773600D01*
%TO.N,IO13*%
X136953800Y-53911900D02*
X137460000Y-53911900D01*
%TO.N,IO10*%
X126161900Y-81773600D02*
X126161900Y-81400000D01*
X136368900Y-81860900D02*
X135045900Y-83183900D01*
X135533500Y-78126300D02*
X136368900Y-78961700D01*
X137460000Y-56451900D02*
X136956000Y-56451900D01*
%TO.N,IO9*%
X123621900Y-81775600D02*
X123621900Y-81400000D01*
X136874100Y-82065400D02*
X135247700Y-83691800D01*
X136087500Y-68456600D02*
X136874100Y-69243200D01*
X136995500Y-58991900D02*
X136087500Y-59899900D01*
%TO.N,DSPIN*%
X115775400Y-57355100D02*
X116678600Y-56451900D01*
X116517700Y-64190000D02*
X115775400Y-63447700D01*
X121588300Y-65470300D02*
X120308000Y-64190000D01*
X118193200Y-70142500D02*
X120140300Y-70142500D01*
X107200000Y-81300000D02*
X107200000Y-81135700D01*
%TO.N,SCL*%
X120184000Y-61531900D02*
X119680000Y-61531900D01*
X118473400Y-70644400D02*
X120348100Y-70644400D01*
X116298100Y-95912500D02*
X115844600Y-96366000D01*
%TO.N,SDA*%
X120184000Y-58991900D02*
X119680000Y-58991900D01*
X120467200Y-71146300D02*
X120555900Y-71146300D01*
X110801000Y-84621300D02*
X110950000Y-84472300D01*
D28*
%TO.N,GND*%
X138000000Y-92200000D02*
X138100000Y-92100000D01*
X138000000Y-95000000D02*
X138000000Y-92200000D01*
X122500000Y-94900000D02*
X125400000Y-92000000D01*
X122500000Y-95000000D02*
X122500000Y-94900000D01*
X153600000Y-95000000D02*
X153600000Y-98700000D01*
X169000000Y-92400000D02*
X169200000Y-92200000D01*
X169000000Y-95000000D02*
X169000000Y-92400000D01*
D27*
%TO.N,IO8*%
X138730000Y-56570000D02*
X137460000Y-57840000D01*
X141739600Y-56570000D02*
X138730000Y-56570000D01*
X145985600Y-52324000D02*
X141739600Y-56570000D01*
X156043100Y-52324000D02*
X145985600Y-52324000D01*
X156797100Y-70142900D02*
X156797100Y-53078000D01*
X155480000Y-71460000D02*
X156797100Y-70142900D01*
%TO.N,IO6*%
X137460000Y-60380000D02*
X137460000Y-61531900D01*
X142488600Y-64846200D02*
X142488700Y-64846200D01*
X142488600Y-63565500D02*
X142488600Y-64846200D01*
X140455000Y-61531900D02*
X142488600Y-63565500D01*
X137460000Y-61531900D02*
X140455000Y-61531900D01*
%TO.N,IO1*%
X148722300Y-60437700D02*
X148722300Y-66578200D01*
X155480000Y-53680000D02*
X148722300Y-60437700D01*
%TO.N,IO7*%
X141389600Y-60380000D02*
X149460500Y-68450900D01*
X140000000Y-60380000D02*
X141389600Y-60380000D01*
%TO.N,IO3*%
X152581300Y-61658700D02*
X155480000Y-58760000D01*
X152581300Y-66393600D02*
X152581300Y-61658700D01*
X149772000Y-69202900D02*
X152581300Y-66393600D01*
X143742900Y-69202900D02*
X149772000Y-69202900D01*
X141151900Y-66611900D02*
X143742900Y-69202900D01*
X140000000Y-65460000D02*
X140000000Y-66611900D01*
D28*
%TO.N,ULNOUT6*%
X159240200Y-73268700D02*
X159240200Y-69757700D01*
X155334100Y-77174800D02*
X159240200Y-73268700D01*
X151925200Y-77174800D02*
X155334100Y-77174800D01*
X148200000Y-80900000D02*
X151925200Y-77174800D01*
%TO.N,ULNOUT5*%
X157932600Y-69007400D02*
X159240200Y-67699800D01*
X157932600Y-73583600D02*
X157932600Y-69007400D01*
X155290800Y-76225400D02*
X157932600Y-73583600D01*
X150374600Y-76225400D02*
X155290800Y-76225400D01*
X145700000Y-80900000D02*
X150374600Y-76225400D01*
%TO.N,ULNOUT4*%
X166294300Y-64494300D02*
X163100000Y-61300000D01*
X166294300Y-71495000D02*
X166294300Y-64494300D01*
X174409300Y-79610000D02*
X166294300Y-71495000D01*
X174409300Y-81613000D02*
X174409300Y-79610000D01*
X173668500Y-82353800D02*
X174409300Y-81613000D01*
X172053800Y-82353800D02*
X173668500Y-82353800D01*
X170600000Y-80900000D02*
X172053800Y-82353800D01*
%TO.N,ULNOUT3*%
X161639800Y-60220200D02*
X163100000Y-58760000D01*
X161639800Y-74615300D02*
X161639800Y-60220200D01*
X167924500Y-80900000D02*
X161639800Y-74615300D01*
X168100000Y-80900000D02*
X167924500Y-80900000D01*
%TO.N,ULNOUT2*%
X160884500Y-58435500D02*
X163100000Y-56220000D01*
X160884500Y-76184500D02*
X160884500Y-58435500D01*
X165600000Y-80900000D02*
X160884500Y-76184500D01*
%TO.N,ULNOUT1*%
X160129200Y-56650800D02*
X163100000Y-53680000D01*
X160129200Y-77929200D02*
X160129200Y-56650800D01*
X163100000Y-80900000D02*
X160129200Y-77929200D01*
D27*
%TO.N,IO40*%
X119680000Y-68000000D02*
X119680000Y-66848100D01*
X112000000Y-45945000D02*
X112000000Y-47146900D01*
X113799300Y-48572600D02*
X112373600Y-47146900D01*
X113799300Y-63961900D02*
X113799300Y-48572600D01*
X116685500Y-66848100D02*
X113799300Y-63961900D01*
X119680000Y-66848100D02*
X116685500Y-66848100D01*
%TO.N,IO38*%
X121033600Y-66813600D02*
X119680000Y-65460000D01*
X121033600Y-68539500D02*
X121033600Y-66813600D01*
X116450100Y-69158400D02*
X120414700Y-69158400D01*
X113201900Y-65910200D02*
X116450100Y-69158400D01*
X113201900Y-49987300D02*
X113201900Y-65910200D01*
X112000000Y-49686900D02*
X112901500Y-49686900D01*
X112000000Y-48485000D02*
X112000000Y-49686900D01*
%TO.N,IO14*%
X135120000Y-81400000D02*
X133918100Y-81400000D01*
X137423200Y-50220000D02*
X137460000Y-50220000D01*
X128929800Y-58713400D02*
X137423200Y-50220000D01*
X128929800Y-58973000D02*
X128929800Y-58713400D01*
X128770000Y-81903900D02*
X128770000Y-59132800D01*
X133035200Y-82656500D02*
X129522600Y-82656500D01*
X133918100Y-81773600D02*
X133035200Y-82656500D01*
%TO.N,IO13*%
X137460000Y-52760000D02*
X137460000Y-53911900D01*
X132580000Y-58285700D02*
X136953800Y-53911900D01*
X132580000Y-81400000D02*
X132580000Y-58285700D01*
%TO.N,IO12*%
X140000000Y-52760000D02*
X140000000Y-51608100D01*
X136744800Y-51608100D02*
X140000000Y-51608100D01*
X130040000Y-58312900D02*
X136744800Y-51608100D01*
X130040000Y-81400000D02*
X130040000Y-58312900D01*
%TO.N,IO11*%
X127500000Y-59339500D02*
X127500000Y-81400000D01*
X128177900Y-58661600D02*
X127500000Y-59339500D01*
%TO.N,IO10*%
X137460000Y-55300000D02*
X137460000Y-56451900D01*
X124960000Y-81400000D02*
X126161900Y-81400000D01*
X127572200Y-83183900D02*
X126161900Y-81773600D01*
X135045900Y-83183900D02*
X127572200Y-83183900D01*
X136368900Y-78961700D02*
X136368900Y-81860900D01*
X135533500Y-57874400D02*
X135533500Y-78126300D01*
X136956000Y-56451900D02*
X135533500Y-57874400D01*
%TO.N,IO9*%
X125538100Y-83691800D02*
X123621900Y-81775600D01*
X135247700Y-83691800D02*
X125538100Y-83691800D01*
X136874100Y-69243200D02*
X136874100Y-82065400D01*
X136087500Y-59899900D02*
X136087500Y-68456600D01*
X140000000Y-58991900D02*
X136995500Y-58991900D01*
X140000000Y-57840000D02*
X140000000Y-58991900D01*
X122420000Y-81400000D02*
X123621900Y-81400000D01*
D28*
%TO.N,VBUS3_3*%
X111900000Y-86320000D02*
X111900000Y-85168100D01*
X188500000Y-63680000D02*
X188500000Y-61140000D01*
X188500000Y-61140000D02*
X188500000Y-58600000D01*
X140000000Y-50220000D02*
X140000000Y-48968100D01*
X112200000Y-84868100D02*
X112200000Y-81300000D01*
X111900000Y-85168100D02*
X112200000Y-84868100D01*
X112200000Y-81300000D02*
X113501900Y-81300000D01*
X123313400Y-71488500D02*
X113501900Y-81300000D01*
X123313400Y-62321400D02*
X123313400Y-71488500D01*
X136666700Y-48968100D02*
X123313400Y-62321400D01*
X140000000Y-48968100D02*
X136666700Y-48968100D01*
D27*
%TO.N,DSPIN*%
X107200000Y-85940000D02*
X107200000Y-81300000D01*
X106820000Y-86320000D02*
X107200000Y-85940000D01*
X119680000Y-55300000D02*
X119680000Y-56451900D01*
X116678600Y-56451900D02*
X119680000Y-56451900D01*
X115775400Y-63447700D02*
X115775400Y-57355100D01*
X120308000Y-64190000D02*
X116517700Y-64190000D01*
X121588300Y-68694500D02*
X121588300Y-65470300D01*
X120140300Y-70142500D02*
X121588300Y-68694500D01*
X107200000Y-81135700D02*
X118193200Y-70142500D01*
%TO.N,SCL*%
X119680000Y-60380000D02*
X119680000Y-61531900D01*
X117500000Y-95000000D02*
X116298100Y-95000000D01*
X122090200Y-63438100D02*
X120184000Y-61531900D01*
X122090200Y-68902300D02*
X122090200Y-63438100D01*
X120348100Y-70644400D02*
X122090200Y-68902300D01*
X108450500Y-80667300D02*
X118473400Y-70644400D01*
X108450500Y-90677400D02*
X108450500Y-80667300D01*
X114139100Y-96366000D02*
X108450500Y-90677400D01*
X115844600Y-96366000D02*
X114139100Y-96366000D01*
X116298100Y-95000000D02*
X116298100Y-95912500D01*
%TO.N,SDA*%
X162872100Y-96372100D02*
X161500000Y-95000000D01*
X175377900Y-96372100D02*
X162872100Y-96372100D01*
X176750000Y-95000000D02*
X175377900Y-96372100D01*
X147489800Y-93610200D02*
X146100000Y-95000000D01*
X160110200Y-93610200D02*
X147489800Y-93610200D01*
X161500000Y-95000000D02*
X160110200Y-93610200D01*
X119680000Y-57840000D02*
X119680000Y-58991900D01*
X122592100Y-61400000D02*
X120184000Y-58991900D01*
X122592100Y-69110100D02*
X122592100Y-61400000D01*
X120555900Y-71146300D02*
X122592100Y-69110100D01*
X110950000Y-80663500D02*
X120467200Y-71146300D01*
X110950000Y-84472300D02*
X110950000Y-80663500D01*
X110801000Y-90801000D02*
X110801000Y-84621300D01*
X115000000Y-95000000D02*
X110801000Y-90801000D01*
D28*
%TO.N,VBUS2*%
X179500000Y-50461900D02*
X179500000Y-58585000D01*
X178590000Y-49551900D02*
X179500000Y-50461900D01*
X178590000Y-48000000D02*
X178590000Y-49551900D01*
X179500000Y-69800000D02*
X179500000Y-63665000D01*
X182700000Y-73000000D02*
X179500000Y-69800000D01*
X179500000Y-63665000D02*
X179500000Y-61125000D01*
X179500000Y-61125000D02*
X179500000Y-58585000D01*
X166200000Y-74000000D02*
X163100000Y-74000000D01*
X173100000Y-80900000D02*
X166200000Y-74000000D01*
%TO.N,VBUS1*%
X137004600Y-96504600D02*
X135500000Y-95000000D01*
X149595400Y-96504600D02*
X137004600Y-96504600D01*
X151100000Y-95000000D02*
X149595400Y-96504600D01*
X121434100Y-96434100D02*
X120000000Y-95000000D01*
X134065900Y-96434100D02*
X121434100Y-96434100D01*
X135500000Y-95000000D02*
X134065900Y-96434100D01*
X181750000Y-83650900D02*
X181750000Y-95000000D01*
X171800000Y-73700900D02*
X181750000Y-83650900D01*
X171800000Y-44400000D02*
X171800000Y-73700900D01*
%TO.N,+5V*%
X188750000Y-48000000D02*
X188750000Y-42250000D01*
%TD*%
%TA.AperFunction,Conductor*%
%TO.N,+5V*%
G36*
X193093105Y-28270185D02*
G01*
X193138860Y-28322989D01*
X193148804Y-28392147D01*
X193119779Y-28455703D01*
X193089815Y-28480858D01*
X192774763Y-28669692D01*
X192459043Y-28903846D01*
X192167807Y-29167807D01*
X191903846Y-29459043D01*
X191669692Y-29774763D01*
X191467620Y-30111899D01*
X191299562Y-30467227D01*
X191299561Y-30467229D01*
X191167143Y-30837315D01*
X191071637Y-31218593D01*
X191071636Y-31218600D01*
X191013962Y-31607409D01*
X190994675Y-32000000D01*
X191013962Y-32392591D01*
X191013962Y-32392597D01*
X191013963Y-32392599D01*
X191071637Y-32781406D01*
X191167143Y-33162684D01*
X191299561Y-33532770D01*
X191299562Y-33532772D01*
X191467620Y-33888100D01*
X191669692Y-34225236D01*
X191903846Y-34540956D01*
X192167807Y-34832192D01*
X192459043Y-35096153D01*
X192459049Y-35096158D01*
X192774761Y-35330306D01*
X192774763Y-35330307D01*
X193111899Y-35532379D01*
X193111902Y-35532380D01*
X193111903Y-35532381D01*
X193467228Y-35700438D01*
X193837316Y-35832857D01*
X194218600Y-35928364D01*
X194607409Y-35986038D01*
X195000000Y-36005325D01*
X195392591Y-35986038D01*
X195781400Y-35928364D01*
X196162684Y-35832857D01*
X196532772Y-35700438D01*
X196888097Y-35532381D01*
X197225239Y-35330306D01*
X197540951Y-35096158D01*
X197832192Y-34832192D01*
X198096158Y-34540951D01*
X198330306Y-34225239D01*
X198519143Y-33910182D01*
X198570491Y-33862803D01*
X198639305Y-33850704D01*
X198703736Y-33877729D01*
X198743328Y-33935299D01*
X198749500Y-33973933D01*
X198749500Y-94026066D01*
X198729815Y-94093105D01*
X198677011Y-94138860D01*
X198607853Y-94148804D01*
X198544297Y-94119779D01*
X198519142Y-94089815D01*
X198367315Y-93836507D01*
X198330306Y-93774761D01*
X198096158Y-93459049D01*
X198096153Y-93459043D01*
X197832192Y-93167807D01*
X197540956Y-92903846D01*
X197512341Y-92882624D01*
X197225239Y-92669694D01*
X197162711Y-92632216D01*
X196888100Y-92467620D01*
X196532772Y-92299562D01*
X196532770Y-92299561D01*
X196162684Y-92167143D01*
X195781406Y-92071637D01*
X195781401Y-92071636D01*
X195781400Y-92071636D01*
X195637256Y-92050254D01*
X195392599Y-92013963D01*
X195392597Y-92013962D01*
X195392591Y-92013962D01*
X195000000Y-91994675D01*
X194607409Y-92013962D01*
X194607403Y-92013962D01*
X194607400Y-92013963D01*
X194218593Y-92071637D01*
X193837315Y-92167143D01*
X193467229Y-92299561D01*
X193467227Y-92299562D01*
X193111899Y-92467620D01*
X192774763Y-92669692D01*
X192459043Y-92903846D01*
X192167807Y-93167807D01*
X191903846Y-93459043D01*
X191669692Y-93774763D01*
X191467620Y-94111899D01*
X191299562Y-94467227D01*
X191299561Y-94467229D01*
X191167143Y-94837315D01*
X191071637Y-95218593D01*
X191016743Y-95588664D01*
X191013962Y-95607409D01*
X190994675Y-96000000D01*
X191013962Y-96392591D01*
X191013962Y-96392597D01*
X191013963Y-96392599D01*
X191071637Y-96781406D01*
X191167143Y-97162684D01*
X191299561Y-97532770D01*
X191299562Y-97532772D01*
X191467620Y-97888100D01*
X191669692Y-98225236D01*
X191903846Y-98540956D01*
X192167807Y-98832192D01*
X192459043Y-99096153D01*
X192459049Y-99096158D01*
X192774761Y-99330306D01*
X192774763Y-99330307D01*
X193089815Y-99519142D01*
X193137197Y-99570491D01*
X193149295Y-99639305D01*
X193122269Y-99703736D01*
X193064700Y-99743328D01*
X193026066Y-99749500D01*
X154040121Y-99749500D01*
X153973082Y-99729815D01*
X153927327Y-99677011D01*
X153917383Y-99607853D01*
X153946408Y-99544297D01*
X153989685Y-99512221D01*
X154010224Y-99503075D01*
X154052730Y-99484151D01*
X154205871Y-99372888D01*
X154332533Y-99232216D01*
X154427179Y-99068284D01*
X154485674Y-98888256D01*
X154505460Y-98700000D01*
X154485674Y-98511744D01*
X154427179Y-98331716D01*
X154367113Y-98227677D01*
X154350500Y-98165677D01*
X154350500Y-96312700D01*
X154370185Y-96245661D01*
X154403375Y-96211126D01*
X154471401Y-96163495D01*
X154638495Y-95996401D01*
X154774035Y-95802829D01*
X154873903Y-95588663D01*
X154935063Y-95360408D01*
X154950500Y-95183966D01*
X154950500Y-94816034D01*
X154935063Y-94639592D01*
X154875365Y-94416793D01*
X154877028Y-94346943D01*
X154916191Y-94289081D01*
X154980419Y-94261577D01*
X154995140Y-94260700D01*
X159789392Y-94260700D01*
X159856431Y-94280385D01*
X159877073Y-94297019D01*
X160113181Y-94533127D01*
X160146666Y-94594450D01*
X160149500Y-94620808D01*
X160149500Y-95775001D01*
X160149501Y-95775018D01*
X160160000Y-95877796D01*
X160160001Y-95877799D01*
X160205894Y-96016294D01*
X160215186Y-96044334D01*
X160307288Y-96193656D01*
X160431344Y-96317712D01*
X160580666Y-96409814D01*
X160747203Y-96464999D01*
X160849991Y-96475500D01*
X162004191Y-96475499D01*
X162071230Y-96495184D01*
X162091872Y-96511818D01*
X162351664Y-96771610D01*
X162361735Y-96784180D01*
X162361922Y-96784026D01*
X162366896Y-96790037D01*
X162366898Y-96790040D01*
X162386353Y-96808309D01*
X162419343Y-96839290D01*
X162441067Y-96861013D01*
X162446857Y-96865505D01*
X162451297Y-96869297D01*
X162480208Y-96896445D01*
X162486707Y-96902548D01*
X162500804Y-96910298D01*
X162505305Y-96912772D01*
X162521570Y-96923457D01*
X162538332Y-96936460D01*
X162538335Y-96936461D01*
X162538336Y-96936462D01*
X162582923Y-96955756D01*
X162588159Y-96958321D01*
X162630732Y-96981727D01*
X162646440Y-96985759D01*
X162651286Y-96987004D01*
X162669698Y-96993307D01*
X162689173Y-97001735D01*
X162737171Y-97009337D01*
X162742840Y-97010511D01*
X162789923Y-97022600D01*
X162811151Y-97022600D01*
X162830548Y-97024126D01*
X162851503Y-97027445D01*
X162851504Y-97027446D01*
X162851504Y-97027445D01*
X162851505Y-97027446D01*
X162899861Y-97022875D01*
X162905699Y-97022600D01*
X175292395Y-97022600D01*
X175308405Y-97024367D01*
X175308428Y-97024126D01*
X175316189Y-97024858D01*
X175316196Y-97024860D01*
X175388103Y-97022600D01*
X175418825Y-97022600D01*
X175426090Y-97021681D01*
X175431916Y-97021222D01*
X175480469Y-97019697D01*
X175500856Y-97013773D01*
X175519896Y-97009831D01*
X175540958Y-97007171D01*
X175586135Y-96989283D01*
X175591635Y-96987400D01*
X175638298Y-96973844D01*
X175656565Y-96963039D01*
X175674036Y-96954480D01*
X175693771Y-96946668D01*
X175733077Y-96918110D01*
X175737943Y-96914913D01*
X175779765Y-96890181D01*
X175794770Y-96875175D01*
X175809568Y-96862536D01*
X175811414Y-96861195D01*
X175826737Y-96850063D01*
X175857709Y-96812622D01*
X175861613Y-96808331D01*
X176158127Y-96511818D01*
X176219450Y-96478333D01*
X176245808Y-96475499D01*
X177400002Y-96475499D01*
X177400008Y-96475499D01*
X177502797Y-96464999D01*
X177669334Y-96409814D01*
X177818656Y-96317712D01*
X177942712Y-96193656D01*
X178034814Y-96044334D01*
X178034814Y-96044331D01*
X178038178Y-96038879D01*
X178090126Y-95992154D01*
X178159088Y-95980931D01*
X178223170Y-96008774D01*
X178231398Y-96016294D01*
X178378599Y-96163495D01*
X178421675Y-96193657D01*
X178572165Y-96299032D01*
X178572167Y-96299033D01*
X178572170Y-96299035D01*
X178786337Y-96398903D01*
X179014592Y-96460063D01*
X179191034Y-96475500D01*
X179249999Y-96480659D01*
X179250000Y-96480659D01*
X179250001Y-96480659D01*
X179308966Y-96475500D01*
X179485408Y-96460063D01*
X179713663Y-96398903D01*
X179927829Y-96299035D01*
X180121401Y-96163495D01*
X180288495Y-95996401D01*
X180398426Y-95839401D01*
X180453001Y-95795778D01*
X180522500Y-95788584D01*
X180584855Y-95820106D01*
X180601571Y-95839398D01*
X180672144Y-95940187D01*
X180711506Y-95996403D01*
X180878596Y-96163492D01*
X180878599Y-96163495D01*
X180921675Y-96193657D01*
X181072165Y-96299032D01*
X181072167Y-96299033D01*
X181072170Y-96299035D01*
X181286337Y-96398903D01*
X181514592Y-96460063D01*
X181691034Y-96475500D01*
X181749999Y-96480659D01*
X181750000Y-96480659D01*
X181750001Y-96480659D01*
X181808966Y-96475500D01*
X181985408Y-96460063D01*
X182213663Y-96398903D01*
X182427829Y-96299035D01*
X182621401Y-96163495D01*
X182788495Y-95996401D01*
X182898426Y-95839401D01*
X182953001Y-95795778D01*
X183022500Y-95788584D01*
X183084855Y-95820106D01*
X183101571Y-95839398D01*
X183172144Y-95940187D01*
X183211506Y-95996403D01*
X183378596Y-96163492D01*
X183378599Y-96163495D01*
X183421675Y-96193657D01*
X183572165Y-96299032D01*
X183572167Y-96299033D01*
X183572170Y-96299035D01*
X183786337Y-96398903D01*
X184014592Y-96460063D01*
X184191034Y-96475500D01*
X184249999Y-96480659D01*
X184250000Y-96480659D01*
X184250001Y-96480659D01*
X184308966Y-96475500D01*
X184485408Y-96460063D01*
X184713663Y-96398903D01*
X184927829Y-96299035D01*
X185121401Y-96163495D01*
X185288495Y-95996401D01*
X185424035Y-95802829D01*
X185523903Y-95588663D01*
X185585063Y-95360408D01*
X185600500Y-95183966D01*
X185600500Y-94816034D01*
X185585063Y-94639592D01*
X185523903Y-94411337D01*
X185424035Y-94197171D01*
X185411936Y-94179891D01*
X185288494Y-94003597D01*
X185121402Y-93836506D01*
X185121395Y-93836501D01*
X184927834Y-93700967D01*
X184927830Y-93700965D01*
X184887777Y-93682288D01*
X184713663Y-93601097D01*
X184713659Y-93601096D01*
X184713655Y-93601094D01*
X184485413Y-93539938D01*
X184485403Y-93539936D01*
X184250001Y-93519341D01*
X184249999Y-93519341D01*
X184014596Y-93539936D01*
X184014586Y-93539938D01*
X183786344Y-93601094D01*
X183786335Y-93601098D01*
X183572171Y-93700964D01*
X183572169Y-93700965D01*
X183378597Y-93836505D01*
X183211505Y-94003597D01*
X183101575Y-94160595D01*
X183046998Y-94204220D01*
X182977500Y-94211414D01*
X182915145Y-94179891D01*
X182898425Y-94160595D01*
X182788494Y-94003597D01*
X182621404Y-93836507D01*
X182553375Y-93788872D01*
X182509751Y-93734294D01*
X182500500Y-93687298D01*
X182500500Y-83714605D01*
X182501809Y-83696635D01*
X182502129Y-83694447D01*
X182505289Y-83672877D01*
X182500735Y-83620831D01*
X182500500Y-83615428D01*
X182500500Y-83607197D01*
X182500500Y-83607191D01*
X182496693Y-83574624D01*
X182489999Y-83498103D01*
X182489999Y-83498101D01*
X182488539Y-83491029D01*
X182488597Y-83491016D01*
X182486965Y-83483657D01*
X182486906Y-83483672D01*
X182485242Y-83476653D01*
X182485241Y-83476645D01*
X182458974Y-83404476D01*
X182434814Y-83331566D01*
X182434809Y-83331559D01*
X182431760Y-83325018D01*
X182431815Y-83324991D01*
X182428533Y-83318213D01*
X182428480Y-83318240D01*
X182425235Y-83311780D01*
X182383028Y-83247608D01*
X182342710Y-83182242D01*
X182338234Y-83176582D01*
X182338281Y-83176544D01*
X182333519Y-83170699D01*
X182333474Y-83170738D01*
X182328834Y-83165208D01*
X182272964Y-83112496D01*
X180960469Y-81800001D01*
X181849500Y-81800001D01*
X181849501Y-81800018D01*
X181860000Y-81902796D01*
X181860001Y-81902799D01*
X181915185Y-82069331D01*
X181915187Y-82069336D01*
X181925463Y-82085996D01*
X182007288Y-82218656D01*
X182131344Y-82342712D01*
X182280666Y-82434814D01*
X182447203Y-82489999D01*
X182549991Y-82500500D01*
X183850008Y-82500499D01*
X183952797Y-82489999D01*
X184119334Y-82434814D01*
X184268656Y-82342712D01*
X184392712Y-82218656D01*
X184484814Y-82069334D01*
X184484814Y-82069331D01*
X184488178Y-82063879D01*
X184540126Y-82017154D01*
X184609088Y-82005931D01*
X184673170Y-82033774D01*
X184681398Y-82041294D01*
X184828599Y-82188495D01*
X184914052Y-82248330D01*
X185022165Y-82324032D01*
X185022167Y-82324033D01*
X185022170Y-82324035D01*
X185236337Y-82423903D01*
X185464592Y-82485063D01*
X185641034Y-82500500D01*
X185699999Y-82505659D01*
X185700000Y-82505659D01*
X185700001Y-82505659D01*
X185758966Y-82500500D01*
X185935408Y-82485063D01*
X186163663Y-82423903D01*
X186377829Y-82324035D01*
X186571401Y-82188495D01*
X186738495Y-82021401D01*
X186874035Y-81827829D01*
X186973903Y-81613663D01*
X187035063Y-81385408D01*
X187050500Y-81208966D01*
X187050500Y-80791034D01*
X187035063Y-80614592D01*
X186973903Y-80386337D01*
X186874035Y-80172171D01*
X186855105Y-80145135D01*
X186738494Y-79978597D01*
X186571402Y-79811506D01*
X186571395Y-79811501D01*
X186377834Y-79675967D01*
X186377830Y-79675965D01*
X186334447Y-79655735D01*
X186163663Y-79576097D01*
X186163659Y-79576096D01*
X186163655Y-79576094D01*
X185935413Y-79514938D01*
X185935403Y-79514936D01*
X185700001Y-79494341D01*
X185699999Y-79494341D01*
X185464596Y-79514936D01*
X185464586Y-79514938D01*
X185236344Y-79576094D01*
X185236335Y-79576098D01*
X185022171Y-79675964D01*
X185022169Y-79675965D01*
X184828597Y-79811505D01*
X184681398Y-79958705D01*
X184620075Y-79992190D01*
X184550383Y-79987206D01*
X184494450Y-79945334D01*
X184488178Y-79936120D01*
X184459846Y-79890187D01*
X184392712Y-79781344D01*
X184268656Y-79657288D01*
X184147061Y-79582288D01*
X184119336Y-79565187D01*
X184119331Y-79565185D01*
X184117862Y-79564698D01*
X183952797Y-79510001D01*
X183952795Y-79510000D01*
X183850010Y-79499500D01*
X182549998Y-79499500D01*
X182549981Y-79499501D01*
X182447203Y-79510000D01*
X182447200Y-79510001D01*
X182280668Y-79565185D01*
X182280663Y-79565187D01*
X182131342Y-79657289D01*
X182007289Y-79781342D01*
X181915187Y-79930663D01*
X181915185Y-79930668D01*
X181887349Y-80014670D01*
X181860001Y-80097203D01*
X181860001Y-80097204D01*
X181860000Y-80097204D01*
X181849500Y-80199983D01*
X181849500Y-81800001D01*
X180960469Y-81800001D01*
X172586819Y-73426351D01*
X172553334Y-73365028D01*
X172550500Y-73338670D01*
X172550500Y-49147870D01*
X176989500Y-49147870D01*
X176989501Y-49147876D01*
X176995908Y-49207483D01*
X177046202Y-49342328D01*
X177046206Y-49342335D01*
X177132452Y-49457544D01*
X177132455Y-49457547D01*
X177247664Y-49543793D01*
X177247671Y-49543797D01*
X177292618Y-49560561D01*
X177382517Y-49594091D01*
X177442127Y-49600500D01*
X177727474Y-49600499D01*
X177794513Y-49620183D01*
X177840268Y-49672987D01*
X177848913Y-49699426D01*
X177851461Y-49711767D01*
X177851403Y-49711778D01*
X177853034Y-49719137D01*
X177853092Y-49719124D01*
X177854757Y-49726150D01*
X177881025Y-49798324D01*
X177905185Y-49871231D01*
X177908236Y-49877774D01*
X177908182Y-49877798D01*
X177911470Y-49884588D01*
X177911521Y-49884563D01*
X177914761Y-49891013D01*
X177914762Y-49891014D01*
X177914763Y-49891017D01*
X177942154Y-49932664D01*
X177956965Y-49955183D01*
X177997287Y-50020555D01*
X178001766Y-50026219D01*
X178001719Y-50026256D01*
X178006482Y-50032102D01*
X178006528Y-50032064D01*
X178011173Y-50037600D01*
X178042884Y-50067517D01*
X178067019Y-50090287D01*
X178405871Y-50429139D01*
X178713181Y-50736448D01*
X178746666Y-50797771D01*
X178749500Y-50824129D01*
X178749500Y-57110500D01*
X178729815Y-57177539D01*
X178677011Y-57223294D01*
X178625505Y-57234500D01*
X178602132Y-57234500D01*
X178602123Y-57234501D01*
X178542516Y-57240908D01*
X178407671Y-57291202D01*
X178407664Y-57291206D01*
X178292455Y-57377452D01*
X178292452Y-57377455D01*
X178206206Y-57492664D01*
X178206202Y-57492671D01*
X178155908Y-57627517D01*
X178150486Y-57677954D01*
X178149501Y-57687123D01*
X178149500Y-57687135D01*
X178149500Y-59482870D01*
X178149501Y-59482876D01*
X178155908Y-59542483D01*
X178206202Y-59677328D01*
X178206206Y-59677335D01*
X178292452Y-59792544D01*
X178292455Y-59792547D01*
X178407664Y-59878793D01*
X178407671Y-59878797D01*
X178539082Y-59927810D01*
X178595016Y-59969681D01*
X178619433Y-60035145D01*
X178604582Y-60103418D01*
X178583430Y-60131673D01*
X178461505Y-60253597D01*
X178325965Y-60447169D01*
X178325964Y-60447171D01*
X178226098Y-60661335D01*
X178226094Y-60661344D01*
X178164938Y-60889586D01*
X178164936Y-60889596D01*
X178144341Y-61124999D01*
X178144341Y-61125000D01*
X178164936Y-61360403D01*
X178164938Y-61360413D01*
X178226094Y-61588655D01*
X178226096Y-61588659D01*
X178226097Y-61588663D01*
X178319716Y-61789429D01*
X178325965Y-61802830D01*
X178325967Y-61802834D01*
X178461501Y-61996395D01*
X178461506Y-61996402D01*
X178628595Y-62163492D01*
X178628598Y-62163494D01*
X178628599Y-62163495D01*
X178696623Y-62211125D01*
X178740248Y-62265701D01*
X178749500Y-62312700D01*
X178749500Y-62477298D01*
X178729815Y-62544337D01*
X178696625Y-62578872D01*
X178628595Y-62626507D01*
X178461505Y-62793597D01*
X178325965Y-62987169D01*
X178325964Y-62987171D01*
X178226098Y-63201335D01*
X178226094Y-63201344D01*
X178164938Y-63429586D01*
X178164936Y-63429596D01*
X178144341Y-63664999D01*
X178144341Y-63665000D01*
X178164936Y-63900403D01*
X178164938Y-63900413D01*
X178226094Y-64128655D01*
X178226096Y-64128659D01*
X178226097Y-64128663D01*
X178315338Y-64320041D01*
X178325965Y-64342830D01*
X178325967Y-64342834D01*
X178461501Y-64536395D01*
X178461506Y-64536402D01*
X178628595Y-64703492D01*
X178628598Y-64703494D01*
X178628599Y-64703495D01*
X178696623Y-64751125D01*
X178740248Y-64805701D01*
X178749500Y-64852700D01*
X178749500Y-69736294D01*
X178748191Y-69754263D01*
X178744710Y-69778025D01*
X178747836Y-69813745D01*
X178749134Y-69828585D01*
X178749264Y-69830064D01*
X178749500Y-69835470D01*
X178749500Y-69843709D01*
X178750632Y-69853399D01*
X178753306Y-69876274D01*
X178760000Y-69952791D01*
X178761461Y-69959867D01*
X178761403Y-69959878D01*
X178763034Y-69967237D01*
X178763092Y-69967224D01*
X178764757Y-69974250D01*
X178791025Y-70046424D01*
X178815185Y-70119331D01*
X178818236Y-70125874D01*
X178818182Y-70125898D01*
X178821470Y-70132688D01*
X178821521Y-70132663D01*
X178824761Y-70139113D01*
X178824762Y-70139114D01*
X178824763Y-70139117D01*
X178839399Y-70161370D01*
X178866965Y-70203283D01*
X178907287Y-70268655D01*
X178911766Y-70274319D01*
X178911719Y-70274356D01*
X178916482Y-70280202D01*
X178916528Y-70280164D01*
X178921173Y-70285700D01*
X178977018Y-70338386D01*
X181373282Y-72734650D01*
X181406767Y-72795973D01*
X181409129Y-72833137D01*
X181394532Y-72999996D01*
X181394532Y-73000001D01*
X181414364Y-73226686D01*
X181414366Y-73226697D01*
X181473258Y-73446488D01*
X181473261Y-73446497D01*
X181569431Y-73652732D01*
X181569432Y-73652734D01*
X181699954Y-73839141D01*
X181860858Y-74000045D01*
X181860861Y-74000047D01*
X182047266Y-74130568D01*
X182253504Y-74226739D01*
X182253509Y-74226740D01*
X182253511Y-74226741D01*
X182306415Y-74240916D01*
X182473308Y-74285635D01*
X182635230Y-74299801D01*
X182699998Y-74305468D01*
X182700000Y-74305468D01*
X182700002Y-74305468D01*
X182756673Y-74300509D01*
X182926692Y-74285635D01*
X183146496Y-74226739D01*
X183352734Y-74130568D01*
X183539139Y-74000047D01*
X183700047Y-73839139D01*
X183830568Y-73652734D01*
X183837618Y-73637614D01*
X183883789Y-73585176D01*
X183950982Y-73566023D01*
X184017864Y-73586238D01*
X184062381Y-73637614D01*
X184069432Y-73652733D01*
X184069432Y-73652734D01*
X184199954Y-73839141D01*
X184360858Y-74000045D01*
X184360861Y-74000047D01*
X184547266Y-74130568D01*
X184753504Y-74226739D01*
X184753509Y-74226740D01*
X184753511Y-74226741D01*
X184806415Y-74240916D01*
X184973308Y-74285635D01*
X185135230Y-74299801D01*
X185199998Y-74305468D01*
X185200000Y-74305468D01*
X185200002Y-74305468D01*
X185256673Y-74300509D01*
X185426692Y-74285635D01*
X185646496Y-74226739D01*
X185852734Y-74130568D01*
X186039139Y-74000047D01*
X186200047Y-73839139D01*
X186330568Y-73652734D01*
X186426739Y-73446496D01*
X186485635Y-73226692D01*
X186505468Y-73000000D01*
X186485635Y-72773308D01*
X186426739Y-72553504D01*
X186330568Y-72347266D01*
X186200047Y-72160861D01*
X186200045Y-72160858D01*
X186039141Y-71999954D01*
X185852734Y-71869432D01*
X185852732Y-71869431D01*
X185646497Y-71773261D01*
X185646488Y-71773258D01*
X185426697Y-71714366D01*
X185426693Y-71714365D01*
X185426692Y-71714365D01*
X185426691Y-71714364D01*
X185426686Y-71714364D01*
X185200002Y-71694532D01*
X185199998Y-71694532D01*
X184973313Y-71714364D01*
X184973302Y-71714366D01*
X184753511Y-71773258D01*
X184753502Y-71773261D01*
X184547267Y-71869431D01*
X184547265Y-71869432D01*
X184360858Y-71999954D01*
X184199954Y-72160858D01*
X184069433Y-72347264D01*
X184069432Y-72347266D01*
X184062380Y-72362387D01*
X184016209Y-72414825D01*
X183949015Y-72433976D01*
X183882134Y-72413760D01*
X183837619Y-72362387D01*
X183830568Y-72347266D01*
X183700047Y-72160861D01*
X183700045Y-72160858D01*
X183539141Y-71999954D01*
X183352734Y-71869432D01*
X183352732Y-71869431D01*
X183146497Y-71773261D01*
X183146488Y-71773258D01*
X182926697Y-71714366D01*
X182926693Y-71714365D01*
X182926692Y-71714365D01*
X182926691Y-71714364D01*
X182926686Y-71714364D01*
X182700002Y-71694532D01*
X182699997Y-71694532D01*
X182533137Y-71709129D01*
X182464637Y-71695362D01*
X182434650Y-71673282D01*
X180286819Y-69525451D01*
X180253334Y-69464128D01*
X180250500Y-69437770D01*
X180250500Y-64852700D01*
X180270185Y-64785661D01*
X180303375Y-64751126D01*
X180371401Y-64703495D01*
X180538495Y-64536401D01*
X180674035Y-64342830D01*
X180773903Y-64128663D01*
X180835063Y-63900408D01*
X180854347Y-63680000D01*
X182644341Y-63680000D01*
X182664936Y-63915403D01*
X182664938Y-63915413D01*
X182726094Y-64143655D01*
X182726096Y-64143659D01*
X182726097Y-64143663D01*
X182779478Y-64258139D01*
X182825965Y-64357830D01*
X182825967Y-64357834D01*
X182910050Y-64477916D01*
X182961505Y-64551401D01*
X183128599Y-64718495D01*
X183219535Y-64782169D01*
X183322165Y-64854032D01*
X183322167Y-64854033D01*
X183322170Y-64854035D01*
X183536337Y-64953903D01*
X183764592Y-65015063D01*
X183952918Y-65031539D01*
X183999999Y-65035659D01*
X184000000Y-65035659D01*
X184000001Y-65035659D01*
X184039234Y-65032226D01*
X184235408Y-65015063D01*
X184463663Y-64953903D01*
X184677830Y-64854035D01*
X184871401Y-64718495D01*
X185038495Y-64551401D01*
X185174035Y-64357830D01*
X185273903Y-64143663D01*
X185335063Y-63915408D01*
X185355659Y-63680000D01*
X187144341Y-63680000D01*
X187164936Y-63915403D01*
X187164938Y-63915413D01*
X187226094Y-64143655D01*
X187226096Y-64143659D01*
X187226097Y-64143663D01*
X187279478Y-64258139D01*
X187325965Y-64357830D01*
X187325967Y-64357834D01*
X187410050Y-64477916D01*
X187461505Y-64551401D01*
X187628599Y-64718495D01*
X187719535Y-64782169D01*
X187822165Y-64854032D01*
X187822167Y-64854033D01*
X187822170Y-64854035D01*
X188036337Y-64953903D01*
X188264592Y-65015063D01*
X188452918Y-65031539D01*
X188499999Y-65035659D01*
X188500000Y-65035659D01*
X188500001Y-65035659D01*
X188539234Y-65032226D01*
X188735408Y-65015063D01*
X188963663Y-64953903D01*
X189177830Y-64854035D01*
X189371401Y-64718495D01*
X189538495Y-64551401D01*
X189674035Y-64357830D01*
X189773903Y-64143663D01*
X189835063Y-63915408D01*
X189855659Y-63680000D01*
X189854891Y-63671227D01*
X189846092Y-63570648D01*
X189835063Y-63444592D01*
X189788265Y-63269936D01*
X189773905Y-63216344D01*
X189773904Y-63216343D01*
X189773903Y-63216337D01*
X189674035Y-63002171D01*
X189628168Y-62936665D01*
X189538494Y-62808597D01*
X189371404Y-62641507D01*
X189303375Y-62593872D01*
X189259751Y-62539294D01*
X189250500Y-62492298D01*
X189250500Y-62327700D01*
X189270185Y-62260661D01*
X189303375Y-62226126D01*
X189371401Y-62178495D01*
X189538495Y-62011401D01*
X189674035Y-61817830D01*
X189773903Y-61603663D01*
X189835063Y-61375408D01*
X189855659Y-61140000D01*
X189855627Y-61139639D01*
X189840639Y-60968330D01*
X189835063Y-60904592D01*
X189773903Y-60676337D01*
X189674035Y-60462171D01*
X189642478Y-60417103D01*
X189538496Y-60268600D01*
X189486795Y-60216899D01*
X189416567Y-60146671D01*
X189383084Y-60085351D01*
X189388068Y-60015659D01*
X189429939Y-59959725D01*
X189460915Y-59942810D01*
X189592331Y-59893796D01*
X189707546Y-59807546D01*
X189793796Y-59692331D01*
X189844091Y-59557483D01*
X189850500Y-59497873D01*
X189850499Y-57702128D01*
X189844091Y-57642517D01*
X189840553Y-57633032D01*
X189793797Y-57507671D01*
X189793793Y-57507664D01*
X189707547Y-57392455D01*
X189707544Y-57392452D01*
X189592335Y-57306206D01*
X189592328Y-57306202D01*
X189457482Y-57255908D01*
X189457483Y-57255908D01*
X189397883Y-57249501D01*
X189397881Y-57249500D01*
X189397873Y-57249500D01*
X189397864Y-57249500D01*
X187602129Y-57249500D01*
X187602123Y-57249501D01*
X187542516Y-57255908D01*
X187407671Y-57306202D01*
X187407664Y-57306206D01*
X187292455Y-57392452D01*
X187292452Y-57392455D01*
X187206206Y-57507664D01*
X187206202Y-57507671D01*
X187155908Y-57642517D01*
X187150645Y-57691473D01*
X187149501Y-57702123D01*
X187149500Y-57702135D01*
X187149500Y-59497870D01*
X187149501Y-59497876D01*
X187155908Y-59557483D01*
X187206202Y-59692328D01*
X187206206Y-59692335D01*
X187292452Y-59807544D01*
X187292455Y-59807547D01*
X187407664Y-59893793D01*
X187407671Y-59893797D01*
X187539082Y-59942810D01*
X187595016Y-59984681D01*
X187619433Y-60050145D01*
X187604582Y-60118418D01*
X187583430Y-60146673D01*
X187461505Y-60268597D01*
X187325965Y-60462169D01*
X187325964Y-60462171D01*
X187226098Y-60676335D01*
X187226094Y-60676344D01*
X187164938Y-60904586D01*
X187164936Y-60904596D01*
X187144341Y-61139999D01*
X187144341Y-61140000D01*
X187164936Y-61375403D01*
X187164938Y-61375413D01*
X187226094Y-61603655D01*
X187226096Y-61603659D01*
X187226097Y-61603663D01*
X187284295Y-61728469D01*
X187325965Y-61817830D01*
X187325967Y-61817834D01*
X187461501Y-62011395D01*
X187461506Y-62011402D01*
X187628595Y-62178492D01*
X187628598Y-62178494D01*
X187628599Y-62178495D01*
X187696623Y-62226125D01*
X187740248Y-62280701D01*
X187749500Y-62327700D01*
X187749500Y-62492298D01*
X187729815Y-62559337D01*
X187696625Y-62593872D01*
X187628595Y-62641507D01*
X187461505Y-62808597D01*
X187325965Y-63002169D01*
X187325964Y-63002171D01*
X187226098Y-63216335D01*
X187226094Y-63216344D01*
X187164938Y-63444586D01*
X187164936Y-63444596D01*
X187144341Y-63679999D01*
X187144341Y-63680000D01*
X185355659Y-63680000D01*
X185354891Y-63671227D01*
X185346092Y-63570648D01*
X185335063Y-63444592D01*
X185288265Y-63269936D01*
X185273905Y-63216344D01*
X185273904Y-63216343D01*
X185273903Y-63216337D01*
X185174035Y-63002171D01*
X185128168Y-62936665D01*
X185038494Y-62808597D01*
X184871402Y-62641506D01*
X184871396Y-62641501D01*
X184685842Y-62511575D01*
X184642217Y-62456998D01*
X184635023Y-62387500D01*
X184666546Y-62325145D01*
X184685842Y-62308425D01*
X184780465Y-62242169D01*
X184871401Y-62178495D01*
X185038495Y-62011401D01*
X185174035Y-61817830D01*
X185273903Y-61603663D01*
X185335063Y-61375408D01*
X185355659Y-61140000D01*
X185355627Y-61139639D01*
X185340639Y-60968330D01*
X185335063Y-60904592D01*
X185273903Y-60676337D01*
X185174035Y-60462171D01*
X185142478Y-60417103D01*
X185038496Y-60268600D01*
X184986795Y-60216899D01*
X184916567Y-60146671D01*
X184883084Y-60085351D01*
X184888068Y-60015659D01*
X184929939Y-59959725D01*
X184960915Y-59942810D01*
X185092331Y-59893796D01*
X185207546Y-59807546D01*
X185293796Y-59692331D01*
X185344091Y-59557483D01*
X185350500Y-59497873D01*
X185350499Y-57702128D01*
X185344091Y-57642517D01*
X185340553Y-57633032D01*
X185293797Y-57507671D01*
X185293793Y-57507664D01*
X185207547Y-57392455D01*
X185207544Y-57392452D01*
X185092335Y-57306206D01*
X185092328Y-57306202D01*
X184957482Y-57255908D01*
X184957483Y-57255908D01*
X184897883Y-57249501D01*
X184897881Y-57249500D01*
X184897873Y-57249500D01*
X184897864Y-57249500D01*
X183102129Y-57249500D01*
X183102123Y-57249501D01*
X183042516Y-57255908D01*
X182907671Y-57306202D01*
X182907664Y-57306206D01*
X182792455Y-57392452D01*
X182792452Y-57392455D01*
X182706206Y-57507664D01*
X182706202Y-57507671D01*
X182655908Y-57642517D01*
X182650645Y-57691473D01*
X182649501Y-57702123D01*
X182649500Y-57702135D01*
X182649500Y-59497870D01*
X182649501Y-59497876D01*
X182655908Y-59557483D01*
X182706202Y-59692328D01*
X182706206Y-59692335D01*
X182792452Y-59807544D01*
X182792455Y-59807547D01*
X182907664Y-59893793D01*
X182907671Y-59893797D01*
X183039081Y-59942810D01*
X183095015Y-59984681D01*
X183119432Y-60050145D01*
X183104580Y-60118418D01*
X183083430Y-60146673D01*
X182961503Y-60268600D01*
X182825965Y-60462169D01*
X182825964Y-60462171D01*
X182726098Y-60676335D01*
X182726094Y-60676344D01*
X182664938Y-60904586D01*
X182664936Y-60904596D01*
X182644341Y-61139999D01*
X182644341Y-61140000D01*
X182664936Y-61375403D01*
X182664938Y-61375413D01*
X182726094Y-61603655D01*
X182726096Y-61603659D01*
X182726097Y-61603663D01*
X182784295Y-61728469D01*
X182825965Y-61817830D01*
X182825967Y-61817834D01*
X182961501Y-62011395D01*
X182961506Y-62011402D01*
X183128597Y-62178493D01*
X183128603Y-62178498D01*
X183314158Y-62308425D01*
X183357783Y-62363002D01*
X183364977Y-62432500D01*
X183333454Y-62494855D01*
X183314158Y-62511575D01*
X183128597Y-62641505D01*
X182961505Y-62808597D01*
X182825965Y-63002169D01*
X182825964Y-63002171D01*
X182726098Y-63216335D01*
X182726094Y-63216344D01*
X182664938Y-63444586D01*
X182664936Y-63444596D01*
X182644341Y-63679999D01*
X182644341Y-63680000D01*
X180854347Y-63680000D01*
X180855659Y-63665000D01*
X180854865Y-63655930D01*
X180844067Y-63532511D01*
X180835063Y-63429592D01*
X180777922Y-63216335D01*
X180773905Y-63201344D01*
X180773904Y-63201343D01*
X180773903Y-63201337D01*
X180674035Y-62987171D01*
X180638671Y-62936665D01*
X180538494Y-62793597D01*
X180371404Y-62626507D01*
X180303375Y-62578872D01*
X180259751Y-62524294D01*
X180250500Y-62477298D01*
X180250500Y-62312700D01*
X180270185Y-62245661D01*
X180303375Y-62211126D01*
X180371401Y-62163495D01*
X180538495Y-61996401D01*
X180674035Y-61802830D01*
X180773903Y-61588663D01*
X180835063Y-61360408D01*
X180855659Y-61125000D01*
X180853808Y-61103849D01*
X180844067Y-60992511D01*
X180835063Y-60889592D01*
X180786177Y-60707146D01*
X180773905Y-60661344D01*
X180773904Y-60661343D01*
X180773903Y-60661337D01*
X180674035Y-60447171D01*
X180652981Y-60417103D01*
X180538496Y-60253600D01*
X180481226Y-60196330D01*
X180416567Y-60131671D01*
X180383084Y-60070351D01*
X180388068Y-60000659D01*
X180429939Y-59944725D01*
X180460915Y-59927810D01*
X180592331Y-59878796D01*
X180707546Y-59792546D01*
X180793796Y-59677331D01*
X180844091Y-59542483D01*
X180850500Y-59482873D01*
X180850499Y-57687128D01*
X180844091Y-57627517D01*
X180838793Y-57613313D01*
X180793797Y-57492671D01*
X180793793Y-57492664D01*
X180707547Y-57377455D01*
X180707544Y-57377452D01*
X180592335Y-57291206D01*
X180592328Y-57291202D01*
X180457482Y-57240908D01*
X180457483Y-57240908D01*
X180397883Y-57234501D01*
X180397881Y-57234500D01*
X180397873Y-57234500D01*
X180397865Y-57234500D01*
X180374500Y-57234500D01*
X180307461Y-57214815D01*
X180261706Y-57162011D01*
X180250500Y-57110500D01*
X180250500Y-50525605D01*
X180251809Y-50507635D01*
X180255289Y-50483874D01*
X180250736Y-50431839D01*
X180250500Y-50426432D01*
X180250500Y-50418197D01*
X180250500Y-50418191D01*
X180246691Y-50385607D01*
X180239998Y-50309102D01*
X180239996Y-50309097D01*
X180238538Y-50302033D01*
X180238597Y-50302020D01*
X180236967Y-50294664D01*
X180236908Y-50294679D01*
X180235242Y-50287653D01*
X180235241Y-50287645D01*
X180208973Y-50215473D01*
X180184815Y-50142566D01*
X180181763Y-50136021D01*
X180181817Y-50135995D01*
X180178533Y-50129212D01*
X180178480Y-50129240D01*
X180175238Y-50122786D01*
X180175237Y-50122783D01*
X180133038Y-50058623D01*
X180092712Y-49993244D01*
X180092711Y-49993243D01*
X180092710Y-49993241D01*
X180088234Y-49987581D01*
X180088280Y-49987543D01*
X180083519Y-49981699D01*
X180083474Y-49981738D01*
X180078834Y-49976208D01*
X180022982Y-49923513D01*
X179858226Y-49758757D01*
X179824741Y-49697434D01*
X179829725Y-49627742D01*
X179871597Y-49571809D01*
X179902574Y-49554894D01*
X179932331Y-49543796D01*
X180047546Y-49457546D01*
X180133796Y-49342331D01*
X180184091Y-49207483D01*
X180190500Y-49147873D01*
X180190500Y-48250000D01*
X187164728Y-48250000D01*
X187164811Y-48251067D01*
X187223603Y-48495956D01*
X187319980Y-48728631D01*
X187451568Y-48943362D01*
X187451571Y-48943367D01*
X187615130Y-49134869D01*
X187806632Y-49298428D01*
X187806637Y-49298431D01*
X188021368Y-49430019D01*
X188254043Y-49526396D01*
X188498932Y-49585188D01*
X188500000Y-49585271D01*
X188500000Y-48491683D01*
X188528819Y-48509209D01*
X188674404Y-48550000D01*
X188787622Y-48550000D01*
X188899783Y-48534584D01*
X189000000Y-48491053D01*
X189000000Y-49585271D01*
X189001067Y-49585188D01*
X189245956Y-49526396D01*
X189478631Y-49430019D01*
X189693362Y-49298431D01*
X189693367Y-49298428D01*
X189884869Y-49134869D01*
X190048428Y-48943367D01*
X190048431Y-48943362D01*
X190180019Y-48728631D01*
X190276396Y-48495956D01*
X190335188Y-48251067D01*
X190335272Y-48250000D01*
X189244852Y-48250000D01*
X189293559Y-48112953D01*
X189303877Y-47962114D01*
X189273116Y-47814085D01*
X189239910Y-47750000D01*
X190335271Y-47750000D01*
X190335271Y-47749999D01*
X190335188Y-47748932D01*
X190276396Y-47504043D01*
X190180019Y-47271368D01*
X190048431Y-47056637D01*
X190048428Y-47056632D01*
X189884869Y-46865130D01*
X189693367Y-46701571D01*
X189693362Y-46701568D01*
X189478631Y-46569980D01*
X189245956Y-46473603D01*
X189001064Y-46414811D01*
X189000000Y-46414726D01*
X189000000Y-47508316D01*
X188971181Y-47490791D01*
X188825596Y-47450000D01*
X188712378Y-47450000D01*
X188600217Y-47465416D01*
X188500000Y-47508946D01*
X188500000Y-46414726D01*
X188498935Y-46414811D01*
X188254043Y-46473603D01*
X188021368Y-46569980D01*
X187806637Y-46701568D01*
X187806632Y-46701571D01*
X187615130Y-46865130D01*
X187451571Y-47056632D01*
X187451568Y-47056637D01*
X187319980Y-47271368D01*
X187223603Y-47504043D01*
X187164811Y-47748932D01*
X187164728Y-47749999D01*
X187164729Y-47750000D01*
X188255148Y-47750000D01*
X188206441Y-47887047D01*
X188196123Y-48037886D01*
X188226884Y-48185915D01*
X188260090Y-48250000D01*
X187164728Y-48250000D01*
X180190500Y-48250000D01*
X180190499Y-46852128D01*
X180184091Y-46792517D01*
X180150170Y-46701571D01*
X180133797Y-46657671D01*
X180133793Y-46657664D01*
X180047547Y-46542455D01*
X180047544Y-46542452D01*
X179932335Y-46456206D01*
X179932328Y-46456202D01*
X179797482Y-46405908D01*
X179797483Y-46405908D01*
X179737883Y-46399501D01*
X179737881Y-46399500D01*
X179737873Y-46399500D01*
X179737864Y-46399500D01*
X177442129Y-46399500D01*
X177442123Y-46399501D01*
X177382516Y-46405908D01*
X177247671Y-46456202D01*
X177247664Y-46456206D01*
X177132455Y-46542452D01*
X177132452Y-46542455D01*
X177046206Y-46657664D01*
X177046202Y-46657671D01*
X176995908Y-46792517D01*
X176989501Y-46852116D01*
X176989501Y-46852123D01*
X176989500Y-46852135D01*
X176989500Y-49147870D01*
X172550500Y-49147870D01*
X172550500Y-45526662D01*
X172570185Y-45459623D01*
X172603379Y-45425086D01*
X172639140Y-45400046D01*
X172800045Y-45239141D01*
X172800047Y-45239139D01*
X172930568Y-45052734D01*
X173026739Y-44846496D01*
X173085635Y-44626692D01*
X173105468Y-44400000D01*
X173085635Y-44173308D01*
X173026739Y-43953504D01*
X172930568Y-43747266D01*
X172800047Y-43560861D01*
X172800045Y-43560858D01*
X172639141Y-43399954D01*
X172636165Y-43397870D01*
X176989500Y-43397870D01*
X176989501Y-43397876D01*
X176995908Y-43457483D01*
X177046202Y-43592328D01*
X177046206Y-43592335D01*
X177132452Y-43707544D01*
X177132455Y-43707547D01*
X177247664Y-43793793D01*
X177247671Y-43793797D01*
X177382517Y-43844091D01*
X177382516Y-43844091D01*
X177389444Y-43844835D01*
X177442127Y-43850500D01*
X179737872Y-43850499D01*
X179797483Y-43844091D01*
X179932331Y-43793796D01*
X180047546Y-43707546D01*
X180133796Y-43592331D01*
X180184091Y-43457483D01*
X180190500Y-43397873D01*
X180190500Y-42500000D01*
X187164728Y-42500000D01*
X187164811Y-42501067D01*
X187223603Y-42745956D01*
X187319980Y-42978631D01*
X187451568Y-43193362D01*
X187451571Y-43193367D01*
X187615130Y-43384869D01*
X187806632Y-43548428D01*
X187806637Y-43548431D01*
X188021368Y-43680019D01*
X188254043Y-43776396D01*
X188498932Y-43835188D01*
X188500000Y-43835271D01*
X188500000Y-42741683D01*
X188528819Y-42759209D01*
X188674404Y-42800000D01*
X188787622Y-42800000D01*
X188899783Y-42784584D01*
X189000000Y-42741053D01*
X189000000Y-43835271D01*
X189001067Y-43835188D01*
X189245956Y-43776396D01*
X189478631Y-43680019D01*
X189693362Y-43548431D01*
X189693367Y-43548428D01*
X189884869Y-43384869D01*
X190048428Y-43193367D01*
X190048431Y-43193362D01*
X190180019Y-42978631D01*
X190276396Y-42745956D01*
X190335188Y-42501067D01*
X190335272Y-42500000D01*
X189244852Y-42500000D01*
X189293559Y-42362953D01*
X189303877Y-42212114D01*
X189273116Y-42064085D01*
X189239910Y-42000000D01*
X190335271Y-42000000D01*
X190335271Y-41999999D01*
X190335188Y-41998932D01*
X190276396Y-41754043D01*
X190180019Y-41521368D01*
X190048431Y-41306637D01*
X190048428Y-41306632D01*
X189884869Y-41115130D01*
X189693367Y-40951571D01*
X189693362Y-40951568D01*
X189478631Y-40819980D01*
X189245956Y-40723603D01*
X189001064Y-40664811D01*
X189000000Y-40664726D01*
X189000000Y-41758316D01*
X188971181Y-41740791D01*
X188825596Y-41700000D01*
X188712378Y-41700000D01*
X188600217Y-41715416D01*
X188500000Y-41758946D01*
X188500000Y-40664726D01*
X188498935Y-40664811D01*
X188254043Y-40723603D01*
X188021368Y-40819980D01*
X187806637Y-40951568D01*
X187806632Y-40951571D01*
X187615130Y-41115130D01*
X187451571Y-41306632D01*
X187451568Y-41306637D01*
X187319980Y-41521368D01*
X187223603Y-41754043D01*
X187164811Y-41998932D01*
X187164728Y-41999999D01*
X187164729Y-42000000D01*
X188255148Y-42000000D01*
X188206441Y-42137047D01*
X188196123Y-42287886D01*
X188226884Y-42435915D01*
X188260090Y-42500000D01*
X187164728Y-42500000D01*
X180190500Y-42500000D01*
X180190499Y-41102128D01*
X180184091Y-41042517D01*
X180150170Y-40951571D01*
X180133797Y-40907671D01*
X180133793Y-40907664D01*
X180047547Y-40792455D01*
X180047544Y-40792452D01*
X179932335Y-40706206D01*
X179932328Y-40706202D01*
X179797482Y-40655908D01*
X179797483Y-40655908D01*
X179737883Y-40649501D01*
X179737881Y-40649500D01*
X179737873Y-40649500D01*
X179737864Y-40649500D01*
X177442129Y-40649500D01*
X177442123Y-40649501D01*
X177382516Y-40655908D01*
X177247671Y-40706202D01*
X177247664Y-40706206D01*
X177132455Y-40792452D01*
X177132452Y-40792455D01*
X177046206Y-40907664D01*
X177046202Y-40907671D01*
X176995908Y-41042517D01*
X176989501Y-41102116D01*
X176989501Y-41102123D01*
X176989500Y-41102135D01*
X176989500Y-43397870D01*
X172636165Y-43397870D01*
X172452734Y-43269432D01*
X172452732Y-43269431D01*
X172246497Y-43173261D01*
X172246488Y-43173258D01*
X172026697Y-43114366D01*
X172026693Y-43114365D01*
X172026692Y-43114365D01*
X172026691Y-43114364D01*
X172026686Y-43114364D01*
X171800002Y-43094532D01*
X171799998Y-43094532D01*
X171573313Y-43114364D01*
X171573302Y-43114366D01*
X171353511Y-43173258D01*
X171353502Y-43173261D01*
X171147267Y-43269431D01*
X171147265Y-43269432D01*
X170960858Y-43399954D01*
X170799954Y-43560858D01*
X170669433Y-43747264D01*
X170669432Y-43747266D01*
X170662380Y-43762387D01*
X170616209Y-43814825D01*
X170549015Y-43833976D01*
X170482134Y-43813760D01*
X170437619Y-43762387D01*
X170430568Y-43747266D01*
X170300047Y-43560861D01*
X170300045Y-43560858D01*
X170139141Y-43399954D01*
X169952734Y-43269432D01*
X169952732Y-43269431D01*
X169746497Y-43173261D01*
X169746488Y-43173258D01*
X169526697Y-43114366D01*
X169526693Y-43114365D01*
X169526692Y-43114365D01*
X169526691Y-43114364D01*
X169526686Y-43114364D01*
X169300002Y-43094532D01*
X169299998Y-43094532D01*
X169073313Y-43114364D01*
X169073302Y-43114366D01*
X168853511Y-43173258D01*
X168853502Y-43173261D01*
X168647267Y-43269431D01*
X168647265Y-43269432D01*
X168460858Y-43399954D01*
X168299954Y-43560858D01*
X168169432Y-43747265D01*
X168169431Y-43747267D01*
X168073261Y-43953502D01*
X168073258Y-43953511D01*
X168014366Y-44173302D01*
X168014364Y-44173313D01*
X167994532Y-44399998D01*
X167994532Y-44400001D01*
X168014364Y-44626686D01*
X168014366Y-44626697D01*
X168073258Y-44846488D01*
X168073261Y-44846497D01*
X168169431Y-45052732D01*
X168169432Y-45052734D01*
X168299954Y-45239141D01*
X168460858Y-45400045D01*
X168460861Y-45400047D01*
X168647266Y-45530568D01*
X168853504Y-45626739D01*
X168853509Y-45626740D01*
X168853511Y-45626741D01*
X168906415Y-45640916D01*
X169073308Y-45685635D01*
X169235230Y-45699801D01*
X169299998Y-45705468D01*
X169300000Y-45705468D01*
X169300002Y-45705468D01*
X169362522Y-45699998D01*
X169526692Y-45685635D01*
X169746496Y-45626739D01*
X169952734Y-45530568D01*
X170139139Y-45400047D01*
X170300047Y-45239139D01*
X170430568Y-45052734D01*
X170437618Y-45037614D01*
X170483789Y-44985176D01*
X170550982Y-44966023D01*
X170617864Y-44986238D01*
X170662381Y-45037614D01*
X170669432Y-45052733D01*
X170669432Y-45052734D01*
X170799954Y-45239141D01*
X170960859Y-45400046D01*
X170996621Y-45425086D01*
X171040247Y-45479662D01*
X171049500Y-45526662D01*
X171049500Y-73637194D01*
X171048191Y-73655163D01*
X171044710Y-73678925D01*
X171049264Y-73730964D01*
X171049500Y-73736370D01*
X171049500Y-73744609D01*
X171051056Y-73757927D01*
X171053306Y-73777174D01*
X171060000Y-73853691D01*
X171061461Y-73860767D01*
X171061403Y-73860778D01*
X171063034Y-73868137D01*
X171063092Y-73868124D01*
X171064757Y-73875150D01*
X171091025Y-73947324D01*
X171115185Y-74020231D01*
X171118236Y-74026774D01*
X171118182Y-74026798D01*
X171121470Y-74033588D01*
X171121521Y-74033563D01*
X171124761Y-74040013D01*
X171124762Y-74040014D01*
X171124763Y-74040017D01*
X171166965Y-74104183D01*
X171207287Y-74169555D01*
X171211766Y-74175219D01*
X171211719Y-74175256D01*
X171216482Y-74181102D01*
X171216528Y-74181064D01*
X171221173Y-74186600D01*
X171277017Y-74239285D01*
X180963181Y-83925449D01*
X180996666Y-83986772D01*
X180999500Y-84013130D01*
X180999500Y-93687298D01*
X180979815Y-93754337D01*
X180946625Y-93788872D01*
X180878595Y-93836507D01*
X180711505Y-94003597D01*
X180601575Y-94160595D01*
X180546998Y-94204220D01*
X180477500Y-94211414D01*
X180415145Y-94179891D01*
X180398425Y-94160595D01*
X180288494Y-94003597D01*
X180121402Y-93836506D01*
X180121395Y-93836501D01*
X179927834Y-93700967D01*
X179927830Y-93700965D01*
X179887777Y-93682288D01*
X179713663Y-93601097D01*
X179713659Y-93601096D01*
X179713655Y-93601094D01*
X179485413Y-93539938D01*
X179485403Y-93539936D01*
X179250001Y-93519341D01*
X179249999Y-93519341D01*
X179014596Y-93539936D01*
X179014586Y-93539938D01*
X178786344Y-93601094D01*
X178786335Y-93601098D01*
X178572171Y-93700964D01*
X178572169Y-93700965D01*
X178378597Y-93836505D01*
X178231398Y-93983705D01*
X178170075Y-94017190D01*
X178100383Y-94012206D01*
X178044450Y-93970334D01*
X178038178Y-93961120D01*
X177942712Y-93806344D01*
X177818657Y-93682289D01*
X177818656Y-93682288D01*
X177725888Y-93625069D01*
X177669336Y-93590187D01*
X177669331Y-93590185D01*
X177667862Y-93589698D01*
X177502797Y-93535001D01*
X177502795Y-93535000D01*
X177400010Y-93524500D01*
X176099998Y-93524500D01*
X176099981Y-93524501D01*
X175997203Y-93535000D01*
X175997200Y-93535001D01*
X175830668Y-93590185D01*
X175830663Y-93590187D01*
X175681342Y-93682289D01*
X175557289Y-93806342D01*
X175465187Y-93955663D01*
X175465185Y-93955668D01*
X175446450Y-94012206D01*
X175410001Y-94122203D01*
X175410001Y-94122204D01*
X175410000Y-94122204D01*
X175399500Y-94224983D01*
X175399500Y-95379191D01*
X175379815Y-95446230D01*
X175363181Y-95466872D01*
X175144773Y-95685281D01*
X175083450Y-95718766D01*
X175057092Y-95721600D01*
X170399883Y-95721600D01*
X170332844Y-95701915D01*
X170287089Y-95649111D01*
X170277145Y-95579953D01*
X170280108Y-95565507D01*
X170330030Y-95379191D01*
X170335063Y-95360408D01*
X170350500Y-95183966D01*
X170350500Y-94816034D01*
X170335063Y-94639592D01*
X170273903Y-94411337D01*
X170174035Y-94197171D01*
X170161936Y-94179891D01*
X170038494Y-94003597D01*
X169871404Y-93836507D01*
X169803375Y-93788872D01*
X169759751Y-93734294D01*
X169750500Y-93687298D01*
X169750500Y-92976298D01*
X169770185Y-92909259D01*
X169801619Y-92875977D01*
X169805871Y-92872888D01*
X169932533Y-92732216D01*
X170027179Y-92568284D01*
X170085674Y-92388256D01*
X170105460Y-92200000D01*
X170085674Y-92011744D01*
X170027179Y-91831716D01*
X169932533Y-91667784D01*
X169805871Y-91527112D01*
X169805870Y-91527111D01*
X169652734Y-91415851D01*
X169652729Y-91415848D01*
X169479807Y-91338857D01*
X169479802Y-91338855D01*
X169334001Y-91307865D01*
X169294646Y-91299500D01*
X169105354Y-91299500D01*
X169072897Y-91306398D01*
X168920197Y-91338855D01*
X168920192Y-91338857D01*
X168747270Y-91415848D01*
X168747265Y-91415851D01*
X168594129Y-91527111D01*
X168467466Y-91667785D01*
X168372821Y-91831715D01*
X168372818Y-91831722D01*
X168314327Y-92011739D01*
X168314327Y-92011740D01*
X168314326Y-92011744D01*
X168314093Y-92013962D01*
X168305881Y-92092088D01*
X168293375Y-92134766D01*
X168289959Y-92141568D01*
X168287489Y-92148355D01*
X168287433Y-92148334D01*
X168284960Y-92155450D01*
X168285015Y-92155469D01*
X168282742Y-92162327D01*
X168277389Y-92188256D01*
X168267207Y-92237565D01*
X168255193Y-92288256D01*
X168249498Y-92312286D01*
X168248661Y-92319454D01*
X168248601Y-92319447D01*
X168247835Y-92326945D01*
X168247895Y-92326951D01*
X168247265Y-92334140D01*
X168249500Y-92410916D01*
X168249500Y-93687298D01*
X168229815Y-93754337D01*
X168196625Y-93788872D01*
X168128595Y-93836507D01*
X167961505Y-94003597D01*
X167851575Y-94160595D01*
X167796998Y-94204220D01*
X167727500Y-94211414D01*
X167665145Y-94179891D01*
X167648425Y-94160595D01*
X167538494Y-94003597D01*
X167371402Y-93836506D01*
X167371395Y-93836501D01*
X167177834Y-93700967D01*
X167177830Y-93700965D01*
X167137777Y-93682288D01*
X166963663Y-93601097D01*
X166963659Y-93601096D01*
X166963655Y-93601094D01*
X166735413Y-93539938D01*
X166735403Y-93539936D01*
X166500001Y-93519341D01*
X166499999Y-93519341D01*
X166264596Y-93539936D01*
X166264586Y-93539938D01*
X166036344Y-93601094D01*
X166036335Y-93601098D01*
X165822171Y-93700964D01*
X165822169Y-93700965D01*
X165628597Y-93836505D01*
X165461505Y-94003597D01*
X165351575Y-94160595D01*
X165296998Y-94204220D01*
X165227500Y-94211414D01*
X165165145Y-94179891D01*
X165148425Y-94160595D01*
X165038494Y-94003597D01*
X164871402Y-93836506D01*
X164871395Y-93836501D01*
X164677834Y-93700967D01*
X164677830Y-93700965D01*
X164637777Y-93682288D01*
X164463663Y-93601097D01*
X164463659Y-93601096D01*
X164463655Y-93601094D01*
X164235413Y-93539938D01*
X164235403Y-93539936D01*
X164000001Y-93519341D01*
X163999999Y-93519341D01*
X163764596Y-93539936D01*
X163764586Y-93539938D01*
X163536344Y-93601094D01*
X163536335Y-93601098D01*
X163322171Y-93700964D01*
X163322169Y-93700965D01*
X163128597Y-93836505D01*
X162981398Y-93983705D01*
X162920075Y-94017190D01*
X162850383Y-94012206D01*
X162794450Y-93970334D01*
X162788178Y-93961120D01*
X162692712Y-93806344D01*
X162568657Y-93682289D01*
X162568656Y-93682288D01*
X162475888Y-93625069D01*
X162419336Y-93590187D01*
X162419331Y-93590185D01*
X162417862Y-93589698D01*
X162252797Y-93535001D01*
X162252795Y-93535000D01*
X162150016Y-93524500D01*
X162150009Y-93524500D01*
X160995808Y-93524500D01*
X160928769Y-93504815D01*
X160908127Y-93488181D01*
X160630634Y-93210688D01*
X160620561Y-93198114D01*
X160620374Y-93198270D01*
X160615401Y-93192259D01*
X160562956Y-93143010D01*
X160541235Y-93121289D01*
X160535440Y-93116794D01*
X160530998Y-93112999D01*
X160495596Y-93079754D01*
X160495588Y-93079748D01*
X160476992Y-93069525D01*
X160460731Y-93058844D01*
X160443963Y-93045837D01*
X160420380Y-93035632D01*
X160399378Y-93026543D01*
X160394156Y-93023986D01*
X160351568Y-93000573D01*
X160351565Y-93000572D01*
X160331001Y-92995292D01*
X160312596Y-92988990D01*
X160293127Y-92980565D01*
X160293121Y-92980563D01*
X160245151Y-92972966D01*
X160239436Y-92971782D01*
X160222972Y-92967555D01*
X160192380Y-92959700D01*
X160192377Y-92959700D01*
X160171155Y-92959700D01*
X160151755Y-92958173D01*
X160130796Y-92954853D01*
X160130795Y-92954853D01*
X160106986Y-92957103D01*
X160082430Y-92959425D01*
X160076592Y-92959700D01*
X147575305Y-92959700D01*
X147559294Y-92957932D01*
X147559272Y-92958174D01*
X147551505Y-92957440D01*
X147551504Y-92957440D01*
X147479597Y-92959700D01*
X147448875Y-92959700D01*
X147448871Y-92959700D01*
X147448861Y-92959701D01*
X147441593Y-92960619D01*
X147435776Y-92961076D01*
X147387236Y-92962602D01*
X147387225Y-92962604D01*
X147366849Y-92968523D01*
X147347808Y-92972466D01*
X147326753Y-92975126D01*
X147326737Y-92975130D01*
X147281571Y-92993012D01*
X147276044Y-92994904D01*
X147229399Y-93008456D01*
X147211127Y-93019262D01*
X147193661Y-93027819D01*
X147173928Y-93035632D01*
X147134630Y-93064183D01*
X147129753Y-93067386D01*
X147116081Y-93075472D01*
X147087932Y-93092120D01*
X147072926Y-93107126D01*
X147058136Y-93119758D01*
X147040967Y-93132232D01*
X147040965Y-93132234D01*
X147009994Y-93169670D01*
X147006062Y-93173991D01*
X146691871Y-93488181D01*
X146630548Y-93521666D01*
X146604190Y-93524500D01*
X145449998Y-93524500D01*
X145449981Y-93524501D01*
X145347203Y-93535000D01*
X145347200Y-93535001D01*
X145180668Y-93590185D01*
X145180663Y-93590187D01*
X145031342Y-93682289D01*
X144907289Y-93806342D01*
X144815187Y-93955663D01*
X144815185Y-93955668D01*
X144796450Y-94012206D01*
X144760001Y-94122203D01*
X144760001Y-94122204D01*
X144760000Y-94122204D01*
X144749500Y-94224983D01*
X144749500Y-94224991D01*
X144749500Y-94956454D01*
X144749501Y-95630100D01*
X144729816Y-95697139D01*
X144677013Y-95742894D01*
X144625501Y-95754100D01*
X139390779Y-95754100D01*
X139323740Y-95734415D01*
X139277985Y-95681611D01*
X139268041Y-95612453D01*
X139272688Y-95593943D01*
X139272502Y-95593893D01*
X139330030Y-95379191D01*
X139335063Y-95360408D01*
X139350500Y-95183966D01*
X139350500Y-94816034D01*
X139335063Y-94639592D01*
X139273903Y-94411337D01*
X139174035Y-94197171D01*
X139161936Y-94179891D01*
X139038494Y-94003597D01*
X138871404Y-93836507D01*
X138803375Y-93788872D01*
X138759751Y-93734294D01*
X138750500Y-93687298D01*
X138750500Y-92770921D01*
X138770185Y-92703882D01*
X138782351Y-92687948D01*
X138798789Y-92669692D01*
X138832533Y-92632216D01*
X138927179Y-92468284D01*
X138985674Y-92288256D01*
X139005460Y-92100000D01*
X138985674Y-91911744D01*
X138927179Y-91731716D01*
X138832533Y-91567784D01*
X138705871Y-91427112D01*
X138690369Y-91415849D01*
X138552734Y-91315851D01*
X138552729Y-91315848D01*
X138379807Y-91238857D01*
X138379802Y-91238855D01*
X138234001Y-91207865D01*
X138194646Y-91199500D01*
X138005354Y-91199500D01*
X137989523Y-91202865D01*
X137820197Y-91238855D01*
X137820192Y-91238857D01*
X137647270Y-91315848D01*
X137647265Y-91315851D01*
X137494129Y-91427111D01*
X137367466Y-91567785D01*
X137272821Y-91731715D01*
X137272818Y-91731722D01*
X137214327Y-91911740D01*
X137214326Y-91911744D01*
X137194540Y-92100000D01*
X137214326Y-92288256D01*
X137214327Y-92288259D01*
X137243431Y-92377831D01*
X137249500Y-92416149D01*
X137249500Y-93687298D01*
X137229815Y-93754337D01*
X137196625Y-93788872D01*
X137128595Y-93836507D01*
X136961505Y-94003597D01*
X136851575Y-94160595D01*
X136796998Y-94204220D01*
X136727500Y-94211414D01*
X136665145Y-94179891D01*
X136648425Y-94160595D01*
X136538494Y-94003597D01*
X136371402Y-93836506D01*
X136371395Y-93836501D01*
X136177834Y-93700967D01*
X136177830Y-93700965D01*
X136137777Y-93682288D01*
X135963663Y-93601097D01*
X135963659Y-93601096D01*
X135963655Y-93601094D01*
X135735413Y-93539938D01*
X135735403Y-93539936D01*
X135500001Y-93519341D01*
X135499999Y-93519341D01*
X135264596Y-93539936D01*
X135264586Y-93539938D01*
X135036344Y-93601094D01*
X135036335Y-93601098D01*
X134822171Y-93700964D01*
X134822169Y-93700965D01*
X134628597Y-93836505D01*
X134461505Y-94003597D01*
X134351575Y-94160595D01*
X134296998Y-94204220D01*
X134227500Y-94211414D01*
X134165145Y-94179891D01*
X134148425Y-94160595D01*
X134038494Y-94003597D01*
X133871402Y-93836506D01*
X133871395Y-93836501D01*
X133677834Y-93700967D01*
X133677830Y-93700965D01*
X133637777Y-93682288D01*
X133463663Y-93601097D01*
X133463659Y-93601096D01*
X133463655Y-93601094D01*
X133235413Y-93539938D01*
X133235403Y-93539936D01*
X133000001Y-93519341D01*
X132999999Y-93519341D01*
X132764596Y-93539936D01*
X132764586Y-93539938D01*
X132536344Y-93601094D01*
X132536335Y-93601098D01*
X132322171Y-93700964D01*
X132322169Y-93700965D01*
X132128597Y-93836505D01*
X131981398Y-93983705D01*
X131920075Y-94017190D01*
X131850383Y-94012206D01*
X131794450Y-93970334D01*
X131788178Y-93961120D01*
X131692712Y-93806344D01*
X131568657Y-93682289D01*
X131568656Y-93682288D01*
X131475888Y-93625069D01*
X131419336Y-93590187D01*
X131419331Y-93590185D01*
X131417862Y-93589698D01*
X131252797Y-93535001D01*
X131252795Y-93535000D01*
X131150010Y-93524500D01*
X129849998Y-93524500D01*
X129849981Y-93524501D01*
X129747203Y-93535000D01*
X129747200Y-93535001D01*
X129580668Y-93590185D01*
X129580663Y-93590187D01*
X129431342Y-93682289D01*
X129307289Y-93806342D01*
X129215187Y-93955663D01*
X129215185Y-93955668D01*
X129196450Y-94012206D01*
X129160001Y-94122203D01*
X129160001Y-94122204D01*
X129160000Y-94122204D01*
X129149500Y-94224983D01*
X129149500Y-94224996D01*
X129149501Y-95559600D01*
X129129816Y-95626639D01*
X129077013Y-95672394D01*
X129025501Y-95683600D01*
X123910065Y-95683600D01*
X123843026Y-95663915D01*
X123797271Y-95611111D01*
X123787327Y-95541953D01*
X123790290Y-95527507D01*
X123830030Y-95379191D01*
X123835063Y-95360408D01*
X123850500Y-95183966D01*
X123850500Y-94816034D01*
X123839033Y-94684972D01*
X123852799Y-94616475D01*
X123874877Y-94586489D01*
X125552770Y-92908595D01*
X125614091Y-92875112D01*
X125614427Y-92875039D01*
X125679803Y-92861144D01*
X125852730Y-92784151D01*
X126005871Y-92672888D01*
X126132533Y-92532216D01*
X126227179Y-92368284D01*
X126285674Y-92188256D01*
X126305460Y-92000000D01*
X126285674Y-91811744D01*
X126227179Y-91631716D01*
X126132533Y-91467784D01*
X126005871Y-91327112D01*
X125990369Y-91315849D01*
X125852734Y-91215851D01*
X125852729Y-91215848D01*
X125679807Y-91138857D01*
X125679802Y-91138855D01*
X125534001Y-91107865D01*
X125494646Y-91099500D01*
X125305354Y-91099500D01*
X125272897Y-91106398D01*
X125120197Y-91138855D01*
X125120192Y-91138857D01*
X124947270Y-91215848D01*
X124947265Y-91215851D01*
X124794129Y-91327111D01*
X124667466Y-91467785D01*
X124572821Y-91631715D01*
X124572819Y-91631719D01*
X124517479Y-91802039D01*
X124487229Y-91851401D01*
X122834488Y-93504142D01*
X122773165Y-93537627D01*
X122735999Y-93539989D01*
X122735409Y-93539937D01*
X122735408Y-93539937D01*
X122554263Y-93524088D01*
X122500001Y-93519341D01*
X122499999Y-93519341D01*
X122264596Y-93539936D01*
X122264586Y-93539938D01*
X122036344Y-93601094D01*
X122036335Y-93601098D01*
X121822171Y-93700964D01*
X121822169Y-93700965D01*
X121628597Y-93836505D01*
X121461505Y-94003597D01*
X121351575Y-94160595D01*
X121296998Y-94204220D01*
X121227500Y-94211414D01*
X121165145Y-94179891D01*
X121148425Y-94160595D01*
X121038494Y-94003597D01*
X120871402Y-93836506D01*
X120871395Y-93836501D01*
X120677834Y-93700967D01*
X120677830Y-93700965D01*
X120637777Y-93682288D01*
X120463663Y-93601097D01*
X120463659Y-93601096D01*
X120463655Y-93601094D01*
X120235413Y-93539938D01*
X120235403Y-93539936D01*
X120000001Y-93519341D01*
X119999999Y-93519341D01*
X119764596Y-93539936D01*
X119764586Y-93539938D01*
X119536344Y-93601094D01*
X119536335Y-93601098D01*
X119322171Y-93700964D01*
X119322169Y-93700965D01*
X119128597Y-93836505D01*
X118961505Y-94003597D01*
X118851575Y-94160595D01*
X118796998Y-94204220D01*
X118727500Y-94211414D01*
X118665145Y-94179891D01*
X118648425Y-94160595D01*
X118538494Y-94003597D01*
X118371402Y-93836506D01*
X118371395Y-93836501D01*
X118177834Y-93700967D01*
X118177830Y-93700965D01*
X118137777Y-93682288D01*
X117963663Y-93601097D01*
X117963659Y-93601096D01*
X117963655Y-93601094D01*
X117735413Y-93539938D01*
X117735403Y-93539936D01*
X117500001Y-93519341D01*
X117499999Y-93519341D01*
X117264596Y-93539936D01*
X117264586Y-93539938D01*
X117036344Y-93601094D01*
X117036335Y-93601098D01*
X116822171Y-93700964D01*
X116822169Y-93700965D01*
X116628597Y-93836505D01*
X116481398Y-93983705D01*
X116420075Y-94017190D01*
X116350383Y-94012206D01*
X116294450Y-93970334D01*
X116288178Y-93961120D01*
X116192712Y-93806344D01*
X116068657Y-93682289D01*
X116068656Y-93682288D01*
X115975888Y-93625069D01*
X115919336Y-93590187D01*
X115919331Y-93590185D01*
X115917862Y-93589698D01*
X115752797Y-93535001D01*
X115752795Y-93535000D01*
X115650016Y-93524500D01*
X115650009Y-93524500D01*
X114495808Y-93524500D01*
X114428769Y-93504815D01*
X114408127Y-93488181D01*
X111487819Y-90567873D01*
X111454334Y-90506550D01*
X111451500Y-90480192D01*
X111451500Y-87606782D01*
X111471185Y-87539743D01*
X111523989Y-87493988D01*
X111593147Y-87484044D01*
X111598221Y-87484882D01*
X111788757Y-87520500D01*
X111788760Y-87520500D01*
X112011241Y-87520500D01*
X112011243Y-87520500D01*
X112229940Y-87479618D01*
X112437401Y-87399247D01*
X112626562Y-87282124D01*
X112790981Y-87132236D01*
X112925058Y-86954689D01*
X113024229Y-86755528D01*
X113085115Y-86541536D01*
X113105643Y-86320000D01*
X113085115Y-86098464D01*
X113024229Y-85884472D01*
X113024224Y-85884461D01*
X112925061Y-85685316D01*
X112925056Y-85685308D01*
X112889459Y-85638171D01*
X112790981Y-85507764D01*
X112790978Y-85507761D01*
X112787113Y-85503521D01*
X112789088Y-85501720D01*
X112758735Y-85451589D01*
X112760604Y-85381745D01*
X112783613Y-85340145D01*
X112831302Y-85283314D01*
X112831307Y-85283303D01*
X112835274Y-85277275D01*
X112835325Y-85277308D01*
X112839372Y-85270956D01*
X112839320Y-85270924D01*
X112843112Y-85264775D01*
X112875575Y-85195158D01*
X112910036Y-85126540D01*
X112910040Y-85126533D01*
X112910042Y-85126521D01*
X112912509Y-85119746D01*
X112912567Y-85119767D01*
X112915043Y-85112646D01*
X112914986Y-85112628D01*
X112917257Y-85105773D01*
X112932792Y-85030534D01*
X112950498Y-84955828D01*
X112950500Y-84955821D01*
X112950500Y-84955810D01*
X112951338Y-84948648D01*
X112951398Y-84948655D01*
X112952164Y-84941155D01*
X112952105Y-84941150D01*
X112952734Y-84933960D01*
X112950500Y-84857183D01*
X112950500Y-82612700D01*
X112970185Y-82545661D01*
X113003375Y-82511126D01*
X113071401Y-82463495D01*
X113238495Y-82296401D01*
X113370423Y-82107986D01*
X113425000Y-82064362D01*
X113475619Y-82055163D01*
X113479913Y-82055287D01*
X113479923Y-82055289D01*
X113531968Y-82050735D01*
X113537370Y-82050500D01*
X113545604Y-82050500D01*
X113545609Y-82050500D01*
X113557227Y-82049141D01*
X113578176Y-82046693D01*
X113590928Y-82045577D01*
X113654697Y-82039999D01*
X113654705Y-82039996D01*
X113661766Y-82038539D01*
X113661778Y-82038598D01*
X113669143Y-82036965D01*
X113669129Y-82036906D01*
X113676146Y-82035241D01*
X113676155Y-82035241D01*
X113748323Y-82008974D01*
X113821234Y-81984814D01*
X113821243Y-81984807D01*
X113827782Y-81981760D01*
X113827808Y-81981816D01*
X113834590Y-81978532D01*
X113834563Y-81978478D01*
X113841006Y-81975240D01*
X113841017Y-81975237D01*
X113905183Y-81933034D01*
X113970556Y-81892712D01*
X113970562Y-81892705D01*
X113976225Y-81888229D01*
X113976262Y-81888277D01*
X113982104Y-81883518D01*
X113982064Y-81883471D01*
X113987591Y-81878832D01*
X113987596Y-81878830D01*
X113994010Y-81872032D01*
X114040286Y-81822981D01*
X116475086Y-79388181D01*
X123799038Y-72064227D01*
X123812667Y-72052450D01*
X123831930Y-72038110D01*
X123831932Y-72038106D01*
X123831934Y-72038106D01*
X123863946Y-71999954D01*
X123865513Y-71998085D01*
X123869167Y-71994099D01*
X123874989Y-71988278D01*
X123895328Y-71962554D01*
X123916315Y-71937543D01*
X123944702Y-71903714D01*
X123944704Y-71903709D01*
X123948672Y-71897679D01*
X123948723Y-71897712D01*
X123952769Y-71891360D01*
X123952717Y-71891328D01*
X123956509Y-71885179D01*
X123956511Y-71885177D01*
X123988969Y-71815569D01*
X124023440Y-71746933D01*
X124023443Y-71746917D01*
X124025910Y-71740144D01*
X124025968Y-71740165D01*
X124028443Y-71733046D01*
X124028385Y-71733027D01*
X124030656Y-71726172D01*
X124031752Y-71720867D01*
X124046184Y-71650967D01*
X124063900Y-71576221D01*
X124063900Y-71576220D01*
X124064739Y-71569048D01*
X124064797Y-71569054D01*
X124065564Y-71561556D01*
X124065504Y-71561551D01*
X124066133Y-71554360D01*
X124063900Y-71477603D01*
X124063900Y-62683630D01*
X124083585Y-62616591D01*
X124100219Y-62595949D01*
X126637819Y-60058349D01*
X126699142Y-60024864D01*
X126768834Y-60029848D01*
X126824767Y-60071720D01*
X126849184Y-60137184D01*
X126849500Y-60146030D01*
X126849500Y-80142278D01*
X126829815Y-80209317D01*
X126796623Y-80243853D01*
X126628597Y-80361505D01*
X126461506Y-80528596D01*
X126367937Y-80662229D01*
X126346198Y-80693276D01*
X126343854Y-80696623D01*
X126289277Y-80740248D01*
X126242279Y-80749500D01*
X126235110Y-80749500D01*
X126211878Y-80747304D01*
X126195410Y-80744163D01*
X126195887Y-80741661D01*
X126141902Y-80722040D01*
X126113804Y-80693278D01*
X125998495Y-80528599D01*
X125831401Y-80361505D01*
X125759751Y-80311335D01*
X125637834Y-80225967D01*
X125637830Y-80225965D01*
X125602128Y-80209317D01*
X125423663Y-80126097D01*
X125423659Y-80126096D01*
X125423655Y-80126094D01*
X125195413Y-80064938D01*
X125195403Y-80064936D01*
X124960001Y-80044341D01*
X124959999Y-80044341D01*
X124724596Y-80064936D01*
X124724586Y-80064938D01*
X124496344Y-80126094D01*
X124496335Y-80126098D01*
X124282171Y-80225964D01*
X124282169Y-80225965D01*
X124088600Y-80361503D01*
X123966673Y-80483430D01*
X123905350Y-80516914D01*
X123835658Y-80511930D01*
X123779725Y-80470058D01*
X123762810Y-80439081D01*
X123713797Y-80307671D01*
X123713793Y-80307664D01*
X123627547Y-80192455D01*
X123627544Y-80192452D01*
X123512335Y-80106206D01*
X123512328Y-80106202D01*
X123377482Y-80055908D01*
X123377483Y-80055908D01*
X123317883Y-80049501D01*
X123317881Y-80049500D01*
X123317873Y-80049500D01*
X123317864Y-80049500D01*
X121522129Y-80049500D01*
X121522123Y-80049501D01*
X121462516Y-80055908D01*
X121327671Y-80106202D01*
X121327664Y-80106206D01*
X121212455Y-80192452D01*
X121212452Y-80192455D01*
X121126206Y-80307664D01*
X121126202Y-80307671D01*
X121075908Y-80442517D01*
X121069501Y-80502116D01*
X121069500Y-80502135D01*
X121069500Y-82297870D01*
X121069501Y-82297876D01*
X121075908Y-82357483D01*
X121126202Y-82492328D01*
X121126206Y-82492335D01*
X121212452Y-82607544D01*
X121212455Y-82607547D01*
X121327664Y-82693793D01*
X121327671Y-82693797D01*
X121462517Y-82744091D01*
X121462516Y-82744091D01*
X121469444Y-82744835D01*
X121522127Y-82750500D01*
X123317872Y-82750499D01*
X123377483Y-82744091D01*
X123512331Y-82693796D01*
X123512334Y-82693793D01*
X123516194Y-82692354D01*
X123585886Y-82687370D01*
X123647209Y-82720855D01*
X125017664Y-84091310D01*
X125027735Y-84103880D01*
X125027922Y-84103726D01*
X125032896Y-84109737D01*
X125032898Y-84109740D01*
X125052354Y-84128010D01*
X125085343Y-84158990D01*
X125107067Y-84180713D01*
X125112857Y-84185205D01*
X125117297Y-84188997D01*
X125146598Y-84216511D01*
X125152707Y-84222248D01*
X125152710Y-84222250D01*
X125152712Y-84222251D01*
X125171307Y-84232474D01*
X125187568Y-84243156D01*
X125202210Y-84254513D01*
X125204336Y-84256162D01*
X125238080Y-84270764D01*
X125248911Y-84275451D01*
X125254150Y-84278017D01*
X125296732Y-84301427D01*
X125317304Y-84306708D01*
X125335694Y-84313005D01*
X125355174Y-84321435D01*
X125399321Y-84328426D01*
X125403148Y-84329033D01*
X125408857Y-84330215D01*
X125455923Y-84342300D01*
X125477145Y-84342300D01*
X125496544Y-84343826D01*
X125517505Y-84347147D01*
X125562204Y-84342921D01*
X125565870Y-84342575D01*
X125571708Y-84342300D01*
X135162195Y-84342300D01*
X135178205Y-84344067D01*
X135178228Y-84343826D01*
X135185989Y-84344558D01*
X135185996Y-84344560D01*
X135257903Y-84342300D01*
X135288625Y-84342300D01*
X135295890Y-84341381D01*
X135301716Y-84340922D01*
X135350269Y-84339397D01*
X135370656Y-84333473D01*
X135389696Y-84329531D01*
X135410758Y-84326871D01*
X135455935Y-84308983D01*
X135461435Y-84307100D01*
X135508098Y-84293544D01*
X135526365Y-84282739D01*
X135543836Y-84274180D01*
X135563571Y-84266368D01*
X135602877Y-84237810D01*
X135607743Y-84234613D01*
X135649565Y-84209881D01*
X135664570Y-84194875D01*
X135679368Y-84182236D01*
X135696537Y-84169763D01*
X135727509Y-84132322D01*
X135731423Y-84128021D01*
X137273613Y-82585831D01*
X137286179Y-82575765D01*
X137286025Y-82575578D01*
X137292037Y-82570604D01*
X137292037Y-82570603D01*
X137292040Y-82570602D01*
X137341290Y-82518155D01*
X137363011Y-82496435D01*
X137367501Y-82490645D01*
X137371283Y-82486215D01*
X137404548Y-82450793D01*
X137414774Y-82432190D01*
X137425453Y-82415933D01*
X137438462Y-82399164D01*
X137457763Y-82354559D01*
X137460307Y-82349365D01*
X137483727Y-82306768D01*
X137489007Y-82286202D01*
X137495309Y-82267795D01*
X137503735Y-82248326D01*
X137511333Y-82200348D01*
X137512511Y-82194653D01*
X137524600Y-82147577D01*
X137524600Y-82126355D01*
X137526127Y-82106955D01*
X137529447Y-82085995D01*
X137524875Y-82037630D01*
X137524600Y-82031792D01*
X137524600Y-69424500D01*
X137544285Y-69357461D01*
X137597089Y-69311706D01*
X137648600Y-69300500D01*
X137716784Y-69300500D01*
X137886692Y-69285635D01*
X138106496Y-69226739D01*
X138312734Y-69130568D01*
X138341441Y-69110467D01*
X138407642Y-69088140D01*
X138475410Y-69105149D01*
X138523224Y-69156096D01*
X138528744Y-69168709D01*
X138556202Y-69242328D01*
X138556206Y-69242335D01*
X138642452Y-69357544D01*
X138642455Y-69357547D01*
X138757664Y-69443793D01*
X138757671Y-69443797D01*
X138892517Y-69494091D01*
X138892516Y-69494091D01*
X138899444Y-69494835D01*
X138952127Y-69500500D01*
X141047872Y-69500499D01*
X141107483Y-69494091D01*
X141242331Y-69443796D01*
X141357546Y-69357546D01*
X141443796Y-69242331D01*
X141494091Y-69107483D01*
X141500500Y-69047873D01*
X141500499Y-68179806D01*
X141520183Y-68112768D01*
X141572987Y-68067013D01*
X141642146Y-68057069D01*
X141705702Y-68086094D01*
X141712180Y-68092126D01*
X143222464Y-69602410D01*
X143232535Y-69614980D01*
X143232722Y-69614826D01*
X143237696Y-69620837D01*
X143237698Y-69620840D01*
X143257154Y-69639110D01*
X143290143Y-69670090D01*
X143311867Y-69691813D01*
X143317657Y-69696305D01*
X143322097Y-69700097D01*
X143346232Y-69722760D01*
X143357507Y-69733348D01*
X143357509Y-69733349D01*
X143376105Y-69743572D01*
X143392370Y-69754257D01*
X143409132Y-69767260D01*
X143409135Y-69767261D01*
X143409136Y-69767262D01*
X143453723Y-69786556D01*
X143458959Y-69789121D01*
X143501532Y-69812527D01*
X143517240Y-69816559D01*
X143522086Y-69817804D01*
X143540498Y-69824107D01*
X143559973Y-69832535D01*
X143607971Y-69840137D01*
X143613640Y-69841311D01*
X143660723Y-69853400D01*
X143681951Y-69853400D01*
X143701348Y-69854926D01*
X143722303Y-69858245D01*
X143722304Y-69858246D01*
X143722304Y-69858245D01*
X143722305Y-69858246D01*
X143770661Y-69853675D01*
X143776499Y-69853400D01*
X149686495Y-69853400D01*
X149702505Y-69855167D01*
X149702528Y-69854926D01*
X149710289Y-69855658D01*
X149710296Y-69855660D01*
X149782203Y-69853400D01*
X149812925Y-69853400D01*
X149820190Y-69852481D01*
X149826016Y-69852022D01*
X149874569Y-69850497D01*
X149894956Y-69844573D01*
X149913996Y-69840631D01*
X149935058Y-69837971D01*
X149980235Y-69820083D01*
X149985735Y-69818200D01*
X150032398Y-69804644D01*
X150050665Y-69793839D01*
X150068136Y-69785280D01*
X150087871Y-69777468D01*
X150127177Y-69748910D01*
X150132043Y-69745713D01*
X150173865Y-69720981D01*
X150188870Y-69705975D01*
X150203668Y-69693336D01*
X150220837Y-69680863D01*
X150251809Y-69643422D01*
X150255723Y-69639121D01*
X152980813Y-66914031D01*
X152993379Y-66903965D01*
X152993225Y-66903778D01*
X152999237Y-66898804D01*
X152999237Y-66898803D01*
X152999240Y-66898802D01*
X153048490Y-66846355D01*
X153070211Y-66824635D01*
X153074701Y-66818845D01*
X153078483Y-66814415D01*
X153111748Y-66778993D01*
X153121974Y-66760390D01*
X153132653Y-66744133D01*
X153145662Y-66727364D01*
X153164956Y-66682775D01*
X153167512Y-66677556D01*
X153190927Y-66634968D01*
X153196205Y-66614406D01*
X153202507Y-66595999D01*
X153210935Y-66576527D01*
X153218533Y-66528553D01*
X153219714Y-66522847D01*
X153231800Y-66475777D01*
X153231800Y-66454549D01*
X153233327Y-66435149D01*
X153236646Y-66414195D01*
X153232075Y-66365838D01*
X153231800Y-66360000D01*
X153231800Y-61979507D01*
X153251485Y-61912468D01*
X153268115Y-61891830D01*
X153808684Y-61351260D01*
X153870007Y-61317776D01*
X153939699Y-61322760D01*
X153995632Y-61364632D01*
X154019941Y-61428702D01*
X154029335Y-61542069D01*
X154088965Y-61777543D01*
X154186537Y-61999986D01*
X154319390Y-62203334D01*
X154319393Y-62203337D01*
X154483906Y-62382046D01*
X154483909Y-62382048D01*
X154483912Y-62382051D01*
X154599667Y-62472147D01*
X154640480Y-62528857D01*
X154644155Y-62598630D01*
X154609523Y-62659313D01*
X154599667Y-62667853D01*
X154483912Y-62757948D01*
X154483909Y-62757951D01*
X154319390Y-62936665D01*
X154186537Y-63140013D01*
X154088965Y-63362456D01*
X154029335Y-63597930D01*
X154009277Y-63839994D01*
X154009277Y-63840005D01*
X154029335Y-64082069D01*
X154088965Y-64317543D01*
X154186537Y-64539986D01*
X154319390Y-64743334D01*
X154319393Y-64743337D01*
X154483906Y-64922046D01*
X154483909Y-64922048D01*
X154483912Y-64922051D01*
X154599667Y-65012147D01*
X154640480Y-65068857D01*
X154644155Y-65138630D01*
X154609523Y-65199313D01*
X154599667Y-65207853D01*
X154483912Y-65297948D01*
X154483909Y-65297951D01*
X154319390Y-65476665D01*
X154186537Y-65680013D01*
X154088965Y-65902456D01*
X154029335Y-66137930D01*
X154009277Y-66379994D01*
X154009277Y-66380005D01*
X154029335Y-66622069D01*
X154088965Y-66857543D01*
X154186537Y-67079986D01*
X154319390Y-67283334D01*
X154319393Y-67283337D01*
X154483906Y-67462046D01*
X154483909Y-67462048D01*
X154483912Y-67462051D01*
X154599667Y-67552147D01*
X154640480Y-67608857D01*
X154644155Y-67678630D01*
X154609523Y-67739313D01*
X154599667Y-67747853D01*
X154483912Y-67837948D01*
X154483909Y-67837951D01*
X154319390Y-68016665D01*
X154186537Y-68220013D01*
X154088965Y-68442456D01*
X154029335Y-68677930D01*
X154009277Y-68919994D01*
X154009277Y-68920005D01*
X154029335Y-69162069D01*
X154088965Y-69397543D01*
X154186537Y-69619986D01*
X154319390Y-69823334D01*
X154345799Y-69852022D01*
X154483906Y-70002046D01*
X154483909Y-70002048D01*
X154483912Y-70002051D01*
X154599667Y-70092147D01*
X154640480Y-70148857D01*
X154644155Y-70218630D01*
X154609523Y-70279313D01*
X154599667Y-70287853D01*
X154483912Y-70377948D01*
X154483909Y-70377951D01*
X154319390Y-70556665D01*
X154186537Y-70760013D01*
X154088965Y-70982456D01*
X154029335Y-71217930D01*
X154009277Y-71459994D01*
X154009277Y-71460005D01*
X154029335Y-71702069D01*
X154029335Y-71702072D01*
X154029336Y-71702073D01*
X154032449Y-71714365D01*
X154088965Y-71937543D01*
X154186537Y-72159986D01*
X154319390Y-72363334D01*
X154319393Y-72363337D01*
X154483906Y-72542046D01*
X154483909Y-72542048D01*
X154483912Y-72542051D01*
X154599667Y-72632147D01*
X154640480Y-72688857D01*
X154644155Y-72758630D01*
X154609523Y-72819313D01*
X154599667Y-72827853D01*
X154483912Y-72917948D01*
X154483909Y-72917951D01*
X154319390Y-73096665D01*
X154186537Y-73300013D01*
X154088965Y-73522456D01*
X154029335Y-73757930D01*
X154009277Y-73999994D01*
X154009277Y-74000005D01*
X154029335Y-74242069D01*
X154088965Y-74477543D01*
X154186537Y-74699986D01*
X154319390Y-74903334D01*
X154319393Y-74903337D01*
X154483906Y-75082046D01*
X154483909Y-75082048D01*
X154483912Y-75082051D01*
X154675582Y-75231234D01*
X154675593Y-75231241D01*
X154695187Y-75241845D01*
X154744778Y-75291064D01*
X154759886Y-75359281D01*
X154735716Y-75424837D01*
X154679940Y-75466918D01*
X154636170Y-75474900D01*
X150438305Y-75474900D01*
X150420335Y-75473591D01*
X150396572Y-75470110D01*
X150351133Y-75474086D01*
X150344531Y-75474664D01*
X150339130Y-75474900D01*
X150330889Y-75474900D01*
X150309179Y-75477437D01*
X150298324Y-75478706D01*
X150283019Y-75480045D01*
X150221799Y-75485401D01*
X150214732Y-75486860D01*
X150214720Y-75486804D01*
X150207363Y-75488435D01*
X150207377Y-75488492D01*
X150200343Y-75490159D01*
X150128175Y-75516425D01*
X150055275Y-75540581D01*
X150048726Y-75543636D01*
X150048701Y-75543583D01*
X150041908Y-75546871D01*
X150041934Y-75546923D01*
X150035480Y-75550164D01*
X149971308Y-75592371D01*
X149905947Y-75632685D01*
X149900283Y-75637165D01*
X149900247Y-75637119D01*
X149894398Y-75641884D01*
X149894435Y-75641928D01*
X149888910Y-75646564D01*
X149836197Y-75702435D01*
X146150450Y-79388181D01*
X146089127Y-79421666D01*
X146062769Y-79424500D01*
X145049998Y-79424500D01*
X145049980Y-79424501D01*
X144947203Y-79435000D01*
X144947200Y-79435001D01*
X144780668Y-79490185D01*
X144780663Y-79490187D01*
X144631342Y-79582289D01*
X144507289Y-79706342D01*
X144415187Y-79855663D01*
X144415185Y-79855668D01*
X144393932Y-79919806D01*
X144360001Y-80022203D01*
X144360001Y-80022204D01*
X144360000Y-80022204D01*
X144349500Y-80124983D01*
X144349500Y-81675001D01*
X144349501Y-81675018D01*
X144360000Y-81777796D01*
X144360001Y-81777799D01*
X144413378Y-81938879D01*
X144415186Y-81944334D01*
X144507288Y-82093656D01*
X144631344Y-82217712D01*
X144780666Y-82309814D01*
X144947203Y-82364999D01*
X145049991Y-82375500D01*
X146350008Y-82375499D01*
X146452797Y-82364999D01*
X146619334Y-82309814D01*
X146768656Y-82217712D01*
X146892712Y-82093656D01*
X146984814Y-81944334D01*
X146984814Y-81944331D01*
X146988178Y-81938879D01*
X147040126Y-81892154D01*
X147109088Y-81880931D01*
X147173170Y-81908774D01*
X147181398Y-81916294D01*
X147328599Y-82063495D01*
X147412998Y-82122592D01*
X147522165Y-82199032D01*
X147522167Y-82199033D01*
X147522170Y-82199035D01*
X147736337Y-82298903D01*
X147964592Y-82360063D01*
X148141034Y-82375500D01*
X148199999Y-82380659D01*
X148200000Y-82380659D01*
X148200001Y-82380659D01*
X148258966Y-82375500D01*
X148435408Y-82360063D01*
X148663663Y-82298903D01*
X148877829Y-82199035D01*
X149071401Y-82063495D01*
X149238495Y-81896401D01*
X149348426Y-81739401D01*
X149403001Y-81695778D01*
X149472500Y-81688584D01*
X149534855Y-81720106D01*
X149551571Y-81739398D01*
X149594010Y-81800008D01*
X149661506Y-81896403D01*
X149746864Y-81981760D01*
X149828599Y-82063495D01*
X149912998Y-82122592D01*
X150022165Y-82199032D01*
X150022167Y-82199033D01*
X150022170Y-82199035D01*
X150236337Y-82298903D01*
X150464592Y-82360063D01*
X150641034Y-82375500D01*
X150699999Y-82380659D01*
X150700000Y-82380659D01*
X150700001Y-82380659D01*
X150758966Y-82375500D01*
X150935408Y-82360063D01*
X151163663Y-82298903D01*
X151377829Y-82199035D01*
X151571401Y-82063495D01*
X151738495Y-81896401D01*
X151848426Y-81739401D01*
X151903001Y-81695778D01*
X151972500Y-81688584D01*
X152034855Y-81720106D01*
X152051571Y-81739398D01*
X152094010Y-81800008D01*
X152161506Y-81896403D01*
X152246864Y-81981760D01*
X152328599Y-82063495D01*
X152412998Y-82122592D01*
X152522165Y-82199032D01*
X152522167Y-82199033D01*
X152522170Y-82199035D01*
X152736337Y-82298903D01*
X152964592Y-82360063D01*
X153141034Y-82375500D01*
X153199999Y-82380659D01*
X153200000Y-82380659D01*
X153200001Y-82380659D01*
X153258966Y-82375500D01*
X153435408Y-82360063D01*
X153663663Y-82298903D01*
X153877829Y-82199035D01*
X154071401Y-82063495D01*
X154238495Y-81896401D01*
X154348426Y-81739401D01*
X154403001Y-81695778D01*
X154472500Y-81688584D01*
X154534855Y-81720106D01*
X154551571Y-81739398D01*
X154594010Y-81800008D01*
X154661506Y-81896403D01*
X154746864Y-81981760D01*
X154828599Y-82063495D01*
X154912998Y-82122592D01*
X155022165Y-82199032D01*
X155022167Y-82199033D01*
X155022170Y-82199035D01*
X155236337Y-82298903D01*
X155464592Y-82360063D01*
X155641034Y-82375500D01*
X155699999Y-82380659D01*
X155700000Y-82380659D01*
X155700001Y-82380659D01*
X155758966Y-82375500D01*
X155935408Y-82360063D01*
X156163663Y-82298903D01*
X156377829Y-82199035D01*
X156571401Y-82063495D01*
X156738495Y-81896401D01*
X156874035Y-81702829D01*
X156973903Y-81488663D01*
X157035063Y-81260408D01*
X157050500Y-81083966D01*
X157050500Y-80716034D01*
X157035063Y-80539592D01*
X156982740Y-80344318D01*
X156973905Y-80311344D01*
X156973904Y-80311343D01*
X156973903Y-80311337D01*
X156874035Y-80097171D01*
X156869368Y-80090505D01*
X156738494Y-79903597D01*
X156571402Y-79736506D01*
X156571395Y-79736501D01*
X156377834Y-79600967D01*
X156377830Y-79600965D01*
X156326941Y-79577235D01*
X156163663Y-79501097D01*
X156163659Y-79501096D01*
X156163655Y-79501094D01*
X155935413Y-79439938D01*
X155935403Y-79439936D01*
X155700001Y-79419341D01*
X155699999Y-79419341D01*
X155464596Y-79439936D01*
X155464586Y-79439938D01*
X155236344Y-79501094D01*
X155236335Y-79501098D01*
X155022171Y-79600964D01*
X155022169Y-79600965D01*
X154828597Y-79736505D01*
X154661505Y-79903597D01*
X154551575Y-80060595D01*
X154496998Y-80104220D01*
X154427500Y-80111414D01*
X154365145Y-80079891D01*
X154348425Y-80060595D01*
X154238494Y-79903597D01*
X154071402Y-79736506D01*
X154071395Y-79736501D01*
X153877834Y-79600967D01*
X153877830Y-79600965D01*
X153826941Y-79577235D01*
X153663663Y-79501097D01*
X153663659Y-79501096D01*
X153663655Y-79501094D01*
X153435413Y-79439938D01*
X153435403Y-79439936D01*
X153200001Y-79419341D01*
X153199999Y-79419341D01*
X152964596Y-79439936D01*
X152964586Y-79439938D01*
X152736344Y-79501094D01*
X152736335Y-79501098D01*
X152522171Y-79600964D01*
X152522169Y-79600965D01*
X152328597Y-79736505D01*
X152161505Y-79903597D01*
X152051575Y-80060595D01*
X151996998Y-80104220D01*
X151927500Y-80111414D01*
X151865145Y-80079891D01*
X151848425Y-80060595D01*
X151738494Y-79903597D01*
X151571402Y-79736506D01*
X151571395Y-79736501D01*
X151377834Y-79600967D01*
X151377830Y-79600965D01*
X151326941Y-79577235D01*
X151163663Y-79501097D01*
X151163659Y-79501096D01*
X151163655Y-79501094D01*
X150974105Y-79450305D01*
X150914444Y-79413940D01*
X150883915Y-79351093D01*
X150892210Y-79281718D01*
X150918514Y-79242852D01*
X152199748Y-77961619D01*
X152261071Y-77928134D01*
X152287429Y-77925300D01*
X155270395Y-77925300D01*
X155288365Y-77926609D01*
X155312123Y-77930089D01*
X155364168Y-77925535D01*
X155369570Y-77925300D01*
X155377804Y-77925300D01*
X155377809Y-77925300D01*
X155389427Y-77923941D01*
X155410376Y-77921493D01*
X155423128Y-77920377D01*
X155486897Y-77914799D01*
X155486905Y-77914796D01*
X155493966Y-77913339D01*
X155493978Y-77913398D01*
X155501343Y-77911765D01*
X155501329Y-77911706D01*
X155508346Y-77910041D01*
X155508355Y-77910041D01*
X155580523Y-77883774D01*
X155653434Y-77859614D01*
X155653443Y-77859607D01*
X155659982Y-77856560D01*
X155660008Y-77856616D01*
X155666790Y-77853332D01*
X155666763Y-77853278D01*
X155673206Y-77850040D01*
X155673217Y-77850037D01*
X155737383Y-77807834D01*
X155802756Y-77767512D01*
X155802762Y-77767505D01*
X155808425Y-77763029D01*
X155808462Y-77763077D01*
X155814304Y-77758318D01*
X155814264Y-77758271D01*
X155819791Y-77753632D01*
X155819796Y-77753630D01*
X155872486Y-77697781D01*
X159167019Y-74403248D01*
X159228342Y-74369763D01*
X159298034Y-74374747D01*
X159353967Y-74416619D01*
X159378384Y-74482083D01*
X159378700Y-74490929D01*
X159378700Y-77865494D01*
X159377391Y-77883463D01*
X159373910Y-77907225D01*
X159378464Y-77959264D01*
X159378700Y-77964670D01*
X159378700Y-77972909D01*
X159382506Y-78005474D01*
X159389200Y-78081991D01*
X159390661Y-78089067D01*
X159390603Y-78089078D01*
X159392234Y-78096437D01*
X159392292Y-78096424D01*
X159393957Y-78103450D01*
X159420225Y-78175624D01*
X159444385Y-78248531D01*
X159447436Y-78255074D01*
X159447382Y-78255098D01*
X159450670Y-78261888D01*
X159450721Y-78261863D01*
X159453961Y-78268313D01*
X159453962Y-78268314D01*
X159453963Y-78268317D01*
X159467799Y-78289354D01*
X159496165Y-78332483D01*
X159536487Y-78397855D01*
X159540966Y-78403519D01*
X159540919Y-78403556D01*
X159545682Y-78409402D01*
X159545728Y-78409364D01*
X159550373Y-78414900D01*
X159606218Y-78467586D01*
X160672356Y-79533724D01*
X161713181Y-80574548D01*
X161746666Y-80635871D01*
X161749500Y-80662229D01*
X161749500Y-81675001D01*
X161749501Y-81675019D01*
X161760000Y-81777796D01*
X161760001Y-81777799D01*
X161813378Y-81938879D01*
X161815186Y-81944334D01*
X161907288Y-82093656D01*
X162031344Y-82217712D01*
X162180666Y-82309814D01*
X162347203Y-82364999D01*
X162449991Y-82375500D01*
X163750008Y-82375499D01*
X163852797Y-82364999D01*
X164019334Y-82309814D01*
X164168656Y-82217712D01*
X164292712Y-82093656D01*
X164384814Y-81944334D01*
X164384814Y-81944331D01*
X164388178Y-81938879D01*
X164440126Y-81892154D01*
X164509088Y-81880931D01*
X164573170Y-81908774D01*
X164581398Y-81916294D01*
X164728599Y-82063495D01*
X164812998Y-82122592D01*
X164922165Y-82199032D01*
X164922167Y-82199033D01*
X164922170Y-82199035D01*
X165136337Y-82298903D01*
X165364592Y-82360063D01*
X165541034Y-82375500D01*
X165599999Y-82380659D01*
X165600000Y-82380659D01*
X165600001Y-82380659D01*
X165658966Y-82375500D01*
X165835408Y-82360063D01*
X166063663Y-82298903D01*
X166277829Y-82199035D01*
X166471401Y-82063495D01*
X166638495Y-81896401D01*
X166748426Y-81739401D01*
X166803001Y-81695778D01*
X166872500Y-81688584D01*
X166934855Y-81720106D01*
X166951571Y-81739398D01*
X166994010Y-81800008D01*
X167061506Y-81896403D01*
X167146864Y-81981760D01*
X167228599Y-82063495D01*
X167312998Y-82122592D01*
X167422165Y-82199032D01*
X167422167Y-82199033D01*
X167422170Y-82199035D01*
X167636337Y-82298903D01*
X167864592Y-82360063D01*
X168041034Y-82375500D01*
X168099999Y-82380659D01*
X168100000Y-82380659D01*
X168100001Y-82380659D01*
X168158966Y-82375500D01*
X168335408Y-82360063D01*
X168563663Y-82298903D01*
X168777829Y-82199035D01*
X168971401Y-82063495D01*
X169138495Y-81896401D01*
X169248426Y-81739401D01*
X169303001Y-81695778D01*
X169372500Y-81688584D01*
X169434855Y-81720106D01*
X169451571Y-81739398D01*
X169494010Y-81800008D01*
X169561506Y-81896403D01*
X169646864Y-81981760D01*
X169728599Y-82063495D01*
X169812998Y-82122592D01*
X169922165Y-82199032D01*
X169922167Y-82199033D01*
X169922170Y-82199035D01*
X170136337Y-82298903D01*
X170364592Y-82360063D01*
X170541034Y-82375500D01*
X170599999Y-82380659D01*
X170600000Y-82380659D01*
X170600001Y-82380659D01*
X170658966Y-82375500D01*
X170835408Y-82360063D01*
X170895038Y-82344085D01*
X170964887Y-82345748D01*
X171014812Y-82376179D01*
X171478067Y-82839434D01*
X171489848Y-82853066D01*
X171504190Y-82872330D01*
X171544220Y-82905919D01*
X171548192Y-82909559D01*
X171554024Y-82915391D01*
X171554027Y-82915394D01*
X171579747Y-82935731D01*
X171638588Y-82985104D01*
X171644618Y-82989070D01*
X171644585Y-82989119D01*
X171650947Y-82993172D01*
X171650979Y-82993121D01*
X171657119Y-82996908D01*
X171657123Y-82996911D01*
X171691932Y-83013143D01*
X171726741Y-83029375D01*
X171745136Y-83038613D01*
X171795367Y-83063840D01*
X171795369Y-83063840D01*
X171802157Y-83066311D01*
X171802136Y-83066367D01*
X171809255Y-83068842D01*
X171809274Y-83068786D01*
X171816129Y-83071058D01*
X171891362Y-83086591D01*
X171966079Y-83104300D01*
X171966089Y-83104300D01*
X171973252Y-83105138D01*
X171973244Y-83105197D01*
X171980745Y-83105964D01*
X171980751Y-83105905D01*
X171987940Y-83106534D01*
X171987944Y-83106533D01*
X171987945Y-83106534D01*
X172064718Y-83104300D01*
X173604795Y-83104300D01*
X173622765Y-83105609D01*
X173646523Y-83109089D01*
X173698568Y-83104535D01*
X173703970Y-83104300D01*
X173712204Y-83104300D01*
X173712209Y-83104300D01*
X173723827Y-83102941D01*
X173744776Y-83100493D01*
X173757528Y-83099377D01*
X173821297Y-83093799D01*
X173821305Y-83093796D01*
X173828366Y-83092339D01*
X173828378Y-83092398D01*
X173835743Y-83090765D01*
X173835729Y-83090706D01*
X173842746Y-83089041D01*
X173842755Y-83089041D01*
X173914923Y-83062774D01*
X173987834Y-83038614D01*
X173987843Y-83038607D01*
X173994382Y-83035560D01*
X173994408Y-83035616D01*
X174001190Y-83032332D01*
X174001163Y-83032278D01*
X174007606Y-83029040D01*
X174007617Y-83029037D01*
X174071783Y-82986834D01*
X174137156Y-82946512D01*
X174137162Y-82946505D01*
X174142825Y-82942029D01*
X174142862Y-82942077D01*
X174148704Y-82937318D01*
X174148664Y-82937271D01*
X174154186Y-82932636D01*
X174154196Y-82932630D01*
X174179404Y-82905911D01*
X174206887Y-82876781D01*
X174776899Y-82306767D01*
X174894941Y-82188724D01*
X174908560Y-82176954D01*
X174927830Y-82162610D01*
X174961423Y-82122574D01*
X174965057Y-82118608D01*
X174970890Y-82112777D01*
X174991227Y-82087055D01*
X174992117Y-82085995D01*
X174996462Y-82080815D01*
X175040602Y-82028214D01*
X175040604Y-82028209D01*
X175044572Y-82022179D01*
X175044623Y-82022212D01*
X175048669Y-82015860D01*
X175048617Y-82015828D01*
X175052409Y-82009679D01*
X175052411Y-82009677D01*
X175084869Y-81940069D01*
X175119340Y-81871433D01*
X175119343Y-81871417D01*
X175121810Y-81864644D01*
X175121868Y-81864665D01*
X175124343Y-81857546D01*
X175124285Y-81857527D01*
X175126556Y-81850672D01*
X175141603Y-81777799D01*
X175142084Y-81775467D01*
X175159800Y-81700721D01*
X175159800Y-81700720D01*
X175160639Y-81693548D01*
X175160697Y-81693554D01*
X175161464Y-81686056D01*
X175161404Y-81686051D01*
X175162033Y-81678860D01*
X175159800Y-81602103D01*
X175159800Y-79673705D01*
X175161109Y-79655735D01*
X175161429Y-79653547D01*
X175164589Y-79631977D01*
X175160035Y-79579931D01*
X175159800Y-79574528D01*
X175159800Y-79566297D01*
X175159800Y-79566291D01*
X175155993Y-79533724D01*
X175152285Y-79491338D01*
X175149299Y-79457201D01*
X175147839Y-79450129D01*
X175147897Y-79450116D01*
X175146265Y-79442757D01*
X175146206Y-79442772D01*
X175144541Y-79435751D01*
X175144541Y-79435745D01*
X175131446Y-79399767D01*
X175118274Y-79363575D01*
X175094113Y-79290663D01*
X175091064Y-79284124D01*
X175091117Y-79284099D01*
X175087831Y-79277311D01*
X175087779Y-79277338D01*
X175084536Y-79270882D01*
X175042334Y-79206716D01*
X175002014Y-79141347D01*
X174997534Y-79135681D01*
X174997580Y-79135643D01*
X174992819Y-79129799D01*
X174992774Y-79129838D01*
X174988134Y-79124308D01*
X174932282Y-79071613D01*
X167081119Y-71220450D01*
X167047634Y-71159127D01*
X167044800Y-71132769D01*
X167044800Y-64558005D01*
X167046109Y-64540035D01*
X167049589Y-64516274D01*
X167045036Y-64464239D01*
X167044800Y-64458832D01*
X167044800Y-64450597D01*
X167044800Y-64450591D01*
X167040991Y-64418007D01*
X167034298Y-64341502D01*
X167034296Y-64341497D01*
X167032838Y-64334433D01*
X167032897Y-64334420D01*
X167031267Y-64327064D01*
X167031208Y-64327079D01*
X167029542Y-64320053D01*
X167029541Y-64320045D01*
X167003273Y-64247873D01*
X166998431Y-64233261D01*
X166979115Y-64174966D01*
X166976063Y-64168421D01*
X166976117Y-64168395D01*
X166972833Y-64161612D01*
X166972780Y-64161640D01*
X166969538Y-64155185D01*
X166969537Y-64155183D01*
X166927329Y-64091009D01*
X166887011Y-64025644D01*
X166887010Y-64025643D01*
X166887009Y-64025641D01*
X166882533Y-64019981D01*
X166882580Y-64019943D01*
X166877819Y-64014099D01*
X166877774Y-64014138D01*
X166873134Y-64008608D01*
X166817264Y-63955896D01*
X164570736Y-61709368D01*
X164537251Y-61648045D01*
X164538212Y-61591245D01*
X164550662Y-61542081D01*
X164550662Y-61542080D01*
X164550664Y-61542073D01*
X164551033Y-61537618D01*
X164570723Y-61300005D01*
X164570723Y-61299994D01*
X164550664Y-61057930D01*
X164550664Y-61057927D01*
X164491035Y-60822457D01*
X164393462Y-60600013D01*
X164305559Y-60465467D01*
X164260609Y-60396665D01*
X164222730Y-60355518D01*
X164096094Y-60217954D01*
X164096089Y-60217950D01*
X164096087Y-60217948D01*
X163980333Y-60127853D01*
X163939520Y-60071143D01*
X163935845Y-60001370D01*
X163970477Y-59940687D01*
X163980333Y-59932147D01*
X164056216Y-59873083D01*
X164096094Y-59842046D01*
X164260607Y-59663337D01*
X164393462Y-59459987D01*
X164491035Y-59237543D01*
X164550664Y-59002073D01*
X164570723Y-58760000D01*
X164567704Y-58723570D01*
X164550664Y-58517930D01*
X164550664Y-58517927D01*
X164491035Y-58282457D01*
X164393462Y-58060013D01*
X164383217Y-58044332D01*
X164260609Y-57856665D01*
X164190492Y-57780498D01*
X164096094Y-57677954D01*
X164096089Y-57677950D01*
X164096087Y-57677948D01*
X163980333Y-57587853D01*
X163939520Y-57531143D01*
X163935845Y-57461370D01*
X163970477Y-57400687D01*
X163980333Y-57392147D01*
X164090749Y-57306206D01*
X164096094Y-57302046D01*
X164260607Y-57123337D01*
X164393462Y-56919987D01*
X164491035Y-56697543D01*
X164550664Y-56462073D01*
X164564920Y-56290033D01*
X164570723Y-56220005D01*
X164570723Y-56219994D01*
X164550664Y-55977930D01*
X164550664Y-55977927D01*
X164491035Y-55742457D01*
X164393462Y-55520013D01*
X164260609Y-55316665D01*
X164241901Y-55296343D01*
X164096094Y-55137954D01*
X164096089Y-55137950D01*
X164096087Y-55137948D01*
X163980333Y-55047853D01*
X163939520Y-54991143D01*
X163935845Y-54921370D01*
X163970477Y-54860687D01*
X163980333Y-54852147D01*
X164056216Y-54793083D01*
X164096094Y-54762046D01*
X164260607Y-54583337D01*
X164393462Y-54379987D01*
X164491035Y-54157543D01*
X164550664Y-53922073D01*
X164564090Y-53760045D01*
X164570723Y-53680005D01*
X164570723Y-53679994D01*
X164550664Y-53437930D01*
X164550664Y-53437927D01*
X164491035Y-53202457D01*
X164393462Y-52980013D01*
X164377156Y-52955055D01*
X164260609Y-52776665D01*
X164206559Y-52717951D01*
X164096094Y-52597954D01*
X164096089Y-52597950D01*
X164096087Y-52597948D01*
X163904417Y-52448765D01*
X163904411Y-52448761D01*
X163690784Y-52333151D01*
X163690779Y-52333149D01*
X163461043Y-52254281D01*
X163301314Y-52227627D01*
X163221451Y-52214300D01*
X162978549Y-52214300D01*
X162918651Y-52224295D01*
X162738956Y-52254281D01*
X162509220Y-52333149D01*
X162509215Y-52333151D01*
X162295588Y-52448761D01*
X162295582Y-52448765D01*
X162103912Y-52597948D01*
X162103909Y-52597951D01*
X161939390Y-52776665D01*
X161806537Y-52980013D01*
X161708965Y-53202456D01*
X161649335Y-53437930D01*
X161629277Y-53679994D01*
X161629277Y-53680005D01*
X161649335Y-53922071D01*
X161661788Y-53971248D01*
X161659162Y-54041068D01*
X161629263Y-54089368D01*
X159643558Y-56075072D01*
X159629929Y-56086851D01*
X159610668Y-56101190D01*
X159577098Y-56141197D01*
X159573453Y-56145176D01*
X159567609Y-56151022D01*
X159547259Y-56176759D01*
X159497895Y-56235589D01*
X159493929Y-56241619D01*
X159493882Y-56241588D01*
X159489830Y-56247947D01*
X159489879Y-56247977D01*
X159486089Y-56254121D01*
X159453624Y-56323741D01*
X159419160Y-56392366D01*
X159416688Y-56399157D01*
X159416632Y-56399136D01*
X159414160Y-56406250D01*
X159414215Y-56406269D01*
X159411942Y-56413127D01*
X159404175Y-56450746D01*
X159396407Y-56488365D01*
X159383201Y-56544084D01*
X159378698Y-56563086D01*
X159377861Y-56570254D01*
X159377801Y-56570247D01*
X159377035Y-56577745D01*
X159377095Y-56577751D01*
X159376465Y-56584940D01*
X159378700Y-56661716D01*
X159378700Y-66675300D01*
X159359015Y-66742339D01*
X159306211Y-66788094D01*
X159254700Y-66799300D01*
X159145554Y-66799300D01*
X159113097Y-66806198D01*
X158960397Y-66838655D01*
X158960392Y-66838657D01*
X158787470Y-66915648D01*
X158787465Y-66915651D01*
X158634329Y-67026911D01*
X158507666Y-67167585D01*
X158413021Y-67331515D01*
X158413019Y-67331519D01*
X158357678Y-67501841D01*
X158327428Y-67551203D01*
X157659281Y-68219351D01*
X157597958Y-68252836D01*
X157528267Y-68247852D01*
X157472333Y-68205981D01*
X157447916Y-68140516D01*
X157447600Y-68131670D01*
X157447600Y-53163502D01*
X157449368Y-53147489D01*
X157449126Y-53147467D01*
X157449858Y-53139711D01*
X157449860Y-53139704D01*
X157447600Y-53067796D01*
X157447600Y-53037075D01*
X157446679Y-53029788D01*
X157446222Y-53023979D01*
X157444697Y-52975431D01*
X157438776Y-52955053D01*
X157434831Y-52936004D01*
X157432171Y-52914942D01*
X157414285Y-52869769D01*
X157412396Y-52864249D01*
X157398843Y-52817600D01*
X157388040Y-52799334D01*
X157379478Y-52781856D01*
X157371668Y-52762129D01*
X157371665Y-52762125D01*
X157370120Y-52759998D01*
X157343114Y-52722827D01*
X157339911Y-52717951D01*
X157315181Y-52676135D01*
X157315179Y-52676133D01*
X157315178Y-52676131D01*
X157300175Y-52661129D01*
X157287535Y-52646330D01*
X157275061Y-52629160D01*
X157237628Y-52598194D01*
X157233306Y-52594260D01*
X156563534Y-51924488D01*
X156553461Y-51911914D01*
X156553274Y-51912070D01*
X156548301Y-51906059D01*
X156495856Y-51856810D01*
X156474135Y-51835089D01*
X156468340Y-51830594D01*
X156463898Y-51826799D01*
X156428496Y-51793554D01*
X156428488Y-51793548D01*
X156409892Y-51783325D01*
X156393631Y-51772644D01*
X156376863Y-51759637D01*
X156353280Y-51749432D01*
X156332278Y-51740343D01*
X156327056Y-51737786D01*
X156284468Y-51714373D01*
X156284465Y-51714372D01*
X156263901Y-51709092D01*
X156245496Y-51702790D01*
X156226027Y-51694365D01*
X156226021Y-51694363D01*
X156178051Y-51686766D01*
X156172336Y-51685582D01*
X156155872Y-51681355D01*
X156125280Y-51673500D01*
X156125277Y-51673500D01*
X156104055Y-51673500D01*
X156084655Y-51671973D01*
X156063696Y-51668653D01*
X156063695Y-51668653D01*
X156039886Y-51670903D01*
X156015330Y-51673225D01*
X156009492Y-51673500D01*
X146071106Y-51673500D01*
X146055095Y-51671732D01*
X146055073Y-51671974D01*
X146047306Y-51671239D01*
X145975383Y-51673500D01*
X145944675Y-51673500D01*
X145944671Y-51673500D01*
X145944660Y-51673501D01*
X145937404Y-51674417D01*
X145931586Y-51674875D01*
X145883032Y-51676401D01*
X145883031Y-51676401D01*
X145862641Y-51682325D01*
X145843596Y-51686269D01*
X145822542Y-51688929D01*
X145777374Y-51706811D01*
X145771848Y-51708703D01*
X145725202Y-51722255D01*
X145725195Y-51722258D01*
X145706929Y-51733061D01*
X145689461Y-51741619D01*
X145669728Y-51749432D01*
X145630430Y-51777983D01*
X145625553Y-51781186D01*
X145611881Y-51789272D01*
X145583732Y-51805920D01*
X145568726Y-51820926D01*
X145553936Y-51833558D01*
X145536767Y-51846032D01*
X145536765Y-51846034D01*
X145505794Y-51883470D01*
X145501862Y-51887791D01*
X141674754Y-55714899D01*
X141613431Y-55748384D01*
X141543739Y-55743400D01*
X141487806Y-55701528D01*
X141463389Y-55636064D01*
X141467297Y-55595128D01*
X141485635Y-55526692D01*
X141505468Y-55300000D01*
X141485635Y-55073308D01*
X141426739Y-54853504D01*
X141330568Y-54647266D01*
X141200047Y-54460861D01*
X141200045Y-54460858D01*
X141039141Y-54299954D01*
X140852734Y-54169432D01*
X140852728Y-54169429D01*
X140794725Y-54142382D01*
X140742285Y-54096210D01*
X140723133Y-54029017D01*
X140743348Y-53962135D01*
X140794725Y-53917618D01*
X140852734Y-53890568D01*
X141039139Y-53760047D01*
X141200047Y-53599139D01*
X141330568Y-53412734D01*
X141426739Y-53206496D01*
X141485635Y-52986692D01*
X141505468Y-52760000D01*
X141485635Y-52533308D01*
X141426739Y-52313504D01*
X141330568Y-52107266D01*
X141200047Y-51920861D01*
X141200045Y-51920858D01*
X141039141Y-51759954D01*
X140852734Y-51629432D01*
X140852732Y-51629431D01*
X140794725Y-51602382D01*
X140742286Y-51556209D01*
X140723134Y-51489016D01*
X140743350Y-51422135D01*
X140794725Y-51377618D01*
X140852734Y-51350568D01*
X141039139Y-51220047D01*
X141200047Y-51059139D01*
X141330568Y-50872734D01*
X141426739Y-50666496D01*
X141485635Y-50446692D01*
X141505468Y-50220000D01*
X141485635Y-49993308D01*
X141438515Y-49817452D01*
X141426741Y-49773511D01*
X141426738Y-49773502D01*
X141407014Y-49731204D01*
X141330568Y-49567266D01*
X141200047Y-49380861D01*
X141200045Y-49380858D01*
X141039141Y-49219954D01*
X140852733Y-49089431D01*
X140823839Y-49075958D01*
X140771400Y-49029785D01*
X140752249Y-48962591D01*
X140752454Y-48956387D01*
X140754331Y-48924165D01*
X140743202Y-48861054D01*
X140742679Y-48857484D01*
X140740225Y-48836495D01*
X140735241Y-48793845D01*
X140731408Y-48783315D01*
X140725811Y-48762430D01*
X140723865Y-48751389D01*
X140698484Y-48692548D01*
X140697152Y-48689195D01*
X140695160Y-48683724D01*
X140675237Y-48628983D01*
X140669072Y-48619610D01*
X140658818Y-48600591D01*
X140654379Y-48590300D01*
X140654373Y-48590290D01*
X140616115Y-48538902D01*
X140614046Y-48535947D01*
X140580537Y-48485000D01*
X140578830Y-48482404D01*
X140570672Y-48474707D01*
X140556304Y-48458562D01*
X140549672Y-48449654D01*
X140549610Y-48449570D01*
X140500520Y-48408378D01*
X140497830Y-48405984D01*
X140480114Y-48389270D01*
X140451218Y-48362008D01*
X140441503Y-48356399D01*
X140423804Y-48344006D01*
X140415214Y-48336798D01*
X140415212Y-48336797D01*
X140415211Y-48336796D01*
X140357940Y-48308034D01*
X140354780Y-48306330D01*
X140318755Y-48285531D01*
X140299282Y-48274288D01*
X140294676Y-48272909D01*
X140288534Y-48271070D01*
X140268460Y-48263095D01*
X140258433Y-48258060D01*
X140258432Y-48258059D01*
X140258431Y-48258059D01*
X140196087Y-48243282D01*
X140192605Y-48242349D01*
X140131211Y-48223970D01*
X140120010Y-48223317D01*
X140098638Y-48220186D01*
X140087724Y-48217600D01*
X140087721Y-48217600D01*
X140023641Y-48217600D01*
X140020040Y-48217495D01*
X139956065Y-48213769D01*
X139956064Y-48213769D01*
X139945023Y-48215716D01*
X139923491Y-48217600D01*
X136730405Y-48217600D01*
X136712435Y-48216291D01*
X136688672Y-48212810D01*
X136643233Y-48216786D01*
X136636631Y-48217364D01*
X136631230Y-48217600D01*
X136622989Y-48217600D01*
X136601279Y-48220137D01*
X136590424Y-48221406D01*
X136575783Y-48222687D01*
X136513899Y-48228101D01*
X136506832Y-48229560D01*
X136506820Y-48229504D01*
X136499463Y-48231135D01*
X136499477Y-48231192D01*
X136492443Y-48232859D01*
X136420275Y-48259125D01*
X136347375Y-48283281D01*
X136340826Y-48286336D01*
X136340801Y-48286283D01*
X136334008Y-48289571D01*
X136334034Y-48289623D01*
X136327580Y-48292864D01*
X136263408Y-48335071D01*
X136198047Y-48375385D01*
X136192383Y-48379865D01*
X136192347Y-48379819D01*
X136186498Y-48384584D01*
X136186535Y-48384628D01*
X136181010Y-48389264D01*
X136181004Y-48389269D01*
X136181004Y-48389270D01*
X136161878Y-48409542D01*
X136128297Y-48445135D01*
X123395347Y-61178084D01*
X123334024Y-61211569D01*
X123264332Y-61206585D01*
X123208399Y-61164713D01*
X123193860Y-61139639D01*
X123193847Y-61139609D01*
X123193845Y-61139602D01*
X123193057Y-61138269D01*
X123183036Y-61121324D01*
X123174478Y-61103855D01*
X123166668Y-61084129D01*
X123138106Y-61044818D01*
X123134918Y-61039964D01*
X123110181Y-60998135D01*
X123095175Y-60983129D01*
X123082535Y-60968330D01*
X123070061Y-60951160D01*
X123032628Y-60920194D01*
X123028306Y-60916260D01*
X120917023Y-58804977D01*
X120883538Y-58743654D01*
X120888522Y-58673962D01*
X120903126Y-58646177D01*
X121010568Y-58492734D01*
X121106739Y-58286496D01*
X121165635Y-58066692D01*
X121185468Y-57840000D01*
X121183998Y-57823203D01*
X121173406Y-57702128D01*
X121165635Y-57613308D01*
X121106739Y-57393504D01*
X121010568Y-57187266D01*
X120880047Y-57000861D01*
X120880045Y-57000858D01*
X120719141Y-56839954D01*
X120532735Y-56709433D01*
X120532736Y-56709433D01*
X120532734Y-56709432D01*
X120474722Y-56682380D01*
X120422284Y-56636208D01*
X120403133Y-56569014D01*
X120423349Y-56502133D01*
X120474722Y-56457619D01*
X120532734Y-56430568D01*
X120719139Y-56300047D01*
X120880047Y-56139139D01*
X121010568Y-55952734D01*
X121106739Y-55746496D01*
X121165635Y-55526692D01*
X121185468Y-55300000D01*
X121165635Y-55073308D01*
X121106739Y-54853504D01*
X121010568Y-54647266D01*
X120880047Y-54460861D01*
X120880045Y-54460858D01*
X120719141Y-54299954D01*
X120532734Y-54169432D01*
X120532728Y-54169429D01*
X120474725Y-54142382D01*
X120422285Y-54096210D01*
X120403133Y-54029017D01*
X120423348Y-53962135D01*
X120474725Y-53917618D01*
X120532734Y-53890568D01*
X120719139Y-53760047D01*
X120880047Y-53599139D01*
X121010568Y-53412734D01*
X121106739Y-53206496D01*
X121165635Y-52986692D01*
X121185468Y-52760000D01*
X121165635Y-52533308D01*
X121106739Y-52313504D01*
X121010568Y-52107266D01*
X120880047Y-51920861D01*
X120880045Y-51920858D01*
X120719141Y-51759954D01*
X120532734Y-51629432D01*
X120532728Y-51629429D01*
X120474725Y-51602382D01*
X120422285Y-51556210D01*
X120403133Y-51489017D01*
X120423348Y-51422135D01*
X120474725Y-51377618D01*
X120532734Y-51350568D01*
X120719139Y-51220047D01*
X120880047Y-51059139D01*
X121010568Y-50872734D01*
X121106739Y-50666496D01*
X121165635Y-50446692D01*
X121185468Y-50220000D01*
X121165635Y-49993308D01*
X121118515Y-49817452D01*
X121106741Y-49773511D01*
X121106738Y-49773502D01*
X121087014Y-49731204D01*
X121010568Y-49567266D01*
X120880047Y-49380861D01*
X120880045Y-49380858D01*
X120719141Y-49219954D01*
X120532734Y-49089432D01*
X120532732Y-49089431D01*
X120326497Y-48993261D01*
X120326488Y-48993258D01*
X120106697Y-48934366D01*
X120106687Y-48934364D01*
X119936784Y-48919500D01*
X119423216Y-48919500D01*
X119253312Y-48934364D01*
X119253302Y-48934366D01*
X119033511Y-48993258D01*
X119033502Y-48993261D01*
X118827267Y-49089431D01*
X118827265Y-49089432D01*
X118640858Y-49219954D01*
X118497681Y-49363132D01*
X118436358Y-49396617D01*
X118366666Y-49391633D01*
X118322319Y-49363132D01*
X118179141Y-49219954D01*
X117992734Y-49089432D01*
X117992732Y-49089431D01*
X117786497Y-48993261D01*
X117786488Y-48993258D01*
X117566697Y-48934366D01*
X117566687Y-48934364D01*
X117396784Y-48919500D01*
X116883216Y-48919500D01*
X116713312Y-48934364D01*
X116713302Y-48934366D01*
X116493511Y-48993258D01*
X116493502Y-48993261D01*
X116287267Y-49089431D01*
X116287265Y-49089432D01*
X116100858Y-49219954D01*
X115939954Y-49380858D01*
X115809432Y-49567265D01*
X115809431Y-49567267D01*
X115713261Y-49773502D01*
X115713258Y-49773511D01*
X115654366Y-49993302D01*
X115654364Y-49993313D01*
X115634532Y-50219998D01*
X115634532Y-50220001D01*
X115654364Y-50446686D01*
X115654366Y-50446697D01*
X115713258Y-50666488D01*
X115713261Y-50666497D01*
X115809431Y-50872732D01*
X115809432Y-50872734D01*
X115939954Y-51059141D01*
X116100858Y-51220045D01*
X116100861Y-51220047D01*
X116287266Y-51350568D01*
X116345275Y-51377618D01*
X116397714Y-51423791D01*
X116416866Y-51490984D01*
X116396650Y-51557865D01*
X116345275Y-51602382D01*
X116287267Y-51629431D01*
X116287265Y-51629432D01*
X116100858Y-51759954D01*
X115939954Y-51920858D01*
X115809432Y-52107265D01*
X115809431Y-52107267D01*
X115713261Y-52313502D01*
X115713258Y-52313511D01*
X115654366Y-52533302D01*
X115654364Y-52533313D01*
X115634532Y-52759998D01*
X115634532Y-52760001D01*
X115654364Y-52986686D01*
X115654366Y-52986697D01*
X115713258Y-53206488D01*
X115713261Y-53206497D01*
X115809431Y-53412732D01*
X115809432Y-53412734D01*
X115939954Y-53599141D01*
X116100858Y-53760045D01*
X116100861Y-53760047D01*
X116287266Y-53890568D01*
X116345275Y-53917618D01*
X116397714Y-53963791D01*
X116416866Y-54030984D01*
X116396650Y-54097865D01*
X116345275Y-54142382D01*
X116287267Y-54169431D01*
X116287265Y-54169432D01*
X116100858Y-54299954D01*
X115939954Y-54460858D01*
X115809432Y-54647265D01*
X115809431Y-54647267D01*
X115713261Y-54853502D01*
X115713258Y-54853511D01*
X115654366Y-55073302D01*
X115654364Y-55073313D01*
X115634532Y-55299998D01*
X115634532Y-55300001D01*
X115654364Y-55526686D01*
X115654366Y-55526697D01*
X115713258Y-55746488D01*
X115713261Y-55746497D01*
X115809431Y-55952732D01*
X115809432Y-55952734D01*
X115934414Y-56131229D01*
X115956741Y-56197436D01*
X115939730Y-56265203D01*
X115920520Y-56290033D01*
X115375884Y-56834668D01*
X115363310Y-56844743D01*
X115363465Y-56844930D01*
X115357459Y-56849898D01*
X115332834Y-56876121D01*
X115308209Y-56902344D01*
X115297349Y-56913204D01*
X115286488Y-56924065D01*
X115286478Y-56924077D01*
X115281987Y-56929865D01*
X115278201Y-56934297D01*
X115244952Y-56969706D01*
X115234722Y-56988313D01*
X115224046Y-57004564D01*
X115211040Y-57021332D01*
X115211036Y-57021338D01*
X115191748Y-57065911D01*
X115189177Y-57071158D01*
X115165772Y-57113730D01*
X115165772Y-57113731D01*
X115160491Y-57134299D01*
X115154191Y-57152701D01*
X115145764Y-57172173D01*
X115138166Y-57220147D01*
X115136981Y-57225870D01*
X115124900Y-57272918D01*
X115124900Y-57294144D01*
X115123373Y-57313543D01*
X115120053Y-57334505D01*
X115124008Y-57376337D01*
X115124625Y-57382867D01*
X115124900Y-57388706D01*
X115124900Y-63362194D01*
X115123132Y-63378205D01*
X115123374Y-63378228D01*
X115122640Y-63385994D01*
X115124900Y-63457903D01*
X115124900Y-63488620D01*
X115124901Y-63488640D01*
X115125818Y-63495906D01*
X115126276Y-63501724D01*
X115127802Y-63550267D01*
X115127803Y-63550270D01*
X115133723Y-63570648D01*
X115137668Y-63589696D01*
X115140328Y-63610754D01*
X115140331Y-63610764D01*
X115158213Y-63655930D01*
X115160105Y-63661458D01*
X115173654Y-63708095D01*
X115173655Y-63708097D01*
X115173656Y-63708098D01*
X115182293Y-63722703D01*
X115184460Y-63726366D01*
X115193017Y-63743834D01*
X115195654Y-63750492D01*
X115200832Y-63763571D01*
X115229384Y-63802870D01*
X115232585Y-63807744D01*
X115239943Y-63820184D01*
X115257316Y-63849562D01*
X115272322Y-63864568D01*
X115284961Y-63879365D01*
X115297437Y-63896537D01*
X115297439Y-63896539D01*
X115334864Y-63927499D01*
X115339176Y-63931422D01*
X115663965Y-64256210D01*
X115902894Y-64495139D01*
X115936379Y-64556462D01*
X115931395Y-64626153D01*
X115916789Y-64653942D01*
X115809429Y-64807270D01*
X115806412Y-64813740D01*
X115760235Y-64866175D01*
X115693040Y-64885322D01*
X115626160Y-64865101D01*
X115606353Y-64849007D01*
X114486119Y-63728773D01*
X114452634Y-63667450D01*
X114449800Y-63641092D01*
X114449800Y-48658101D01*
X114451568Y-48642088D01*
X114451326Y-48642066D01*
X114452058Y-48634310D01*
X114452060Y-48634303D01*
X114449800Y-48562395D01*
X114449800Y-48531675D01*
X114448879Y-48524388D01*
X114448422Y-48518579D01*
X114446897Y-48470030D01*
X114440976Y-48449652D01*
X114437031Y-48430603D01*
X114434371Y-48409542D01*
X114416486Y-48364372D01*
X114414597Y-48358852D01*
X114401043Y-48312199D01*
X114390241Y-48293935D01*
X114381679Y-48276458D01*
X114380651Y-48273862D01*
X114373868Y-48256729D01*
X114345314Y-48217428D01*
X114342110Y-48212550D01*
X114317382Y-48170737D01*
X114317381Y-48170735D01*
X114302375Y-48155729D01*
X114289735Y-48140930D01*
X114277261Y-48123760D01*
X114239828Y-48092794D01*
X114235506Y-48088860D01*
X113080996Y-46934350D01*
X113047511Y-46873027D01*
X113052495Y-46803335D01*
X113067099Y-46775549D01*
X113174035Y-46622830D01*
X113273903Y-46408663D01*
X113335063Y-46180408D01*
X113355659Y-45945000D01*
X113347159Y-45847844D01*
X146800000Y-45847844D01*
X146806401Y-45907372D01*
X146806403Y-45907379D01*
X146856645Y-46042086D01*
X146856649Y-46042093D01*
X146942809Y-46157187D01*
X146942812Y-46157190D01*
X147057906Y-46243350D01*
X147057913Y-46243354D01*
X147192620Y-46293596D01*
X147192627Y-46293598D01*
X147252155Y-46299999D01*
X147252172Y-46300000D01*
X147850000Y-46300000D01*
X147850000Y-45315686D01*
X147861955Y-45327641D01*
X147974852Y-45385165D01*
X148068519Y-45400000D01*
X148131481Y-45400000D01*
X148225148Y-45385165D01*
X148338045Y-45327641D01*
X148350000Y-45315686D01*
X148350000Y-46300000D01*
X148947828Y-46300000D01*
X148947844Y-46299999D01*
X149007372Y-46293598D01*
X149007379Y-46293596D01*
X149142086Y-46243354D01*
X149142093Y-46243350D01*
X149257187Y-46157190D01*
X149257190Y-46157187D01*
X149343350Y-46042093D01*
X149343354Y-46042086D01*
X149393595Y-45907381D01*
X149394946Y-45901667D01*
X149429516Y-45840948D01*
X149491424Y-45808558D01*
X149561017Y-45814781D01*
X149603306Y-45842493D01*
X149760858Y-46000045D01*
X149760861Y-46000047D01*
X149947266Y-46130568D01*
X150153504Y-46226739D01*
X150373308Y-46285635D01*
X150535230Y-46299801D01*
X150599998Y-46305468D01*
X150600000Y-46305468D01*
X150600002Y-46305468D01*
X150662511Y-46299999D01*
X150826692Y-46285635D01*
X151046496Y-46226739D01*
X151252734Y-46130568D01*
X151439139Y-46000047D01*
X151600047Y-45839139D01*
X151730568Y-45652734D01*
X151826739Y-45446496D01*
X151885635Y-45226692D01*
X151905468Y-45000000D01*
X151885635Y-44773308D01*
X151826739Y-44553504D01*
X151730568Y-44347266D01*
X151600047Y-44160861D01*
X151600045Y-44160858D01*
X151439141Y-43999954D01*
X151367798Y-43950000D01*
X157850000Y-43950000D01*
X158766314Y-43950000D01*
X158740507Y-43990156D01*
X158700000Y-44128111D01*
X158700000Y-44271889D01*
X158740507Y-44409844D01*
X158766314Y-44450000D01*
X157850001Y-44450000D01*
X157850001Y-44999986D01*
X157860494Y-45102697D01*
X157915641Y-45269119D01*
X157915643Y-45269124D01*
X158007684Y-45418345D01*
X158131654Y-45542315D01*
X158280875Y-45634356D01*
X158280880Y-45634358D01*
X158447302Y-45689505D01*
X158447309Y-45689506D01*
X158550019Y-45699999D01*
X158949999Y-45699999D01*
X158950000Y-45699998D01*
X158950000Y-44635501D01*
X159057685Y-44684680D01*
X159164237Y-44700000D01*
X159235763Y-44700000D01*
X159342315Y-44684680D01*
X159450000Y-44635501D01*
X159450000Y-45699999D01*
X159849972Y-45699999D01*
X159849986Y-45699998D01*
X159952697Y-45689505D01*
X160119119Y-45634358D01*
X160119124Y-45634356D01*
X160268345Y-45542315D01*
X160392315Y-45418345D01*
X160487815Y-45263516D01*
X160539763Y-45216792D01*
X160608726Y-45205569D01*
X160672808Y-45233413D01*
X160681035Y-45240931D01*
X160828599Y-45388495D01*
X160828602Y-45388497D01*
X160828603Y-45388498D01*
X161022165Y-45524032D01*
X161022167Y-45524033D01*
X161022170Y-45524035D01*
X161236337Y-45623903D01*
X161236343Y-45623904D01*
X161236344Y-45623905D01*
X161275356Y-45634358D01*
X161464592Y-45685063D01*
X161652918Y-45701539D01*
X161699999Y-45705659D01*
X161700000Y-45705659D01*
X161700001Y-45705659D01*
X161739234Y-45702226D01*
X161935408Y-45685063D01*
X162163663Y-45623903D01*
X162377829Y-45524035D01*
X162571401Y-45388495D01*
X162738495Y-45221401D01*
X162874035Y-45027829D01*
X162973903Y-44813663D01*
X163035063Y-44585408D01*
X163050500Y-44408966D01*
X163050500Y-43991034D01*
X163035063Y-43814592D01*
X162973903Y-43586337D01*
X162874035Y-43372171D01*
X162821617Y-43297309D01*
X162738494Y-43178597D01*
X162571402Y-43011506D01*
X162571395Y-43011501D01*
X162377834Y-42875967D01*
X162377830Y-42875965D01*
X162338626Y-42857684D01*
X162163663Y-42776097D01*
X162163659Y-42776096D01*
X162163655Y-42776094D01*
X161935413Y-42714938D01*
X161935403Y-42714936D01*
X161700001Y-42694341D01*
X161699999Y-42694341D01*
X161464596Y-42714936D01*
X161464586Y-42714938D01*
X161236344Y-42776094D01*
X161236335Y-42776098D01*
X161022171Y-42875964D01*
X161022169Y-42875965D01*
X160828597Y-43011505D01*
X160681035Y-43159068D01*
X160619712Y-43192553D01*
X160550020Y-43187569D01*
X160494087Y-43145697D01*
X160487815Y-43136484D01*
X160392315Y-42981654D01*
X160268345Y-42857684D01*
X160119124Y-42765643D01*
X160119119Y-42765641D01*
X159952697Y-42710494D01*
X159952690Y-42710493D01*
X159849986Y-42700000D01*
X159450000Y-42700000D01*
X159450000Y-43764498D01*
X159342315Y-43715320D01*
X159235763Y-43700000D01*
X159164237Y-43700000D01*
X159057685Y-43715320D01*
X158950000Y-43764498D01*
X158950000Y-42700000D01*
X158550028Y-42700000D01*
X158550012Y-42700001D01*
X158447302Y-42710494D01*
X158280880Y-42765641D01*
X158280875Y-42765643D01*
X158131654Y-42857684D01*
X158007684Y-42981654D01*
X157915643Y-43130875D01*
X157915641Y-43130880D01*
X157860494Y-43297302D01*
X157860493Y-43297309D01*
X157850000Y-43400013D01*
X157850000Y-43950000D01*
X151367798Y-43950000D01*
X151252734Y-43869432D01*
X151252732Y-43869431D01*
X151046497Y-43773261D01*
X151046488Y-43773258D01*
X150826697Y-43714366D01*
X150826693Y-43714365D01*
X150826692Y-43714365D01*
X150826691Y-43714364D01*
X150826686Y-43714364D01*
X150600002Y-43694532D01*
X150599998Y-43694532D01*
X150373313Y-43714364D01*
X150373302Y-43714366D01*
X150153511Y-43773258D01*
X150153502Y-43773261D01*
X149947267Y-43869431D01*
X149947265Y-43869432D01*
X149760862Y-43999951D01*
X149603306Y-44157507D01*
X149541983Y-44190991D01*
X149472291Y-44186007D01*
X149416358Y-44144135D01*
X149394947Y-44098334D01*
X149393597Y-44092622D01*
X149343354Y-43957913D01*
X149343350Y-43957906D01*
X149257190Y-43842812D01*
X149257187Y-43842809D01*
X149142093Y-43756649D01*
X149142086Y-43756645D01*
X149007379Y-43706403D01*
X149007372Y-43706401D01*
X148947844Y-43700000D01*
X148350000Y-43700000D01*
X148350000Y-44684314D01*
X148338045Y-44672359D01*
X148225148Y-44614835D01*
X148131481Y-44600000D01*
X148068519Y-44600000D01*
X147974852Y-44614835D01*
X147861955Y-44672359D01*
X147850000Y-44684314D01*
X147850000Y-43700000D01*
X147252155Y-43700000D01*
X147192627Y-43706401D01*
X147192620Y-43706403D01*
X147057913Y-43756645D01*
X147057906Y-43756649D01*
X146942812Y-43842809D01*
X146942809Y-43842812D01*
X146856649Y-43957906D01*
X146856645Y-43957913D01*
X146806403Y-44092620D01*
X146806401Y-44092627D01*
X146800000Y-44152155D01*
X146800000Y-44750000D01*
X147784314Y-44750000D01*
X147772359Y-44761955D01*
X147714835Y-44874852D01*
X147695014Y-45000000D01*
X147714835Y-45125148D01*
X147772359Y-45238045D01*
X147784314Y-45250000D01*
X146800000Y-45250000D01*
X146800000Y-45847844D01*
X113347159Y-45847844D01*
X113335063Y-45709592D01*
X113285344Y-45524035D01*
X113273905Y-45481344D01*
X113273904Y-45481343D01*
X113273903Y-45481337D01*
X113174035Y-45267171D01*
X113154409Y-45239141D01*
X113038494Y-45073597D01*
X112871402Y-44906506D01*
X112871395Y-44906501D01*
X112677834Y-44770967D01*
X112677830Y-44770965D01*
X112653638Y-44759684D01*
X112463663Y-44671097D01*
X112463659Y-44671096D01*
X112463655Y-44671094D01*
X112235413Y-44609938D01*
X112235403Y-44609936D01*
X112000001Y-44589341D01*
X111999999Y-44589341D01*
X111764596Y-44609936D01*
X111764586Y-44609938D01*
X111536344Y-44671094D01*
X111536335Y-44671098D01*
X111322171Y-44770964D01*
X111322169Y-44770965D01*
X111128597Y-44906505D01*
X110961505Y-45073597D01*
X110825965Y-45267169D01*
X110825964Y-45267171D01*
X110726098Y-45481335D01*
X110726094Y-45481344D01*
X110664938Y-45709586D01*
X110664936Y-45709596D01*
X110644341Y-45944999D01*
X110644341Y-45945000D01*
X110664936Y-46180403D01*
X110664938Y-46180413D01*
X110726094Y-46408655D01*
X110726096Y-46408659D01*
X110726097Y-46408663D01*
X110801321Y-46569980D01*
X110825965Y-46622830D01*
X110825967Y-46622834D01*
X110881098Y-46701568D01*
X110961505Y-46816401D01*
X111128599Y-46983495D01*
X111297607Y-47101836D01*
X111341231Y-47156410D01*
X111349506Y-47187877D01*
X111351823Y-47206227D01*
X111352189Y-47210100D01*
X111352631Y-47217126D01*
X111337196Y-47285269D01*
X111299999Y-47326489D01*
X111128597Y-47446505D01*
X110961505Y-47613597D01*
X110825965Y-47807169D01*
X110825964Y-47807171D01*
X110726098Y-48021335D01*
X110726094Y-48021344D01*
X110664938Y-48249586D01*
X110664936Y-48249596D01*
X110644341Y-48484999D01*
X110644341Y-48485000D01*
X110664936Y-48720403D01*
X110664938Y-48720413D01*
X110726094Y-48948655D01*
X110726096Y-48948659D01*
X110726097Y-48948663D01*
X110791739Y-49089432D01*
X110825965Y-49162830D01*
X110825967Y-49162834D01*
X110961501Y-49356395D01*
X110961506Y-49356402D01*
X111083430Y-49478326D01*
X111116915Y-49539649D01*
X111111931Y-49609341D01*
X111070059Y-49665274D01*
X111039083Y-49682189D01*
X110907669Y-49731203D01*
X110907664Y-49731206D01*
X110792455Y-49817452D01*
X110792452Y-49817455D01*
X110706206Y-49932664D01*
X110706202Y-49932671D01*
X110655908Y-50067517D01*
X110649501Y-50127116D01*
X110649500Y-50127135D01*
X110649500Y-51922870D01*
X110649501Y-51922876D01*
X110655908Y-51982483D01*
X110706202Y-52117328D01*
X110706206Y-52117335D01*
X110792452Y-52232544D01*
X110792455Y-52232547D01*
X110907664Y-52318793D01*
X110907671Y-52318797D01*
X111042517Y-52369091D01*
X111042516Y-52369091D01*
X111049444Y-52369835D01*
X111102127Y-52375500D01*
X112427400Y-52375499D01*
X112494439Y-52395184D01*
X112540194Y-52447987D01*
X112551400Y-52499499D01*
X112551400Y-53888006D01*
X112531715Y-53955045D01*
X112478911Y-54000800D01*
X112409753Y-54010744D01*
X112395307Y-54007781D01*
X112235413Y-53964938D01*
X112235403Y-53964936D01*
X112000001Y-53944341D01*
X111999999Y-53944341D01*
X111764596Y-53964936D01*
X111764586Y-53964938D01*
X111536344Y-54026094D01*
X111536335Y-54026098D01*
X111322171Y-54125964D01*
X111322169Y-54125965D01*
X111128597Y-54261505D01*
X110961505Y-54428597D01*
X110825965Y-54622169D01*
X110825964Y-54622171D01*
X110726098Y-54836335D01*
X110726094Y-54836344D01*
X110664938Y-55064586D01*
X110664936Y-55064596D01*
X110644341Y-55299999D01*
X110644341Y-55300000D01*
X110664936Y-55535403D01*
X110664938Y-55535413D01*
X110726094Y-55763655D01*
X110726096Y-55763659D01*
X110726097Y-55763663D01*
X110784591Y-55889104D01*
X110825965Y-55977830D01*
X110825967Y-55977834D01*
X110898527Y-56081459D01*
X110947235Y-56151022D01*
X110961501Y-56171395D01*
X110961506Y-56171402D01*
X111128597Y-56338493D01*
X111128603Y-56338498D01*
X111314158Y-56468425D01*
X111357783Y-56523002D01*
X111364977Y-56592500D01*
X111333454Y-56654855D01*
X111314158Y-56671575D01*
X111128597Y-56801505D01*
X110961505Y-56968597D01*
X110825965Y-57162169D01*
X110825964Y-57162171D01*
X110726098Y-57376335D01*
X110726094Y-57376344D01*
X110664938Y-57604586D01*
X110664936Y-57604596D01*
X110644341Y-57839999D01*
X110644341Y-57840000D01*
X110664936Y-58075403D01*
X110664938Y-58075413D01*
X110726094Y-58303655D01*
X110726096Y-58303659D01*
X110726097Y-58303663D01*
X110814262Y-58492732D01*
X110825965Y-58517830D01*
X110825967Y-58517834D01*
X110961501Y-58711395D01*
X110961506Y-58711402D01*
X111128597Y-58878493D01*
X111128603Y-58878498D01*
X111314158Y-59008425D01*
X111357783Y-59063002D01*
X111364977Y-59132500D01*
X111333454Y-59194855D01*
X111314158Y-59211575D01*
X111128597Y-59341505D01*
X110961505Y-59508597D01*
X110825965Y-59702169D01*
X110825964Y-59702171D01*
X110726098Y-59916335D01*
X110726094Y-59916344D01*
X110664938Y-60144586D01*
X110664936Y-60144596D01*
X110644341Y-60379999D01*
X110644341Y-60380000D01*
X110664936Y-60615403D01*
X110664938Y-60615413D01*
X110726094Y-60843655D01*
X110726096Y-60843659D01*
X110726097Y-60843663D01*
X110798129Y-60998135D01*
X110825965Y-61057830D01*
X110825967Y-61057834D01*
X110894129Y-61155178D01*
X110952049Y-61237897D01*
X110961501Y-61251395D01*
X110961506Y-61251402D01*
X111128597Y-61418493D01*
X111128603Y-61418498D01*
X111314158Y-61548425D01*
X111357783Y-61603002D01*
X111364977Y-61672500D01*
X111333454Y-61734855D01*
X111314158Y-61751575D01*
X111128597Y-61881505D01*
X110961505Y-62048597D01*
X110825965Y-62242169D01*
X110825964Y-62242171D01*
X110726098Y-62456335D01*
X110726094Y-62456344D01*
X110664938Y-62684586D01*
X110664936Y-62684596D01*
X110644341Y-62919999D01*
X110644341Y-62920000D01*
X110664936Y-63155403D01*
X110664938Y-63155413D01*
X110726094Y-63383655D01*
X110726096Y-63383659D01*
X110726097Y-63383663D01*
X110811093Y-63565937D01*
X110825965Y-63597830D01*
X110825967Y-63597834D01*
X110961501Y-63791395D01*
X110961506Y-63791402D01*
X111128597Y-63958493D01*
X111128603Y-63958498D01*
X111314158Y-64088425D01*
X111357783Y-64143002D01*
X111364977Y-64212500D01*
X111333454Y-64274855D01*
X111314158Y-64291575D01*
X111128597Y-64421505D01*
X110961505Y-64588597D01*
X110825965Y-64782169D01*
X110825964Y-64782171D01*
X110726098Y-64996335D01*
X110726094Y-64996344D01*
X110664938Y-65224586D01*
X110664936Y-65224596D01*
X110644341Y-65459999D01*
X110644341Y-65460000D01*
X110664936Y-65695403D01*
X110664938Y-65695413D01*
X110726094Y-65923655D01*
X110726096Y-65923659D01*
X110726097Y-65923663D01*
X110815179Y-66114699D01*
X110825965Y-66137830D01*
X110825967Y-66137834D01*
X110961501Y-66331395D01*
X110961506Y-66331402D01*
X111083430Y-66453326D01*
X111116915Y-66514649D01*
X111111931Y-66584341D01*
X111070059Y-66640274D01*
X111039083Y-66657189D01*
X110907669Y-66706203D01*
X110907664Y-66706206D01*
X110792455Y-66792452D01*
X110792452Y-66792455D01*
X110706206Y-66907664D01*
X110706202Y-66907671D01*
X110655908Y-67042517D01*
X110649501Y-67102116D01*
X110649500Y-67102135D01*
X110649500Y-68897870D01*
X110649501Y-68897876D01*
X110655908Y-68957483D01*
X110706202Y-69092328D01*
X110706206Y-69092335D01*
X110792452Y-69207544D01*
X110792455Y-69207547D01*
X110907664Y-69293793D01*
X110907671Y-69293797D01*
X111042517Y-69344091D01*
X111042516Y-69344091D01*
X111049444Y-69344835D01*
X111102127Y-69350500D01*
X112897872Y-69350499D01*
X112957483Y-69344091D01*
X113092331Y-69293796D01*
X113207546Y-69207546D01*
X113293796Y-69092331D01*
X113344091Y-68957483D01*
X113350500Y-68897873D01*
X113350499Y-67278106D01*
X113370184Y-67211068D01*
X113422987Y-67165313D01*
X113492146Y-67155369D01*
X113555702Y-67184394D01*
X113562180Y-67190426D01*
X115929664Y-69557910D01*
X115939735Y-69570480D01*
X115939922Y-69570326D01*
X115944896Y-69576337D01*
X115944898Y-69576340D01*
X115972660Y-69602410D01*
X115997343Y-69625590D01*
X116019067Y-69647313D01*
X116024857Y-69651805D01*
X116029297Y-69655597D01*
X116056204Y-69680863D01*
X116064707Y-69688848D01*
X116078271Y-69696305D01*
X116083305Y-69699072D01*
X116099570Y-69709757D01*
X116116332Y-69722760D01*
X116116335Y-69722761D01*
X116116336Y-69722762D01*
X116160923Y-69742056D01*
X116166159Y-69744621D01*
X116208732Y-69768027D01*
X116224440Y-69772059D01*
X116229286Y-69773304D01*
X116247698Y-69779607D01*
X116267173Y-69788035D01*
X116303852Y-69793844D01*
X116315146Y-69795633D01*
X116320856Y-69796815D01*
X116367923Y-69808900D01*
X116389150Y-69808900D01*
X116408547Y-69810426D01*
X116429504Y-69813746D01*
X116477861Y-69809174D01*
X116483698Y-69808900D01*
X117307492Y-69808900D01*
X117374531Y-69828585D01*
X117420286Y-69881389D01*
X117430230Y-69950547D01*
X117401205Y-70014103D01*
X117395173Y-70020581D01*
X107627571Y-79788181D01*
X107566248Y-79821666D01*
X107539890Y-79824500D01*
X106549998Y-79824500D01*
X106549980Y-79824501D01*
X106447203Y-79835000D01*
X106447200Y-79835001D01*
X106280668Y-79890185D01*
X106280663Y-79890187D01*
X106131342Y-79982289D01*
X106007289Y-80106342D01*
X105915187Y-80255663D01*
X105915185Y-80255668D01*
X105897954Y-80307669D01*
X105860001Y-80422203D01*
X105860001Y-80422204D01*
X105860000Y-80422204D01*
X105849500Y-80524983D01*
X105849500Y-82075001D01*
X105849501Y-82075018D01*
X105860000Y-82177796D01*
X105860001Y-82177799D01*
X105915185Y-82344331D01*
X105915187Y-82344336D01*
X105927932Y-82364999D01*
X106007288Y-82493656D01*
X106131344Y-82617712D01*
X106280666Y-82709814D01*
X106447203Y-82764999D01*
X106447209Y-82764999D01*
X106451448Y-82765907D01*
X106512884Y-82799185D01*
X106546576Y-82860394D01*
X106549500Y-82887162D01*
X106549500Y-85052412D01*
X106529815Y-85119451D01*
X106477011Y-85165206D01*
X106470294Y-85168038D01*
X106282610Y-85240747D01*
X106282595Y-85240754D01*
X106093439Y-85357874D01*
X106093437Y-85357876D01*
X105929020Y-85507761D01*
X105794943Y-85685308D01*
X105794938Y-85685316D01*
X105695775Y-85884461D01*
X105695769Y-85884476D01*
X105634885Y-86098462D01*
X105634884Y-86098464D01*
X105614357Y-86319999D01*
X105614357Y-86320000D01*
X105634884Y-86541535D01*
X105634885Y-86541537D01*
X105695769Y-86755523D01*
X105695775Y-86755538D01*
X105794938Y-86954683D01*
X105794943Y-86954691D01*
X105929020Y-87132238D01*
X106093437Y-87282123D01*
X106093439Y-87282125D01*
X106282595Y-87399245D01*
X106282596Y-87399245D01*
X106282599Y-87399247D01*
X106490060Y-87479618D01*
X106708757Y-87520500D01*
X106708759Y-87520500D01*
X106931241Y-87520500D01*
X106931243Y-87520500D01*
X107149940Y-87479618D01*
X107357401Y-87399247D01*
X107546562Y-87282124D01*
X107592462Y-87240280D01*
X107655265Y-87209663D01*
X107724652Y-87217860D01*
X107778592Y-87262269D01*
X107799961Y-87328791D01*
X107800000Y-87331917D01*
X107800000Y-90591894D01*
X107798232Y-90607905D01*
X107798474Y-90607928D01*
X107797740Y-90615694D01*
X107800000Y-90687603D01*
X107800000Y-90718320D01*
X107800001Y-90718340D01*
X107800918Y-90725606D01*
X107801376Y-90731424D01*
X107802902Y-90779967D01*
X107802903Y-90779970D01*
X107808823Y-90800348D01*
X107812768Y-90819396D01*
X107815428Y-90840454D01*
X107815431Y-90840464D01*
X107833313Y-90885630D01*
X107835205Y-90891158D01*
X107848754Y-90937795D01*
X107848755Y-90937797D01*
X107859560Y-90956066D01*
X107868117Y-90973534D01*
X107873726Y-90987700D01*
X107875932Y-90993272D01*
X107904483Y-91032570D01*
X107907688Y-91037449D01*
X107932419Y-91079265D01*
X107932423Y-91079269D01*
X107947425Y-91094271D01*
X107960063Y-91109069D01*
X107972533Y-91126233D01*
X107972536Y-91126236D01*
X107972537Y-91126237D01*
X108009976Y-91157209D01*
X108014276Y-91161122D01*
X110823488Y-93970334D01*
X113618664Y-96765510D01*
X113628735Y-96778080D01*
X113628922Y-96777926D01*
X113633896Y-96783937D01*
X113633898Y-96783940D01*
X113653354Y-96802210D01*
X113686343Y-96833190D01*
X113708067Y-96854913D01*
X113713857Y-96859405D01*
X113718297Y-96863197D01*
X113747031Y-96890179D01*
X113753707Y-96896448D01*
X113753709Y-96896449D01*
X113772305Y-96906672D01*
X113788570Y-96917357D01*
X113805332Y-96930360D01*
X113805335Y-96930361D01*
X113805336Y-96930362D01*
X113849923Y-96949656D01*
X113855159Y-96952221D01*
X113897732Y-96975627D01*
X113913440Y-96979659D01*
X113918286Y-96980904D01*
X113936698Y-96987207D01*
X113956173Y-96995635D01*
X114004171Y-97003237D01*
X114009840Y-97004411D01*
X114056923Y-97016500D01*
X114078151Y-97016500D01*
X114097548Y-97018026D01*
X114118503Y-97021345D01*
X114118504Y-97021346D01*
X114118504Y-97021345D01*
X114118505Y-97021346D01*
X114166861Y-97016775D01*
X114172699Y-97016500D01*
X115759095Y-97016500D01*
X115775105Y-97018267D01*
X115775128Y-97018026D01*
X115782889Y-97018758D01*
X115782896Y-97018760D01*
X115854803Y-97016500D01*
X115885525Y-97016500D01*
X115892790Y-97015581D01*
X115898616Y-97015122D01*
X115947169Y-97013597D01*
X115967556Y-97007673D01*
X115986596Y-97003731D01*
X116007658Y-97001071D01*
X116052835Y-96983183D01*
X116058335Y-96981300D01*
X116104998Y-96967744D01*
X116123265Y-96956939D01*
X116140736Y-96948380D01*
X116160471Y-96940568D01*
X116199777Y-96912010D01*
X116204643Y-96908813D01*
X116246465Y-96884081D01*
X116261470Y-96869075D01*
X116276268Y-96856436D01*
X116293437Y-96843963D01*
X116324409Y-96806522D01*
X116328323Y-96802221D01*
X116697613Y-96432931D01*
X116710179Y-96422865D01*
X116710025Y-96422678D01*
X116716033Y-96417706D01*
X116716040Y-96417702D01*
X116765259Y-96365287D01*
X116766418Y-96364127D01*
X116767054Y-96363490D01*
X116828340Y-96329942D01*
X116898037Y-96334854D01*
X116907227Y-96338698D01*
X117036337Y-96398903D01*
X117264592Y-96460063D01*
X117441034Y-96475500D01*
X117499999Y-96480659D01*
X117500000Y-96480659D01*
X117500001Y-96480659D01*
X117558966Y-96475500D01*
X117735408Y-96460063D01*
X117963663Y-96398903D01*
X118177829Y-96299035D01*
X118371401Y-96163495D01*
X118538495Y-95996401D01*
X118648426Y-95839401D01*
X118703001Y-95795778D01*
X118772500Y-95788584D01*
X118834855Y-95820106D01*
X118851571Y-95839398D01*
X118922144Y-95940187D01*
X118961506Y-95996403D01*
X119128596Y-96163492D01*
X119128599Y-96163495D01*
X119171675Y-96193657D01*
X119322165Y-96299032D01*
X119322167Y-96299033D01*
X119322170Y-96299035D01*
X119536337Y-96398903D01*
X119764592Y-96460063D01*
X119941034Y-96475500D01*
X119999999Y-96480659D01*
X120000000Y-96480659D01*
X120000001Y-96480659D01*
X120058966Y-96475500D01*
X120235408Y-96460063D01*
X120295038Y-96444085D01*
X120364887Y-96445748D01*
X120414812Y-96476179D01*
X120858367Y-96919734D01*
X120870148Y-96933366D01*
X120884490Y-96952630D01*
X120924520Y-96986219D01*
X120928492Y-96989859D01*
X120931940Y-96993307D01*
X120934324Y-96995691D01*
X120934327Y-96995694D01*
X120960047Y-97016031D01*
X121018888Y-97065404D01*
X121024918Y-97069370D01*
X121024885Y-97069419D01*
X121031243Y-97073469D01*
X121031275Y-97073419D01*
X121037420Y-97077209D01*
X121037423Y-97077211D01*
X121107036Y-97109672D01*
X121175667Y-97144140D01*
X121175672Y-97144141D01*
X121182461Y-97146613D01*
X121182440Y-97146670D01*
X121189555Y-97149143D01*
X121189575Y-97149086D01*
X121196430Y-97151358D01*
X121251287Y-97162684D01*
X121271658Y-97166890D01*
X121346379Y-97184600D01*
X121346389Y-97184600D01*
X121353552Y-97185438D01*
X121353544Y-97185497D01*
X121361045Y-97186264D01*
X121361051Y-97186205D01*
X121368240Y-97186834D01*
X121368244Y-97186833D01*
X121368245Y-97186834D01*
X121445018Y-97184600D01*
X134002195Y-97184600D01*
X134020165Y-97185909D01*
X134043923Y-97189389D01*
X134095968Y-97184835D01*
X134101370Y-97184600D01*
X134109604Y-97184600D01*
X134109609Y-97184600D01*
X134122629Y-97183078D01*
X134142176Y-97180793D01*
X134154928Y-97179677D01*
X134218697Y-97174099D01*
X134218705Y-97174096D01*
X134225766Y-97172639D01*
X134225778Y-97172698D01*
X134233143Y-97171065D01*
X134233129Y-97171006D01*
X134240146Y-97169341D01*
X134240155Y-97169341D01*
X134312323Y-97143074D01*
X134385234Y-97118914D01*
X134385243Y-97118907D01*
X134391782Y-97115860D01*
X134391808Y-97115916D01*
X134398590Y-97112632D01*
X134398563Y-97112578D01*
X134405006Y-97109340D01*
X134405017Y-97109337D01*
X134469183Y-97067134D01*
X134534556Y-97026812D01*
X134534562Y-97026805D01*
X134540225Y-97022329D01*
X134540262Y-97022377D01*
X134546104Y-97017618D01*
X134546064Y-97017571D01*
X134551586Y-97012935D01*
X134551596Y-97012930D01*
X134604286Y-96957081D01*
X135085187Y-96476178D01*
X135146510Y-96442694D01*
X135204961Y-96444085D01*
X135264592Y-96460063D01*
X135441034Y-96475500D01*
X135499999Y-96480659D01*
X135500000Y-96480659D01*
X135500001Y-96480659D01*
X135558966Y-96475500D01*
X135735408Y-96460063D01*
X135795037Y-96444085D01*
X135864886Y-96445748D01*
X135914811Y-96476179D01*
X136428870Y-96990238D01*
X136440651Y-97003870D01*
X136454988Y-97023128D01*
X136454989Y-97023129D01*
X136454990Y-97023130D01*
X136460134Y-97027446D01*
X136495009Y-97056711D01*
X136498997Y-97060366D01*
X136504816Y-97066185D01*
X136504820Y-97066188D01*
X136504823Y-97066191D01*
X136530559Y-97086540D01*
X136589386Y-97135902D01*
X136589387Y-97135902D01*
X136589389Y-97135904D01*
X136595418Y-97139870D01*
X136595385Y-97139919D01*
X136601747Y-97143972D01*
X136601779Y-97143921D01*
X136607919Y-97147708D01*
X136607923Y-97147711D01*
X136640033Y-97162684D01*
X136677541Y-97180175D01*
X136695886Y-97189388D01*
X136746167Y-97214640D01*
X136746169Y-97214640D01*
X136752957Y-97217111D01*
X136752936Y-97217167D01*
X136760055Y-97219642D01*
X136760074Y-97219586D01*
X136766929Y-97221858D01*
X136842162Y-97237391D01*
X136916879Y-97255100D01*
X136916889Y-97255100D01*
X136924052Y-97255938D01*
X136924044Y-97255997D01*
X136931545Y-97256764D01*
X136931551Y-97256705D01*
X136938740Y-97257334D01*
X136938744Y-97257333D01*
X136938745Y-97257334D01*
X137015518Y-97255100D01*
X149531695Y-97255100D01*
X149549665Y-97256409D01*
X149573423Y-97259889D01*
X149625468Y-97255335D01*
X149630870Y-97255100D01*
X149639104Y-97255100D01*
X149639109Y-97255100D01*
X149650727Y-97253741D01*
X149671676Y-97251293D01*
X149684428Y-97250177D01*
X149748197Y-97244599D01*
X149748205Y-97244596D01*
X149755266Y-97243139D01*
X149755278Y-97243198D01*
X149762643Y-97241565D01*
X149762629Y-97241506D01*
X149769646Y-97239841D01*
X149769655Y-97239841D01*
X149841823Y-97213574D01*
X149914734Y-97189414D01*
X149914743Y-97189407D01*
X149921282Y-97186360D01*
X149921308Y-97186416D01*
X149928090Y-97183132D01*
X149928063Y-97183078D01*
X149934506Y-97179840D01*
X149934517Y-97179837D01*
X149998683Y-97137634D01*
X150064056Y-97097312D01*
X150064062Y-97097305D01*
X150069725Y-97092829D01*
X150069763Y-97092877D01*
X150075600Y-97088122D01*
X150075561Y-97088075D01*
X150081096Y-97083430D01*
X150133785Y-97027583D01*
X150409486Y-96751881D01*
X150685189Y-96476177D01*
X150746510Y-96442694D01*
X150804961Y-96444085D01*
X150811168Y-96445748D01*
X150864592Y-96460063D01*
X151041034Y-96475500D01*
X151099999Y-96480659D01*
X151100000Y-96480659D01*
X151100001Y-96480659D01*
X151158966Y-96475500D01*
X151335408Y-96460063D01*
X151563663Y-96398903D01*
X151777829Y-96299035D01*
X151971401Y-96163495D01*
X152138495Y-95996401D01*
X152248426Y-95839401D01*
X152303001Y-95795778D01*
X152372500Y-95788584D01*
X152434855Y-95820106D01*
X152451571Y-95839398D01*
X152522144Y-95940187D01*
X152561506Y-95996403D01*
X152728595Y-96163492D01*
X152728598Y-96163494D01*
X152728599Y-96163495D01*
X152796623Y-96211125D01*
X152840248Y-96265701D01*
X152849500Y-96312700D01*
X152849500Y-98165677D01*
X152832887Y-98227677D01*
X152772821Y-98331714D01*
X152714327Y-98511740D01*
X152714326Y-98511744D01*
X152694540Y-98700000D01*
X152714326Y-98888256D01*
X152714327Y-98888259D01*
X152772818Y-99068277D01*
X152772821Y-99068284D01*
X152867467Y-99232216D01*
X152955788Y-99330306D01*
X152994129Y-99372888D01*
X153147265Y-99484148D01*
X153147270Y-99484151D01*
X153210315Y-99512221D01*
X153263552Y-99557471D01*
X153283873Y-99624321D01*
X153264827Y-99691544D01*
X153212461Y-99737799D01*
X153159879Y-99749500D01*
X105973934Y-99749500D01*
X105906895Y-99729815D01*
X105861140Y-99677011D01*
X105851196Y-99607853D01*
X105880221Y-99544297D01*
X105910185Y-99519142D01*
X105968569Y-99484148D01*
X106225239Y-99330306D01*
X106540951Y-99096158D01*
X106832192Y-98832192D01*
X107096158Y-98540951D01*
X107330306Y-98225239D01*
X107532381Y-97888097D01*
X107700438Y-97532772D01*
X107832857Y-97162684D01*
X107928364Y-96781400D01*
X107986038Y-96392591D01*
X108005325Y-96000000D01*
X107986038Y-95607409D01*
X107928364Y-95218600D01*
X107832857Y-94837316D01*
X107700438Y-94467228D01*
X107532381Y-94111903D01*
X107480932Y-94026066D01*
X107367315Y-93836507D01*
X107330306Y-93774761D01*
X107096158Y-93459049D01*
X107096153Y-93459043D01*
X106832192Y-93167807D01*
X106540956Y-92903846D01*
X106512341Y-92882624D01*
X106225239Y-92669694D01*
X106162711Y-92632216D01*
X105888100Y-92467620D01*
X105532772Y-92299562D01*
X105532770Y-92299561D01*
X105162684Y-92167143D01*
X104781406Y-92071637D01*
X104781401Y-92071636D01*
X104781400Y-92071636D01*
X104637256Y-92050254D01*
X104392599Y-92013963D01*
X104392597Y-92013962D01*
X104392591Y-92013962D01*
X104000000Y-91994675D01*
X103607409Y-92013962D01*
X103607403Y-92013962D01*
X103607400Y-92013963D01*
X103218593Y-92071637D01*
X102837315Y-92167143D01*
X102467229Y-92299561D01*
X102467227Y-92299562D01*
X102111899Y-92467620D01*
X101774763Y-92669692D01*
X101459043Y-92903846D01*
X101167807Y-93167807D01*
X100903846Y-93459043D01*
X100669692Y-93774763D01*
X100480858Y-94089815D01*
X100429509Y-94137197D01*
X100360695Y-94149295D01*
X100296264Y-94122269D01*
X100256672Y-94064700D01*
X100250500Y-94026066D01*
X100250500Y-33973933D01*
X100270185Y-33906894D01*
X100322989Y-33861139D01*
X100392147Y-33851195D01*
X100455703Y-33880220D01*
X100480856Y-33910181D01*
X100495911Y-33935299D01*
X100669692Y-34225236D01*
X100903846Y-34540956D01*
X101167807Y-34832192D01*
X101459043Y-35096153D01*
X101459049Y-35096158D01*
X101774761Y-35330306D01*
X101774763Y-35330307D01*
X102111899Y-35532379D01*
X102111902Y-35532380D01*
X102111903Y-35532381D01*
X102467228Y-35700438D01*
X102837316Y-35832857D01*
X103218600Y-35928364D01*
X103607409Y-35986038D01*
X104000000Y-36005325D01*
X104392591Y-35986038D01*
X104781400Y-35928364D01*
X105162684Y-35832857D01*
X105532772Y-35700438D01*
X105888097Y-35532381D01*
X106225239Y-35330306D01*
X106540951Y-35096158D01*
X106832192Y-34832192D01*
X107096158Y-34540951D01*
X107330306Y-34225239D01*
X107532381Y-33888097D01*
X107700438Y-33532772D01*
X107832857Y-33162684D01*
X107928364Y-32781400D01*
X107986038Y-32392591D01*
X108005325Y-32000000D01*
X107986038Y-31607409D01*
X107928364Y-31218600D01*
X107832857Y-30837316D01*
X107700438Y-30467228D01*
X107532381Y-30111903D01*
X107480932Y-30026066D01*
X107330307Y-29774763D01*
X107330306Y-29774761D01*
X107096158Y-29459049D01*
X107096153Y-29459043D01*
X106832192Y-29167807D01*
X106540956Y-28903846D01*
X106225236Y-28669692D01*
X105910185Y-28480858D01*
X105862803Y-28429509D01*
X105850705Y-28360695D01*
X105877731Y-28296264D01*
X105935300Y-28256672D01*
X105973934Y-28250500D01*
X193026066Y-28250500D01*
X193093105Y-28270185D01*
G37*
%TD.AperFunction*%
%TD*%
M02*
