M48
; DRILL file {KiCad 7.0.8} date 2024 February 29, Thursday 15:37:32
; FORMAT={-:-/ absolute / inch / decimal}
; #@! TF.CreationDate,2024-02-29T15:37:32+01:00
; #@! TF.GenerationSoftware,Kicad,Pcbnew,7.0.8
; #@! TF.FileFunction,MixedPlating,1,2
FMAT,2
INCH
; #@! TA.AperFunction,Plated,PTH,ViaDrill
T1C0.0157
; #@! TA.AperFunction,Plated,PTH,ComponentDrill
T2C0.0276
; #@! TA.AperFunction,Plated,PTH,ComponentDrill
T3C0.0315
; #@! TA.AperFunction,Plated,PTH,ComponentDrill
T4C0.0374
; #@! TA.AperFunction,Plated,PTH,ComponentDrill
T5C0.0394
; #@! TA.AperFunction,Plated,PTH,ComponentDrill
T6C0.0433
; #@! TA.AperFunction,Plated,PTH,ComponentDrill
T7C0.1378
%
G90
G05
T1
X4.937Y-3.622
X5.0464Y-2.3095
X5.437Y-3.626
X5.6098Y-2.553
X5.8552Y-2.6212
X5.8843Y-2.6949
X6.0472Y-3.8858
X6.2693Y-2.6653
X6.2693Y-2.7464
X6.6614Y-3.6299
T2
X4.2055Y-3.3984
X4.4055Y-3.3984
T3
X5.8307Y-1.7717
X5.9291Y-1.7717
X6.6654Y-1.748
X6.7638Y-1.748
X7.1929Y-2.874
X7.2913Y-2.874
T4
X4.2205Y-3.2008
X4.3189Y-3.2008
X4.4173Y-3.2008
X4.5276Y-3.7402
X4.626Y-3.7402
X4.7244Y-3.7402
X4.8228Y-3.7402
X5.1378Y-3.7402
X5.2362Y-3.7402
X5.3346Y-3.7402
X5.4331Y-3.7402
X5.7362Y-3.185
X5.752Y-3.7402
X5.8346Y-3.185
X5.8504Y-3.7402
X5.9331Y-3.185
X5.9488Y-3.7402
X6.0315Y-3.185
X6.0472Y-3.7402
X6.1299Y-3.185
X6.3583Y-3.7402
X6.4213Y-3.185
X6.4567Y-3.7402
X6.5197Y-3.185
X6.5551Y-3.7402
X6.6181Y-3.185
X6.6535Y-3.7402
X6.7165Y-3.185
X6.815Y-3.185
X6.9587Y-3.7402
X7.0571Y-3.7402
X7.1555Y-3.7402
X7.2539Y-3.7402
T5
X4.4094Y-1.8089
X4.4094Y-1.9089
X4.4094Y-2.0089
X4.4094Y-2.1772
X4.4094Y-2.2772
X4.4094Y-2.3772
X4.4094Y-2.4772
X4.4094Y-2.5772
X4.4094Y-2.6772
X4.6118Y-1.9772
X4.6118Y-2.0772
X4.6118Y-2.1772
X4.6118Y-2.2772
X4.6118Y-2.3772
X4.6118Y-2.4772
X4.6118Y-2.5772
X4.6118Y-2.6772
X4.7118Y-1.9772
X4.7118Y-2.0772
X4.7118Y-2.1772
X4.7118Y-2.2772
X4.7118Y-2.3772
X4.7118Y-2.4772
X4.7118Y-2.5772
X4.7118Y-2.6772
X4.8197Y-3.2047
X4.9197Y-3.2047
X5.0197Y-3.2047
X5.1197Y-3.2047
X5.2197Y-3.2047
X5.3197Y-3.2047
X5.4118Y-1.9772
X5.4118Y-2.0772
X5.4118Y-2.1772
X5.4118Y-2.2772
X5.4118Y-2.3772
X5.4118Y-2.4772
X5.4118Y-2.5772
X5.4118Y-2.6772
X5.5118Y-1.9772
X5.5118Y-2.0772
X5.5118Y-2.1772
X5.5118Y-2.2772
X5.5118Y-2.3772
X5.5118Y-2.4772
X5.5118Y-2.5772
X5.5118Y-2.6772
X6.2677Y-1.7402
X6.3661Y-1.7402
X7.0669Y-2.3065
X7.0669Y-2.4065
X7.0669Y-2.5065
X7.2126Y-3.189
X7.2441Y-2.3071
X7.2441Y-2.4071
X7.2441Y-2.5071
X7.311Y-3.189
X7.4213Y-2.3071
X7.4213Y-2.4071
X7.4213Y-2.5071
T6
X6.1213Y-2.1134
X6.1213Y-2.2134
X6.1213Y-2.3134
X6.1213Y-2.4134
X6.1213Y-2.5134
X6.1213Y-2.6134
X6.1213Y-2.7134
X6.1213Y-2.8134
X6.1213Y-2.9134
X6.4213Y-2.1134
X6.4213Y-2.2134
X6.4213Y-2.3134
X6.4213Y-2.4134
X6.4213Y-2.5134
X6.4213Y-2.6134
X6.4213Y-2.7134
X6.4213Y-2.8134
X6.4213Y-2.9134
X7.0311Y-1.6634
X7.0311Y-1.8898
X7.4311Y-1.6634
X7.4311Y-1.8898
T7
X4.0945Y-1.2598
X4.0945Y-3.7795
X7.6772Y-1.2598
X7.6772Y-3.7795
T0
M30
