%TF.GenerationSoftware,KiCad,Pcbnew,7.0.8*%
%TF.CreationDate,2024-02-29T15:37:24+01:00*%
%TF.ProjectId,COXY-V2,434f5859-2d56-4322-9e6b-696361645f70,rev?*%
%TF.SameCoordinates,Original*%
%TF.FileFunction,Soldermask,Bot*%
%TF.FilePolarity,Negative*%
%FSLAX46Y46*%
G04 Gerber Fmt 4.6, Leading zero omitted, Abs format (unit mm)*
G04 Created by KiCad (PCBNEW 7.0.8) date 2024-02-29 15:37:24*
%MOMM*%
%LPD*%
G01*
G04 APERTURE LIST*
G04 Aperture macros list*
%AMRoundRect*
0 Rectangle with rounded corners*
0 $1 Rounding radius*
0 $2 $3 $4 $5 $6 $7 $8 $9 X,Y pos of 4 corners*
0 Add a 4 corners polygon primitive as box body*
4,1,4,$2,$3,$4,$5,$6,$7,$8,$9,$2,$3,0*
0 Add four circle primitives for the rounded corners*
1,1,$1+$1,$2,$3*
1,1,$1+$1,$4,$5*
1,1,$1+$1,$6,$7*
1,1,$1+$1,$8,$9*
0 Add four rect primitives between the rounded corners*
20,1,$1+$1,$2,$3,$4,$5,0*
20,1,$1+$1,$4,$5,$6,$7,0*
20,1,$1+$1,$6,$7,$8,$9,0*
20,1,$1+$1,$8,$9,$2,$3,0*%
G04 Aperture macros list end*
%ADD10C,2.134400*%
%ADD11O,2.000000X1.600000*%
%ADD12R,2.000000X2.000000*%
%ADD13O,1.400000X1.400000*%
%ADD14C,1.400000*%
%ADD15RoundRect,0.250000X-0.600000X-0.750000X0.600000X-0.750000X0.600000X0.750000X-0.600000X0.750000X0*%
%ADD16O,1.700000X2.000000*%
%ADD17O,1.700000X1.950000*%
%ADD18RoundRect,0.250000X-0.600000X-0.725000X0.600000X-0.725000X0.600000X0.725000X-0.600000X0.725000X0*%
%ADD19O,1.700000X1.700000*%
%ADD20R,1.700000X1.700000*%
%ADD21C,1.600000*%
%ADD22R,1.600000X1.600000*%
%ADD23C,7.000000*%
%ADD24O,2.200000X2.200000*%
%ADD25R,2.200000X2.200000*%
G04 APERTURE END LIST*
%TO.C,4pad_2*%
G36*
X145007980Y-29669169D02*
G01*
X145796960Y-29737756D01*
X146109409Y-30081921D01*
X146164789Y-30921126D01*
X146164633Y-31016431D01*
X146096046Y-31805411D01*
X145751882Y-32117859D01*
X144912676Y-32173239D01*
X144817372Y-32173083D01*
X144028392Y-32104497D01*
X143715943Y-31760332D01*
X143660563Y-30921126D01*
X143660719Y-30825822D01*
X143729306Y-30036842D01*
X144073470Y-29724394D01*
X144912676Y-29669014D01*
X145007980Y-29669169D01*
G37*
G36*
X148227698Y-29669169D02*
G01*
X149016679Y-29737756D01*
X149329127Y-30081921D01*
X149384507Y-30921126D01*
X149384351Y-31016431D01*
X149315764Y-31805411D01*
X148971600Y-32117859D01*
X148132394Y-32173239D01*
X148037090Y-32173083D01*
X147248110Y-32104497D01*
X146935661Y-31760332D01*
X146880282Y-30921126D01*
X146880437Y-30825822D01*
X146949024Y-30036842D01*
X147293189Y-29724394D01*
X148132394Y-29669014D01*
X148227698Y-29669169D01*
G37*
G36*
X151805163Y-29669169D02*
G01*
X152594143Y-29737756D01*
X152906592Y-30081921D01*
X152961972Y-30921126D01*
X152961816Y-31016431D01*
X152893229Y-31805411D01*
X152549065Y-32117859D01*
X151709859Y-32173239D01*
X151614555Y-32173083D01*
X150825575Y-32104497D01*
X150513126Y-31760332D01*
X150457746Y-30921126D01*
X150457902Y-30825822D01*
X150526489Y-30036842D01*
X150870653Y-29724394D01*
X151709859Y-29669014D01*
X151805163Y-29669169D01*
G37*
G36*
X155024882Y-29669169D02*
G01*
X155813862Y-29737756D01*
X156126310Y-30081921D01*
X156181690Y-30921126D01*
X156181534Y-31016431D01*
X156112948Y-31805411D01*
X155768783Y-32117859D01*
X154929577Y-32173239D01*
X154834273Y-32173083D01*
X154045293Y-32104497D01*
X153732845Y-31760332D01*
X153677465Y-30921126D01*
X153677620Y-30825822D01*
X153746207Y-30036842D01*
X154090372Y-29724394D01*
X154929577Y-29669014D01*
X155024882Y-29669169D01*
G37*
%TD*%
D10*
%TO.C,U1*%
X163100000Y-53680000D03*
X163100000Y-56220000D03*
X163100000Y-58760000D03*
X163100000Y-61300000D03*
X163100000Y-63840000D03*
X163100000Y-66380000D03*
X163100000Y-68920000D03*
X163100000Y-71460000D03*
X163100000Y-74000000D03*
X155480000Y-74000000D03*
X155480000Y-71460000D03*
X155480000Y-68920000D03*
X155480000Y-66380000D03*
X155480000Y-63840000D03*
X155480000Y-61300000D03*
X155480000Y-58760000D03*
X155480000Y-56220000D03*
X155480000Y-53680000D03*
%TD*%
D11*
%TO.C,S2-Mini-ESP32*%
X119680000Y-50220000D03*
X119680000Y-52760000D03*
X119680000Y-55300000D03*
X119680000Y-57840000D03*
X119680000Y-60380000D03*
X119680000Y-62920000D03*
X119680000Y-65460000D03*
X119680000Y-68000000D03*
X117140000Y-50220000D03*
X117140000Y-52760000D03*
X117140000Y-55300000D03*
X117140000Y-57840000D03*
X117140000Y-60380000D03*
X117140000Y-62920000D03*
X117140000Y-65460000D03*
X117140000Y-68000000D03*
X137460000Y-50220000D03*
X137460000Y-52760000D03*
X137460000Y-55300000D03*
X137460000Y-57840000D03*
X137460000Y-60380000D03*
X137460000Y-62920000D03*
X137460000Y-65460000D03*
X137460000Y-68000000D03*
X140000000Y-50220000D03*
X140000000Y-52760000D03*
X140000000Y-55300000D03*
X140000000Y-57840000D03*
X140000000Y-60380000D03*
X140000000Y-62920000D03*
X140000000Y-65460000D03*
D12*
X140000000Y-68000000D03*
%TD*%
D13*
%TO.C,R1*%
X111900000Y-86320000D03*
D14*
X106820000Y-86320000D03*
%TD*%
D15*
%TO.C,POWER*%
X159200000Y-44200000D03*
D16*
X161700000Y-44200000D03*
%TD*%
D17*
%TO.C,M2*%
X155700000Y-80900000D03*
X153200000Y-80900000D03*
X150700000Y-80900000D03*
X148200000Y-80900000D03*
D18*
X145700000Y-80900000D03*
%TD*%
D17*
%TO.C,M1*%
X173100000Y-80900000D03*
X170600000Y-80900000D03*
X168100000Y-80900000D03*
X165600000Y-80900000D03*
D18*
X163100000Y-80900000D03*
%TD*%
D19*
%TO.C,GND*%
X184000000Y-63680000D03*
X184000000Y-61140000D03*
D20*
X184000000Y-58600000D03*
%TD*%
D16*
%TO.C,END_SW*%
X185700000Y-81000000D03*
D15*
X183200000Y-81000000D03*
%TD*%
D17*
%TO.C,DS18D1*%
X112200000Y-81300000D03*
X109700000Y-81300000D03*
D18*
X107200000Y-81300000D03*
%TD*%
D21*
%TO.C,C3 0.1uF*%
X185200000Y-73000000D03*
X182700000Y-73000000D03*
%TD*%
%TO.C,C1 10uF*%
X150600000Y-45000000D03*
D22*
X148100000Y-45000000D03*
%TD*%
D21*
%TO.C,C2 0.1uF*%
X171800000Y-44400000D03*
X169300000Y-44400000D03*
%TD*%
D19*
%TO.C,15 38 40*%
X112000000Y-45945000D03*
X112000000Y-48485000D03*
D20*
X112000000Y-51025000D03*
%TD*%
D19*
%TO.C,9 10 11 12 13 14*%
X135120000Y-81400000D03*
X132580000Y-81400000D03*
X130040000Y-81400000D03*
X127500000Y-81400000D03*
X124960000Y-81400000D03*
D20*
X122420000Y-81400000D03*
%TD*%
D19*
%TO.C,39 37 35 33 18 16*%
X112000000Y-55300000D03*
X112000000Y-57840000D03*
X112000000Y-60380000D03*
X112000000Y-62920000D03*
X112000000Y-65460000D03*
D20*
X112000000Y-68000000D03*
%TD*%
D19*
%TO.C,5V*%
X179500000Y-63665000D03*
X179500000Y-61125000D03*
D20*
X179500000Y-58585000D03*
%TD*%
D19*
%TO.C,3_3V*%
X188500000Y-63680000D03*
X188500000Y-61140000D03*
D20*
X188500000Y-58600000D03*
%TD*%
D17*
%TO.C,I2C_1*%
X122500000Y-95000000D03*
X120000000Y-95000000D03*
X117500000Y-95000000D03*
D18*
X115000000Y-95000000D03*
%TD*%
D23*
%TO.C,H2*%
X195000000Y-32000000D03*
%TD*%
D17*
%TO.C,I2C_5*%
X184250000Y-95000000D03*
X181750000Y-95000000D03*
X179250000Y-95000000D03*
D18*
X176750000Y-95000000D03*
%TD*%
D23*
%TO.C,H3*%
X104000000Y-96000000D03*
%TD*%
%TO.C,H1*%
X104000000Y-32000000D03*
%TD*%
D17*
%TO.C,I2C_2*%
X138000000Y-95000000D03*
X135500000Y-95000000D03*
X133000000Y-95000000D03*
D18*
X130500000Y-95000000D03*
%TD*%
D17*
%TO.C,I2C_4*%
X169000000Y-95000000D03*
X166500000Y-95000000D03*
X164000000Y-95000000D03*
D18*
X161500000Y-95000000D03*
%TD*%
D24*
%TO.C,D2*%
X188750000Y-48000000D03*
D25*
X178590000Y-48000000D03*
%TD*%
D23*
%TO.C,H4*%
X195000000Y-96000000D03*
%TD*%
D24*
%TO.C,D1*%
X188750000Y-42250000D03*
D25*
X178590000Y-42250000D03*
%TD*%
D17*
%TO.C,I2C_3*%
X153600000Y-95000000D03*
X151100000Y-95000000D03*
X148600000Y-95000000D03*
D18*
X146100000Y-95000000D03*
%TD*%
M02*
