%TF.GenerationSoftware,KiCad,Pcbnew,7.0.8*%
%TF.CreationDate,2024-02-29T15:37:24+01:00*%
%TF.ProjectId,COXY-V2,434f5859-2d56-4322-9e6b-696361645f70,rev?*%
%TF.SameCoordinates,Original*%
%TF.FileFunction,Legend,Top*%
%TF.FilePolarity,Positive*%
%FSLAX46Y46*%
G04 Gerber Fmt 4.6, Leading zero omitted, Abs format (unit mm)*
G04 Created by KiCad (PCBNEW 7.0.8) date 2024-02-29 15:37:24*
%MOMM*%
%LPD*%
G01*
G04 APERTURE LIST*
%ADD10C,0.150000*%
%ADD11C,0.200000*%
%ADD12C,0.127000*%
%ADD13C,0.120000*%
G04 APERTURE END LIST*
D10*
X115100000Y-92000000D02*
X115100000Y-92900000D01*
X120100000Y-92000000D02*
X120100000Y-92900000D01*
X122600000Y-92000000D02*
X122600000Y-92900000D01*
X117600000Y-92000000D02*
X117600000Y-92900000D01*
D11*
X117919600Y-91677945D02*
X117967219Y-91535088D01*
X117967219Y-91535088D02*
X117967219Y-91296993D01*
X117967219Y-91296993D02*
X117919600Y-91201755D01*
X117919600Y-91201755D02*
X117871980Y-91154136D01*
X117871980Y-91154136D02*
X117776742Y-91106517D01*
X117776742Y-91106517D02*
X117681504Y-91106517D01*
X117681504Y-91106517D02*
X117586266Y-91154136D01*
X117586266Y-91154136D02*
X117538647Y-91201755D01*
X117538647Y-91201755D02*
X117491028Y-91296993D01*
X117491028Y-91296993D02*
X117443409Y-91487469D01*
X117443409Y-91487469D02*
X117395790Y-91582707D01*
X117395790Y-91582707D02*
X117348171Y-91630326D01*
X117348171Y-91630326D02*
X117252933Y-91677945D01*
X117252933Y-91677945D02*
X117157695Y-91677945D01*
X117157695Y-91677945D02*
X117062457Y-91630326D01*
X117062457Y-91630326D02*
X117014838Y-91582707D01*
X117014838Y-91582707D02*
X116967219Y-91487469D01*
X116967219Y-91487469D02*
X116967219Y-91249374D01*
X116967219Y-91249374D02*
X117014838Y-91106517D01*
X117871980Y-90106517D02*
X117919600Y-90154136D01*
X117919600Y-90154136D02*
X117967219Y-90296993D01*
X117967219Y-90296993D02*
X117967219Y-90392231D01*
X117967219Y-90392231D02*
X117919600Y-90535088D01*
X117919600Y-90535088D02*
X117824361Y-90630326D01*
X117824361Y-90630326D02*
X117729123Y-90677945D01*
X117729123Y-90677945D02*
X117538647Y-90725564D01*
X117538647Y-90725564D02*
X117395790Y-90725564D01*
X117395790Y-90725564D02*
X117205314Y-90677945D01*
X117205314Y-90677945D02*
X117110076Y-90630326D01*
X117110076Y-90630326D02*
X117014838Y-90535088D01*
X117014838Y-90535088D02*
X116967219Y-90392231D01*
X116967219Y-90392231D02*
X116967219Y-90296993D01*
X116967219Y-90296993D02*
X117014838Y-90154136D01*
X117014838Y-90154136D02*
X117062457Y-90106517D01*
X117967219Y-89201755D02*
X117967219Y-89677945D01*
X117967219Y-89677945D02*
X116967219Y-89677945D01*
X145474435Y-78143409D02*
X145814435Y-78143409D01*
X145960149Y-78667219D02*
X145474435Y-78667219D01*
X145474435Y-78667219D02*
X145474435Y-77667219D01*
X145474435Y-77667219D02*
X145960149Y-77667219D01*
X148291578Y-78143409D02*
X147951578Y-78143409D01*
X147951578Y-78667219D02*
X147951578Y-77667219D01*
X147951578Y-77667219D02*
X148437292Y-77667219D01*
X150914435Y-77714838D02*
X150817293Y-77667219D01*
X150817293Y-77667219D02*
X150671578Y-77667219D01*
X150671578Y-77667219D02*
X150525864Y-77714838D01*
X150525864Y-77714838D02*
X150428721Y-77810076D01*
X150428721Y-77810076D02*
X150380150Y-77905314D01*
X150380150Y-77905314D02*
X150331578Y-78095790D01*
X150331578Y-78095790D02*
X150331578Y-78238647D01*
X150331578Y-78238647D02*
X150380150Y-78429123D01*
X150380150Y-78429123D02*
X150428721Y-78524361D01*
X150428721Y-78524361D02*
X150525864Y-78619600D01*
X150525864Y-78619600D02*
X150671578Y-78667219D01*
X150671578Y-78667219D02*
X150768721Y-78667219D01*
X150768721Y-78667219D02*
X150914435Y-78619600D01*
X150914435Y-78619600D02*
X150963007Y-78571980D01*
X150963007Y-78571980D02*
X150963007Y-78238647D01*
X150963007Y-78238647D02*
X150768721Y-78238647D01*
X152954436Y-78667219D02*
X152954436Y-77667219D01*
X152954436Y-78143409D02*
X153537293Y-78143409D01*
X153537293Y-78667219D02*
X153537293Y-77667219D01*
D10*
X161608207Y-47232390D02*
X161532017Y-47194295D01*
X161532017Y-47194295D02*
X161417731Y-47194295D01*
X161417731Y-47194295D02*
X161303445Y-47232390D01*
X161303445Y-47232390D02*
X161227255Y-47308580D01*
X161227255Y-47308580D02*
X161189160Y-47384771D01*
X161189160Y-47384771D02*
X161151064Y-47537152D01*
X161151064Y-47537152D02*
X161151064Y-47651438D01*
X161151064Y-47651438D02*
X161189160Y-47803819D01*
X161189160Y-47803819D02*
X161227255Y-47880009D01*
X161227255Y-47880009D02*
X161303445Y-47956200D01*
X161303445Y-47956200D02*
X161417731Y-47994295D01*
X161417731Y-47994295D02*
X161493922Y-47994295D01*
X161493922Y-47994295D02*
X161608207Y-47956200D01*
X161608207Y-47956200D02*
X161646303Y-47918104D01*
X161646303Y-47918104D02*
X161646303Y-47651438D01*
X161646303Y-47651438D02*
X161493922Y-47651438D01*
X161989160Y-47994295D02*
X161989160Y-47194295D01*
X161989160Y-47194295D02*
X162446303Y-47994295D01*
X162446303Y-47994295D02*
X162446303Y-47194295D01*
X162827255Y-47994295D02*
X162827255Y-47194295D01*
X162827255Y-47194295D02*
X163017731Y-47194295D01*
X163017731Y-47194295D02*
X163132017Y-47232390D01*
X163132017Y-47232390D02*
X163208207Y-47308580D01*
X163208207Y-47308580D02*
X163246302Y-47384771D01*
X163246302Y-47384771D02*
X163284398Y-47537152D01*
X163284398Y-47537152D02*
X163284398Y-47651438D01*
X163284398Y-47651438D02*
X163246302Y-47803819D01*
X163246302Y-47803819D02*
X163208207Y-47880009D01*
X163208207Y-47880009D02*
X163132017Y-47956200D01*
X163132017Y-47956200D02*
X163017731Y-47994295D01*
X163017731Y-47994295D02*
X162827255Y-47994295D01*
D11*
X119467219Y-91773183D02*
X120467219Y-91439850D01*
X120467219Y-91439850D02*
X119467219Y-91106517D01*
X120371980Y-90201755D02*
X120419600Y-90249374D01*
X120419600Y-90249374D02*
X120467219Y-90392231D01*
X120467219Y-90392231D02*
X120467219Y-90487469D01*
X120467219Y-90487469D02*
X120419600Y-90630326D01*
X120419600Y-90630326D02*
X120324361Y-90725564D01*
X120324361Y-90725564D02*
X120229123Y-90773183D01*
X120229123Y-90773183D02*
X120038647Y-90820802D01*
X120038647Y-90820802D02*
X119895790Y-90820802D01*
X119895790Y-90820802D02*
X119705314Y-90773183D01*
X119705314Y-90773183D02*
X119610076Y-90725564D01*
X119610076Y-90725564D02*
X119514838Y-90630326D01*
X119514838Y-90630326D02*
X119467219Y-90487469D01*
X119467219Y-90487469D02*
X119467219Y-90392231D01*
X119467219Y-90392231D02*
X119514838Y-90249374D01*
X119514838Y-90249374D02*
X119562457Y-90201755D01*
X120371980Y-89201755D02*
X120419600Y-89249374D01*
X120419600Y-89249374D02*
X120467219Y-89392231D01*
X120467219Y-89392231D02*
X120467219Y-89487469D01*
X120467219Y-89487469D02*
X120419600Y-89630326D01*
X120419600Y-89630326D02*
X120324361Y-89725564D01*
X120324361Y-89725564D02*
X120229123Y-89773183D01*
X120229123Y-89773183D02*
X120038647Y-89820802D01*
X120038647Y-89820802D02*
X119895790Y-89820802D01*
X119895790Y-89820802D02*
X119705314Y-89773183D01*
X119705314Y-89773183D02*
X119610076Y-89725564D01*
X119610076Y-89725564D02*
X119514838Y-89630326D01*
X119514838Y-89630326D02*
X119467219Y-89487469D01*
X119467219Y-89487469D02*
X119467219Y-89392231D01*
X119467219Y-89392231D02*
X119514838Y-89249374D01*
X119514838Y-89249374D02*
X119562457Y-89201755D01*
X115419600Y-91677945D02*
X115467219Y-91535088D01*
X115467219Y-91535088D02*
X115467219Y-91296993D01*
X115467219Y-91296993D02*
X115419600Y-91201755D01*
X115419600Y-91201755D02*
X115371980Y-91154136D01*
X115371980Y-91154136D02*
X115276742Y-91106517D01*
X115276742Y-91106517D02*
X115181504Y-91106517D01*
X115181504Y-91106517D02*
X115086266Y-91154136D01*
X115086266Y-91154136D02*
X115038647Y-91201755D01*
X115038647Y-91201755D02*
X114991028Y-91296993D01*
X114991028Y-91296993D02*
X114943409Y-91487469D01*
X114943409Y-91487469D02*
X114895790Y-91582707D01*
X114895790Y-91582707D02*
X114848171Y-91630326D01*
X114848171Y-91630326D02*
X114752933Y-91677945D01*
X114752933Y-91677945D02*
X114657695Y-91677945D01*
X114657695Y-91677945D02*
X114562457Y-91630326D01*
X114562457Y-91630326D02*
X114514838Y-91582707D01*
X114514838Y-91582707D02*
X114467219Y-91487469D01*
X114467219Y-91487469D02*
X114467219Y-91249374D01*
X114467219Y-91249374D02*
X114514838Y-91106517D01*
X115467219Y-90677945D02*
X114467219Y-90677945D01*
X114467219Y-90677945D02*
X114467219Y-90439850D01*
X114467219Y-90439850D02*
X114514838Y-90296993D01*
X114514838Y-90296993D02*
X114610076Y-90201755D01*
X114610076Y-90201755D02*
X114705314Y-90154136D01*
X114705314Y-90154136D02*
X114895790Y-90106517D01*
X114895790Y-90106517D02*
X115038647Y-90106517D01*
X115038647Y-90106517D02*
X115229123Y-90154136D01*
X115229123Y-90154136D02*
X115324361Y-90201755D01*
X115324361Y-90201755D02*
X115419600Y-90296993D01*
X115419600Y-90296993D02*
X115467219Y-90439850D01*
X115467219Y-90439850D02*
X115467219Y-90677945D01*
X115181504Y-89725564D02*
X115181504Y-89249374D01*
X115467219Y-89820802D02*
X114467219Y-89487469D01*
X114467219Y-89487469D02*
X115467219Y-89154136D01*
X152532780Y-53908720D02*
X152532780Y-53325863D01*
X152532780Y-53617292D02*
X153532780Y-53617292D01*
X153532780Y-53617292D02*
X153389923Y-53520149D01*
X153389923Y-53520149D02*
X153294685Y-53423006D01*
X153294685Y-53423006D02*
X153247066Y-53325863D01*
X153437542Y-55851578D02*
X153485161Y-55900150D01*
X153485161Y-55900150D02*
X153532780Y-55997293D01*
X153532780Y-55997293D02*
X153532780Y-56240150D01*
X153532780Y-56240150D02*
X153485161Y-56337293D01*
X153485161Y-56337293D02*
X153437542Y-56385864D01*
X153437542Y-56385864D02*
X153342304Y-56434435D01*
X153342304Y-56434435D02*
X153247066Y-56434435D01*
X153247066Y-56434435D02*
X153104209Y-56385864D01*
X153104209Y-56385864D02*
X152532780Y-55803007D01*
X152532780Y-55803007D02*
X152532780Y-56434435D01*
X153532780Y-58328722D02*
X153532780Y-58960150D01*
X153532780Y-58960150D02*
X153151828Y-58620150D01*
X153151828Y-58620150D02*
X153151828Y-58765865D01*
X153151828Y-58765865D02*
X153104209Y-58863008D01*
X153104209Y-58863008D02*
X153056590Y-58911579D01*
X153056590Y-58911579D02*
X152961352Y-58960150D01*
X152961352Y-58960150D02*
X152723257Y-58960150D01*
X152723257Y-58960150D02*
X152628019Y-58911579D01*
X152628019Y-58911579D02*
X152580400Y-58863008D01*
X152580400Y-58863008D02*
X152532780Y-58765865D01*
X152532780Y-58765865D02*
X152532780Y-58474436D01*
X152532780Y-58474436D02*
X152580400Y-58377293D01*
X152580400Y-58377293D02*
X152628019Y-58328722D01*
X153199447Y-61388723D02*
X152532780Y-61388723D01*
X153580400Y-61145865D02*
X152866114Y-60903008D01*
X152866114Y-60903008D02*
X152866114Y-61534437D01*
X153532780Y-63963009D02*
X153532780Y-63477295D01*
X153532780Y-63477295D02*
X153056590Y-63428723D01*
X153056590Y-63428723D02*
X153104209Y-63477295D01*
X153104209Y-63477295D02*
X153151828Y-63574438D01*
X153151828Y-63574438D02*
X153151828Y-63817295D01*
X153151828Y-63817295D02*
X153104209Y-63914438D01*
X153104209Y-63914438D02*
X153056590Y-63963009D01*
X153056590Y-63963009D02*
X152961352Y-64011580D01*
X152961352Y-64011580D02*
X152723257Y-64011580D01*
X152723257Y-64011580D02*
X152628019Y-63963009D01*
X152628019Y-63963009D02*
X152580400Y-63914438D01*
X152580400Y-63914438D02*
X152532780Y-63817295D01*
X152532780Y-63817295D02*
X152532780Y-63574438D01*
X152532780Y-63574438D02*
X152580400Y-63477295D01*
X152580400Y-63477295D02*
X152628019Y-63428723D01*
X153532780Y-66440153D02*
X153532780Y-66245867D01*
X153532780Y-66245867D02*
X153485161Y-66148724D01*
X153485161Y-66148724D02*
X153437542Y-66100153D01*
X153437542Y-66100153D02*
X153294685Y-66003010D01*
X153294685Y-66003010D02*
X153104209Y-65954438D01*
X153104209Y-65954438D02*
X152723257Y-65954438D01*
X152723257Y-65954438D02*
X152628019Y-66003010D01*
X152628019Y-66003010D02*
X152580400Y-66051581D01*
X152580400Y-66051581D02*
X152532780Y-66148724D01*
X152532780Y-66148724D02*
X152532780Y-66343010D01*
X152532780Y-66343010D02*
X152580400Y-66440153D01*
X152580400Y-66440153D02*
X152628019Y-66488724D01*
X152628019Y-66488724D02*
X152723257Y-66537295D01*
X152723257Y-66537295D02*
X152961352Y-66537295D01*
X152961352Y-66537295D02*
X153056590Y-66488724D01*
X153056590Y-66488724D02*
X153104209Y-66440153D01*
X153104209Y-66440153D02*
X153151828Y-66343010D01*
X153151828Y-66343010D02*
X153151828Y-66148724D01*
X153151828Y-66148724D02*
X153104209Y-66051581D01*
X153104209Y-66051581D02*
X153056590Y-66003010D01*
X153056590Y-66003010D02*
X152961352Y-65954438D01*
X153532780Y-68431582D02*
X153532780Y-69111582D01*
X153532780Y-69111582D02*
X152532780Y-68674439D01*
X153104209Y-71200154D02*
X153151828Y-71103011D01*
X153151828Y-71103011D02*
X153199447Y-71054440D01*
X153199447Y-71054440D02*
X153294685Y-71005868D01*
X153294685Y-71005868D02*
X153342304Y-71005868D01*
X153342304Y-71005868D02*
X153437542Y-71054440D01*
X153437542Y-71054440D02*
X153485161Y-71103011D01*
X153485161Y-71103011D02*
X153532780Y-71200154D01*
X153532780Y-71200154D02*
X153532780Y-71394440D01*
X153532780Y-71394440D02*
X153485161Y-71491583D01*
X153485161Y-71491583D02*
X153437542Y-71540154D01*
X153437542Y-71540154D02*
X153342304Y-71588725D01*
X153342304Y-71588725D02*
X153294685Y-71588725D01*
X153294685Y-71588725D02*
X153199447Y-71540154D01*
X153199447Y-71540154D02*
X153151828Y-71491583D01*
X153151828Y-71491583D02*
X153104209Y-71394440D01*
X153104209Y-71394440D02*
X153104209Y-71200154D01*
X153104209Y-71200154D02*
X153056590Y-71103011D01*
X153056590Y-71103011D02*
X153008971Y-71054440D01*
X153008971Y-71054440D02*
X152913733Y-71005868D01*
X152913733Y-71005868D02*
X152723257Y-71005868D01*
X152723257Y-71005868D02*
X152628019Y-71054440D01*
X152628019Y-71054440D02*
X152580400Y-71103011D01*
X152580400Y-71103011D02*
X152532780Y-71200154D01*
X152532780Y-71200154D02*
X152532780Y-71394440D01*
X152532780Y-71394440D02*
X152580400Y-71491583D01*
X152580400Y-71491583D02*
X152628019Y-71540154D01*
X152628019Y-71540154D02*
X152723257Y-71588725D01*
X152723257Y-71588725D02*
X152913733Y-71588725D01*
X152913733Y-71588725D02*
X153008971Y-71540154D01*
X153008971Y-71540154D02*
X153056590Y-71491583D01*
X153056590Y-71491583D02*
X153104209Y-71394440D01*
X162825863Y-78381504D02*
X163311578Y-78381504D01*
X162728720Y-78667219D02*
X163068720Y-77667219D01*
X163068720Y-77667219D02*
X163408720Y-78667219D01*
X165643007Y-78143409D02*
X165788721Y-78191028D01*
X165788721Y-78191028D02*
X165837292Y-78238647D01*
X165837292Y-78238647D02*
X165885864Y-78333885D01*
X165885864Y-78333885D02*
X165885864Y-78476742D01*
X165885864Y-78476742D02*
X165837292Y-78571980D01*
X165837292Y-78571980D02*
X165788721Y-78619600D01*
X165788721Y-78619600D02*
X165691578Y-78667219D01*
X165691578Y-78667219D02*
X165303007Y-78667219D01*
X165303007Y-78667219D02*
X165303007Y-77667219D01*
X165303007Y-77667219D02*
X165643007Y-77667219D01*
X165643007Y-77667219D02*
X165740150Y-77714838D01*
X165740150Y-77714838D02*
X165788721Y-77762457D01*
X165788721Y-77762457D02*
X165837292Y-77857695D01*
X165837292Y-77857695D02*
X165837292Y-77952933D01*
X165837292Y-77952933D02*
X165788721Y-78048171D01*
X165788721Y-78048171D02*
X165740150Y-78095790D01*
X165740150Y-78095790D02*
X165643007Y-78143409D01*
X165643007Y-78143409D02*
X165303007Y-78143409D01*
X168460150Y-78571980D02*
X168411578Y-78619600D01*
X168411578Y-78619600D02*
X168265864Y-78667219D01*
X168265864Y-78667219D02*
X168168721Y-78667219D01*
X168168721Y-78667219D02*
X168023007Y-78619600D01*
X168023007Y-78619600D02*
X167925864Y-78524361D01*
X167925864Y-78524361D02*
X167877293Y-78429123D01*
X167877293Y-78429123D02*
X167828721Y-78238647D01*
X167828721Y-78238647D02*
X167828721Y-78095790D01*
X167828721Y-78095790D02*
X167877293Y-77905314D01*
X167877293Y-77905314D02*
X167925864Y-77810076D01*
X167925864Y-77810076D02*
X168023007Y-77714838D01*
X168023007Y-77714838D02*
X168168721Y-77667219D01*
X168168721Y-77667219D02*
X168265864Y-77667219D01*
X168265864Y-77667219D02*
X168411578Y-77714838D01*
X168411578Y-77714838D02*
X168460150Y-77762457D01*
X170451579Y-78667219D02*
X170451579Y-77667219D01*
X170451579Y-77667219D02*
X170694436Y-77667219D01*
X170694436Y-77667219D02*
X170840150Y-77714838D01*
X170840150Y-77714838D02*
X170937293Y-77810076D01*
X170937293Y-77810076D02*
X170985864Y-77905314D01*
X170985864Y-77905314D02*
X171034436Y-78095790D01*
X171034436Y-78095790D02*
X171034436Y-78238647D01*
X171034436Y-78238647D02*
X170985864Y-78429123D01*
X170985864Y-78429123D02*
X170937293Y-78524361D01*
X170937293Y-78524361D02*
X170840150Y-78619600D01*
X170840150Y-78619600D02*
X170694436Y-78667219D01*
X170694436Y-78667219D02*
X170451579Y-78667219D01*
D10*
X157489160Y-47689533D02*
X158098684Y-47689533D01*
X157793922Y-47994295D02*
X157793922Y-47384771D01*
X158860588Y-47194295D02*
X158479636Y-47194295D01*
X158479636Y-47194295D02*
X158441540Y-47575247D01*
X158441540Y-47575247D02*
X158479636Y-47537152D01*
X158479636Y-47537152D02*
X158555826Y-47499057D01*
X158555826Y-47499057D02*
X158746302Y-47499057D01*
X158746302Y-47499057D02*
X158822493Y-47537152D01*
X158822493Y-47537152D02*
X158860588Y-47575247D01*
X158860588Y-47575247D02*
X158898683Y-47651438D01*
X158898683Y-47651438D02*
X158898683Y-47841914D01*
X158898683Y-47841914D02*
X158860588Y-47918104D01*
X158860588Y-47918104D02*
X158822493Y-47956200D01*
X158822493Y-47956200D02*
X158746302Y-47994295D01*
X158746302Y-47994295D02*
X158555826Y-47994295D01*
X158555826Y-47994295D02*
X158479636Y-47956200D01*
X158479636Y-47956200D02*
X158441540Y-47918104D01*
X159127255Y-47194295D02*
X159393922Y-47994295D01*
X159393922Y-47994295D02*
X159660588Y-47194295D01*
D11*
X155663733Y-77969673D02*
X155663733Y-78731578D01*
X155282780Y-78350625D02*
X156044685Y-78350625D01*
X122014838Y-91106517D02*
X121967219Y-91201755D01*
X121967219Y-91201755D02*
X121967219Y-91344612D01*
X121967219Y-91344612D02*
X122014838Y-91487469D01*
X122014838Y-91487469D02*
X122110076Y-91582707D01*
X122110076Y-91582707D02*
X122205314Y-91630326D01*
X122205314Y-91630326D02*
X122395790Y-91677945D01*
X122395790Y-91677945D02*
X122538647Y-91677945D01*
X122538647Y-91677945D02*
X122729123Y-91630326D01*
X122729123Y-91630326D02*
X122824361Y-91582707D01*
X122824361Y-91582707D02*
X122919600Y-91487469D01*
X122919600Y-91487469D02*
X122967219Y-91344612D01*
X122967219Y-91344612D02*
X122967219Y-91249374D01*
X122967219Y-91249374D02*
X122919600Y-91106517D01*
X122919600Y-91106517D02*
X122871980Y-91058898D01*
X122871980Y-91058898D02*
X122538647Y-91058898D01*
X122538647Y-91058898D02*
X122538647Y-91249374D01*
X122967219Y-90630326D02*
X121967219Y-90630326D01*
X121967219Y-90630326D02*
X122967219Y-90058898D01*
X122967219Y-90058898D02*
X121967219Y-90058898D01*
X122967219Y-89582707D02*
X121967219Y-89582707D01*
X121967219Y-89582707D02*
X121967219Y-89344612D01*
X121967219Y-89344612D02*
X122014838Y-89201755D01*
X122014838Y-89201755D02*
X122110076Y-89106517D01*
X122110076Y-89106517D02*
X122205314Y-89058898D01*
X122205314Y-89058898D02*
X122395790Y-89011279D01*
X122395790Y-89011279D02*
X122538647Y-89011279D01*
X122538647Y-89011279D02*
X122729123Y-89058898D01*
X122729123Y-89058898D02*
X122824361Y-89106517D01*
X122824361Y-89106517D02*
X122919600Y-89201755D01*
X122919600Y-89201755D02*
X122967219Y-89344612D01*
X122967219Y-89344612D02*
X122967219Y-89582707D01*
X166018495Y-53325863D02*
X166018495Y-53811578D01*
X165732780Y-53228720D02*
X166732780Y-53568720D01*
X166732780Y-53568720D02*
X165732780Y-53908720D01*
X166256590Y-56143007D02*
X166208971Y-56288721D01*
X166208971Y-56288721D02*
X166161352Y-56337292D01*
X166161352Y-56337292D02*
X166066114Y-56385864D01*
X166066114Y-56385864D02*
X165923257Y-56385864D01*
X165923257Y-56385864D02*
X165828019Y-56337292D01*
X165828019Y-56337292D02*
X165780400Y-56288721D01*
X165780400Y-56288721D02*
X165732780Y-56191578D01*
X165732780Y-56191578D02*
X165732780Y-55803007D01*
X165732780Y-55803007D02*
X166732780Y-55803007D01*
X166732780Y-55803007D02*
X166732780Y-56143007D01*
X166732780Y-56143007D02*
X166685161Y-56240150D01*
X166685161Y-56240150D02*
X166637542Y-56288721D01*
X166637542Y-56288721D02*
X166542304Y-56337292D01*
X166542304Y-56337292D02*
X166447066Y-56337292D01*
X166447066Y-56337292D02*
X166351828Y-56288721D01*
X166351828Y-56288721D02*
X166304209Y-56240150D01*
X166304209Y-56240150D02*
X166256590Y-56143007D01*
X166256590Y-56143007D02*
X166256590Y-55803007D01*
X165828019Y-58960150D02*
X165780400Y-58911578D01*
X165780400Y-58911578D02*
X165732780Y-58765864D01*
X165732780Y-58765864D02*
X165732780Y-58668721D01*
X165732780Y-58668721D02*
X165780400Y-58523007D01*
X165780400Y-58523007D02*
X165875638Y-58425864D01*
X165875638Y-58425864D02*
X165970876Y-58377293D01*
X165970876Y-58377293D02*
X166161352Y-58328721D01*
X166161352Y-58328721D02*
X166304209Y-58328721D01*
X166304209Y-58328721D02*
X166494685Y-58377293D01*
X166494685Y-58377293D02*
X166589923Y-58425864D01*
X166589923Y-58425864D02*
X166685161Y-58523007D01*
X166685161Y-58523007D02*
X166732780Y-58668721D01*
X166732780Y-58668721D02*
X166732780Y-58765864D01*
X166732780Y-58765864D02*
X166685161Y-58911578D01*
X166685161Y-58911578D02*
X166637542Y-58960150D01*
X165732780Y-60951579D02*
X166732780Y-60951579D01*
X166732780Y-60951579D02*
X166732780Y-61194436D01*
X166732780Y-61194436D02*
X166685161Y-61340150D01*
X166685161Y-61340150D02*
X166589923Y-61437293D01*
X166589923Y-61437293D02*
X166494685Y-61485864D01*
X166494685Y-61485864D02*
X166304209Y-61534436D01*
X166304209Y-61534436D02*
X166161352Y-61534436D01*
X166161352Y-61534436D02*
X165970876Y-61485864D01*
X165970876Y-61485864D02*
X165875638Y-61437293D01*
X165875638Y-61437293D02*
X165780400Y-61340150D01*
X165780400Y-61340150D02*
X165732780Y-61194436D01*
X165732780Y-61194436D02*
X165732780Y-60951579D01*
X166256590Y-63525865D02*
X166256590Y-63865865D01*
X165732780Y-64011579D02*
X165732780Y-63525865D01*
X165732780Y-63525865D02*
X166732780Y-63525865D01*
X166732780Y-63525865D02*
X166732780Y-64011579D01*
X166256590Y-66343008D02*
X166256590Y-66003008D01*
X165732780Y-66003008D02*
X166732780Y-66003008D01*
X166732780Y-66003008D02*
X166732780Y-66488722D01*
X166685161Y-68965865D02*
X166732780Y-68868723D01*
X166732780Y-68868723D02*
X166732780Y-68723008D01*
X166732780Y-68723008D02*
X166685161Y-68577294D01*
X166685161Y-68577294D02*
X166589923Y-68480151D01*
X166589923Y-68480151D02*
X166494685Y-68431580D01*
X166494685Y-68431580D02*
X166304209Y-68383008D01*
X166304209Y-68383008D02*
X166161352Y-68383008D01*
X166161352Y-68383008D02*
X165970876Y-68431580D01*
X165970876Y-68431580D02*
X165875638Y-68480151D01*
X165875638Y-68480151D02*
X165780400Y-68577294D01*
X165780400Y-68577294D02*
X165732780Y-68723008D01*
X165732780Y-68723008D02*
X165732780Y-68820151D01*
X165732780Y-68820151D02*
X165780400Y-68965865D01*
X165780400Y-68965865D02*
X165828019Y-69014437D01*
X165828019Y-69014437D02*
X166161352Y-69014437D01*
X166161352Y-69014437D02*
X166161352Y-68820151D01*
X165732780Y-71005866D02*
X166732780Y-71005866D01*
X166256590Y-71005866D02*
X166256590Y-71588723D01*
X165732780Y-71588723D02*
X166732780Y-71588723D01*
X173113733Y-77869673D02*
X173113733Y-78631578D01*
X172732780Y-78250625D02*
X173494685Y-78250625D01*
D10*
X158528095Y-50594819D02*
X158528095Y-51404342D01*
X158528095Y-51404342D02*
X158575714Y-51499580D01*
X158575714Y-51499580D02*
X158623333Y-51547200D01*
X158623333Y-51547200D02*
X158718571Y-51594819D01*
X158718571Y-51594819D02*
X158909047Y-51594819D01*
X158909047Y-51594819D02*
X159004285Y-51547200D01*
X159004285Y-51547200D02*
X159051904Y-51499580D01*
X159051904Y-51499580D02*
X159099523Y-51404342D01*
X159099523Y-51404342D02*
X159099523Y-50594819D01*
X160099523Y-51594819D02*
X159528095Y-51594819D01*
X159813809Y-51594819D02*
X159813809Y-50594819D01*
X159813809Y-50594819D02*
X159718571Y-50737676D01*
X159718571Y-50737676D02*
X159623333Y-50832914D01*
X159623333Y-50832914D02*
X159528095Y-50880533D01*
X121619048Y-44407200D02*
X121761905Y-44454819D01*
X121761905Y-44454819D02*
X122000000Y-44454819D01*
X122000000Y-44454819D02*
X122095238Y-44407200D01*
X122095238Y-44407200D02*
X122142857Y-44359580D01*
X122142857Y-44359580D02*
X122190476Y-44264342D01*
X122190476Y-44264342D02*
X122190476Y-44169104D01*
X122190476Y-44169104D02*
X122142857Y-44073866D01*
X122142857Y-44073866D02*
X122095238Y-44026247D01*
X122095238Y-44026247D02*
X122000000Y-43978628D01*
X122000000Y-43978628D02*
X121809524Y-43931009D01*
X121809524Y-43931009D02*
X121714286Y-43883390D01*
X121714286Y-43883390D02*
X121666667Y-43835771D01*
X121666667Y-43835771D02*
X121619048Y-43740533D01*
X121619048Y-43740533D02*
X121619048Y-43645295D01*
X121619048Y-43645295D02*
X121666667Y-43550057D01*
X121666667Y-43550057D02*
X121714286Y-43502438D01*
X121714286Y-43502438D02*
X121809524Y-43454819D01*
X121809524Y-43454819D02*
X122047619Y-43454819D01*
X122047619Y-43454819D02*
X122190476Y-43502438D01*
X122571429Y-43550057D02*
X122619048Y-43502438D01*
X122619048Y-43502438D02*
X122714286Y-43454819D01*
X122714286Y-43454819D02*
X122952381Y-43454819D01*
X122952381Y-43454819D02*
X123047619Y-43502438D01*
X123047619Y-43502438D02*
X123095238Y-43550057D01*
X123095238Y-43550057D02*
X123142857Y-43645295D01*
X123142857Y-43645295D02*
X123142857Y-43740533D01*
X123142857Y-43740533D02*
X123095238Y-43883390D01*
X123095238Y-43883390D02*
X122523810Y-44454819D01*
X122523810Y-44454819D02*
X123142857Y-44454819D01*
X123571429Y-44073866D02*
X124333334Y-44073866D01*
X124809524Y-44454819D02*
X124809524Y-43454819D01*
X124809524Y-43454819D02*
X125142857Y-44169104D01*
X125142857Y-44169104D02*
X125476190Y-43454819D01*
X125476190Y-43454819D02*
X125476190Y-44454819D01*
X125952381Y-44454819D02*
X125952381Y-43788152D01*
X125952381Y-43454819D02*
X125904762Y-43502438D01*
X125904762Y-43502438D02*
X125952381Y-43550057D01*
X125952381Y-43550057D02*
X126000000Y-43502438D01*
X126000000Y-43502438D02*
X125952381Y-43454819D01*
X125952381Y-43454819D02*
X125952381Y-43550057D01*
X126428571Y-43788152D02*
X126428571Y-44454819D01*
X126428571Y-43883390D02*
X126476190Y-43835771D01*
X126476190Y-43835771D02*
X126571428Y-43788152D01*
X126571428Y-43788152D02*
X126714285Y-43788152D01*
X126714285Y-43788152D02*
X126809523Y-43835771D01*
X126809523Y-43835771D02*
X126857142Y-43931009D01*
X126857142Y-43931009D02*
X126857142Y-44454819D01*
X127333333Y-44454819D02*
X127333333Y-43788152D01*
X127333333Y-43454819D02*
X127285714Y-43502438D01*
X127285714Y-43502438D02*
X127333333Y-43550057D01*
X127333333Y-43550057D02*
X127380952Y-43502438D01*
X127380952Y-43502438D02*
X127333333Y-43454819D01*
X127333333Y-43454819D02*
X127333333Y-43550057D01*
X127809523Y-44073866D02*
X128571428Y-44073866D01*
X129047618Y-43931009D02*
X129380951Y-43931009D01*
X129523808Y-44454819D02*
X129047618Y-44454819D01*
X129047618Y-44454819D02*
X129047618Y-43454819D01*
X129047618Y-43454819D02*
X129523808Y-43454819D01*
X129904761Y-44407200D02*
X130047618Y-44454819D01*
X130047618Y-44454819D02*
X130285713Y-44454819D01*
X130285713Y-44454819D02*
X130380951Y-44407200D01*
X130380951Y-44407200D02*
X130428570Y-44359580D01*
X130428570Y-44359580D02*
X130476189Y-44264342D01*
X130476189Y-44264342D02*
X130476189Y-44169104D01*
X130476189Y-44169104D02*
X130428570Y-44073866D01*
X130428570Y-44073866D02*
X130380951Y-44026247D01*
X130380951Y-44026247D02*
X130285713Y-43978628D01*
X130285713Y-43978628D02*
X130095237Y-43931009D01*
X130095237Y-43931009D02*
X129999999Y-43883390D01*
X129999999Y-43883390D02*
X129952380Y-43835771D01*
X129952380Y-43835771D02*
X129904761Y-43740533D01*
X129904761Y-43740533D02*
X129904761Y-43645295D01*
X129904761Y-43645295D02*
X129952380Y-43550057D01*
X129952380Y-43550057D02*
X129999999Y-43502438D01*
X129999999Y-43502438D02*
X130095237Y-43454819D01*
X130095237Y-43454819D02*
X130333332Y-43454819D01*
X130333332Y-43454819D02*
X130476189Y-43502438D01*
X130904761Y-44454819D02*
X130904761Y-43454819D01*
X130904761Y-43454819D02*
X131285713Y-43454819D01*
X131285713Y-43454819D02*
X131380951Y-43502438D01*
X131380951Y-43502438D02*
X131428570Y-43550057D01*
X131428570Y-43550057D02*
X131476189Y-43645295D01*
X131476189Y-43645295D02*
X131476189Y-43788152D01*
X131476189Y-43788152D02*
X131428570Y-43883390D01*
X131428570Y-43883390D02*
X131380951Y-43931009D01*
X131380951Y-43931009D02*
X131285713Y-43978628D01*
X131285713Y-43978628D02*
X130904761Y-43978628D01*
X131809523Y-43454819D02*
X132428570Y-43454819D01*
X132428570Y-43454819D02*
X132095237Y-43835771D01*
X132095237Y-43835771D02*
X132238094Y-43835771D01*
X132238094Y-43835771D02*
X132333332Y-43883390D01*
X132333332Y-43883390D02*
X132380951Y-43931009D01*
X132380951Y-43931009D02*
X132428570Y-44026247D01*
X132428570Y-44026247D02*
X132428570Y-44264342D01*
X132428570Y-44264342D02*
X132380951Y-44359580D01*
X132380951Y-44359580D02*
X132333332Y-44407200D01*
X132333332Y-44407200D02*
X132238094Y-44454819D01*
X132238094Y-44454819D02*
X131952380Y-44454819D01*
X131952380Y-44454819D02*
X131857142Y-44407200D01*
X131857142Y-44407200D02*
X131809523Y-44359580D01*
X132809523Y-43550057D02*
X132857142Y-43502438D01*
X132857142Y-43502438D02*
X132952380Y-43454819D01*
X132952380Y-43454819D02*
X133190475Y-43454819D01*
X133190475Y-43454819D02*
X133285713Y-43502438D01*
X133285713Y-43502438D02*
X133333332Y-43550057D01*
X133333332Y-43550057D02*
X133380951Y-43645295D01*
X133380951Y-43645295D02*
X133380951Y-43740533D01*
X133380951Y-43740533D02*
X133333332Y-43883390D01*
X133333332Y-43883390D02*
X132761904Y-44454819D01*
X132761904Y-44454819D02*
X133380951Y-44454819D01*
X109193333Y-84854819D02*
X108860000Y-84378628D01*
X108621905Y-84854819D02*
X108621905Y-83854819D01*
X108621905Y-83854819D02*
X109002857Y-83854819D01*
X109002857Y-83854819D02*
X109098095Y-83902438D01*
X109098095Y-83902438D02*
X109145714Y-83950057D01*
X109145714Y-83950057D02*
X109193333Y-84045295D01*
X109193333Y-84045295D02*
X109193333Y-84188152D01*
X109193333Y-84188152D02*
X109145714Y-84283390D01*
X109145714Y-84283390D02*
X109098095Y-84331009D01*
X109098095Y-84331009D02*
X109002857Y-84378628D01*
X109002857Y-84378628D02*
X108621905Y-84378628D01*
X110145714Y-84854819D02*
X109574286Y-84854819D01*
X109860000Y-84854819D02*
X109860000Y-83854819D01*
X109860000Y-83854819D02*
X109764762Y-83997676D01*
X109764762Y-83997676D02*
X109669524Y-84092914D01*
X109669524Y-84092914D02*
X109574286Y-84140533D01*
X158452381Y-41562295D02*
X158452381Y-40762295D01*
X158452381Y-40762295D02*
X158757143Y-40762295D01*
X158757143Y-40762295D02*
X158833333Y-40800390D01*
X158833333Y-40800390D02*
X158871428Y-40838485D01*
X158871428Y-40838485D02*
X158909524Y-40914676D01*
X158909524Y-40914676D02*
X158909524Y-41028961D01*
X158909524Y-41028961D02*
X158871428Y-41105152D01*
X158871428Y-41105152D02*
X158833333Y-41143247D01*
X158833333Y-41143247D02*
X158757143Y-41181342D01*
X158757143Y-41181342D02*
X158452381Y-41181342D01*
X159404762Y-40762295D02*
X159557143Y-40762295D01*
X159557143Y-40762295D02*
X159633333Y-40800390D01*
X159633333Y-40800390D02*
X159709524Y-40876580D01*
X159709524Y-40876580D02*
X159747619Y-41028961D01*
X159747619Y-41028961D02*
X159747619Y-41295628D01*
X159747619Y-41295628D02*
X159709524Y-41448009D01*
X159709524Y-41448009D02*
X159633333Y-41524200D01*
X159633333Y-41524200D02*
X159557143Y-41562295D01*
X159557143Y-41562295D02*
X159404762Y-41562295D01*
X159404762Y-41562295D02*
X159328571Y-41524200D01*
X159328571Y-41524200D02*
X159252381Y-41448009D01*
X159252381Y-41448009D02*
X159214285Y-41295628D01*
X159214285Y-41295628D02*
X159214285Y-41028961D01*
X159214285Y-41028961D02*
X159252381Y-40876580D01*
X159252381Y-40876580D02*
X159328571Y-40800390D01*
X159328571Y-40800390D02*
X159404762Y-40762295D01*
X160014285Y-40762295D02*
X160204761Y-41562295D01*
X160204761Y-41562295D02*
X160357142Y-40990866D01*
X160357142Y-40990866D02*
X160509523Y-41562295D01*
X160509523Y-41562295D02*
X160700000Y-40762295D01*
X161004762Y-41143247D02*
X161271428Y-41143247D01*
X161385714Y-41562295D02*
X161004762Y-41562295D01*
X161004762Y-41562295D02*
X161004762Y-40762295D01*
X161004762Y-40762295D02*
X161385714Y-40762295D01*
X162185715Y-41562295D02*
X161919048Y-41181342D01*
X161728572Y-41562295D02*
X161728572Y-40762295D01*
X161728572Y-40762295D02*
X162033334Y-40762295D01*
X162033334Y-40762295D02*
X162109524Y-40800390D01*
X162109524Y-40800390D02*
X162147619Y-40838485D01*
X162147619Y-40838485D02*
X162185715Y-40914676D01*
X162185715Y-40914676D02*
X162185715Y-41028961D01*
X162185715Y-41028961D02*
X162147619Y-41105152D01*
X162147619Y-41105152D02*
X162109524Y-41143247D01*
X162109524Y-41143247D02*
X162033334Y-41181342D01*
X162033334Y-41181342D02*
X161728572Y-41181342D01*
X149790476Y-85354819D02*
X149790476Y-84354819D01*
X149790476Y-84354819D02*
X150123809Y-85069104D01*
X150123809Y-85069104D02*
X150457142Y-84354819D01*
X150457142Y-84354819D02*
X150457142Y-85354819D01*
X150885714Y-84450057D02*
X150933333Y-84402438D01*
X150933333Y-84402438D02*
X151028571Y-84354819D01*
X151028571Y-84354819D02*
X151266666Y-84354819D01*
X151266666Y-84354819D02*
X151361904Y-84402438D01*
X151361904Y-84402438D02*
X151409523Y-84450057D01*
X151409523Y-84450057D02*
X151457142Y-84545295D01*
X151457142Y-84545295D02*
X151457142Y-84640533D01*
X151457142Y-84640533D02*
X151409523Y-84783390D01*
X151409523Y-84783390D02*
X150838095Y-85354819D01*
X150838095Y-85354819D02*
X151457142Y-85354819D01*
X167290476Y-85454819D02*
X167290476Y-84454819D01*
X167290476Y-84454819D02*
X167623809Y-85169104D01*
X167623809Y-85169104D02*
X167957142Y-84454819D01*
X167957142Y-84454819D02*
X167957142Y-85454819D01*
X168957142Y-85454819D02*
X168385714Y-85454819D01*
X168671428Y-85454819D02*
X168671428Y-84454819D01*
X168671428Y-84454819D02*
X168576190Y-84597676D01*
X168576190Y-84597676D02*
X168480952Y-84692914D01*
X168480952Y-84692914D02*
X168385714Y-84740533D01*
X183390476Y-55625390D02*
X183314286Y-55587295D01*
X183314286Y-55587295D02*
X183200000Y-55587295D01*
X183200000Y-55587295D02*
X183085714Y-55625390D01*
X183085714Y-55625390D02*
X183009524Y-55701580D01*
X183009524Y-55701580D02*
X182971429Y-55777771D01*
X182971429Y-55777771D02*
X182933333Y-55930152D01*
X182933333Y-55930152D02*
X182933333Y-56044438D01*
X182933333Y-56044438D02*
X182971429Y-56196819D01*
X182971429Y-56196819D02*
X183009524Y-56273009D01*
X183009524Y-56273009D02*
X183085714Y-56349200D01*
X183085714Y-56349200D02*
X183200000Y-56387295D01*
X183200000Y-56387295D02*
X183276191Y-56387295D01*
X183276191Y-56387295D02*
X183390476Y-56349200D01*
X183390476Y-56349200D02*
X183428572Y-56311104D01*
X183428572Y-56311104D02*
X183428572Y-56044438D01*
X183428572Y-56044438D02*
X183276191Y-56044438D01*
X183771429Y-56387295D02*
X183771429Y-55587295D01*
X183771429Y-55587295D02*
X184228572Y-56387295D01*
X184228572Y-56387295D02*
X184228572Y-55587295D01*
X184609524Y-56387295D02*
X184609524Y-55587295D01*
X184609524Y-55587295D02*
X184800000Y-55587295D01*
X184800000Y-55587295D02*
X184914286Y-55625390D01*
X184914286Y-55625390D02*
X184990476Y-55701580D01*
X184990476Y-55701580D02*
X185028571Y-55777771D01*
X185028571Y-55777771D02*
X185066667Y-55930152D01*
X185066667Y-55930152D02*
X185066667Y-56044438D01*
X185066667Y-56044438D02*
X185028571Y-56196819D01*
X185028571Y-56196819D02*
X184990476Y-56273009D01*
X184990476Y-56273009D02*
X184914286Y-56349200D01*
X184914286Y-56349200D02*
X184800000Y-56387295D01*
X184800000Y-56387295D02*
X184609524Y-56387295D01*
X182316666Y-78143247D02*
X182583332Y-78143247D01*
X182697618Y-78562295D02*
X182316666Y-78562295D01*
X182316666Y-78562295D02*
X182316666Y-77762295D01*
X182316666Y-77762295D02*
X182697618Y-77762295D01*
X183040476Y-78562295D02*
X183040476Y-77762295D01*
X183040476Y-77762295D02*
X183497619Y-78562295D01*
X183497619Y-78562295D02*
X183497619Y-77762295D01*
X183878571Y-78562295D02*
X183878571Y-77762295D01*
X183878571Y-77762295D02*
X184069047Y-77762295D01*
X184069047Y-77762295D02*
X184183333Y-77800390D01*
X184183333Y-77800390D02*
X184259523Y-77876580D01*
X184259523Y-77876580D02*
X184297618Y-77952771D01*
X184297618Y-77952771D02*
X184335714Y-78105152D01*
X184335714Y-78105152D02*
X184335714Y-78219438D01*
X184335714Y-78219438D02*
X184297618Y-78371819D01*
X184297618Y-78371819D02*
X184259523Y-78448009D01*
X184259523Y-78448009D02*
X184183333Y-78524200D01*
X184183333Y-78524200D02*
X184069047Y-78562295D01*
X184069047Y-78562295D02*
X183878571Y-78562295D01*
X184488095Y-78638485D02*
X185097618Y-78638485D01*
X185249999Y-78524200D02*
X185364285Y-78562295D01*
X185364285Y-78562295D02*
X185554761Y-78562295D01*
X185554761Y-78562295D02*
X185630952Y-78524200D01*
X185630952Y-78524200D02*
X185669047Y-78486104D01*
X185669047Y-78486104D02*
X185707142Y-78409914D01*
X185707142Y-78409914D02*
X185707142Y-78333723D01*
X185707142Y-78333723D02*
X185669047Y-78257533D01*
X185669047Y-78257533D02*
X185630952Y-78219438D01*
X185630952Y-78219438D02*
X185554761Y-78181342D01*
X185554761Y-78181342D02*
X185402380Y-78143247D01*
X185402380Y-78143247D02*
X185326190Y-78105152D01*
X185326190Y-78105152D02*
X185288095Y-78067057D01*
X185288095Y-78067057D02*
X185249999Y-77990866D01*
X185249999Y-77990866D02*
X185249999Y-77914676D01*
X185249999Y-77914676D02*
X185288095Y-77838485D01*
X185288095Y-77838485D02*
X185326190Y-77800390D01*
X185326190Y-77800390D02*
X185402380Y-77762295D01*
X185402380Y-77762295D02*
X185592857Y-77762295D01*
X185592857Y-77762295D02*
X185707142Y-77800390D01*
X185973809Y-77762295D02*
X186164285Y-78562295D01*
X186164285Y-78562295D02*
X186316666Y-77990866D01*
X186316666Y-77990866D02*
X186469047Y-78562295D01*
X186469047Y-78562295D02*
X186659524Y-77762295D01*
X107033333Y-78954819D02*
X107033333Y-77954819D01*
X107033333Y-77954819D02*
X107271428Y-77954819D01*
X107271428Y-77954819D02*
X107414285Y-78002438D01*
X107414285Y-78002438D02*
X107509523Y-78097676D01*
X107509523Y-78097676D02*
X107557142Y-78192914D01*
X107557142Y-78192914D02*
X107604761Y-78383390D01*
X107604761Y-78383390D02*
X107604761Y-78526247D01*
X107604761Y-78526247D02*
X107557142Y-78716723D01*
X107557142Y-78716723D02*
X107509523Y-78811961D01*
X107509523Y-78811961D02*
X107414285Y-78907200D01*
X107414285Y-78907200D02*
X107271428Y-78954819D01*
X107271428Y-78954819D02*
X107033333Y-78954819D01*
X107985714Y-78907200D02*
X108128571Y-78954819D01*
X108128571Y-78954819D02*
X108366666Y-78954819D01*
X108366666Y-78954819D02*
X108461904Y-78907200D01*
X108461904Y-78907200D02*
X108509523Y-78859580D01*
X108509523Y-78859580D02*
X108557142Y-78764342D01*
X108557142Y-78764342D02*
X108557142Y-78669104D01*
X108557142Y-78669104D02*
X108509523Y-78573866D01*
X108509523Y-78573866D02*
X108461904Y-78526247D01*
X108461904Y-78526247D02*
X108366666Y-78478628D01*
X108366666Y-78478628D02*
X108176190Y-78431009D01*
X108176190Y-78431009D02*
X108080952Y-78383390D01*
X108080952Y-78383390D02*
X108033333Y-78335771D01*
X108033333Y-78335771D02*
X107985714Y-78240533D01*
X107985714Y-78240533D02*
X107985714Y-78145295D01*
X107985714Y-78145295D02*
X108033333Y-78050057D01*
X108033333Y-78050057D02*
X108080952Y-78002438D01*
X108080952Y-78002438D02*
X108176190Y-77954819D01*
X108176190Y-77954819D02*
X108414285Y-77954819D01*
X108414285Y-77954819D02*
X108557142Y-78002438D01*
X109509523Y-78954819D02*
X108938095Y-78954819D01*
X109223809Y-78954819D02*
X109223809Y-77954819D01*
X109223809Y-77954819D02*
X109128571Y-78097676D01*
X109128571Y-78097676D02*
X109033333Y-78192914D01*
X109033333Y-78192914D02*
X108938095Y-78240533D01*
X110080952Y-78383390D02*
X109985714Y-78335771D01*
X109985714Y-78335771D02*
X109938095Y-78288152D01*
X109938095Y-78288152D02*
X109890476Y-78192914D01*
X109890476Y-78192914D02*
X109890476Y-78145295D01*
X109890476Y-78145295D02*
X109938095Y-78050057D01*
X109938095Y-78050057D02*
X109985714Y-78002438D01*
X109985714Y-78002438D02*
X110080952Y-77954819D01*
X110080952Y-77954819D02*
X110271428Y-77954819D01*
X110271428Y-77954819D02*
X110366666Y-78002438D01*
X110366666Y-78002438D02*
X110414285Y-78050057D01*
X110414285Y-78050057D02*
X110461904Y-78145295D01*
X110461904Y-78145295D02*
X110461904Y-78192914D01*
X110461904Y-78192914D02*
X110414285Y-78288152D01*
X110414285Y-78288152D02*
X110366666Y-78335771D01*
X110366666Y-78335771D02*
X110271428Y-78383390D01*
X110271428Y-78383390D02*
X110080952Y-78383390D01*
X110080952Y-78383390D02*
X109985714Y-78431009D01*
X109985714Y-78431009D02*
X109938095Y-78478628D01*
X109938095Y-78478628D02*
X109890476Y-78573866D01*
X109890476Y-78573866D02*
X109890476Y-78764342D01*
X109890476Y-78764342D02*
X109938095Y-78859580D01*
X109938095Y-78859580D02*
X109985714Y-78907200D01*
X109985714Y-78907200D02*
X110080952Y-78954819D01*
X110080952Y-78954819D02*
X110271428Y-78954819D01*
X110271428Y-78954819D02*
X110366666Y-78907200D01*
X110366666Y-78907200D02*
X110414285Y-78859580D01*
X110414285Y-78859580D02*
X110461904Y-78764342D01*
X110461904Y-78764342D02*
X110461904Y-78573866D01*
X110461904Y-78573866D02*
X110414285Y-78478628D01*
X110414285Y-78478628D02*
X110366666Y-78431009D01*
X110366666Y-78431009D02*
X110271428Y-78383390D01*
X110890476Y-78954819D02*
X110890476Y-77954819D01*
X110890476Y-77954819D02*
X111128571Y-77954819D01*
X111128571Y-77954819D02*
X111271428Y-78002438D01*
X111271428Y-78002438D02*
X111366666Y-78097676D01*
X111366666Y-78097676D02*
X111414285Y-78192914D01*
X111414285Y-78192914D02*
X111461904Y-78383390D01*
X111461904Y-78383390D02*
X111461904Y-78526247D01*
X111461904Y-78526247D02*
X111414285Y-78716723D01*
X111414285Y-78716723D02*
X111366666Y-78811961D01*
X111366666Y-78811961D02*
X111271428Y-78907200D01*
X111271428Y-78907200D02*
X111128571Y-78954819D01*
X111128571Y-78954819D02*
X110890476Y-78954819D01*
X112414285Y-78954819D02*
X111842857Y-78954819D01*
X112128571Y-78954819D02*
X112128571Y-77954819D01*
X112128571Y-77954819D02*
X112033333Y-78097676D01*
X112033333Y-78097676D02*
X111938095Y-78192914D01*
X111938095Y-78192914D02*
X111842857Y-78240533D01*
X181854762Y-70736104D02*
X181816666Y-70774200D01*
X181816666Y-70774200D02*
X181702381Y-70812295D01*
X181702381Y-70812295D02*
X181626190Y-70812295D01*
X181626190Y-70812295D02*
X181511904Y-70774200D01*
X181511904Y-70774200D02*
X181435714Y-70698009D01*
X181435714Y-70698009D02*
X181397619Y-70621819D01*
X181397619Y-70621819D02*
X181359523Y-70469438D01*
X181359523Y-70469438D02*
X181359523Y-70355152D01*
X181359523Y-70355152D02*
X181397619Y-70202771D01*
X181397619Y-70202771D02*
X181435714Y-70126580D01*
X181435714Y-70126580D02*
X181511904Y-70050390D01*
X181511904Y-70050390D02*
X181626190Y-70012295D01*
X181626190Y-70012295D02*
X181702381Y-70012295D01*
X181702381Y-70012295D02*
X181816666Y-70050390D01*
X181816666Y-70050390D02*
X181854762Y-70088485D01*
X182121428Y-70012295D02*
X182616666Y-70012295D01*
X182616666Y-70012295D02*
X182350000Y-70317057D01*
X182350000Y-70317057D02*
X182464285Y-70317057D01*
X182464285Y-70317057D02*
X182540476Y-70355152D01*
X182540476Y-70355152D02*
X182578571Y-70393247D01*
X182578571Y-70393247D02*
X182616666Y-70469438D01*
X182616666Y-70469438D02*
X182616666Y-70659914D01*
X182616666Y-70659914D02*
X182578571Y-70736104D01*
X182578571Y-70736104D02*
X182540476Y-70774200D01*
X182540476Y-70774200D02*
X182464285Y-70812295D01*
X182464285Y-70812295D02*
X182235714Y-70812295D01*
X182235714Y-70812295D02*
X182159523Y-70774200D01*
X182159523Y-70774200D02*
X182121428Y-70736104D01*
X183721429Y-70012295D02*
X183797619Y-70012295D01*
X183797619Y-70012295D02*
X183873810Y-70050390D01*
X183873810Y-70050390D02*
X183911905Y-70088485D01*
X183911905Y-70088485D02*
X183950000Y-70164676D01*
X183950000Y-70164676D02*
X183988095Y-70317057D01*
X183988095Y-70317057D02*
X183988095Y-70507533D01*
X183988095Y-70507533D02*
X183950000Y-70659914D01*
X183950000Y-70659914D02*
X183911905Y-70736104D01*
X183911905Y-70736104D02*
X183873810Y-70774200D01*
X183873810Y-70774200D02*
X183797619Y-70812295D01*
X183797619Y-70812295D02*
X183721429Y-70812295D01*
X183721429Y-70812295D02*
X183645238Y-70774200D01*
X183645238Y-70774200D02*
X183607143Y-70736104D01*
X183607143Y-70736104D02*
X183569048Y-70659914D01*
X183569048Y-70659914D02*
X183530952Y-70507533D01*
X183530952Y-70507533D02*
X183530952Y-70317057D01*
X183530952Y-70317057D02*
X183569048Y-70164676D01*
X183569048Y-70164676D02*
X183607143Y-70088485D01*
X183607143Y-70088485D02*
X183645238Y-70050390D01*
X183645238Y-70050390D02*
X183721429Y-70012295D01*
X184330953Y-70736104D02*
X184369048Y-70774200D01*
X184369048Y-70774200D02*
X184330953Y-70812295D01*
X184330953Y-70812295D02*
X184292857Y-70774200D01*
X184292857Y-70774200D02*
X184330953Y-70736104D01*
X184330953Y-70736104D02*
X184330953Y-70812295D01*
X185130952Y-70812295D02*
X184673809Y-70812295D01*
X184902381Y-70812295D02*
X184902381Y-70012295D01*
X184902381Y-70012295D02*
X184826190Y-70126580D01*
X184826190Y-70126580D02*
X184750000Y-70202771D01*
X184750000Y-70202771D02*
X184673809Y-70240866D01*
X185816667Y-70278961D02*
X185816667Y-70812295D01*
X185473810Y-70278961D02*
X185473810Y-70698009D01*
X185473810Y-70698009D02*
X185511905Y-70774200D01*
X185511905Y-70774200D02*
X185588095Y-70812295D01*
X185588095Y-70812295D02*
X185702381Y-70812295D01*
X185702381Y-70812295D02*
X185778572Y-70774200D01*
X185778572Y-70774200D02*
X185816667Y-70736104D01*
X186464286Y-70393247D02*
X186197620Y-70393247D01*
X186197620Y-70812295D02*
X186197620Y-70012295D01*
X186197620Y-70012295D02*
X186578572Y-70012295D01*
X147445238Y-41536104D02*
X147407142Y-41574200D01*
X147407142Y-41574200D02*
X147292857Y-41612295D01*
X147292857Y-41612295D02*
X147216666Y-41612295D01*
X147216666Y-41612295D02*
X147102380Y-41574200D01*
X147102380Y-41574200D02*
X147026190Y-41498009D01*
X147026190Y-41498009D02*
X146988095Y-41421819D01*
X146988095Y-41421819D02*
X146949999Y-41269438D01*
X146949999Y-41269438D02*
X146949999Y-41155152D01*
X146949999Y-41155152D02*
X146988095Y-41002771D01*
X146988095Y-41002771D02*
X147026190Y-40926580D01*
X147026190Y-40926580D02*
X147102380Y-40850390D01*
X147102380Y-40850390D02*
X147216666Y-40812295D01*
X147216666Y-40812295D02*
X147292857Y-40812295D01*
X147292857Y-40812295D02*
X147407142Y-40850390D01*
X147407142Y-40850390D02*
X147445238Y-40888485D01*
X148207142Y-41612295D02*
X147749999Y-41612295D01*
X147978571Y-41612295D02*
X147978571Y-40812295D01*
X147978571Y-40812295D02*
X147902380Y-40926580D01*
X147902380Y-40926580D02*
X147826190Y-41002771D01*
X147826190Y-41002771D02*
X147749999Y-41040866D01*
X149578571Y-41612295D02*
X149121428Y-41612295D01*
X149350000Y-41612295D02*
X149350000Y-40812295D01*
X149350000Y-40812295D02*
X149273809Y-40926580D01*
X149273809Y-40926580D02*
X149197619Y-41002771D01*
X149197619Y-41002771D02*
X149121428Y-41040866D01*
X150073810Y-40812295D02*
X150150000Y-40812295D01*
X150150000Y-40812295D02*
X150226191Y-40850390D01*
X150226191Y-40850390D02*
X150264286Y-40888485D01*
X150264286Y-40888485D02*
X150302381Y-40964676D01*
X150302381Y-40964676D02*
X150340476Y-41117057D01*
X150340476Y-41117057D02*
X150340476Y-41307533D01*
X150340476Y-41307533D02*
X150302381Y-41459914D01*
X150302381Y-41459914D02*
X150264286Y-41536104D01*
X150264286Y-41536104D02*
X150226191Y-41574200D01*
X150226191Y-41574200D02*
X150150000Y-41612295D01*
X150150000Y-41612295D02*
X150073810Y-41612295D01*
X150073810Y-41612295D02*
X149997619Y-41574200D01*
X149997619Y-41574200D02*
X149959524Y-41536104D01*
X149959524Y-41536104D02*
X149921429Y-41459914D01*
X149921429Y-41459914D02*
X149883333Y-41307533D01*
X149883333Y-41307533D02*
X149883333Y-41117057D01*
X149883333Y-41117057D02*
X149921429Y-40964676D01*
X149921429Y-40964676D02*
X149959524Y-40888485D01*
X149959524Y-40888485D02*
X149997619Y-40850390D01*
X149997619Y-40850390D02*
X150073810Y-40812295D01*
X151026191Y-41078961D02*
X151026191Y-41612295D01*
X150683334Y-41078961D02*
X150683334Y-41498009D01*
X150683334Y-41498009D02*
X150721429Y-41574200D01*
X150721429Y-41574200D02*
X150797619Y-41612295D01*
X150797619Y-41612295D02*
X150911905Y-41612295D01*
X150911905Y-41612295D02*
X150988096Y-41574200D01*
X150988096Y-41574200D02*
X151026191Y-41536104D01*
X151673810Y-41193247D02*
X151407144Y-41193247D01*
X151407144Y-41612295D02*
X151407144Y-40812295D01*
X151407144Y-40812295D02*
X151788096Y-40812295D01*
X168454762Y-42136104D02*
X168416666Y-42174200D01*
X168416666Y-42174200D02*
X168302381Y-42212295D01*
X168302381Y-42212295D02*
X168226190Y-42212295D01*
X168226190Y-42212295D02*
X168111904Y-42174200D01*
X168111904Y-42174200D02*
X168035714Y-42098009D01*
X168035714Y-42098009D02*
X167997619Y-42021819D01*
X167997619Y-42021819D02*
X167959523Y-41869438D01*
X167959523Y-41869438D02*
X167959523Y-41755152D01*
X167959523Y-41755152D02*
X167997619Y-41602771D01*
X167997619Y-41602771D02*
X168035714Y-41526580D01*
X168035714Y-41526580D02*
X168111904Y-41450390D01*
X168111904Y-41450390D02*
X168226190Y-41412295D01*
X168226190Y-41412295D02*
X168302381Y-41412295D01*
X168302381Y-41412295D02*
X168416666Y-41450390D01*
X168416666Y-41450390D02*
X168454762Y-41488485D01*
X168759523Y-41488485D02*
X168797619Y-41450390D01*
X168797619Y-41450390D02*
X168873809Y-41412295D01*
X168873809Y-41412295D02*
X169064285Y-41412295D01*
X169064285Y-41412295D02*
X169140476Y-41450390D01*
X169140476Y-41450390D02*
X169178571Y-41488485D01*
X169178571Y-41488485D02*
X169216666Y-41564676D01*
X169216666Y-41564676D02*
X169216666Y-41640866D01*
X169216666Y-41640866D02*
X169178571Y-41755152D01*
X169178571Y-41755152D02*
X168721428Y-42212295D01*
X168721428Y-42212295D02*
X169216666Y-42212295D01*
X170321429Y-41412295D02*
X170397619Y-41412295D01*
X170397619Y-41412295D02*
X170473810Y-41450390D01*
X170473810Y-41450390D02*
X170511905Y-41488485D01*
X170511905Y-41488485D02*
X170550000Y-41564676D01*
X170550000Y-41564676D02*
X170588095Y-41717057D01*
X170588095Y-41717057D02*
X170588095Y-41907533D01*
X170588095Y-41907533D02*
X170550000Y-42059914D01*
X170550000Y-42059914D02*
X170511905Y-42136104D01*
X170511905Y-42136104D02*
X170473810Y-42174200D01*
X170473810Y-42174200D02*
X170397619Y-42212295D01*
X170397619Y-42212295D02*
X170321429Y-42212295D01*
X170321429Y-42212295D02*
X170245238Y-42174200D01*
X170245238Y-42174200D02*
X170207143Y-42136104D01*
X170207143Y-42136104D02*
X170169048Y-42059914D01*
X170169048Y-42059914D02*
X170130952Y-41907533D01*
X170130952Y-41907533D02*
X170130952Y-41717057D01*
X170130952Y-41717057D02*
X170169048Y-41564676D01*
X170169048Y-41564676D02*
X170207143Y-41488485D01*
X170207143Y-41488485D02*
X170245238Y-41450390D01*
X170245238Y-41450390D02*
X170321429Y-41412295D01*
X170930953Y-42136104D02*
X170969048Y-42174200D01*
X170969048Y-42174200D02*
X170930953Y-42212295D01*
X170930953Y-42212295D02*
X170892857Y-42174200D01*
X170892857Y-42174200D02*
X170930953Y-42136104D01*
X170930953Y-42136104D02*
X170930953Y-42212295D01*
X171730952Y-42212295D02*
X171273809Y-42212295D01*
X171502381Y-42212295D02*
X171502381Y-41412295D01*
X171502381Y-41412295D02*
X171426190Y-41526580D01*
X171426190Y-41526580D02*
X171350000Y-41602771D01*
X171350000Y-41602771D02*
X171273809Y-41640866D01*
X172416667Y-41678961D02*
X172416667Y-42212295D01*
X172073810Y-41678961D02*
X172073810Y-42098009D01*
X172073810Y-42098009D02*
X172111905Y-42174200D01*
X172111905Y-42174200D02*
X172188095Y-42212295D01*
X172188095Y-42212295D02*
X172302381Y-42212295D01*
X172302381Y-42212295D02*
X172378572Y-42174200D01*
X172378572Y-42174200D02*
X172416667Y-42136104D01*
X173064286Y-41793247D02*
X172797620Y-41793247D01*
X172797620Y-42212295D02*
X172797620Y-41412295D01*
X172797620Y-41412295D02*
X173178572Y-41412295D01*
X109454819Y-51357143D02*
X109454819Y-51928571D01*
X109454819Y-51642857D02*
X108454819Y-51642857D01*
X108454819Y-51642857D02*
X108597676Y-51738095D01*
X108597676Y-51738095D02*
X108692914Y-51833333D01*
X108692914Y-51833333D02*
X108740533Y-51928571D01*
X108454819Y-50452381D02*
X108454819Y-50928571D01*
X108454819Y-50928571D02*
X108931009Y-50976190D01*
X108931009Y-50976190D02*
X108883390Y-50928571D01*
X108883390Y-50928571D02*
X108835771Y-50833333D01*
X108835771Y-50833333D02*
X108835771Y-50595238D01*
X108835771Y-50595238D02*
X108883390Y-50500000D01*
X108883390Y-50500000D02*
X108931009Y-50452381D01*
X108931009Y-50452381D02*
X109026247Y-50404762D01*
X109026247Y-50404762D02*
X109264342Y-50404762D01*
X109264342Y-50404762D02*
X109359580Y-50452381D01*
X109359580Y-50452381D02*
X109407200Y-50500000D01*
X109407200Y-50500000D02*
X109454819Y-50595238D01*
X109454819Y-50595238D02*
X109454819Y-50833333D01*
X109454819Y-50833333D02*
X109407200Y-50928571D01*
X109407200Y-50928571D02*
X109359580Y-50976190D01*
X108454819Y-49309523D02*
X108454819Y-48690476D01*
X108454819Y-48690476D02*
X108835771Y-49023809D01*
X108835771Y-49023809D02*
X108835771Y-48880952D01*
X108835771Y-48880952D02*
X108883390Y-48785714D01*
X108883390Y-48785714D02*
X108931009Y-48738095D01*
X108931009Y-48738095D02*
X109026247Y-48690476D01*
X109026247Y-48690476D02*
X109264342Y-48690476D01*
X109264342Y-48690476D02*
X109359580Y-48738095D01*
X109359580Y-48738095D02*
X109407200Y-48785714D01*
X109407200Y-48785714D02*
X109454819Y-48880952D01*
X109454819Y-48880952D02*
X109454819Y-49166666D01*
X109454819Y-49166666D02*
X109407200Y-49261904D01*
X109407200Y-49261904D02*
X109359580Y-49309523D01*
X108883390Y-48119047D02*
X108835771Y-48214285D01*
X108835771Y-48214285D02*
X108788152Y-48261904D01*
X108788152Y-48261904D02*
X108692914Y-48309523D01*
X108692914Y-48309523D02*
X108645295Y-48309523D01*
X108645295Y-48309523D02*
X108550057Y-48261904D01*
X108550057Y-48261904D02*
X108502438Y-48214285D01*
X108502438Y-48214285D02*
X108454819Y-48119047D01*
X108454819Y-48119047D02*
X108454819Y-47928571D01*
X108454819Y-47928571D02*
X108502438Y-47833333D01*
X108502438Y-47833333D02*
X108550057Y-47785714D01*
X108550057Y-47785714D02*
X108645295Y-47738095D01*
X108645295Y-47738095D02*
X108692914Y-47738095D01*
X108692914Y-47738095D02*
X108788152Y-47785714D01*
X108788152Y-47785714D02*
X108835771Y-47833333D01*
X108835771Y-47833333D02*
X108883390Y-47928571D01*
X108883390Y-47928571D02*
X108883390Y-48119047D01*
X108883390Y-48119047D02*
X108931009Y-48214285D01*
X108931009Y-48214285D02*
X108978628Y-48261904D01*
X108978628Y-48261904D02*
X109073866Y-48309523D01*
X109073866Y-48309523D02*
X109264342Y-48309523D01*
X109264342Y-48309523D02*
X109359580Y-48261904D01*
X109359580Y-48261904D02*
X109407200Y-48214285D01*
X109407200Y-48214285D02*
X109454819Y-48119047D01*
X109454819Y-48119047D02*
X109454819Y-47928571D01*
X109454819Y-47928571D02*
X109407200Y-47833333D01*
X109407200Y-47833333D02*
X109359580Y-47785714D01*
X109359580Y-47785714D02*
X109264342Y-47738095D01*
X109264342Y-47738095D02*
X109073866Y-47738095D01*
X109073866Y-47738095D02*
X108978628Y-47785714D01*
X108978628Y-47785714D02*
X108931009Y-47833333D01*
X108931009Y-47833333D02*
X108883390Y-47928571D01*
X108788152Y-46119047D02*
X109454819Y-46119047D01*
X108407200Y-46357142D02*
X109121485Y-46595237D01*
X109121485Y-46595237D02*
X109121485Y-45976190D01*
X108454819Y-45404761D02*
X108454819Y-45309523D01*
X108454819Y-45309523D02*
X108502438Y-45214285D01*
X108502438Y-45214285D02*
X108550057Y-45166666D01*
X108550057Y-45166666D02*
X108645295Y-45119047D01*
X108645295Y-45119047D02*
X108835771Y-45071428D01*
X108835771Y-45071428D02*
X109073866Y-45071428D01*
X109073866Y-45071428D02*
X109264342Y-45119047D01*
X109264342Y-45119047D02*
X109359580Y-45166666D01*
X109359580Y-45166666D02*
X109407200Y-45214285D01*
X109407200Y-45214285D02*
X109454819Y-45309523D01*
X109454819Y-45309523D02*
X109454819Y-45404761D01*
X109454819Y-45404761D02*
X109407200Y-45499999D01*
X109407200Y-45499999D02*
X109359580Y-45547618D01*
X109359580Y-45547618D02*
X109264342Y-45595237D01*
X109264342Y-45595237D02*
X109073866Y-45642856D01*
X109073866Y-45642856D02*
X108835771Y-45642856D01*
X108835771Y-45642856D02*
X108645295Y-45595237D01*
X108645295Y-45595237D02*
X108550057Y-45547618D01*
X108550057Y-45547618D02*
X108502438Y-45499999D01*
X108502438Y-45499999D02*
X108454819Y-45404761D01*
X121942856Y-78954819D02*
X122133332Y-78954819D01*
X122133332Y-78954819D02*
X122228570Y-78907200D01*
X122228570Y-78907200D02*
X122276189Y-78859580D01*
X122276189Y-78859580D02*
X122371427Y-78716723D01*
X122371427Y-78716723D02*
X122419046Y-78526247D01*
X122419046Y-78526247D02*
X122419046Y-78145295D01*
X122419046Y-78145295D02*
X122371427Y-78050057D01*
X122371427Y-78050057D02*
X122323808Y-78002438D01*
X122323808Y-78002438D02*
X122228570Y-77954819D01*
X122228570Y-77954819D02*
X122038094Y-77954819D01*
X122038094Y-77954819D02*
X121942856Y-78002438D01*
X121942856Y-78002438D02*
X121895237Y-78050057D01*
X121895237Y-78050057D02*
X121847618Y-78145295D01*
X121847618Y-78145295D02*
X121847618Y-78383390D01*
X121847618Y-78383390D02*
X121895237Y-78478628D01*
X121895237Y-78478628D02*
X121942856Y-78526247D01*
X121942856Y-78526247D02*
X122038094Y-78573866D01*
X122038094Y-78573866D02*
X122228570Y-78573866D01*
X122228570Y-78573866D02*
X122323808Y-78526247D01*
X122323808Y-78526247D02*
X122371427Y-78478628D01*
X122371427Y-78478628D02*
X122419046Y-78383390D01*
X124133332Y-78954819D02*
X123561904Y-78954819D01*
X123847618Y-78954819D02*
X123847618Y-77954819D01*
X123847618Y-77954819D02*
X123752380Y-78097676D01*
X123752380Y-78097676D02*
X123657142Y-78192914D01*
X123657142Y-78192914D02*
X123561904Y-78240533D01*
X124752380Y-77954819D02*
X124847618Y-77954819D01*
X124847618Y-77954819D02*
X124942856Y-78002438D01*
X124942856Y-78002438D02*
X124990475Y-78050057D01*
X124990475Y-78050057D02*
X125038094Y-78145295D01*
X125038094Y-78145295D02*
X125085713Y-78335771D01*
X125085713Y-78335771D02*
X125085713Y-78573866D01*
X125085713Y-78573866D02*
X125038094Y-78764342D01*
X125038094Y-78764342D02*
X124990475Y-78859580D01*
X124990475Y-78859580D02*
X124942856Y-78907200D01*
X124942856Y-78907200D02*
X124847618Y-78954819D01*
X124847618Y-78954819D02*
X124752380Y-78954819D01*
X124752380Y-78954819D02*
X124657142Y-78907200D01*
X124657142Y-78907200D02*
X124609523Y-78859580D01*
X124609523Y-78859580D02*
X124561904Y-78764342D01*
X124561904Y-78764342D02*
X124514285Y-78573866D01*
X124514285Y-78573866D02*
X124514285Y-78335771D01*
X124514285Y-78335771D02*
X124561904Y-78145295D01*
X124561904Y-78145295D02*
X124609523Y-78050057D01*
X124609523Y-78050057D02*
X124657142Y-78002438D01*
X124657142Y-78002438D02*
X124752380Y-77954819D01*
X126799999Y-78954819D02*
X126228571Y-78954819D01*
X126514285Y-78954819D02*
X126514285Y-77954819D01*
X126514285Y-77954819D02*
X126419047Y-78097676D01*
X126419047Y-78097676D02*
X126323809Y-78192914D01*
X126323809Y-78192914D02*
X126228571Y-78240533D01*
X127752380Y-78954819D02*
X127180952Y-78954819D01*
X127466666Y-78954819D02*
X127466666Y-77954819D01*
X127466666Y-77954819D02*
X127371428Y-78097676D01*
X127371428Y-78097676D02*
X127276190Y-78192914D01*
X127276190Y-78192914D02*
X127180952Y-78240533D01*
X129466666Y-78954819D02*
X128895238Y-78954819D01*
X129180952Y-78954819D02*
X129180952Y-77954819D01*
X129180952Y-77954819D02*
X129085714Y-78097676D01*
X129085714Y-78097676D02*
X128990476Y-78192914D01*
X128990476Y-78192914D02*
X128895238Y-78240533D01*
X129847619Y-78050057D02*
X129895238Y-78002438D01*
X129895238Y-78002438D02*
X129990476Y-77954819D01*
X129990476Y-77954819D02*
X130228571Y-77954819D01*
X130228571Y-77954819D02*
X130323809Y-78002438D01*
X130323809Y-78002438D02*
X130371428Y-78050057D01*
X130371428Y-78050057D02*
X130419047Y-78145295D01*
X130419047Y-78145295D02*
X130419047Y-78240533D01*
X130419047Y-78240533D02*
X130371428Y-78383390D01*
X130371428Y-78383390D02*
X129800000Y-78954819D01*
X129800000Y-78954819D02*
X130419047Y-78954819D01*
X132133333Y-78954819D02*
X131561905Y-78954819D01*
X131847619Y-78954819D02*
X131847619Y-77954819D01*
X131847619Y-77954819D02*
X131752381Y-78097676D01*
X131752381Y-78097676D02*
X131657143Y-78192914D01*
X131657143Y-78192914D02*
X131561905Y-78240533D01*
X132466667Y-77954819D02*
X133085714Y-77954819D01*
X133085714Y-77954819D02*
X132752381Y-78335771D01*
X132752381Y-78335771D02*
X132895238Y-78335771D01*
X132895238Y-78335771D02*
X132990476Y-78383390D01*
X132990476Y-78383390D02*
X133038095Y-78431009D01*
X133038095Y-78431009D02*
X133085714Y-78526247D01*
X133085714Y-78526247D02*
X133085714Y-78764342D01*
X133085714Y-78764342D02*
X133038095Y-78859580D01*
X133038095Y-78859580D02*
X132990476Y-78907200D01*
X132990476Y-78907200D02*
X132895238Y-78954819D01*
X132895238Y-78954819D02*
X132609524Y-78954819D01*
X132609524Y-78954819D02*
X132514286Y-78907200D01*
X132514286Y-78907200D02*
X132466667Y-78859580D01*
X134800000Y-78954819D02*
X134228572Y-78954819D01*
X134514286Y-78954819D02*
X134514286Y-77954819D01*
X134514286Y-77954819D02*
X134419048Y-78097676D01*
X134419048Y-78097676D02*
X134323810Y-78192914D01*
X134323810Y-78192914D02*
X134228572Y-78240533D01*
X135657143Y-78288152D02*
X135657143Y-78954819D01*
X135419048Y-77907200D02*
X135180953Y-78621485D01*
X135180953Y-78621485D02*
X135800000Y-78621485D01*
X108454819Y-69476190D02*
X108454819Y-68857143D01*
X108454819Y-68857143D02*
X108835771Y-69190476D01*
X108835771Y-69190476D02*
X108835771Y-69047619D01*
X108835771Y-69047619D02*
X108883390Y-68952381D01*
X108883390Y-68952381D02*
X108931009Y-68904762D01*
X108931009Y-68904762D02*
X109026247Y-68857143D01*
X109026247Y-68857143D02*
X109264342Y-68857143D01*
X109264342Y-68857143D02*
X109359580Y-68904762D01*
X109359580Y-68904762D02*
X109407200Y-68952381D01*
X109407200Y-68952381D02*
X109454819Y-69047619D01*
X109454819Y-69047619D02*
X109454819Y-69333333D01*
X109454819Y-69333333D02*
X109407200Y-69428571D01*
X109407200Y-69428571D02*
X109359580Y-69476190D01*
X109454819Y-68380952D02*
X109454819Y-68190476D01*
X109454819Y-68190476D02*
X109407200Y-68095238D01*
X109407200Y-68095238D02*
X109359580Y-68047619D01*
X109359580Y-68047619D02*
X109216723Y-67952381D01*
X109216723Y-67952381D02*
X109026247Y-67904762D01*
X109026247Y-67904762D02*
X108645295Y-67904762D01*
X108645295Y-67904762D02*
X108550057Y-67952381D01*
X108550057Y-67952381D02*
X108502438Y-68000000D01*
X108502438Y-68000000D02*
X108454819Y-68095238D01*
X108454819Y-68095238D02*
X108454819Y-68285714D01*
X108454819Y-68285714D02*
X108502438Y-68380952D01*
X108502438Y-68380952D02*
X108550057Y-68428571D01*
X108550057Y-68428571D02*
X108645295Y-68476190D01*
X108645295Y-68476190D02*
X108883390Y-68476190D01*
X108883390Y-68476190D02*
X108978628Y-68428571D01*
X108978628Y-68428571D02*
X109026247Y-68380952D01*
X109026247Y-68380952D02*
X109073866Y-68285714D01*
X109073866Y-68285714D02*
X109073866Y-68095238D01*
X109073866Y-68095238D02*
X109026247Y-68000000D01*
X109026247Y-68000000D02*
X108978628Y-67952381D01*
X108978628Y-67952381D02*
X108883390Y-67904762D01*
X108454819Y-66809523D02*
X108454819Y-66190476D01*
X108454819Y-66190476D02*
X108835771Y-66523809D01*
X108835771Y-66523809D02*
X108835771Y-66380952D01*
X108835771Y-66380952D02*
X108883390Y-66285714D01*
X108883390Y-66285714D02*
X108931009Y-66238095D01*
X108931009Y-66238095D02*
X109026247Y-66190476D01*
X109026247Y-66190476D02*
X109264342Y-66190476D01*
X109264342Y-66190476D02*
X109359580Y-66238095D01*
X109359580Y-66238095D02*
X109407200Y-66285714D01*
X109407200Y-66285714D02*
X109454819Y-66380952D01*
X109454819Y-66380952D02*
X109454819Y-66666666D01*
X109454819Y-66666666D02*
X109407200Y-66761904D01*
X109407200Y-66761904D02*
X109359580Y-66809523D01*
X108454819Y-65857142D02*
X108454819Y-65190476D01*
X108454819Y-65190476D02*
X109454819Y-65619047D01*
X108454819Y-64142856D02*
X108454819Y-63523809D01*
X108454819Y-63523809D02*
X108835771Y-63857142D01*
X108835771Y-63857142D02*
X108835771Y-63714285D01*
X108835771Y-63714285D02*
X108883390Y-63619047D01*
X108883390Y-63619047D02*
X108931009Y-63571428D01*
X108931009Y-63571428D02*
X109026247Y-63523809D01*
X109026247Y-63523809D02*
X109264342Y-63523809D01*
X109264342Y-63523809D02*
X109359580Y-63571428D01*
X109359580Y-63571428D02*
X109407200Y-63619047D01*
X109407200Y-63619047D02*
X109454819Y-63714285D01*
X109454819Y-63714285D02*
X109454819Y-63999999D01*
X109454819Y-63999999D02*
X109407200Y-64095237D01*
X109407200Y-64095237D02*
X109359580Y-64142856D01*
X108454819Y-62619047D02*
X108454819Y-63095237D01*
X108454819Y-63095237D02*
X108931009Y-63142856D01*
X108931009Y-63142856D02*
X108883390Y-63095237D01*
X108883390Y-63095237D02*
X108835771Y-62999999D01*
X108835771Y-62999999D02*
X108835771Y-62761904D01*
X108835771Y-62761904D02*
X108883390Y-62666666D01*
X108883390Y-62666666D02*
X108931009Y-62619047D01*
X108931009Y-62619047D02*
X109026247Y-62571428D01*
X109026247Y-62571428D02*
X109264342Y-62571428D01*
X109264342Y-62571428D02*
X109359580Y-62619047D01*
X109359580Y-62619047D02*
X109407200Y-62666666D01*
X109407200Y-62666666D02*
X109454819Y-62761904D01*
X109454819Y-62761904D02*
X109454819Y-62999999D01*
X109454819Y-62999999D02*
X109407200Y-63095237D01*
X109407200Y-63095237D02*
X109359580Y-63142856D01*
X108454819Y-61476189D02*
X108454819Y-60857142D01*
X108454819Y-60857142D02*
X108835771Y-61190475D01*
X108835771Y-61190475D02*
X108835771Y-61047618D01*
X108835771Y-61047618D02*
X108883390Y-60952380D01*
X108883390Y-60952380D02*
X108931009Y-60904761D01*
X108931009Y-60904761D02*
X109026247Y-60857142D01*
X109026247Y-60857142D02*
X109264342Y-60857142D01*
X109264342Y-60857142D02*
X109359580Y-60904761D01*
X109359580Y-60904761D02*
X109407200Y-60952380D01*
X109407200Y-60952380D02*
X109454819Y-61047618D01*
X109454819Y-61047618D02*
X109454819Y-61333332D01*
X109454819Y-61333332D02*
X109407200Y-61428570D01*
X109407200Y-61428570D02*
X109359580Y-61476189D01*
X108454819Y-60523808D02*
X108454819Y-59904761D01*
X108454819Y-59904761D02*
X108835771Y-60238094D01*
X108835771Y-60238094D02*
X108835771Y-60095237D01*
X108835771Y-60095237D02*
X108883390Y-59999999D01*
X108883390Y-59999999D02*
X108931009Y-59952380D01*
X108931009Y-59952380D02*
X109026247Y-59904761D01*
X109026247Y-59904761D02*
X109264342Y-59904761D01*
X109264342Y-59904761D02*
X109359580Y-59952380D01*
X109359580Y-59952380D02*
X109407200Y-59999999D01*
X109407200Y-59999999D02*
X109454819Y-60095237D01*
X109454819Y-60095237D02*
X109454819Y-60380951D01*
X109454819Y-60380951D02*
X109407200Y-60476189D01*
X109407200Y-60476189D02*
X109359580Y-60523808D01*
X109454819Y-58190475D02*
X109454819Y-58761903D01*
X109454819Y-58476189D02*
X108454819Y-58476189D01*
X108454819Y-58476189D02*
X108597676Y-58571427D01*
X108597676Y-58571427D02*
X108692914Y-58666665D01*
X108692914Y-58666665D02*
X108740533Y-58761903D01*
X108883390Y-57619046D02*
X108835771Y-57714284D01*
X108835771Y-57714284D02*
X108788152Y-57761903D01*
X108788152Y-57761903D02*
X108692914Y-57809522D01*
X108692914Y-57809522D02*
X108645295Y-57809522D01*
X108645295Y-57809522D02*
X108550057Y-57761903D01*
X108550057Y-57761903D02*
X108502438Y-57714284D01*
X108502438Y-57714284D02*
X108454819Y-57619046D01*
X108454819Y-57619046D02*
X108454819Y-57428570D01*
X108454819Y-57428570D02*
X108502438Y-57333332D01*
X108502438Y-57333332D02*
X108550057Y-57285713D01*
X108550057Y-57285713D02*
X108645295Y-57238094D01*
X108645295Y-57238094D02*
X108692914Y-57238094D01*
X108692914Y-57238094D02*
X108788152Y-57285713D01*
X108788152Y-57285713D02*
X108835771Y-57333332D01*
X108835771Y-57333332D02*
X108883390Y-57428570D01*
X108883390Y-57428570D02*
X108883390Y-57619046D01*
X108883390Y-57619046D02*
X108931009Y-57714284D01*
X108931009Y-57714284D02*
X108978628Y-57761903D01*
X108978628Y-57761903D02*
X109073866Y-57809522D01*
X109073866Y-57809522D02*
X109264342Y-57809522D01*
X109264342Y-57809522D02*
X109359580Y-57761903D01*
X109359580Y-57761903D02*
X109407200Y-57714284D01*
X109407200Y-57714284D02*
X109454819Y-57619046D01*
X109454819Y-57619046D02*
X109454819Y-57428570D01*
X109454819Y-57428570D02*
X109407200Y-57333332D01*
X109407200Y-57333332D02*
X109359580Y-57285713D01*
X109359580Y-57285713D02*
X109264342Y-57238094D01*
X109264342Y-57238094D02*
X109073866Y-57238094D01*
X109073866Y-57238094D02*
X108978628Y-57285713D01*
X108978628Y-57285713D02*
X108931009Y-57333332D01*
X108931009Y-57333332D02*
X108883390Y-57428570D01*
X109454819Y-55523808D02*
X109454819Y-56095236D01*
X109454819Y-55809522D02*
X108454819Y-55809522D01*
X108454819Y-55809522D02*
X108597676Y-55904760D01*
X108597676Y-55904760D02*
X108692914Y-55999998D01*
X108692914Y-55999998D02*
X108740533Y-56095236D01*
X108454819Y-54666665D02*
X108454819Y-54857141D01*
X108454819Y-54857141D02*
X108502438Y-54952379D01*
X108502438Y-54952379D02*
X108550057Y-54999998D01*
X108550057Y-54999998D02*
X108692914Y-55095236D01*
X108692914Y-55095236D02*
X108883390Y-55142855D01*
X108883390Y-55142855D02*
X109264342Y-55142855D01*
X109264342Y-55142855D02*
X109359580Y-55095236D01*
X109359580Y-55095236D02*
X109407200Y-55047617D01*
X109407200Y-55047617D02*
X109454819Y-54952379D01*
X109454819Y-54952379D02*
X109454819Y-54761903D01*
X109454819Y-54761903D02*
X109407200Y-54666665D01*
X109407200Y-54666665D02*
X109359580Y-54619046D01*
X109359580Y-54619046D02*
X109264342Y-54571427D01*
X109264342Y-54571427D02*
X109026247Y-54571427D01*
X109026247Y-54571427D02*
X108931009Y-54619046D01*
X108931009Y-54619046D02*
X108883390Y-54666665D01*
X108883390Y-54666665D02*
X108835771Y-54761903D01*
X108835771Y-54761903D02*
X108835771Y-54952379D01*
X108835771Y-54952379D02*
X108883390Y-55047617D01*
X108883390Y-55047617D02*
X108931009Y-55095236D01*
X108931009Y-55095236D02*
X109026247Y-55142855D01*
X179247619Y-55587295D02*
X178866667Y-55587295D01*
X178866667Y-55587295D02*
X178828571Y-55968247D01*
X178828571Y-55968247D02*
X178866667Y-55930152D01*
X178866667Y-55930152D02*
X178942857Y-55892057D01*
X178942857Y-55892057D02*
X179133333Y-55892057D01*
X179133333Y-55892057D02*
X179209524Y-55930152D01*
X179209524Y-55930152D02*
X179247619Y-55968247D01*
X179247619Y-55968247D02*
X179285714Y-56044438D01*
X179285714Y-56044438D02*
X179285714Y-56234914D01*
X179285714Y-56234914D02*
X179247619Y-56311104D01*
X179247619Y-56311104D02*
X179209524Y-56349200D01*
X179209524Y-56349200D02*
X179133333Y-56387295D01*
X179133333Y-56387295D02*
X178942857Y-56387295D01*
X178942857Y-56387295D02*
X178866667Y-56349200D01*
X178866667Y-56349200D02*
X178828571Y-56311104D01*
X179514286Y-55587295D02*
X179780953Y-56387295D01*
X179780953Y-56387295D02*
X180047619Y-55587295D01*
X187304761Y-55687295D02*
X187799999Y-55687295D01*
X187799999Y-55687295D02*
X187533333Y-55992057D01*
X187533333Y-55992057D02*
X187647618Y-55992057D01*
X187647618Y-55992057D02*
X187723809Y-56030152D01*
X187723809Y-56030152D02*
X187761904Y-56068247D01*
X187761904Y-56068247D02*
X187799999Y-56144438D01*
X187799999Y-56144438D02*
X187799999Y-56334914D01*
X187799999Y-56334914D02*
X187761904Y-56411104D01*
X187761904Y-56411104D02*
X187723809Y-56449200D01*
X187723809Y-56449200D02*
X187647618Y-56487295D01*
X187647618Y-56487295D02*
X187419047Y-56487295D01*
X187419047Y-56487295D02*
X187342856Y-56449200D01*
X187342856Y-56449200D02*
X187304761Y-56411104D01*
X187952381Y-56563485D02*
X188561904Y-56563485D01*
X188676190Y-55687295D02*
X189171428Y-55687295D01*
X189171428Y-55687295D02*
X188904762Y-55992057D01*
X188904762Y-55992057D02*
X189019047Y-55992057D01*
X189019047Y-55992057D02*
X189095238Y-56030152D01*
X189095238Y-56030152D02*
X189133333Y-56068247D01*
X189133333Y-56068247D02*
X189171428Y-56144438D01*
X189171428Y-56144438D02*
X189171428Y-56334914D01*
X189171428Y-56334914D02*
X189133333Y-56411104D01*
X189133333Y-56411104D02*
X189095238Y-56449200D01*
X189095238Y-56449200D02*
X189019047Y-56487295D01*
X189019047Y-56487295D02*
X188790476Y-56487295D01*
X188790476Y-56487295D02*
X188714285Y-56449200D01*
X188714285Y-56449200D02*
X188676190Y-56411104D01*
X189400000Y-55687295D02*
X189666667Y-56487295D01*
X189666667Y-56487295D02*
X189933333Y-55687295D01*
X111254819Y-97033332D02*
X110254819Y-97033332D01*
X110350057Y-96604761D02*
X110302438Y-96557142D01*
X110302438Y-96557142D02*
X110254819Y-96461904D01*
X110254819Y-96461904D02*
X110254819Y-96223809D01*
X110254819Y-96223809D02*
X110302438Y-96128571D01*
X110302438Y-96128571D02*
X110350057Y-96080952D01*
X110350057Y-96080952D02*
X110445295Y-96033333D01*
X110445295Y-96033333D02*
X110540533Y-96033333D01*
X110540533Y-96033333D02*
X110683390Y-96080952D01*
X110683390Y-96080952D02*
X111254819Y-96652380D01*
X111254819Y-96652380D02*
X111254819Y-96033333D01*
X111159580Y-95033333D02*
X111207200Y-95080952D01*
X111207200Y-95080952D02*
X111254819Y-95223809D01*
X111254819Y-95223809D02*
X111254819Y-95319047D01*
X111254819Y-95319047D02*
X111207200Y-95461904D01*
X111207200Y-95461904D02*
X111111961Y-95557142D01*
X111111961Y-95557142D02*
X111016723Y-95604761D01*
X111016723Y-95604761D02*
X110826247Y-95652380D01*
X110826247Y-95652380D02*
X110683390Y-95652380D01*
X110683390Y-95652380D02*
X110492914Y-95604761D01*
X110492914Y-95604761D02*
X110397676Y-95557142D01*
X110397676Y-95557142D02*
X110302438Y-95461904D01*
X110302438Y-95461904D02*
X110254819Y-95319047D01*
X110254819Y-95319047D02*
X110254819Y-95223809D01*
X110254819Y-95223809D02*
X110302438Y-95080952D01*
X110302438Y-95080952D02*
X110350057Y-95033333D01*
X111350057Y-94842857D02*
X111350057Y-94080952D01*
X111254819Y-93319047D02*
X111254819Y-93890475D01*
X111254819Y-93604761D02*
X110254819Y-93604761D01*
X110254819Y-93604761D02*
X110397676Y-93699999D01*
X110397676Y-93699999D02*
X110492914Y-93795237D01*
X110492914Y-93795237D02*
X110540533Y-93890475D01*
X178166667Y-92654819D02*
X178166667Y-91654819D01*
X178595238Y-91750057D02*
X178642857Y-91702438D01*
X178642857Y-91702438D02*
X178738095Y-91654819D01*
X178738095Y-91654819D02*
X178976190Y-91654819D01*
X178976190Y-91654819D02*
X179071428Y-91702438D01*
X179071428Y-91702438D02*
X179119047Y-91750057D01*
X179119047Y-91750057D02*
X179166666Y-91845295D01*
X179166666Y-91845295D02*
X179166666Y-91940533D01*
X179166666Y-91940533D02*
X179119047Y-92083390D01*
X179119047Y-92083390D02*
X178547619Y-92654819D01*
X178547619Y-92654819D02*
X179166666Y-92654819D01*
X180166666Y-92559580D02*
X180119047Y-92607200D01*
X180119047Y-92607200D02*
X179976190Y-92654819D01*
X179976190Y-92654819D02*
X179880952Y-92654819D01*
X179880952Y-92654819D02*
X179738095Y-92607200D01*
X179738095Y-92607200D02*
X179642857Y-92511961D01*
X179642857Y-92511961D02*
X179595238Y-92416723D01*
X179595238Y-92416723D02*
X179547619Y-92226247D01*
X179547619Y-92226247D02*
X179547619Y-92083390D01*
X179547619Y-92083390D02*
X179595238Y-91892914D01*
X179595238Y-91892914D02*
X179642857Y-91797676D01*
X179642857Y-91797676D02*
X179738095Y-91702438D01*
X179738095Y-91702438D02*
X179880952Y-91654819D01*
X179880952Y-91654819D02*
X179976190Y-91654819D01*
X179976190Y-91654819D02*
X180119047Y-91702438D01*
X180119047Y-91702438D02*
X180166666Y-91750057D01*
X180357143Y-92750057D02*
X181119047Y-92750057D01*
X181833333Y-91654819D02*
X181357143Y-91654819D01*
X181357143Y-91654819D02*
X181309524Y-92131009D01*
X181309524Y-92131009D02*
X181357143Y-92083390D01*
X181357143Y-92083390D02*
X181452381Y-92035771D01*
X181452381Y-92035771D02*
X181690476Y-92035771D01*
X181690476Y-92035771D02*
X181785714Y-92083390D01*
X181785714Y-92083390D02*
X181833333Y-92131009D01*
X181833333Y-92131009D02*
X181880952Y-92226247D01*
X181880952Y-92226247D02*
X181880952Y-92464342D01*
X181880952Y-92464342D02*
X181833333Y-92559580D01*
X181833333Y-92559580D02*
X181785714Y-92607200D01*
X181785714Y-92607200D02*
X181690476Y-92654819D01*
X181690476Y-92654819D02*
X181452381Y-92654819D01*
X181452381Y-92654819D02*
X181357143Y-92607200D01*
X181357143Y-92607200D02*
X181309524Y-92559580D01*
X132416667Y-92654819D02*
X132416667Y-91654819D01*
X132845238Y-91750057D02*
X132892857Y-91702438D01*
X132892857Y-91702438D02*
X132988095Y-91654819D01*
X132988095Y-91654819D02*
X133226190Y-91654819D01*
X133226190Y-91654819D02*
X133321428Y-91702438D01*
X133321428Y-91702438D02*
X133369047Y-91750057D01*
X133369047Y-91750057D02*
X133416666Y-91845295D01*
X133416666Y-91845295D02*
X133416666Y-91940533D01*
X133416666Y-91940533D02*
X133369047Y-92083390D01*
X133369047Y-92083390D02*
X132797619Y-92654819D01*
X132797619Y-92654819D02*
X133416666Y-92654819D01*
X134416666Y-92559580D02*
X134369047Y-92607200D01*
X134369047Y-92607200D02*
X134226190Y-92654819D01*
X134226190Y-92654819D02*
X134130952Y-92654819D01*
X134130952Y-92654819D02*
X133988095Y-92607200D01*
X133988095Y-92607200D02*
X133892857Y-92511961D01*
X133892857Y-92511961D02*
X133845238Y-92416723D01*
X133845238Y-92416723D02*
X133797619Y-92226247D01*
X133797619Y-92226247D02*
X133797619Y-92083390D01*
X133797619Y-92083390D02*
X133845238Y-91892914D01*
X133845238Y-91892914D02*
X133892857Y-91797676D01*
X133892857Y-91797676D02*
X133988095Y-91702438D01*
X133988095Y-91702438D02*
X134130952Y-91654819D01*
X134130952Y-91654819D02*
X134226190Y-91654819D01*
X134226190Y-91654819D02*
X134369047Y-91702438D01*
X134369047Y-91702438D02*
X134416666Y-91750057D01*
X134607143Y-92750057D02*
X135369047Y-92750057D01*
X135559524Y-91750057D02*
X135607143Y-91702438D01*
X135607143Y-91702438D02*
X135702381Y-91654819D01*
X135702381Y-91654819D02*
X135940476Y-91654819D01*
X135940476Y-91654819D02*
X136035714Y-91702438D01*
X136035714Y-91702438D02*
X136083333Y-91750057D01*
X136083333Y-91750057D02*
X136130952Y-91845295D01*
X136130952Y-91845295D02*
X136130952Y-91940533D01*
X136130952Y-91940533D02*
X136083333Y-92083390D01*
X136083333Y-92083390D02*
X135511905Y-92654819D01*
X135511905Y-92654819D02*
X136130952Y-92654819D01*
X163416667Y-92654819D02*
X163416667Y-91654819D01*
X163845238Y-91750057D02*
X163892857Y-91702438D01*
X163892857Y-91702438D02*
X163988095Y-91654819D01*
X163988095Y-91654819D02*
X164226190Y-91654819D01*
X164226190Y-91654819D02*
X164321428Y-91702438D01*
X164321428Y-91702438D02*
X164369047Y-91750057D01*
X164369047Y-91750057D02*
X164416666Y-91845295D01*
X164416666Y-91845295D02*
X164416666Y-91940533D01*
X164416666Y-91940533D02*
X164369047Y-92083390D01*
X164369047Y-92083390D02*
X163797619Y-92654819D01*
X163797619Y-92654819D02*
X164416666Y-92654819D01*
X165416666Y-92559580D02*
X165369047Y-92607200D01*
X165369047Y-92607200D02*
X165226190Y-92654819D01*
X165226190Y-92654819D02*
X165130952Y-92654819D01*
X165130952Y-92654819D02*
X164988095Y-92607200D01*
X164988095Y-92607200D02*
X164892857Y-92511961D01*
X164892857Y-92511961D02*
X164845238Y-92416723D01*
X164845238Y-92416723D02*
X164797619Y-92226247D01*
X164797619Y-92226247D02*
X164797619Y-92083390D01*
X164797619Y-92083390D02*
X164845238Y-91892914D01*
X164845238Y-91892914D02*
X164892857Y-91797676D01*
X164892857Y-91797676D02*
X164988095Y-91702438D01*
X164988095Y-91702438D02*
X165130952Y-91654819D01*
X165130952Y-91654819D02*
X165226190Y-91654819D01*
X165226190Y-91654819D02*
X165369047Y-91702438D01*
X165369047Y-91702438D02*
X165416666Y-91750057D01*
X165607143Y-92750057D02*
X166369047Y-92750057D01*
X167035714Y-91988152D02*
X167035714Y-92654819D01*
X166797619Y-91607200D02*
X166559524Y-92321485D01*
X166559524Y-92321485D02*
X167178571Y-92321485D01*
X183509524Y-46062295D02*
X183509524Y-45262295D01*
X183509524Y-45262295D02*
X183700000Y-45262295D01*
X183700000Y-45262295D02*
X183814286Y-45300390D01*
X183814286Y-45300390D02*
X183890476Y-45376580D01*
X183890476Y-45376580D02*
X183928571Y-45452771D01*
X183928571Y-45452771D02*
X183966667Y-45605152D01*
X183966667Y-45605152D02*
X183966667Y-45719438D01*
X183966667Y-45719438D02*
X183928571Y-45871819D01*
X183928571Y-45871819D02*
X183890476Y-45948009D01*
X183890476Y-45948009D02*
X183814286Y-46024200D01*
X183814286Y-46024200D02*
X183700000Y-46062295D01*
X183700000Y-46062295D02*
X183509524Y-46062295D01*
X184271428Y-45338485D02*
X184309524Y-45300390D01*
X184309524Y-45300390D02*
X184385714Y-45262295D01*
X184385714Y-45262295D02*
X184576190Y-45262295D01*
X184576190Y-45262295D02*
X184652381Y-45300390D01*
X184652381Y-45300390D02*
X184690476Y-45338485D01*
X184690476Y-45338485D02*
X184728571Y-45414676D01*
X184728571Y-45414676D02*
X184728571Y-45490866D01*
X184728571Y-45490866D02*
X184690476Y-45605152D01*
X184690476Y-45605152D02*
X184233333Y-46062295D01*
X184233333Y-46062295D02*
X184728571Y-46062295D01*
X183509524Y-40262295D02*
X183509524Y-39462295D01*
X183509524Y-39462295D02*
X183700000Y-39462295D01*
X183700000Y-39462295D02*
X183814286Y-39500390D01*
X183814286Y-39500390D02*
X183890476Y-39576580D01*
X183890476Y-39576580D02*
X183928571Y-39652771D01*
X183928571Y-39652771D02*
X183966667Y-39805152D01*
X183966667Y-39805152D02*
X183966667Y-39919438D01*
X183966667Y-39919438D02*
X183928571Y-40071819D01*
X183928571Y-40071819D02*
X183890476Y-40148009D01*
X183890476Y-40148009D02*
X183814286Y-40224200D01*
X183814286Y-40224200D02*
X183700000Y-40262295D01*
X183700000Y-40262295D02*
X183509524Y-40262295D01*
X184728571Y-40262295D02*
X184271428Y-40262295D01*
X184500000Y-40262295D02*
X184500000Y-39462295D01*
X184500000Y-39462295D02*
X184423809Y-39576580D01*
X184423809Y-39576580D02*
X184347619Y-39652771D01*
X184347619Y-39652771D02*
X184271428Y-39690866D01*
X148016667Y-92654819D02*
X148016667Y-91654819D01*
X148445238Y-91750057D02*
X148492857Y-91702438D01*
X148492857Y-91702438D02*
X148588095Y-91654819D01*
X148588095Y-91654819D02*
X148826190Y-91654819D01*
X148826190Y-91654819D02*
X148921428Y-91702438D01*
X148921428Y-91702438D02*
X148969047Y-91750057D01*
X148969047Y-91750057D02*
X149016666Y-91845295D01*
X149016666Y-91845295D02*
X149016666Y-91940533D01*
X149016666Y-91940533D02*
X148969047Y-92083390D01*
X148969047Y-92083390D02*
X148397619Y-92654819D01*
X148397619Y-92654819D02*
X149016666Y-92654819D01*
X150016666Y-92559580D02*
X149969047Y-92607200D01*
X149969047Y-92607200D02*
X149826190Y-92654819D01*
X149826190Y-92654819D02*
X149730952Y-92654819D01*
X149730952Y-92654819D02*
X149588095Y-92607200D01*
X149588095Y-92607200D02*
X149492857Y-92511961D01*
X149492857Y-92511961D02*
X149445238Y-92416723D01*
X149445238Y-92416723D02*
X149397619Y-92226247D01*
X149397619Y-92226247D02*
X149397619Y-92083390D01*
X149397619Y-92083390D02*
X149445238Y-91892914D01*
X149445238Y-91892914D02*
X149492857Y-91797676D01*
X149492857Y-91797676D02*
X149588095Y-91702438D01*
X149588095Y-91702438D02*
X149730952Y-91654819D01*
X149730952Y-91654819D02*
X149826190Y-91654819D01*
X149826190Y-91654819D02*
X149969047Y-91702438D01*
X149969047Y-91702438D02*
X150016666Y-91750057D01*
X150207143Y-92750057D02*
X150969047Y-92750057D01*
X151111905Y-91654819D02*
X151730952Y-91654819D01*
X151730952Y-91654819D02*
X151397619Y-92035771D01*
X151397619Y-92035771D02*
X151540476Y-92035771D01*
X151540476Y-92035771D02*
X151635714Y-92083390D01*
X151635714Y-92083390D02*
X151683333Y-92131009D01*
X151683333Y-92131009D02*
X151730952Y-92226247D01*
X151730952Y-92226247D02*
X151730952Y-92464342D01*
X151730952Y-92464342D02*
X151683333Y-92559580D01*
X151683333Y-92559580D02*
X151635714Y-92607200D01*
X151635714Y-92607200D02*
X151540476Y-92654819D01*
X151540476Y-92654819D02*
X151254762Y-92654819D01*
X151254762Y-92654819D02*
X151159524Y-92607200D01*
X151159524Y-92607200D02*
X151111905Y-92559580D01*
D12*
%TO.C,U1*%
X159925000Y-52410000D02*
X161830000Y-52410000D01*
X158655000Y-52410000D02*
G75*
G03*
X159925000Y-52410000I635000J0D01*
G01*
X156750000Y-52410000D02*
X158655000Y-52410000D01*
X161830000Y-75270000D02*
X161830000Y-52410000D01*
X156750000Y-75270000D02*
X161830000Y-75270000D01*
X156750000Y-52410000D02*
X156750000Y-75270000D01*
%TO.C,S2-Mini-ESP32*%
D10*
X145080000Y-68635000D02*
X144445000Y-68000000D01*
X145080000Y-67365000D01*
X145080000Y-68635000D01*
G36*
X145080000Y-68635000D02*
G01*
X144445000Y-68000000D01*
X145080000Y-67365000D01*
X145080000Y-68635000D01*
G37*
D13*
X115500000Y-74210000D02*
G75*
G03*
X117630000Y-76340000I2130000J0D01*
G01*
X139550000Y-76340000D02*
G75*
G03*
X141680000Y-74210000I-2J2130002D01*
G01*
X115380000Y-76340000D02*
X139550000Y-76340000D01*
X115500000Y-41880000D02*
X115500000Y-74210000D01*
X138960000Y-41880000D02*
X115500000Y-41880000D01*
X138960000Y-48780000D02*
X138960000Y-41880000D01*
X141680000Y-48780000D02*
X138960000Y-48780000D01*
X141680000Y-48780000D02*
X141680000Y-74210000D01*
%TO.C,R1*%
X107440000Y-85400000D02*
X111280000Y-85400000D01*
X107440000Y-87240000D02*
X111280000Y-87240000D01*
%TO.C,POWER*%
X157090000Y-44200000D02*
X157090000Y-42990000D01*
X164310000Y-42490000D02*
X156590000Y-42490000D01*
X157090000Y-42990000D02*
X163810000Y-42990000D01*
X156590000Y-45010000D02*
X157590000Y-45010000D01*
X157590000Y-45010000D02*
X157590000Y-46510000D01*
X163810000Y-42990000D02*
X163810000Y-44200000D01*
X163810000Y-44200000D02*
X164310000Y-44200000D01*
X156590000Y-42490000D02*
X156590000Y-46510000D01*
X156290000Y-46810000D02*
X158790000Y-46810000D01*
X156590000Y-44200000D02*
X157090000Y-44200000D01*
X164310000Y-46510000D02*
X164310000Y-42490000D01*
X156290000Y-44310000D02*
X156290000Y-46810000D01*
X156590000Y-46510000D02*
X164310000Y-46510000D01*
X163310000Y-45010000D02*
X163310000Y-46510000D01*
X164310000Y-45010000D02*
X163310000Y-45010000D01*
%TO.C,M2*%
X143090000Y-79190000D02*
X143090000Y-83210000D01*
X158310000Y-79190000D02*
X143090000Y-79190000D01*
X143090000Y-81710000D02*
X144090000Y-81710000D01*
X142790000Y-83510000D02*
X145290000Y-83510000D01*
X143590000Y-80900000D02*
X143590000Y-79690000D01*
X157810000Y-79690000D02*
X157810000Y-80900000D01*
X143090000Y-80900000D02*
X143590000Y-80900000D01*
X143590000Y-79690000D02*
X157810000Y-79690000D01*
X158310000Y-83210000D02*
X158310000Y-79190000D01*
X157310000Y-81710000D02*
X157310000Y-83210000D01*
X143090000Y-83210000D02*
X158310000Y-83210000D01*
X142790000Y-81010000D02*
X142790000Y-83510000D01*
X157810000Y-80900000D02*
X158310000Y-80900000D01*
X158310000Y-81710000D02*
X157310000Y-81710000D01*
X144090000Y-81710000D02*
X144090000Y-83210000D01*
%TO.C,M1*%
X160490000Y-79190000D02*
X160490000Y-83210000D01*
X175710000Y-79190000D02*
X160490000Y-79190000D01*
X160490000Y-81710000D02*
X161490000Y-81710000D01*
X160190000Y-83510000D02*
X162690000Y-83510000D01*
X160990000Y-80900000D02*
X160990000Y-79690000D01*
X175210000Y-79690000D02*
X175210000Y-80900000D01*
X160490000Y-80900000D02*
X160990000Y-80900000D01*
X160990000Y-79690000D02*
X175210000Y-79690000D01*
X175710000Y-83210000D02*
X175710000Y-79190000D01*
X174710000Y-81710000D02*
X174710000Y-83210000D01*
X160490000Y-83210000D02*
X175710000Y-83210000D01*
X160190000Y-81010000D02*
X160190000Y-83510000D01*
X175210000Y-80900000D02*
X175710000Y-80900000D01*
X175710000Y-81710000D02*
X174710000Y-81710000D01*
X161490000Y-81710000D02*
X161490000Y-83210000D01*
%TO.C,GND*%
X182670000Y-59870000D02*
X185330000Y-59870000D01*
X182670000Y-57270000D02*
X184000000Y-57270000D01*
X185330000Y-59870000D02*
X185330000Y-65010000D01*
X182670000Y-58600000D02*
X182670000Y-57270000D01*
X182670000Y-59870000D02*
X182670000Y-65010000D01*
X182670000Y-65010000D02*
X185330000Y-65010000D01*
%TO.C,END_SW*%
X188310000Y-81810000D02*
X187310000Y-81810000D01*
X187310000Y-81810000D02*
X187310000Y-83310000D01*
X180590000Y-83310000D02*
X188310000Y-83310000D01*
X180290000Y-81110000D02*
X180290000Y-83610000D01*
X188310000Y-83310000D02*
X188310000Y-79290000D01*
X180590000Y-81000000D02*
X181090000Y-81000000D01*
X180290000Y-83610000D02*
X182790000Y-83610000D01*
X180590000Y-79290000D02*
X180590000Y-83310000D01*
X187810000Y-81000000D02*
X188310000Y-81000000D01*
X187810000Y-79790000D02*
X187810000Y-81000000D01*
X181590000Y-81810000D02*
X181590000Y-83310000D01*
X180590000Y-81810000D02*
X181590000Y-81810000D01*
X181090000Y-79790000D02*
X187810000Y-79790000D01*
X188310000Y-79290000D02*
X180590000Y-79290000D01*
X181090000Y-81000000D02*
X181090000Y-79790000D01*
%TO.C,DS18D1*%
X105090000Y-80090000D02*
X114310000Y-80090000D01*
X114810000Y-83610000D02*
X114810000Y-79590000D01*
X104590000Y-81300000D02*
X105090000Y-81300000D01*
X104590000Y-79590000D02*
X104590000Y-83610000D01*
X105590000Y-82110000D02*
X105590000Y-83610000D01*
X104590000Y-82110000D02*
X105590000Y-82110000D01*
X114810000Y-79590000D02*
X104590000Y-79590000D01*
X104290000Y-83910000D02*
X106790000Y-83910000D01*
X105090000Y-81300000D02*
X105090000Y-80090000D01*
X114810000Y-82110000D02*
X113810000Y-82110000D01*
X104290000Y-81410000D02*
X104290000Y-83910000D01*
X114310000Y-80090000D02*
X114310000Y-81300000D01*
X113810000Y-82110000D02*
X113810000Y-83610000D01*
X114310000Y-81300000D02*
X114810000Y-81300000D01*
X104590000Y-83610000D02*
X114810000Y-83610000D01*
%TO.C,C3 0.1uF*%
X181930000Y-71580000D02*
X185970000Y-71580000D01*
X181930000Y-73795000D02*
X181930000Y-74420000D01*
X181930000Y-71580000D02*
X181930000Y-72205000D01*
X185970000Y-73795000D02*
X185970000Y-74420000D01*
X185970000Y-71580000D02*
X185970000Y-72205000D01*
X181930000Y-74420000D02*
X185970000Y-74420000D01*
%TO.C,C1 10uF*%
X151970000Y-45000000D02*
G75*
G03*
X151970000Y-45000000I-2620000J0D01*
G01*
X151151000Y-43136000D02*
X151151000Y-43960000D01*
X151311000Y-46040000D02*
X151311000Y-46699000D01*
X150111000Y-42532000D02*
X150111000Y-43960000D01*
X151391000Y-43395000D02*
X151391000Y-43960000D01*
X149790000Y-46040000D02*
X149790000Y-47543000D01*
X151111000Y-43099000D02*
X151111000Y-43960000D01*
X151471000Y-46040000D02*
X151471000Y-46500000D01*
X149630000Y-42435000D02*
X149630000Y-43960000D01*
X151031000Y-46040000D02*
X151031000Y-46971000D01*
X151791000Y-44085000D02*
X151791000Y-45915000D01*
X151431000Y-46040000D02*
X151431000Y-46554000D01*
X150511000Y-42690000D02*
X150511000Y-43960000D01*
X151431000Y-43446000D02*
X151431000Y-43960000D01*
X150591000Y-42732000D02*
X150591000Y-43960000D01*
X150551000Y-46040000D02*
X150551000Y-47290000D01*
X149670000Y-46040000D02*
X149670000Y-47561000D01*
X150871000Y-46040000D02*
X150871000Y-47095000D01*
X150030000Y-42509000D02*
X150030000Y-43960000D01*
X151031000Y-43029000D02*
X151031000Y-43960000D01*
X150431000Y-42652000D02*
X150431000Y-43960000D01*
X146795225Y-43275000D02*
X146795225Y-43775000D01*
X150271000Y-46040000D02*
X150271000Y-47414000D01*
X150711000Y-46040000D02*
X150711000Y-47200000D01*
X150831000Y-42878000D02*
X150831000Y-43960000D01*
X151671000Y-43822000D02*
X151671000Y-46178000D01*
X151471000Y-43500000D02*
X151471000Y-43960000D01*
X150991000Y-42996000D02*
X150991000Y-43960000D01*
X150351000Y-46040000D02*
X150351000Y-47382000D01*
X151751000Y-43989000D02*
X151751000Y-46011000D01*
X150231000Y-42572000D02*
X150231000Y-43960000D01*
X151951000Y-44716000D02*
X151951000Y-45284000D01*
X149630000Y-46040000D02*
X149630000Y-47565000D01*
X150231000Y-46040000D02*
X150231000Y-47428000D01*
X151631000Y-43749000D02*
X151631000Y-43960000D01*
X151831000Y-44195000D02*
X151831000Y-45805000D01*
X151391000Y-46040000D02*
X151391000Y-46605000D01*
X146545225Y-43525000D02*
X147045225Y-43525000D01*
X150311000Y-42602000D02*
X150311000Y-43960000D01*
X150671000Y-46040000D02*
X150671000Y-47224000D01*
X150151000Y-46040000D02*
X150151000Y-47455000D01*
X151111000Y-46040000D02*
X151111000Y-46901000D01*
X150631000Y-46040000D02*
X150631000Y-47247000D01*
X150911000Y-46040000D02*
X150911000Y-47065000D01*
X150191000Y-46040000D02*
X150191000Y-47442000D01*
X151071000Y-46040000D02*
X151071000Y-46937000D01*
X149710000Y-42444000D02*
X149710000Y-43960000D01*
X151351000Y-43347000D02*
X151351000Y-43960000D01*
X150391000Y-46040000D02*
X150391000Y-47365000D01*
X150911000Y-42935000D02*
X150911000Y-43960000D01*
X150551000Y-42710000D02*
X150551000Y-43960000D01*
X151231000Y-46040000D02*
X151231000Y-46785000D01*
X149950000Y-46040000D02*
X149950000Y-47511000D01*
X149590000Y-42431000D02*
X149590000Y-43960000D01*
X149550000Y-42427000D02*
X149550000Y-47573000D01*
X149470000Y-42422000D02*
X149470000Y-47578000D01*
X150311000Y-46040000D02*
X150311000Y-47398000D01*
X150751000Y-46040000D02*
X150751000Y-47175000D01*
X149750000Y-42450000D02*
X149750000Y-43960000D01*
X149910000Y-42480000D02*
X149910000Y-43960000D01*
X150191000Y-42558000D02*
X150191000Y-43960000D01*
X149750000Y-46040000D02*
X149750000Y-47550000D01*
X151191000Y-43174000D02*
X151191000Y-43960000D01*
X150951000Y-46040000D02*
X150951000Y-47035000D01*
X150711000Y-42800000D02*
X150711000Y-43960000D01*
X149670000Y-42439000D02*
X149670000Y-43960000D01*
X149990000Y-42499000D02*
X149990000Y-43960000D01*
X151351000Y-46040000D02*
X151351000Y-46653000D01*
X150391000Y-42635000D02*
X150391000Y-43960000D01*
X149390000Y-42420000D02*
X149390000Y-47580000D01*
X149870000Y-42472000D02*
X149870000Y-43960000D01*
X149990000Y-46040000D02*
X149990000Y-47501000D01*
X150351000Y-42618000D02*
X150351000Y-43960000D01*
X150591000Y-46040000D02*
X150591000Y-47268000D01*
X150871000Y-42905000D02*
X150871000Y-43960000D01*
X149510000Y-42424000D02*
X149510000Y-47576000D01*
X149790000Y-42457000D02*
X149790000Y-43960000D01*
X149870000Y-46040000D02*
X149870000Y-47528000D01*
X149590000Y-46040000D02*
X149590000Y-47569000D01*
X151271000Y-43257000D02*
X151271000Y-43960000D01*
X151711000Y-43902000D02*
X151711000Y-46098000D01*
X149950000Y-42489000D02*
X149950000Y-43960000D01*
X151551000Y-46040000D02*
X151551000Y-46383000D01*
X149710000Y-46040000D02*
X149710000Y-47556000D01*
X150471000Y-42671000D02*
X150471000Y-43960000D01*
X150791000Y-42851000D02*
X150791000Y-43960000D01*
X151071000Y-43063000D02*
X151071000Y-43960000D01*
X151511000Y-46040000D02*
X151511000Y-46443000D01*
X151231000Y-43215000D02*
X151231000Y-43960000D01*
X150111000Y-46040000D02*
X150111000Y-47468000D01*
X150751000Y-42825000D02*
X150751000Y-43960000D01*
X151871000Y-44323000D02*
X151871000Y-45677000D01*
X150030000Y-46040000D02*
X150030000Y-47491000D01*
X150271000Y-42586000D02*
X150271000Y-43960000D01*
X150071000Y-42520000D02*
X150071000Y-43960000D01*
X149830000Y-42464000D02*
X149830000Y-43960000D01*
X149910000Y-46040000D02*
X149910000Y-47520000D01*
X151151000Y-46040000D02*
X151151000Y-46864000D01*
X151631000Y-46040000D02*
X151631000Y-46251000D01*
X151591000Y-46040000D02*
X151591000Y-46319000D01*
X150991000Y-46040000D02*
X150991000Y-47004000D01*
X151271000Y-46040000D02*
X151271000Y-46743000D01*
X150471000Y-46040000D02*
X150471000Y-47329000D01*
X150671000Y-42776000D02*
X150671000Y-43960000D01*
X150151000Y-42545000D02*
X150151000Y-43960000D01*
X151911000Y-44482000D02*
X151911000Y-45518000D01*
X150951000Y-42965000D02*
X150951000Y-43960000D01*
X149430000Y-42421000D02*
X149430000Y-47579000D01*
X151511000Y-43557000D02*
X151511000Y-43960000D01*
X150831000Y-46040000D02*
X150831000Y-47122000D01*
X150071000Y-46040000D02*
X150071000Y-47480000D01*
X150791000Y-46040000D02*
X150791000Y-47149000D01*
X151191000Y-46040000D02*
X151191000Y-46826000D01*
X150511000Y-46040000D02*
X150511000Y-47310000D01*
X149350000Y-42420000D02*
X149350000Y-47580000D01*
X150631000Y-42753000D02*
X150631000Y-43960000D01*
X149830000Y-46040000D02*
X149830000Y-47536000D01*
X151551000Y-43617000D02*
X151551000Y-43960000D01*
X151591000Y-43681000D02*
X151591000Y-43960000D01*
X151311000Y-43301000D02*
X151311000Y-43960000D01*
X150431000Y-46040000D02*
X150431000Y-47348000D01*
%TO.C,C2 0.1uF*%
X168530000Y-42980000D02*
X172570000Y-42980000D01*
X168530000Y-45195000D02*
X168530000Y-45820000D01*
X168530000Y-42980000D02*
X168530000Y-43605000D01*
X172570000Y-45195000D02*
X172570000Y-45820000D01*
X172570000Y-42980000D02*
X172570000Y-43605000D01*
X168530000Y-45820000D02*
X172570000Y-45820000D01*
%TO.C,15 38 40*%
X113330000Y-49755000D02*
X110670000Y-49755000D01*
X113330000Y-52355000D02*
X112000000Y-52355000D01*
X110670000Y-49755000D02*
X110670000Y-44615000D01*
X113330000Y-51025000D02*
X113330000Y-52355000D01*
X113330000Y-49755000D02*
X113330000Y-44615000D01*
X113330000Y-44615000D02*
X110670000Y-44615000D01*
%TO.C,9 10 11 12 13 14*%
X123690000Y-80070000D02*
X136450000Y-80070000D01*
X136450000Y-82730000D02*
X136450000Y-80070000D01*
X123690000Y-82730000D02*
X123690000Y-80070000D01*
X121090000Y-82730000D02*
X121090000Y-81400000D01*
X122420000Y-82730000D02*
X121090000Y-82730000D01*
X123690000Y-82730000D02*
X136450000Y-82730000D01*
%TO.C,39 37 35 33 18 16*%
X110670000Y-66730000D02*
X110670000Y-53970000D01*
X113330000Y-53970000D02*
X110670000Y-53970000D01*
X113330000Y-66730000D02*
X110670000Y-66730000D01*
X113330000Y-69330000D02*
X112000000Y-69330000D01*
X113330000Y-68000000D02*
X113330000Y-69330000D01*
X113330000Y-66730000D02*
X113330000Y-53970000D01*
%TO.C,5V*%
X178170000Y-59855000D02*
X180830000Y-59855000D01*
X178170000Y-57255000D02*
X179500000Y-57255000D01*
X180830000Y-59855000D02*
X180830000Y-64995000D01*
X178170000Y-58585000D02*
X178170000Y-57255000D01*
X178170000Y-59855000D02*
X178170000Y-64995000D01*
X178170000Y-64995000D02*
X180830000Y-64995000D01*
%TO.C,3_3V*%
X187170000Y-59870000D02*
X189830000Y-59870000D01*
X187170000Y-57270000D02*
X188500000Y-57270000D01*
X189830000Y-59870000D02*
X189830000Y-65010000D01*
X187170000Y-58600000D02*
X187170000Y-57270000D01*
X187170000Y-59870000D02*
X187170000Y-65010000D01*
X187170000Y-65010000D02*
X189830000Y-65010000D01*
%TO.C,G\u002A\u002A\u002A*%
G36*
X109765460Y-34172656D02*
G01*
X110021440Y-34210642D01*
X110276834Y-34266277D01*
X110394586Y-34299396D01*
X110523172Y-34331992D01*
X110698181Y-34367198D01*
X110885681Y-34398312D01*
X110920383Y-34403272D01*
X111127115Y-34436813D01*
X111347575Y-34480226D01*
X111536303Y-34524507D01*
X111547293Y-34527445D01*
X111720499Y-34570655D01*
X111891967Y-34607603D01*
X112012421Y-34628427D01*
X112154172Y-34657465D01*
X112282273Y-34699537D01*
X112309304Y-34712014D01*
X112406500Y-34747395D01*
X112479710Y-34749828D01*
X112480059Y-34749696D01*
X112557460Y-34745610D01*
X112648304Y-34764330D01*
X112760694Y-34791553D01*
X112902865Y-34815110D01*
X112943992Y-34820058D01*
X113071458Y-34839158D01*
X113244332Y-34872095D01*
X113429701Y-34912492D01*
X113469788Y-34921962D01*
X113677632Y-34967372D01*
X113903745Y-35009809D01*
X114101850Y-35040641D01*
X114115606Y-35042411D01*
X114335571Y-35081803D01*
X114539180Y-35139461D01*
X114706340Y-35208265D01*
X114816956Y-35281093D01*
X114830841Y-35295894D01*
X114901837Y-35429729D01*
X114891963Y-35562373D01*
X114815577Y-35678616D01*
X114719813Y-35782483D01*
X114605864Y-35908266D01*
X114553091Y-35967257D01*
X114454207Y-36069942D01*
X114363416Y-36150323D01*
X114323187Y-36178027D01*
X114233558Y-36207002D01*
X114122668Y-36220678D01*
X114026856Y-36216567D01*
X113987423Y-36201010D01*
X113952511Y-36186795D01*
X113864912Y-36164594D01*
X113718332Y-36133071D01*
X113506478Y-36090896D01*
X113223057Y-36036733D01*
X113124682Y-36018238D01*
X112948992Y-35982283D01*
X112767433Y-35940532D01*
X112679778Y-35918192D01*
X112546596Y-35886309D01*
X112365248Y-35848181D01*
X112167440Y-35810349D01*
X112093313Y-35797197D01*
X111789178Y-35743044D01*
X111550591Y-35696700D01*
X111362952Y-35655041D01*
X111211659Y-35614940D01*
X111142835Y-35593774D01*
X111008709Y-35560079D01*
X110840572Y-35530476D01*
X110738376Y-35517888D01*
X110588585Y-35496667D01*
X110393815Y-35459931D01*
X110186937Y-35414130D01*
X110100231Y-35392686D01*
X109917072Y-35348853D01*
X109749730Y-35314520D01*
X109622425Y-35294394D01*
X109577304Y-35291082D01*
X109471917Y-35279370D01*
X109324005Y-35248846D01*
X109184080Y-35211409D01*
X109030136Y-35166879D01*
X108891959Y-35129681D01*
X108807598Y-35109652D01*
X108706778Y-35062073D01*
X108627309Y-34978643D01*
X108589956Y-34885747D01*
X108595097Y-34839625D01*
X108643713Y-34778132D01*
X108727463Y-34713873D01*
X108807691Y-34655270D01*
X108924748Y-34558396D01*
X109057260Y-34441156D01*
X109099118Y-34402558D01*
X109229549Y-34284158D01*
X109323168Y-34211737D01*
X109400433Y-34174143D01*
X109481801Y-34160228D01*
X109546705Y-34158598D01*
X109765460Y-34172656D01*
G37*
G36*
X115306011Y-28982557D02*
G01*
X115370551Y-29043394D01*
X115421182Y-29113190D01*
X115455497Y-29207310D01*
X115479476Y-29346942D01*
X115492728Y-29476432D01*
X115519709Y-29732643D01*
X115554969Y-29992882D01*
X115595493Y-30240354D01*
X115638264Y-30458264D01*
X115680264Y-30629819D01*
X115718479Y-30738223D01*
X115719843Y-30740923D01*
X115752932Y-30838087D01*
X115785036Y-30987672D01*
X115810358Y-31161349D01*
X115815029Y-31206051D01*
X115840630Y-31429926D01*
X115872223Y-31638457D01*
X115906439Y-31813455D01*
X115939910Y-31936732D01*
X115957977Y-31977895D01*
X115976896Y-32040154D01*
X115994354Y-32147014D01*
X115997879Y-32178761D01*
X116017257Y-32300166D01*
X116044653Y-32394146D01*
X116050833Y-32406958D01*
X116090439Y-32456022D01*
X116177491Y-32551360D01*
X116301926Y-32682357D01*
X116453685Y-32838396D01*
X116595831Y-32981972D01*
X116767656Y-33158519D01*
X116916338Y-33319673D01*
X117032472Y-33454617D01*
X117106650Y-33552535D01*
X117129096Y-33595178D01*
X117133472Y-33646671D01*
X117114181Y-33700835D01*
X117061835Y-33769943D01*
X116967046Y-33866271D01*
X116820426Y-34002092D01*
X116811997Y-34009748D01*
X116668351Y-34134041D01*
X116539236Y-34234660D01*
X116439936Y-34300366D01*
X116389633Y-34320382D01*
X116318564Y-34290173D01*
X116224995Y-34211699D01*
X116167406Y-34148487D01*
X116086471Y-34055757D01*
X115963848Y-33921673D01*
X115814642Y-33762483D01*
X115653961Y-33594435D01*
X115612764Y-33551910D01*
X115428458Y-33362522D01*
X115290565Y-33216332D01*
X115190748Y-33096992D01*
X115120672Y-32988151D01*
X115072000Y-32873459D01*
X115036396Y-32736569D01*
X115005524Y-32561129D01*
X114971048Y-32330790D01*
X114963162Y-32277866D01*
X114932293Y-32101618D01*
X114894634Y-31927868D01*
X114863754Y-31812738D01*
X114831047Y-31684081D01*
X114796290Y-31508975D01*
X114766098Y-31321397D01*
X114761395Y-31286942D01*
X114739395Y-31130067D01*
X114714877Y-30979981D01*
X114684428Y-30819886D01*
X114644631Y-30632984D01*
X114592074Y-30402478D01*
X114523342Y-30111569D01*
X114517625Y-30087620D01*
X114482326Y-29915089D01*
X114464660Y-29774101D01*
X114467162Y-29686095D01*
X114469352Y-29678998D01*
X114513792Y-29616967D01*
X114604409Y-29522983D01*
X114723640Y-29414901D01*
X114755324Y-29388216D01*
X114877206Y-29282490D01*
X114973672Y-29190166D01*
X115027993Y-29127517D01*
X115033235Y-29117875D01*
X115083216Y-29058413D01*
X115166697Y-29002010D01*
X115248195Y-28968327D01*
X115306011Y-28982557D01*
G37*
G36*
X103969036Y-39026185D02*
G01*
X104060979Y-39077257D01*
X104177719Y-39179933D01*
X104297316Y-39303055D01*
X104439761Y-39462546D01*
X104527352Y-39586819D01*
X104566081Y-39693954D01*
X104561939Y-39802035D01*
X104520921Y-39929144D01*
X104512007Y-39950851D01*
X104439947Y-40220695D01*
X104431372Y-40515445D01*
X104484767Y-40811857D01*
X104584199Y-41060152D01*
X104681939Y-41203052D01*
X104824439Y-41361026D01*
X104987953Y-41511635D01*
X105148734Y-41632440D01*
X105248633Y-41688000D01*
X105486843Y-41783377D01*
X105677449Y-41836442D01*
X105839728Y-41850385D01*
X105992959Y-41828394D01*
X106032262Y-41817611D01*
X106188441Y-41781228D01*
X106316529Y-41781543D01*
X106434499Y-41825766D01*
X106560323Y-41921104D01*
X106711972Y-42074764D01*
X106734328Y-42099190D01*
X106896645Y-42287652D01*
X106995247Y-42432592D01*
X107028870Y-42541901D01*
X106996250Y-42623471D01*
X106896123Y-42685193D01*
X106727224Y-42734958D01*
X106629214Y-42755406D01*
X106336717Y-42812820D01*
X106113191Y-42858768D01*
X105962671Y-42892405D01*
X105905096Y-42907506D01*
X105844290Y-42906416D01*
X105721552Y-42890351D01*
X105553896Y-42861960D01*
X105358340Y-42823893D01*
X105329278Y-42817853D01*
X105131898Y-42773636D01*
X104961521Y-42730113D01*
X104834844Y-42691932D01*
X104768566Y-42663738D01*
X104765058Y-42660853D01*
X104684234Y-42618458D01*
X104638827Y-42611783D01*
X104578459Y-42582967D01*
X104477373Y-42504379D01*
X104347325Y-42387808D01*
X104200074Y-42245040D01*
X104047377Y-42087865D01*
X103900991Y-41928072D01*
X103772675Y-41777448D01*
X103674185Y-41647781D01*
X103667302Y-41637714D01*
X103572932Y-41474171D01*
X103490279Y-41290152D01*
X103450815Y-41172586D01*
X103405856Y-40932206D01*
X103387027Y-40661116D01*
X103392037Y-40373047D01*
X103418592Y-40081732D01*
X103464401Y-39800900D01*
X103527172Y-39544284D01*
X103604613Y-39325614D01*
X103694431Y-39158622D01*
X103794335Y-39057038D01*
X103804980Y-39050905D01*
X103888250Y-39019729D01*
X103969036Y-39026185D01*
G37*
G36*
X108207775Y-37706472D02*
G01*
X108282529Y-37783224D01*
X108377119Y-37891894D01*
X108390270Y-37907775D01*
X108579937Y-38138162D01*
X108552715Y-38428662D01*
X108542634Y-38591761D01*
X108542523Y-38738360D01*
X108552187Y-38835297D01*
X108626139Y-38998262D01*
X108762545Y-39154920D01*
X108943746Y-39287751D01*
X109071779Y-39350838D01*
X109225666Y-39404080D01*
X109359825Y-39422451D01*
X109505214Y-39406164D01*
X109692795Y-39355434D01*
X109693797Y-39355123D01*
X109752206Y-39352110D01*
X109819850Y-39386429D01*
X109912390Y-39468201D01*
X109986238Y-39544102D01*
X110086174Y-39656100D01*
X110159275Y-39750100D01*
X110191188Y-39807465D01*
X110191566Y-39810700D01*
X110156348Y-39855697D01*
X110060719Y-39916177D01*
X109921330Y-39983025D01*
X109767676Y-40042693D01*
X109659008Y-40064543D01*
X109500502Y-40078074D01*
X109320607Y-40082927D01*
X109147776Y-40078738D01*
X109010458Y-40065147D01*
X108958758Y-40052976D01*
X108755215Y-39965499D01*
X108546424Y-39848895D01*
X108362012Y-39721198D01*
X108250956Y-39622126D01*
X108054765Y-39356554D01*
X107922150Y-39051102D01*
X107856372Y-38719795D01*
X107860691Y-38376656D01*
X107906313Y-38140083D01*
X107964138Y-37966367D01*
X108032816Y-37820196D01*
X108102866Y-37718329D01*
X108164807Y-37677528D01*
X108168046Y-37677388D01*
X108207775Y-37706472D01*
G37*
G36*
X109600663Y-37061266D02*
G01*
X109921309Y-37141215D01*
X110215583Y-37291047D01*
X110474121Y-37505440D01*
X110687555Y-37779070D01*
X110759941Y-37907322D01*
X110836046Y-38125235D01*
X110873948Y-38388511D01*
X110872973Y-38670853D01*
X110832447Y-38945965D01*
X110790335Y-39092478D01*
X110733394Y-39231541D01*
X110677992Y-39328415D01*
X110637262Y-39364318D01*
X110581045Y-39340653D01*
X110494239Y-39269569D01*
X110404862Y-39176615D01*
X110233131Y-38979455D01*
X110258578Y-38620966D01*
X110268890Y-38443048D01*
X110268130Y-38327864D01*
X110254565Y-38257799D01*
X110226465Y-38215238D01*
X110217968Y-38207656D01*
X110163781Y-38140760D01*
X110151911Y-38101824D01*
X110119584Y-38034858D01*
X110036391Y-37946845D01*
X109923020Y-37854471D01*
X109800155Y-37774425D01*
X109688483Y-37723393D01*
X109679535Y-37720751D01*
X109469777Y-37683408D01*
X109272128Y-37685537D01*
X109125006Y-37723159D01*
X109068231Y-37741925D01*
X109015659Y-37732638D01*
X108949355Y-37685566D01*
X108851387Y-37590980D01*
X108817397Y-37556255D01*
X108712247Y-37437945D01*
X108647024Y-37342894D01*
X108631970Y-37286962D01*
X108691747Y-37225610D01*
X108813047Y-37164285D01*
X108976800Y-37109953D01*
X109163936Y-37069577D01*
X109263011Y-37056524D01*
X109600663Y-37061266D01*
G37*
G36*
X108223087Y-40196039D02*
G01*
X108319163Y-40220914D01*
X108363953Y-40241387D01*
X108450468Y-40297957D01*
X108486913Y-40368868D01*
X108493631Y-40467819D01*
X108478305Y-40612778D01*
X108441024Y-40750606D01*
X108437182Y-40760013D01*
X108401416Y-40854602D01*
X108350174Y-41003299D01*
X108291350Y-41182768D01*
X108251776Y-41308123D01*
X108189925Y-41499237D01*
X108140369Y-41627728D01*
X108095036Y-41709259D01*
X108045857Y-41759494D01*
X108006890Y-41783362D01*
X107918283Y-41825025D01*
X107863545Y-41843278D01*
X107862516Y-41843312D01*
X107821777Y-41815927D01*
X107745779Y-41745076D01*
X107674745Y-41671417D01*
X107574659Y-41554883D01*
X107490800Y-41442487D01*
X107457467Y-41388296D01*
X107405640Y-41310209D01*
X107361533Y-41277078D01*
X107361041Y-41277070D01*
X107313476Y-41246574D01*
X107256964Y-41176949D01*
X107223546Y-41116933D01*
X107213722Y-41057171D01*
X107228790Y-40973053D01*
X107270051Y-40839971D01*
X107275660Y-40823048D01*
X107323389Y-40672371D01*
X107362388Y-40536803D01*
X107381417Y-40458553D01*
X107425739Y-40354743D01*
X107518783Y-40280448D01*
X107670555Y-40230784D01*
X107891064Y-40200869D01*
X107913192Y-40199088D01*
X108095855Y-40189523D01*
X108223087Y-40196039D01*
G37*
G36*
X111276139Y-36111245D02*
G01*
X111391142Y-36137105D01*
X111552875Y-36175309D01*
X111745477Y-36222167D01*
X111789489Y-36233041D01*
X112314806Y-36363182D01*
X112340605Y-36545046D01*
X112355655Y-36671251D01*
X112372860Y-36845985D01*
X112389117Y-37037057D01*
X112393211Y-37090923D01*
X112407917Y-37269202D01*
X112423909Y-37429302D01*
X112438449Y-37544764D01*
X112442845Y-37570530D01*
X112441715Y-37666637D01*
X112414687Y-37784289D01*
X112371579Y-37896774D01*
X112322211Y-37977377D01*
X112284627Y-38000955D01*
X112231631Y-38024730D01*
X112145308Y-38084384D01*
X112110251Y-38112181D01*
X111934012Y-38253662D01*
X111804179Y-38346107D01*
X111707062Y-38394631D01*
X111628972Y-38404349D01*
X111556220Y-38380374D01*
X111495037Y-38342040D01*
X111393407Y-38231285D01*
X111325000Y-38061340D01*
X111287863Y-37825860D01*
X111279656Y-37641910D01*
X111272164Y-37429983D01*
X111256761Y-37201065D01*
X111236679Y-37002514D01*
X111235253Y-36991514D01*
X111211738Y-36779629D01*
X111196654Y-36573016D01*
X111190194Y-36386785D01*
X111192555Y-36236047D01*
X111203933Y-36135911D01*
X111223727Y-36101419D01*
X111276139Y-36111245D01*
G37*
G36*
X115335400Y-36882907D02*
G01*
X115392408Y-36912341D01*
X115502509Y-36970862D01*
X115647745Y-37048883D01*
X115753663Y-37106154D01*
X115958710Y-37216280D01*
X116185638Y-37336564D01*
X116394491Y-37445867D01*
X116451354Y-37475265D01*
X116597139Y-37555230D01*
X116710619Y-37626823D01*
X116775683Y-37679401D01*
X116785032Y-37695616D01*
X116757833Y-37755081D01*
X116692168Y-37831407D01*
X116689896Y-37833555D01*
X116606120Y-37892821D01*
X116510038Y-37906255D01*
X116437109Y-37897817D01*
X116322561Y-37889514D01*
X116243756Y-37919628D01*
X116181406Y-37977275D01*
X116089112Y-38059764D01*
X116024759Y-38069833D01*
X115975596Y-38004971D01*
X115948849Y-37931493D01*
X115923398Y-37786228D01*
X115940042Y-37709663D01*
X115951070Y-37661706D01*
X115917068Y-37617147D01*
X115824816Y-37561626D01*
X115785088Y-37541327D01*
X115651688Y-37474310D01*
X115481052Y-37388394D01*
X115308132Y-37301180D01*
X115293465Y-37293774D01*
X114995051Y-37143081D01*
X115138100Y-37000031D01*
X115237850Y-36915700D01*
X115314437Y-36880452D01*
X115335400Y-36882907D01*
G37*
G36*
X111889882Y-32114414D02*
G01*
X111900657Y-32126194D01*
X111933896Y-32177380D01*
X111961546Y-32255404D01*
X111985499Y-32371418D01*
X112007650Y-32536578D01*
X112029892Y-32762037D01*
X112050009Y-33005891D01*
X112068084Y-33230129D01*
X112087905Y-33464719D01*
X112106413Y-33673884D01*
X112114841Y-33764251D01*
X112144916Y-34077707D01*
X111967442Y-34073962D01*
X111846901Y-34063357D01*
X111677358Y-34038260D01*
X111488410Y-34003288D01*
X111414363Y-33987643D01*
X111210080Y-33936245D01*
X111071371Y-33886964D01*
X111005484Y-33842413D01*
X111003880Y-33839716D01*
X110985473Y-33766049D01*
X110969974Y-33632655D01*
X110958053Y-33460558D01*
X110950381Y-33270783D01*
X110947629Y-33084351D01*
X110950467Y-32922288D01*
X110959566Y-32805617D01*
X110969542Y-32763216D01*
X111022471Y-32692371D01*
X111115940Y-32601901D01*
X111175901Y-32552844D01*
X111301364Y-32450431D01*
X111445123Y-32323965D01*
X111535711Y-32239389D01*
X111663056Y-32125170D01*
X111754596Y-32069350D01*
X111825236Y-32067305D01*
X111889882Y-32114414D01*
G37*
G36*
X112810842Y-31320935D02*
G01*
X112991768Y-31357569D01*
X113037791Y-31368515D01*
X113274349Y-31426980D01*
X113445044Y-31476586D01*
X113562321Y-31528753D01*
X113638624Y-31594903D01*
X113686399Y-31686457D01*
X113718091Y-31814837D01*
X113746143Y-31991464D01*
X113750818Y-32022902D01*
X113772990Y-32235787D01*
X113763776Y-32380838D01*
X113721074Y-32465624D01*
X113642781Y-32497717D01*
X113618721Y-32498425D01*
X113540731Y-32485285D01*
X113409829Y-32451858D01*
X113249527Y-32404365D01*
X113185351Y-32383778D01*
X112971367Y-32319139D01*
X112726954Y-32253588D01*
X112501345Y-32200250D01*
X112479659Y-32195664D01*
X112250220Y-32138156D01*
X112094162Y-32074620D01*
X112003995Y-32000726D01*
X111972228Y-31912146D01*
X111971975Y-31902291D01*
X112001245Y-31851651D01*
X112078857Y-31765163D01*
X112189517Y-31656920D01*
X112317928Y-31541012D01*
X112448797Y-31431528D01*
X112566827Y-31342560D01*
X112611687Y-31312965D01*
X112679592Y-31305473D01*
X112810842Y-31320935D01*
G37*
G36*
X118317192Y-34842401D02*
G01*
X118531391Y-34944266D01*
X118712527Y-35119004D01*
X118767716Y-35197800D01*
X118862637Y-35416549D01*
X118889401Y-35651076D01*
X118849562Y-35881496D01*
X118744678Y-36087925D01*
X118693140Y-36150557D01*
X118612898Y-36231335D01*
X118560716Y-36254605D01*
X118511429Y-36223774D01*
X118472524Y-36180429D01*
X118411324Y-36082694D01*
X118420555Y-35997966D01*
X118467128Y-35934247D01*
X118542325Y-35800292D01*
X118575236Y-35632533D01*
X118559751Y-35469518D01*
X118546752Y-35431970D01*
X118439606Y-35267585D01*
X118287164Y-35166243D01*
X118098783Y-35131346D01*
X117883821Y-35166300D01*
X117848974Y-35178099D01*
X117750852Y-35205365D01*
X117685607Y-35190290D01*
X117628142Y-35141021D01*
X117568682Y-35055156D01*
X117580704Y-34982429D01*
X117667472Y-34917808D01*
X117808049Y-34863714D01*
X118074540Y-34815015D01*
X118317192Y-34842401D01*
G37*
G36*
X117055252Y-35728531D02*
G01*
X117134603Y-35761664D01*
X117277451Y-35871006D01*
X117373249Y-36028596D01*
X117413880Y-36211778D01*
X117391229Y-36397894D01*
X117376704Y-36437567D01*
X117323138Y-36530325D01*
X117241092Y-36636964D01*
X117149929Y-36736040D01*
X117069013Y-36806106D01*
X117025202Y-36826839D01*
X116988739Y-36798373D01*
X116927767Y-36726604D01*
X116913976Y-36708325D01*
X116847861Y-36608792D01*
X116835751Y-36539934D01*
X116882359Y-36474896D01*
X116967039Y-36406086D01*
X117066556Y-36321739D01*
X117101536Y-36258247D01*
X117076743Y-36194745D01*
X117027707Y-36140445D01*
X116907814Y-36070002D01*
X116771977Y-36076322D01*
X116645424Y-36146136D01*
X116535353Y-36232718D01*
X116427629Y-36123721D01*
X116319905Y-36014723D01*
X116501911Y-35856339D01*
X116682148Y-35735986D01*
X116862694Y-35693967D01*
X117055252Y-35728531D01*
G37*
G36*
X106118161Y-37916910D02*
G01*
X106242535Y-37933414D01*
X106309422Y-37960244D01*
X106312913Y-37964558D01*
X106337573Y-38053860D01*
X106343369Y-38195365D01*
X106333147Y-38365504D01*
X106309754Y-38540709D01*
X106276037Y-38697412D01*
X106234844Y-38812046D01*
X106205632Y-38852649D01*
X106143036Y-38873606D01*
X106018691Y-38892783D01*
X105851739Y-38907733D01*
X105724132Y-38914218D01*
X105298420Y-38929488D01*
X105094771Y-38670350D01*
X104996188Y-38548351D01*
X104914602Y-38453692D01*
X104864114Y-38402539D01*
X104857436Y-38398201D01*
X104810888Y-38343319D01*
X104794838Y-38251946D01*
X104814960Y-38164581D01*
X104822980Y-38152249D01*
X104888283Y-38111288D01*
X105018435Y-38064412D01*
X105198031Y-38015875D01*
X105411671Y-37969932D01*
X105601752Y-37937133D01*
X105777605Y-37917992D01*
X105956463Y-37911511D01*
X106118161Y-37916910D01*
G37*
G36*
X112163752Y-39566663D02*
G01*
X112241242Y-39641410D01*
X112317983Y-39727298D01*
X112431345Y-39858952D01*
X112568106Y-40013719D01*
X112683887Y-40141868D01*
X112867166Y-40343739D01*
X112999476Y-40494141D01*
X113086223Y-40599609D01*
X113132819Y-40666681D01*
X113144905Y-40699005D01*
X113115460Y-40755735D01*
X113046695Y-40828257D01*
X112967968Y-40889622D01*
X112911744Y-40913057D01*
X112853325Y-40882231D01*
X112833459Y-40856335D01*
X112792245Y-40801603D01*
X112704942Y-40697515D01*
X112580375Y-40554115D01*
X112427367Y-40381445D01*
X112254742Y-40189549D01*
X112071323Y-39988469D01*
X112062978Y-39979389D01*
X111973095Y-39875774D01*
X111910881Y-39792890D01*
X111891083Y-39753094D01*
X111920000Y-39697206D01*
X111987343Y-39624358D01*
X112064004Y-39562112D01*
X112118361Y-39537898D01*
X112163752Y-39566663D01*
G37*
G36*
X112953938Y-39088050D02*
G01*
X113034487Y-39133159D01*
X113179299Y-39288743D01*
X113246363Y-39461048D01*
X113235014Y-39642268D01*
X113144589Y-39824598D01*
X113098274Y-39882552D01*
X112995784Y-39983913D01*
X112918288Y-40016560D01*
X112851500Y-39982496D01*
X112805767Y-39923556D01*
X112756806Y-39842073D01*
X112748981Y-39784459D01*
X112786460Y-39718983D01*
X112841416Y-39652032D01*
X112905845Y-39560377D01*
X112915518Y-39491738D01*
X112900661Y-39454075D01*
X112856214Y-39393184D01*
X112803211Y-39385110D01*
X112723204Y-39432094D01*
X112659618Y-39483382D01*
X112532138Y-39590649D01*
X112424434Y-39482945D01*
X112355583Y-39400781D01*
X112344721Y-39339707D01*
X112359821Y-39306927D01*
X112478356Y-39179288D01*
X112632042Y-39096359D01*
X112798146Y-39063995D01*
X112953938Y-39088050D01*
G37*
G36*
X115283879Y-37674432D02*
G01*
X115388065Y-37719035D01*
X115474973Y-37770197D01*
X115505236Y-37797322D01*
X115538506Y-37859752D01*
X115586964Y-37976509D01*
X115642434Y-38124475D01*
X115696745Y-38280531D01*
X115741723Y-38421559D01*
X115769194Y-38524441D01*
X115773886Y-38557188D01*
X115744350Y-38605080D01*
X115670392Y-38675804D01*
X115638082Y-38701625D01*
X115540202Y-38765258D01*
X115478780Y-38773881D01*
X115456076Y-38759005D01*
X115414289Y-38684855D01*
X115409873Y-38656480D01*
X115398229Y-38597531D01*
X115366545Y-38478963D01*
X115319689Y-38318118D01*
X115263845Y-38136500D01*
X115209039Y-37955402D01*
X115167332Y-37803677D01*
X115142756Y-37697069D01*
X115139347Y-37651323D01*
X115139479Y-37651179D01*
X115191367Y-37647958D01*
X115283879Y-37674432D01*
G37*
G36*
X114481447Y-37966286D02*
G01*
X114691938Y-38055108D01*
X114872504Y-38188368D01*
X115001184Y-38356728D01*
X115003528Y-38361269D01*
X115067893Y-38560343D01*
X115084312Y-38787774D01*
X115051504Y-39005846D01*
X115027701Y-39074069D01*
X114972289Y-39179020D01*
X114917477Y-39206598D01*
X114849426Y-39159023D01*
X114807416Y-39109409D01*
X114753617Y-39016880D01*
X114741089Y-38909407D01*
X114748910Y-38829200D01*
X114739582Y-38636392D01*
X114663894Y-38474609D01*
X114534237Y-38356384D01*
X114363001Y-38294247D01*
X114217435Y-38291669D01*
X114102129Y-38289467D01*
X114011401Y-38238809D01*
X113969434Y-38198372D01*
X113900314Y-38109091D01*
X113899127Y-38044739D01*
X113970587Y-37992671D01*
X114058533Y-37959322D01*
X114262992Y-37931244D01*
X114481447Y-37966286D01*
G37*
G36*
X113682290Y-38330789D02*
G01*
X113746251Y-38406839D01*
X113806551Y-38512244D01*
X113820847Y-38623883D01*
X113813439Y-38700071D01*
X113820477Y-38895463D01*
X113894445Y-39052656D01*
X114026866Y-39162734D01*
X114209262Y-39216777D01*
X114307992Y-39220351D01*
X114433397Y-39222093D01*
X114511268Y-39247302D01*
X114574281Y-39308959D01*
X114593008Y-39333569D01*
X114658852Y-39428352D01*
X114674401Y-39481105D01*
X114639422Y-39513340D01*
X114590844Y-39532976D01*
X114364745Y-39588197D01*
X114135828Y-39581334D01*
X113894790Y-39509815D01*
X113696579Y-39378217D01*
X113548266Y-39199022D01*
X113456919Y-38984709D01*
X113429610Y-38747762D01*
X113473408Y-38500660D01*
X113493086Y-38446678D01*
X113552415Y-38329966D01*
X113612024Y-38291880D01*
X113682290Y-38330789D01*
G37*
G36*
X117362882Y-35250168D02*
G01*
X117444133Y-35334295D01*
X117555576Y-35456998D01*
X117686849Y-35606138D01*
X117827589Y-35769573D01*
X117967435Y-35935165D01*
X118096023Y-36090772D01*
X118202991Y-36224256D01*
X118277977Y-36323477D01*
X118309588Y-36373524D01*
X118301514Y-36447783D01*
X118237082Y-36530881D01*
X118159485Y-36585728D01*
X118126470Y-36588518D01*
X118078761Y-36562208D01*
X118009311Y-36499765D01*
X117911068Y-36394153D01*
X117776983Y-36238338D01*
X117610140Y-36037597D01*
X117457589Y-35850326D01*
X117323695Y-35682140D01*
X117216780Y-35543807D01*
X117145168Y-35446095D01*
X117117213Y-35399917D01*
X117137166Y-35331674D01*
X117202178Y-35262260D01*
X117281619Y-35219044D01*
X117322187Y-35216757D01*
X117362882Y-35250168D01*
G37*
G36*
X116166236Y-36250804D02*
G01*
X116247429Y-36331308D01*
X116358877Y-36451006D01*
X116490264Y-36598055D01*
X116631274Y-36760613D01*
X116771590Y-36926835D01*
X116900897Y-37084880D01*
X117008878Y-37222902D01*
X117066083Y-37301023D01*
X117165128Y-37442456D01*
X117066083Y-37518577D01*
X116975699Y-37573626D01*
X116904829Y-37595597D01*
X116860380Y-37565867D01*
X116774984Y-37482749D01*
X116657930Y-37356251D01*
X116518512Y-37196384D01*
X116379033Y-37029115D01*
X116229644Y-36844124D01*
X116098883Y-36678102D01*
X115995207Y-36542122D01*
X115927077Y-36447259D01*
X115903111Y-36406056D01*
X115924904Y-36345885D01*
X115992638Y-36279651D01*
X116077217Y-36231507D01*
X116125613Y-36221337D01*
X116166236Y-36250804D01*
G37*
G36*
X113640908Y-39611467D02*
G01*
X113708239Y-39727321D01*
X113742022Y-39909618D01*
X113748243Y-40031536D01*
X113734516Y-40117430D01*
X113689407Y-40197996D01*
X113601479Y-40303933D01*
X113590440Y-40316480D01*
X113494684Y-40416726D01*
X113414099Y-40486237D01*
X113370970Y-40508598D01*
X113310081Y-40481361D01*
X113233591Y-40415779D01*
X113232847Y-40414988D01*
X113165807Y-40332372D01*
X113154510Y-40267481D01*
X113201949Y-40194849D01*
X113266242Y-40130914D01*
X113342792Y-40046912D01*
X113384816Y-39977948D01*
X113387580Y-39964292D01*
X113403075Y-39899358D01*
X113442637Y-39791078D01*
X113472540Y-39720126D01*
X113557501Y-39528059D01*
X113640908Y-39611467D01*
G37*
G36*
X117805356Y-36635787D02*
G01*
X117899796Y-36658430D01*
X117917516Y-36667352D01*
X117944240Y-36700238D01*
X117925302Y-36747290D01*
X117852696Y-36824572D01*
X117827107Y-36848739D01*
X117731035Y-36928760D01*
X117652567Y-36977299D01*
X117624878Y-36984484D01*
X117551355Y-36973654D01*
X117444395Y-36954845D01*
X117440686Y-36954150D01*
X117348625Y-36927185D01*
X117321237Y-36883821D01*
X117356794Y-36809874D01*
X117414245Y-36737022D01*
X117496639Y-36661440D01*
X117595848Y-36630307D01*
X117682341Y-36626415D01*
X117805356Y-36635787D01*
G37*
%TO.C,I2C_1*%
X125110000Y-97310000D02*
X125110000Y-93290000D01*
X125110000Y-95810000D02*
X124110000Y-95810000D01*
X125110000Y-93290000D02*
X112390000Y-93290000D01*
X124610000Y-95000000D02*
X125110000Y-95000000D01*
X124610000Y-93790000D02*
X124610000Y-95000000D01*
X124110000Y-95810000D02*
X124110000Y-97310000D01*
X113390000Y-95810000D02*
X113390000Y-97310000D01*
X112890000Y-95000000D02*
X112890000Y-93790000D01*
X112890000Y-93790000D02*
X124610000Y-93790000D01*
X112390000Y-97310000D02*
X125110000Y-97310000D01*
X112390000Y-95810000D02*
X113390000Y-95810000D01*
X112390000Y-95000000D02*
X112890000Y-95000000D01*
X112390000Y-93290000D02*
X112390000Y-97310000D01*
X112090000Y-97610000D02*
X114590000Y-97610000D01*
X112090000Y-95110000D02*
X112090000Y-97610000D01*
%TO.C,I2C_5*%
X186860000Y-97310000D02*
X186860000Y-93290000D01*
X186860000Y-95810000D02*
X185860000Y-95810000D01*
X186860000Y-93290000D02*
X174140000Y-93290000D01*
X186360000Y-95000000D02*
X186860000Y-95000000D01*
X186360000Y-93790000D02*
X186360000Y-95000000D01*
X185860000Y-95810000D02*
X185860000Y-97310000D01*
X175140000Y-95810000D02*
X175140000Y-97310000D01*
X174640000Y-95000000D02*
X174640000Y-93790000D01*
X174640000Y-93790000D02*
X186360000Y-93790000D01*
X174140000Y-97310000D02*
X186860000Y-97310000D01*
X174140000Y-95810000D02*
X175140000Y-95810000D01*
X174140000Y-95000000D02*
X174640000Y-95000000D01*
X174140000Y-93290000D02*
X174140000Y-97310000D01*
X173840000Y-97610000D02*
X176340000Y-97610000D01*
X173840000Y-95110000D02*
X173840000Y-97610000D01*
%TO.C,I2C_2*%
X140610000Y-97310000D02*
X140610000Y-93290000D01*
X140610000Y-95810000D02*
X139610000Y-95810000D01*
X140610000Y-93290000D02*
X127890000Y-93290000D01*
X140110000Y-95000000D02*
X140610000Y-95000000D01*
X140110000Y-93790000D02*
X140110000Y-95000000D01*
X139610000Y-95810000D02*
X139610000Y-97310000D01*
X128890000Y-95810000D02*
X128890000Y-97310000D01*
X128390000Y-95000000D02*
X128390000Y-93790000D01*
X128390000Y-93790000D02*
X140110000Y-93790000D01*
X127890000Y-97310000D02*
X140610000Y-97310000D01*
X127890000Y-95810000D02*
X128890000Y-95810000D01*
X127890000Y-95000000D02*
X128390000Y-95000000D01*
X127890000Y-93290000D02*
X127890000Y-97310000D01*
X127590000Y-97610000D02*
X130090000Y-97610000D01*
X127590000Y-95110000D02*
X127590000Y-97610000D01*
%TO.C,I2C_4*%
X171610000Y-97310000D02*
X171610000Y-93290000D01*
X171610000Y-95810000D02*
X170610000Y-95810000D01*
X171610000Y-93290000D02*
X158890000Y-93290000D01*
X171110000Y-95000000D02*
X171610000Y-95000000D01*
X171110000Y-93790000D02*
X171110000Y-95000000D01*
X170610000Y-95810000D02*
X170610000Y-97310000D01*
X159890000Y-95810000D02*
X159890000Y-97310000D01*
X159390000Y-95000000D02*
X159390000Y-93790000D01*
X159390000Y-93790000D02*
X171110000Y-93790000D01*
X158890000Y-97310000D02*
X171610000Y-97310000D01*
X158890000Y-95810000D02*
X159890000Y-95810000D01*
X158890000Y-95000000D02*
X159390000Y-95000000D01*
X158890000Y-93290000D02*
X158890000Y-97310000D01*
X158590000Y-97610000D02*
X161090000Y-97610000D01*
X158590000Y-95110000D02*
X158590000Y-97610000D01*
%TO.C,D2*%
X187410000Y-48000000D02*
X186390000Y-48000000D01*
X186390000Y-49470000D02*
X186390000Y-46530000D01*
X186390000Y-46530000D02*
X180950000Y-46530000D01*
X181970000Y-46530000D02*
X181970000Y-49470000D01*
X181850000Y-46530000D02*
X181850000Y-49470000D01*
X181730000Y-46530000D02*
X181730000Y-49470000D01*
X180950000Y-49470000D02*
X186390000Y-49470000D01*
X180950000Y-46530000D02*
X180950000Y-49470000D01*
X179930000Y-48000000D02*
X180950000Y-48000000D01*
%TO.C,D1*%
X187410000Y-42250000D02*
X186390000Y-42250000D01*
X186390000Y-43720000D02*
X186390000Y-40780000D01*
X186390000Y-40780000D02*
X180950000Y-40780000D01*
X181970000Y-40780000D02*
X181970000Y-43720000D01*
X181850000Y-40780000D02*
X181850000Y-43720000D01*
X181730000Y-40780000D02*
X181730000Y-43720000D01*
X180950000Y-43720000D02*
X186390000Y-43720000D01*
X180950000Y-40780000D02*
X180950000Y-43720000D01*
X179930000Y-42250000D02*
X180950000Y-42250000D01*
%TO.C,I2C_3*%
X156210000Y-97310000D02*
X156210000Y-93290000D01*
X156210000Y-95810000D02*
X155210000Y-95810000D01*
X156210000Y-93290000D02*
X143490000Y-93290000D01*
X155710000Y-95000000D02*
X156210000Y-95000000D01*
X155710000Y-93790000D02*
X155710000Y-95000000D01*
X155210000Y-95810000D02*
X155210000Y-97310000D01*
X144490000Y-95810000D02*
X144490000Y-97310000D01*
X143990000Y-95000000D02*
X143990000Y-93790000D01*
X143990000Y-93790000D02*
X155710000Y-93790000D01*
X143490000Y-97310000D02*
X156210000Y-97310000D01*
X143490000Y-95810000D02*
X144490000Y-95810000D01*
X143490000Y-95000000D02*
X143990000Y-95000000D01*
X143490000Y-93290000D02*
X143490000Y-97310000D01*
X143190000Y-97610000D02*
X145690000Y-97610000D01*
X143190000Y-95110000D02*
X143190000Y-97610000D01*
%TD*%
M02*
